M48
; DRILL file {KiCad 8.0.6} date 2025-03-17T21:14:57+0300
; FORMAT={-:-/ absolute / metric / decimal}
; #@! TF.CreationDate,2025-03-17T21:14:57+03:00
; #@! TF.GenerationSoftware,Kicad,Pcbnew,8.0.6
; #@! TF.FileFunction,Plated,1,4,PTH
FMAT,2
METRIC
; #@! TA.AperFunction,Plated,PTH,ViaDrill
T1C0.300
; #@! TA.AperFunction,Plated,PTH,ComponentDrill
T2C1.000
%
G90
G05
T1
X141.961Y-106.375
X141.961Y-134.315
X143.223Y-108.585
X143.223Y-110.285
X143.223Y-111.985
X144.501Y-106.375
X144.501Y-119.075
X144.501Y-121.615
X144.501Y-126.695
X144.501Y-131.775
X144.501Y-134.315
X144.913Y-108.585
X144.913Y-110.285
X144.913Y-111.985
X146.573Y-108.585
X146.573Y-110.285
X146.573Y-111.985
X146.964Y-128.676
X146.964Y-131.724
X147.041Y-106.375
X147.041Y-124.155
X147.041Y-126.695
X147.041Y-134.315
X147.244Y-118.669
X147.244Y-119.456
X147.98Y-118.669
X147.98Y-119.456
X149.581Y-106.375
X149.581Y-121.615
X149.581Y-134.315
X151.79Y-126.924
X151.79Y-133.477
X152.121Y-106.375
X152.171Y-121.615
X152.171Y-134.315
X153.873Y-123.419
X154.562Y-125.168
X154.661Y-106.375
X154.711Y-134.315
X155.118Y-128.27
X155.6Y-108.458
X155.6Y-109.258
X155.6Y-110.808
X155.6Y-111.608
X155.6Y-113.158
X155.6Y-113.958
X156.337Y-132.08
X156.4Y-108.458
X156.4Y-109.258
X156.4Y-110.808
X156.4Y-111.608
X156.4Y-113.158
X156.4Y-113.958
X157.201Y-106.375
X157.251Y-121.615
X157.251Y-134.315
X157.306Y-125.501
X157.95Y-108.458
X157.95Y-109.258
X157.95Y-110.808
X157.95Y-111.608
X157.95Y-113.158
X157.95Y-113.958
X158.75Y-108.458
X158.75Y-109.258
X158.75Y-110.808
X158.75Y-111.608
X158.75Y-113.158
X158.75Y-113.958
X159.741Y-106.375
X159.791Y-134.315
X159.944Y-127.61
X159.944Y-132.74
X160.3Y-108.458
X160.3Y-109.258
X160.3Y-110.808
X160.3Y-111.608
X160.3Y-113.158
X160.3Y-113.958
X161.1Y-108.458
X161.1Y-109.258
X161.1Y-110.808
X161.1Y-111.608
X161.1Y-113.158
X161.1Y-113.958
X161.696Y-129.311
X161.696Y-131.039
X162.281Y-106.375
X162.331Y-124.155
X162.331Y-125.501
X162.331Y-134.315
X162.509Y-119.736
X162.513Y-118.491
X164.821Y-106.375
X164.821Y-108.915
X164.821Y-111.455
X164.871Y-129.235
X164.871Y-131.775
X164.871Y-134.315
X166.069Y-118.339
X166.069Y-119.939
X167.361Y-111.455
X167.411Y-131.775
X167.411Y-134.315
X167.996Y-129.845
X168.402Y-124.663
X169.189Y-123.825
X169.901Y-111.455
X170.379Y-116.876
X170.79Y-124.663
X170.891Y-117.526
X172.441Y-111.455
X172.802Y-113.106
X173.939Y-130.023
X173.994Y-124.663
X174.041Y-119.126
X174.041Y-121.552
X177.571Y-106.375
X177.571Y-108.915
X177.571Y-111.455
X177.571Y-113.995
X177.571Y-126.695
X179.07Y-115.291
X179.07Y-117.831
X179.07Y-119.952
X179.07Y-121.677
X180.111Y-106.375
X180.111Y-108.915
X180.111Y-111.455
X180.111Y-113.995
X180.111Y-116.535
X180.111Y-119.075
X180.111Y-124.155
X180.111Y-129.235
X180.111Y-134.315
X182.651Y-106.375
X182.651Y-108.915
X182.651Y-111.455
X182.651Y-113.995
X182.651Y-116.535
X182.651Y-119.075
X182.651Y-121.615
X182.651Y-124.155
X182.651Y-126.695
X182.651Y-129.235
X182.651Y-131.775
X182.651Y-134.315
X185.191Y-106.375
X185.191Y-108.915
X185.191Y-111.455
X185.191Y-113.995
X185.191Y-116.535
X185.191Y-119.075
X185.191Y-121.615
X185.191Y-124.155
X185.191Y-126.695
X185.191Y-131.775
X185.191Y-134.315
X187.731Y-106.375
X187.731Y-108.915
X187.731Y-134.315
T2
X141.707Y-118.72
X141.707Y-121.26
X141.707Y-123.8
X141.707Y-126.34
X141.707Y-128.88
X141.707Y-131.42
X168.798Y-107.493
X171.338Y-107.493
X173.878Y-107.493
X188.544Y-111.455
X188.544Y-113.995
X188.544Y-116.535
X188.544Y-119.075
X188.544Y-121.615
X188.544Y-124.155
X188.544Y-126.695
X188.544Y-129.235
X188.544Y-131.775
M30
