%TF.GenerationSoftware,KiCad,Pcbnew,8.0.6*%
%TF.CreationDate,2025-03-17T21:12:52+03:00*%
%TF.ProjectId,ECU_SW_Control,4543555f-5357-45f4-936f-6e74726f6c2e,v1*%
%TF.SameCoordinates,Original*%
%TF.FileFunction,Copper,L4,Bot*%
%TF.FilePolarity,Positive*%
%FSLAX46Y46*%
G04 Gerber Fmt 4.6, Leading zero omitted, Abs format (unit mm)*
G04 Created by KiCad (PCBNEW 8.0.6) date 2025-03-17 21:12:52*
%MOMM*%
%LPD*%
G01*
G04 APERTURE LIST*
%TA.AperFunction,ComponentPad*%
%ADD10R,1.700000X1.700000*%
%TD*%
%TA.AperFunction,ComponentPad*%
%ADD11O,1.700000X1.700000*%
%TD*%
%TA.AperFunction,ViaPad*%
%ADD12C,0.600000*%
%TD*%
%TA.AperFunction,Conductor*%
%ADD13C,0.300000*%
%TD*%
G04 APERTURE END LIST*
D10*
%TO.P,J2,1,Pin_1*%
%TO.N,/MCU/I_MCLR*%
X188544200Y-111455200D03*
D11*
%TO.P,J2,2,Pin_2*%
%TO.N,/MCU/I_PROG_PGEC*%
X188544200Y-113995200D03*
%TO.P,J2,3,Pin_3*%
%TO.N,/MCU/I_PROG_PGED*%
X188544200Y-116535200D03*
%TO.P,J2,4,Pin_4*%
%TO.N,/MCU/IO_D_C_DEBUG*%
X188544200Y-119075200D03*
%TO.P,J2,5,Pin_5*%
%TO.N,/MCU/IO_C_SPI_CLK*%
X188544200Y-121615200D03*
%TO.P,J2,6,Pin_6*%
%TO.N,/MCU/I_C_SPI_MiSO*%
X188544200Y-124155200D03*
%TO.P,J2,7,Pin_7*%
%TO.N,/MCU/O_C_SPI_MOSI*%
X188544200Y-126695200D03*
%TO.P,J2,8,Pin_8*%
%TO.N,/CAN/5V*%
X188544200Y-129235200D03*
%TO.P,J2,9,Pin_9*%
%TO.N,GND*%
X188544200Y-131775200D03*
%TD*%
D10*
%TO.P,J3,1,Pin_1*%
%TO.N,/MCU/I_A_TEST*%
X168798000Y-107492800D03*
D11*
%TO.P,J3,2,Pin_2*%
%TO.N,/MCU/O_PWM_TEST*%
X171338000Y-107492800D03*
%TO.P,J3,3,Pin_3*%
%TO.N,/MCU/O_D_TEST*%
X173878000Y-107492800D03*
%TD*%
D10*
%TO.P,J1,1,Pin_1*%
%TO.N,/Connector/V_BAT*%
X141706600Y-118719600D03*
D11*
%TO.P,J1,2,Pin_2*%
%TO.N,GND*%
X141706600Y-121259600D03*
%TO.P,J1,3,Pin_3*%
%TO.N,/Connector/COMM1*%
X141706600Y-123799600D03*
%TO.P,J1,4,Pin_4*%
%TO.N,/Connector/COMM2*%
X141706600Y-126339600D03*
%TO.P,J1,5,Pin_5*%
%TO.N,/CAN/CAN-*%
X141706600Y-128879600D03*
%TO.P,J1,6,Pin_6*%
%TO.N,/CAN/CAN+*%
X141706600Y-131419600D03*
%TD*%
D12*
%TO.N,/LDO/V_BATPROT*%
X143223300Y-108585000D03*
X146573300Y-110285000D03*
X144913300Y-111985000D03*
X143223300Y-111985000D03*
X144913300Y-108585000D03*
X144913300Y-110285000D03*
X146573300Y-111985000D03*
X146573300Y-108585000D03*
X143223300Y-110285000D03*
%TO.N,GND*%
X182651400Y-113995200D03*
X157950400Y-108457600D03*
X147040600Y-134315200D03*
X167360600Y-111455200D03*
X179070000Y-121676600D03*
X187731400Y-134315200D03*
X147040600Y-106375200D03*
X185191400Y-113995200D03*
X170789600Y-124663200D03*
X158750400Y-109257600D03*
X182651400Y-129235200D03*
X169900600Y-111455200D03*
X182651400Y-121615200D03*
X158750400Y-108457600D03*
X161100400Y-111607600D03*
X173939200Y-130022600D03*
X151790400Y-126923800D03*
X164871400Y-134315200D03*
X158750400Y-113957600D03*
X152171400Y-134315200D03*
X154660600Y-106375200D03*
X160300400Y-109257600D03*
X159740600Y-106375200D03*
X182651400Y-108915200D03*
X162280600Y-106375200D03*
X158750400Y-110807600D03*
X161100400Y-113957600D03*
X164871400Y-131775200D03*
X158750400Y-111607600D03*
X180111400Y-116535200D03*
X177571400Y-113995200D03*
X182651400Y-124155200D03*
X157251400Y-134315200D03*
X180111400Y-113995200D03*
X180111400Y-134315200D03*
X160300400Y-111607600D03*
X164820600Y-106375200D03*
X144500600Y-119075200D03*
X172440600Y-111455200D03*
X157950400Y-113957600D03*
X156400400Y-109257600D03*
X157251400Y-121615200D03*
X157950400Y-111607600D03*
X157950400Y-110807600D03*
X155600400Y-113957600D03*
X164820600Y-108915200D03*
X182651400Y-126695200D03*
X141960600Y-134315200D03*
X185191400Y-116535200D03*
X160300400Y-108457600D03*
X160300400Y-113157600D03*
X166068800Y-119938800D03*
X152120600Y-106375200D03*
X156400400Y-111607600D03*
X177571400Y-108915200D03*
X182651400Y-119075200D03*
X185191400Y-111455200D03*
X182651400Y-116535200D03*
X149580600Y-134315200D03*
X158750400Y-113157600D03*
X155600400Y-109257600D03*
X187731400Y-106375200D03*
X149580600Y-121615200D03*
X152171400Y-121615200D03*
X185191400Y-108915200D03*
X182651400Y-134315200D03*
X177571400Y-106375200D03*
X155600400Y-108457600D03*
X156400400Y-113157600D03*
X147040600Y-124155200D03*
X144500600Y-134315200D03*
X177571400Y-126695200D03*
X144500600Y-106375200D03*
X164820600Y-111455200D03*
X185191400Y-134315200D03*
X161100400Y-110807600D03*
X182651400Y-131775200D03*
X160300400Y-113957600D03*
X141960600Y-106375200D03*
X180111400Y-119075200D03*
X144500600Y-131775200D03*
X147040600Y-126695200D03*
X161100400Y-108457600D03*
X180111400Y-111455200D03*
X157200600Y-106375200D03*
X185191400Y-126695200D03*
X156400400Y-110807600D03*
X164871400Y-129235200D03*
X161100400Y-113157600D03*
X149580600Y-106375200D03*
X185191400Y-121615200D03*
X156400400Y-113957600D03*
X159791400Y-134315200D03*
X180111400Y-108915200D03*
X162331400Y-124155200D03*
X160300400Y-110807600D03*
X167411400Y-134315200D03*
X180111400Y-106375200D03*
X182651400Y-111455200D03*
X161696400Y-131038600D03*
X185191400Y-124155200D03*
X187731400Y-108915200D03*
X162331400Y-134315200D03*
X177571400Y-111455200D03*
X144500600Y-121615200D03*
X161100400Y-109257600D03*
X155600400Y-110807600D03*
X144500600Y-126695200D03*
X167411400Y-131775200D03*
X155600400Y-111607600D03*
X180111400Y-129235200D03*
X155600400Y-113157600D03*
X156400400Y-108457600D03*
X182651400Y-106375200D03*
X154711400Y-134315200D03*
X180111400Y-124155200D03*
X185191400Y-119075200D03*
X185191400Y-131775200D03*
X157950400Y-113157600D03*
X157950400Y-109257600D03*
X185191400Y-106375200D03*
%TO.N,/CAN/5V*%
X157305800Y-125501400D03*
X167995600Y-129844800D03*
X147980400Y-118668800D03*
X162512800Y-118491000D03*
X147980400Y-119456200D03*
X161696400Y-129311400D03*
X147243800Y-119456200D03*
X147243800Y-118668800D03*
X179070000Y-119951600D03*
%TO.N,Net-(C4-Pad1)*%
X146964400Y-128676400D03*
X146964400Y-131724400D03*
%TO.N,Net-(IC1-~{MCLR})*%
X162331400Y-125501400D03*
X172802400Y-113106200D03*
%TO.N,Net-(IC1-RC5)*%
X174040800Y-121551603D03*
X179070000Y-117830600D03*
%TO.N,/CAN/TX*%
X159943800Y-132740400D03*
X153873200Y-123418600D03*
X168402000Y-124663200D03*
%TO.N,/Connector/COMM2*%
X170891200Y-117525800D03*
%TO.N,/Connector/COMM1*%
X170379051Y-116875800D03*
%TO.N,/MCU/O_D_TEST*%
X173993600Y-124663200D03*
%TO.N,/CAN/STBY*%
X156337000Y-132080000D03*
X162509200Y-119735600D03*
%TO.N,/CAN/RX*%
X154561792Y-125168408D03*
X159943800Y-127609600D03*
X169189400Y-123825000D03*
%TO.N,Net-(IC1-PGED2{slash}RB5)*%
X179070000Y-115290600D03*
X174040800Y-119126000D03*
%TO.N,/MCU/O_PWM_TEST*%
X166068800Y-118338600D03*
%TO.N,Net-(U2-SPLIT)*%
X151790400Y-133477000D03*
X155117800Y-128270000D03*
%TD*%
D13*
%TO.N,Net-(C4-Pad1)*%
X146964400Y-131724400D02*
X146964400Y-128676400D01*
%TO.N,Net-(IC1-~{MCLR})*%
X172802400Y-113106200D02*
X172802400Y-118027600D01*
X165328600Y-125501400D02*
X162331400Y-125501400D01*
X172802400Y-118027600D02*
X165328600Y-125501400D01*
%TO.N,Net-(IC1-RC5)*%
X179070000Y-117830600D02*
X177761803Y-117830600D01*
X177761803Y-117830600D02*
X174040800Y-121551603D01*
%TO.N,/CAN/TX*%
X156837000Y-128363600D02*
X156837000Y-128362855D01*
X159588200Y-131114800D02*
X156837000Y-128363600D01*
X159943800Y-132740400D02*
X159943800Y-131114800D01*
X153873200Y-125399800D02*
X153873200Y-123418600D01*
X154294600Y-125821200D02*
X153873200Y-125399800D01*
X168402000Y-126974600D02*
X168402000Y-124663200D01*
X159943800Y-131114800D02*
X159588200Y-131114800D01*
X154295345Y-125821200D02*
X154294600Y-125821200D01*
X162636200Y-132740400D02*
X168402000Y-126974600D01*
X159943800Y-132740400D02*
X162636200Y-132740400D01*
X156837000Y-128362855D02*
X154295345Y-125821200D01*
%TO.N,/Connector/COMM2*%
X170891200Y-117525800D02*
X152679400Y-117525800D01*
X143865600Y-126339600D02*
X141732000Y-126339600D01*
X152679400Y-117525800D02*
X143865600Y-126339600D01*
%TO.N,/Connector/COMM1*%
X161872961Y-116865400D02*
X152374600Y-116865400D01*
X170374451Y-116880400D02*
X161887961Y-116880400D01*
X152374600Y-116865400D02*
X145440400Y-123799600D01*
X161887961Y-116880400D02*
X161872961Y-116865400D01*
X170379051Y-116875800D02*
X170374451Y-116880400D01*
X145440400Y-123799600D02*
X141732000Y-123799600D01*
%TO.N,/MCU/O_D_TEST*%
X173390800Y-113437039D02*
X173878000Y-112949839D01*
X173878000Y-112949839D02*
X173878000Y-107492800D01*
X173390800Y-124060400D02*
X173390800Y-113437039D01*
X173993600Y-124663200D02*
X173390800Y-124060400D01*
%TO.N,/CAN/STBY*%
X154087493Y-126321200D02*
X153162000Y-125395707D01*
X156337000Y-132080000D02*
X156337000Y-128569961D01*
X156337000Y-128569961D02*
X154088239Y-126321200D01*
X153162000Y-125395707D02*
X153162000Y-122351800D01*
X155778200Y-119735600D02*
X162509200Y-119735600D01*
X154088239Y-126321200D02*
X154087493Y-126321200D01*
X153162000Y-122351800D02*
X155778200Y-119735600D01*
%TO.N,/CAN/RX*%
X157002984Y-127609600D02*
X159943800Y-127609600D01*
X168295561Y-123825000D02*
X169189400Y-123825000D01*
X164510961Y-127609600D02*
X168295561Y-123825000D01*
X159943800Y-127609600D02*
X164510961Y-127609600D01*
X154561792Y-125168408D02*
X157002984Y-127609600D01*
%TO.N,Net-(IC1-PGED2{slash}RB5)*%
X177876200Y-115290600D02*
X179070000Y-115290600D01*
X174040800Y-119126000D02*
X177876200Y-115290600D01*
%TO.N,/MCU/O_PWM_TEST*%
X166068800Y-118338600D02*
X171500800Y-118338600D01*
X171338000Y-111317800D02*
X171338000Y-107492800D01*
X171500800Y-118338600D02*
X171932600Y-117906800D01*
X171932600Y-111912400D02*
X171338000Y-111317800D01*
X171932600Y-117906800D02*
X171932600Y-111912400D01*
%TO.N,Net-(U2-SPLIT)*%
X155117800Y-128270000D02*
X155117800Y-130149600D01*
X155117800Y-130149600D02*
X151790400Y-133477000D01*
%TD*%
%TA.AperFunction,Conductor*%
%TO.N,GND*%
G36*
X167670834Y-125472187D02*
G01*
X167726767Y-125514059D01*
X167751184Y-125579523D01*
X167751500Y-125588369D01*
X167751500Y-126653792D01*
X167731815Y-126720831D01*
X167715181Y-126741473D01*
X162403073Y-132053581D01*
X162341750Y-132087066D01*
X162315392Y-132089900D01*
X160718300Y-132089900D01*
X160651261Y-132070215D01*
X160605506Y-132017411D01*
X160594300Y-131965900D01*
X160594300Y-131050728D01*
X160569302Y-130925061D01*
X160569301Y-130925060D01*
X160569301Y-130925056D01*
X160520265Y-130806673D01*
X160520264Y-130806672D01*
X160520261Y-130806666D01*
X160449076Y-130700131D01*
X160449073Y-130700127D01*
X160358472Y-130609526D01*
X160358468Y-130609523D01*
X160251933Y-130538338D01*
X160251924Y-130538333D01*
X160133544Y-130489299D01*
X160133538Y-130489297D01*
X160007871Y-130464300D01*
X160007869Y-130464300D01*
X159909008Y-130464300D01*
X159841969Y-130444615D01*
X159821327Y-130427981D01*
X158704742Y-129311396D01*
X160890835Y-129311396D01*
X160890835Y-129311403D01*
X160911030Y-129490649D01*
X160911031Y-129490654D01*
X160970611Y-129660923D01*
X161027211Y-129751001D01*
X161066584Y-129813662D01*
X161194138Y-129941216D01*
X161346878Y-130037189D01*
X161425629Y-130064745D01*
X161517145Y-130096768D01*
X161517150Y-130096769D01*
X161696396Y-130116965D01*
X161696400Y-130116965D01*
X161696404Y-130116965D01*
X161875649Y-130096769D01*
X161875652Y-130096768D01*
X161875655Y-130096768D01*
X162045922Y-130037189D01*
X162198662Y-129941216D01*
X162326216Y-129813662D01*
X162422189Y-129660922D01*
X162481768Y-129490655D01*
X162484027Y-129470608D01*
X162501965Y-129311403D01*
X162501965Y-129311396D01*
X162481769Y-129132150D01*
X162481768Y-129132145D01*
X162475773Y-129115013D01*
X162422189Y-128961878D01*
X162326216Y-128809138D01*
X162198662Y-128681584D01*
X162045923Y-128585611D01*
X161875654Y-128526031D01*
X161875649Y-128526030D01*
X161709584Y-128507320D01*
X161701036Y-128503728D01*
X161683216Y-128507320D01*
X161517150Y-128526030D01*
X161517145Y-128526031D01*
X161346876Y-128585611D01*
X161194137Y-128681584D01*
X161066584Y-128809137D01*
X160970611Y-128961876D01*
X160911031Y-129132145D01*
X160911030Y-129132150D01*
X160890835Y-129311396D01*
X158704742Y-129311396D01*
X157865127Y-128471781D01*
X157831642Y-128410458D01*
X157836626Y-128340766D01*
X157878498Y-128284833D01*
X157943962Y-128260416D01*
X157952808Y-128260100D01*
X159438732Y-128260100D01*
X159504704Y-128279106D01*
X159594277Y-128335389D01*
X159594281Y-128335390D01*
X159764537Y-128394966D01*
X159764543Y-128394967D01*
X159764545Y-128394968D01*
X159764546Y-128394968D01*
X159764550Y-128394969D01*
X159943796Y-128415165D01*
X159943800Y-128415165D01*
X159943804Y-128415165D01*
X160123049Y-128394969D01*
X160123051Y-128394968D01*
X160123055Y-128394968D01*
X160123058Y-128394966D01*
X160123062Y-128394966D01*
X160213177Y-128363432D01*
X160293322Y-128335389D01*
X160382896Y-128279105D01*
X160448868Y-128260100D01*
X161669333Y-128260100D01*
X161692231Y-128266823D01*
X161702073Y-128261960D01*
X161723467Y-128260100D01*
X164575032Y-128260100D01*
X164659576Y-128243282D01*
X164700705Y-128235101D01*
X164819088Y-128186065D01*
X164832493Y-128177108D01*
X164841450Y-128171124D01*
X164897442Y-128133710D01*
X164925630Y-128114877D01*
X167539819Y-125500688D01*
X167601142Y-125467203D01*
X167670834Y-125472187D01*
G37*
%TD.AperFunction*%
%TA.AperFunction,Conductor*%
G36*
X165209805Y-118195985D02*
G01*
X165255560Y-118248789D01*
X165265986Y-118314185D01*
X165263235Y-118338598D01*
X165263235Y-118338603D01*
X165283430Y-118517849D01*
X165283431Y-118517854D01*
X165343011Y-118688123D01*
X165438308Y-118839786D01*
X165438984Y-118840862D01*
X165566538Y-118968416D01*
X165606080Y-118993262D01*
X165716271Y-119062500D01*
X165719278Y-119064389D01*
X165840133Y-119106678D01*
X165889545Y-119123968D01*
X165889550Y-119123969D01*
X166068796Y-119144165D01*
X166068800Y-119144165D01*
X166068804Y-119144165D01*
X166248049Y-119123969D01*
X166248051Y-119123968D01*
X166248055Y-119123968D01*
X166248058Y-119123966D01*
X166248062Y-119123966D01*
X166359133Y-119085100D01*
X166418322Y-119064389D01*
X166507896Y-119008105D01*
X166573868Y-118989100D01*
X170621592Y-118989100D01*
X170688631Y-119008785D01*
X170734386Y-119061589D01*
X170744330Y-119130747D01*
X170715305Y-119194303D01*
X170709273Y-119200781D01*
X165095473Y-124814581D01*
X165034150Y-124848066D01*
X165007792Y-124850900D01*
X162836468Y-124850900D01*
X162770496Y-124831894D01*
X162680922Y-124775610D01*
X162680918Y-124775609D01*
X162510662Y-124716033D01*
X162510649Y-124716030D01*
X162331404Y-124695835D01*
X162331396Y-124695835D01*
X162152150Y-124716030D01*
X162152145Y-124716031D01*
X161981876Y-124775611D01*
X161829137Y-124871584D01*
X161701584Y-124999137D01*
X161605611Y-125151876D01*
X161546031Y-125322145D01*
X161546030Y-125322150D01*
X161525835Y-125501396D01*
X161525835Y-125501403D01*
X161546030Y-125680649D01*
X161546031Y-125680654D01*
X161605611Y-125850923D01*
X161621333Y-125875944D01*
X161701584Y-126003662D01*
X161829138Y-126131216D01*
X161892304Y-126170906D01*
X161977421Y-126224389D01*
X161981878Y-126227189D01*
X162152139Y-126286766D01*
X162152145Y-126286768D01*
X162152150Y-126286769D01*
X162331396Y-126306965D01*
X162331400Y-126306965D01*
X162331404Y-126306965D01*
X162510649Y-126286769D01*
X162510651Y-126286768D01*
X162510655Y-126286768D01*
X162510658Y-126286766D01*
X162510662Y-126286766D01*
X162600777Y-126255232D01*
X162680922Y-126227189D01*
X162770496Y-126170905D01*
X162836468Y-126151900D01*
X164749353Y-126151900D01*
X164816392Y-126171585D01*
X164862147Y-126224389D01*
X164872091Y-126293547D01*
X164843066Y-126357103D01*
X164837034Y-126363581D01*
X164277834Y-126922781D01*
X164216511Y-126956266D01*
X164190153Y-126959100D01*
X160448868Y-126959100D01*
X160382896Y-126940094D01*
X160293322Y-126883810D01*
X160293318Y-126883809D01*
X160123062Y-126824233D01*
X160123049Y-126824230D01*
X159943804Y-126804035D01*
X159943796Y-126804035D01*
X159764550Y-126824230D01*
X159764537Y-126824233D01*
X159594281Y-126883809D01*
X159594277Y-126883810D01*
X159504704Y-126940094D01*
X159438732Y-126959100D01*
X157323792Y-126959100D01*
X157256753Y-126939415D01*
X157236111Y-126922781D01*
X155814726Y-125501396D01*
X156500235Y-125501396D01*
X156500235Y-125501403D01*
X156520430Y-125680649D01*
X156520431Y-125680654D01*
X156580011Y-125850923D01*
X156595733Y-125875944D01*
X156675984Y-126003662D01*
X156803538Y-126131216D01*
X156866704Y-126170906D01*
X156951821Y-126224389D01*
X156956278Y-126227189D01*
X157126539Y-126286766D01*
X157126545Y-126286768D01*
X157126550Y-126286769D01*
X157305796Y-126306965D01*
X157305800Y-126306965D01*
X157305804Y-126306965D01*
X157485049Y-126286769D01*
X157485052Y-126286768D01*
X157485055Y-126286768D01*
X157655322Y-126227189D01*
X157808062Y-126131216D01*
X157935616Y-126003662D01*
X158031589Y-125850922D01*
X158091168Y-125680655D01*
X158091169Y-125680649D01*
X158111365Y-125501403D01*
X158111365Y-125501396D01*
X158091169Y-125322150D01*
X158091168Y-125322145D01*
X158080975Y-125293015D01*
X158031589Y-125151878D01*
X157935616Y-124999138D01*
X157808062Y-124871584D01*
X157775144Y-124850900D01*
X157655323Y-124775611D01*
X157485054Y-124716031D01*
X157485049Y-124716030D01*
X157305804Y-124695835D01*
X157305796Y-124695835D01*
X157126550Y-124716030D01*
X157126545Y-124716031D01*
X156956276Y-124775611D01*
X156803537Y-124871584D01*
X156675984Y-124999137D01*
X156580011Y-125151876D01*
X156520431Y-125322145D01*
X156520430Y-125322150D01*
X156500235Y-125501396D01*
X155814726Y-125501396D01*
X155383514Y-125070184D01*
X155350029Y-125008861D01*
X155347974Y-124996381D01*
X155347160Y-124989153D01*
X155287581Y-124818886D01*
X155260389Y-124775611D01*
X155248374Y-124756488D01*
X155191608Y-124666146D01*
X155064054Y-124538592D01*
X154911315Y-124442619D01*
X154741046Y-124383039D01*
X154741042Y-124383038D01*
X154633816Y-124370957D01*
X154569402Y-124343890D01*
X154529847Y-124286295D01*
X154523700Y-124247737D01*
X154523700Y-123923667D01*
X154542707Y-123857694D01*
X154598988Y-123768124D01*
X154608972Y-123739592D01*
X154658568Y-123597855D01*
X154658569Y-123597849D01*
X154678765Y-123418603D01*
X154678765Y-123418596D01*
X154658569Y-123239350D01*
X154658568Y-123239345D01*
X154598988Y-123069076D01*
X154559782Y-123006680D01*
X154503016Y-122916338D01*
X154375462Y-122788784D01*
X154331405Y-122761101D01*
X154222723Y-122692811D01*
X154052089Y-122633104D01*
X153995313Y-122592382D01*
X153969566Y-122527429D01*
X153983022Y-122458868D01*
X154005360Y-122428385D01*
X156011327Y-120422419D01*
X156072650Y-120388934D01*
X156099008Y-120386100D01*
X162004132Y-120386100D01*
X162070104Y-120405106D01*
X162159677Y-120461389D01*
X162159681Y-120461390D01*
X162329937Y-120520966D01*
X162329943Y-120520967D01*
X162329945Y-120520968D01*
X162329946Y-120520968D01*
X162329950Y-120520969D01*
X162509196Y-120541165D01*
X162509200Y-120541165D01*
X162509204Y-120541165D01*
X162688449Y-120520969D01*
X162688452Y-120520968D01*
X162688455Y-120520968D01*
X162858722Y-120461389D01*
X163011462Y-120365416D01*
X163139016Y-120237862D01*
X163234989Y-120085122D01*
X163294568Y-119914855D01*
X163301674Y-119851788D01*
X163314765Y-119735603D01*
X163314765Y-119735596D01*
X163294569Y-119556350D01*
X163294568Y-119556345D01*
X163259524Y-119456196D01*
X163234989Y-119386078D01*
X163226538Y-119372629D01*
X163152567Y-119254904D01*
X163139016Y-119233338D01*
X163108459Y-119202781D01*
X163074974Y-119141458D01*
X163079958Y-119071766D01*
X163108459Y-119027419D01*
X163117556Y-119018322D01*
X163142616Y-118993262D01*
X163238589Y-118840522D01*
X163298168Y-118670255D01*
X163298332Y-118668800D01*
X163318365Y-118491003D01*
X163318365Y-118490997D01*
X163298443Y-118314184D01*
X163310497Y-118245362D01*
X163357847Y-118193982D01*
X163421663Y-118176300D01*
X165142766Y-118176300D01*
X165209805Y-118195985D01*
G37*
%TD.AperFunction*%
%TA.AperFunction,Conductor*%
G36*
X172692855Y-108159346D02*
G01*
X172709575Y-108178642D01*
X172839501Y-108364196D01*
X172839506Y-108364202D01*
X173006597Y-108531293D01*
X173006603Y-108531298D01*
X173174623Y-108648947D01*
X173218248Y-108703524D01*
X173227500Y-108750522D01*
X173227500Y-112232094D01*
X173207815Y-112299133D01*
X173155011Y-112344888D01*
X173085853Y-112354832D01*
X173062546Y-112349136D01*
X172981657Y-112320832D01*
X172981649Y-112320830D01*
X172802404Y-112300635D01*
X172802395Y-112300635D01*
X172720982Y-112309807D01*
X172652160Y-112297752D01*
X172600782Y-112250402D01*
X172583100Y-112186587D01*
X172583100Y-111848328D01*
X172558102Y-111722661D01*
X172558101Y-111722660D01*
X172558101Y-111722656D01*
X172509065Y-111604273D01*
X172509064Y-111604272D01*
X172509061Y-111604266D01*
X172444433Y-111507544D01*
X172444430Y-111507540D01*
X172444428Y-111507536D01*
X172437876Y-111497730D01*
X172437875Y-111497729D01*
X172437873Y-111497726D01*
X172024819Y-111084672D01*
X171991334Y-111023349D01*
X171988500Y-110996991D01*
X171988500Y-108750522D01*
X172008185Y-108683483D01*
X172041377Y-108648947D01*
X172092429Y-108613199D01*
X172209401Y-108531295D01*
X172376495Y-108364201D01*
X172506425Y-108178642D01*
X172561002Y-108135017D01*
X172630500Y-108127823D01*
X172692855Y-108159346D01*
G37*
%TD.AperFunction*%
%TA.AperFunction,Conductor*%
G36*
X189955809Y-105446453D02*
G01*
X190060991Y-105458298D01*
X190088057Y-105464475D01*
X190181374Y-105497123D01*
X190206393Y-105509171D01*
X190290104Y-105561768D01*
X190311815Y-105579082D01*
X190381717Y-105648984D01*
X190399031Y-105670695D01*
X190451628Y-105754406D01*
X190463676Y-105779427D01*
X190496323Y-105872740D01*
X190502501Y-105899813D01*
X190514348Y-106005015D01*
X190515127Y-106018897D01*
X190515124Y-106084285D01*
X190515304Y-106086997D01*
X190583681Y-135019309D01*
X190582901Y-135033485D01*
X190571066Y-135138530D01*
X190564887Y-135165602D01*
X190532234Y-135258918D01*
X190520187Y-135283935D01*
X190467583Y-135367653D01*
X190450270Y-135389362D01*
X190380362Y-135459270D01*
X190358653Y-135476583D01*
X190274935Y-135529187D01*
X190249922Y-135541232D01*
X190156598Y-135573888D01*
X190129529Y-135580066D01*
X190042519Y-135589869D01*
X190024315Y-135591920D01*
X190010434Y-135592700D01*
X189944255Y-135592700D01*
X189942932Y-135592786D01*
X140265463Y-135651149D01*
X140251434Y-135650369D01*
X140146668Y-135638565D01*
X140119595Y-135632386D01*
X140026275Y-135599731D01*
X140001257Y-135587683D01*
X139917537Y-135535076D01*
X139895829Y-135517763D01*
X139854650Y-135476583D01*
X139825918Y-135447850D01*
X139808611Y-135426148D01*
X139756007Y-135342424D01*
X139743960Y-135317406D01*
X139711308Y-135224082D01*
X139705130Y-135197010D01*
X139693285Y-135091848D01*
X139692506Y-135077861D01*
X139692551Y-135026413D01*
X139702370Y-123799599D01*
X140350941Y-123799599D01*
X140350941Y-123799600D01*
X140371536Y-124035003D01*
X140371538Y-124035013D01*
X140432694Y-124263255D01*
X140432696Y-124263259D01*
X140432697Y-124263263D01*
X140516332Y-124442619D01*
X140532565Y-124477430D01*
X140532567Y-124477434D01*
X140631598Y-124618864D01*
X140668101Y-124670996D01*
X140668106Y-124671002D01*
X140835197Y-124838093D01*
X140835203Y-124838098D01*
X141020758Y-124968025D01*
X141064383Y-125022602D01*
X141071577Y-125092100D01*
X141040054Y-125154455D01*
X141020758Y-125171175D01*
X140835197Y-125301105D01*
X140668105Y-125468197D01*
X140532565Y-125661769D01*
X140532564Y-125661771D01*
X140432698Y-125875935D01*
X140432694Y-125875944D01*
X140371538Y-126104186D01*
X140371536Y-126104196D01*
X140350941Y-126339599D01*
X140350941Y-126339600D01*
X140371536Y-126575003D01*
X140371538Y-126575013D01*
X140432694Y-126803255D01*
X140432696Y-126803259D01*
X140432697Y-126803263D01*
X140496186Y-126939415D01*
X140532565Y-127017430D01*
X140532567Y-127017434D01*
X140631598Y-127158864D01*
X140668101Y-127210996D01*
X140668106Y-127211002D01*
X140835197Y-127378093D01*
X140835203Y-127378098D01*
X141020758Y-127508025D01*
X141064383Y-127562602D01*
X141071577Y-127632100D01*
X141040054Y-127694455D01*
X141020758Y-127711175D01*
X140835197Y-127841105D01*
X140668105Y-128008197D01*
X140532565Y-128201769D01*
X140532564Y-128201771D01*
X140432698Y-128415935D01*
X140432694Y-128415944D01*
X140371538Y-128644186D01*
X140371536Y-128644196D01*
X140350941Y-128879599D01*
X140350941Y-128879600D01*
X140371536Y-129115003D01*
X140371538Y-129115013D01*
X140432694Y-129343255D01*
X140432696Y-129343259D01*
X140432697Y-129343263D01*
X140501427Y-129490654D01*
X140532565Y-129557430D01*
X140532567Y-129557434D01*
X140668101Y-129750995D01*
X140668106Y-129751002D01*
X140835197Y-129918093D01*
X140835203Y-129918098D01*
X141020758Y-130048025D01*
X141064383Y-130102602D01*
X141071577Y-130172100D01*
X141040054Y-130234455D01*
X141020758Y-130251175D01*
X140835197Y-130381105D01*
X140668105Y-130548197D01*
X140532565Y-130741769D01*
X140532564Y-130741771D01*
X140432698Y-130955935D01*
X140432694Y-130955944D01*
X140371538Y-131184186D01*
X140371536Y-131184196D01*
X140350941Y-131419599D01*
X140350941Y-131419600D01*
X140371536Y-131655003D01*
X140371538Y-131655013D01*
X140432694Y-131883255D01*
X140432696Y-131883259D01*
X140432697Y-131883263D01*
X140524435Y-132079996D01*
X140532565Y-132097430D01*
X140532567Y-132097434D01*
X140623054Y-132226662D01*
X140668105Y-132291001D01*
X140835199Y-132458095D01*
X140908996Y-132509768D01*
X141028765Y-132593632D01*
X141028767Y-132593633D01*
X141028770Y-132593635D01*
X141242937Y-132693503D01*
X141471192Y-132754663D01*
X141659518Y-132771139D01*
X141706599Y-132775259D01*
X141706600Y-132775259D01*
X141706601Y-132775259D01*
X141745834Y-132771826D01*
X141942008Y-132754663D01*
X142170263Y-132693503D01*
X142384430Y-132593635D01*
X142578001Y-132458095D01*
X142745095Y-132291001D01*
X142880635Y-132097430D01*
X142980503Y-131883263D01*
X143041663Y-131655008D01*
X143062259Y-131419600D01*
X143041663Y-131184192D01*
X142980503Y-130955937D01*
X142880635Y-130741771D01*
X142851479Y-130700131D01*
X142745094Y-130548197D01*
X142578002Y-130381106D01*
X142577996Y-130381101D01*
X142392442Y-130251175D01*
X142348817Y-130196598D01*
X142341623Y-130127100D01*
X142373146Y-130064745D01*
X142392442Y-130048025D01*
X142426683Y-130024049D01*
X142578001Y-129918095D01*
X142745095Y-129751001D01*
X142880635Y-129557430D01*
X142980503Y-129343263D01*
X143041663Y-129115008D01*
X143062259Y-128879600D01*
X143044481Y-128676396D01*
X146158835Y-128676396D01*
X146158835Y-128676403D01*
X146179030Y-128855649D01*
X146179031Y-128855654D01*
X146238611Y-129025924D01*
X146294893Y-129115494D01*
X146313900Y-129181467D01*
X146313900Y-131219331D01*
X146294894Y-131285303D01*
X146238611Y-131374877D01*
X146238609Y-131374881D01*
X146179033Y-131545137D01*
X146179030Y-131545150D01*
X146158835Y-131724396D01*
X146158835Y-131724403D01*
X146179030Y-131903649D01*
X146179031Y-131903654D01*
X146238611Y-132073923D01*
X146334584Y-132226662D01*
X146462138Y-132354216D01*
X146520484Y-132390877D01*
X146581986Y-132429522D01*
X146614878Y-132450189D01*
X146637481Y-132458098D01*
X146785145Y-132509768D01*
X146785150Y-132509769D01*
X146964396Y-132529965D01*
X146964400Y-132529965D01*
X146964404Y-132529965D01*
X147143649Y-132509769D01*
X147143652Y-132509768D01*
X147143655Y-132509768D01*
X147313922Y-132450189D01*
X147466662Y-132354216D01*
X147594216Y-132226662D01*
X147690189Y-132073922D01*
X147749768Y-131903655D01*
X147749769Y-131903649D01*
X147769965Y-131724403D01*
X147769965Y-131724396D01*
X147749769Y-131545150D01*
X147749766Y-131545137D01*
X147690190Y-131374881D01*
X147690189Y-131374878D01*
X147668408Y-131340214D01*
X147633906Y-131285303D01*
X147614900Y-131219331D01*
X147614900Y-129181467D01*
X147633907Y-129115494D01*
X147690188Y-129025924D01*
X147712599Y-128961878D01*
X147749768Y-128855655D01*
X147755009Y-128809138D01*
X147769965Y-128676403D01*
X147769965Y-128676396D01*
X147749769Y-128497150D01*
X147749768Y-128497145D01*
X147740893Y-128471781D01*
X147690189Y-128326878D01*
X147594216Y-128174138D01*
X147466662Y-128046584D01*
X147372949Y-127987700D01*
X147313923Y-127950611D01*
X147143654Y-127891031D01*
X147143649Y-127891030D01*
X146964404Y-127870835D01*
X146964396Y-127870835D01*
X146785150Y-127891030D01*
X146785145Y-127891031D01*
X146614876Y-127950611D01*
X146462137Y-128046584D01*
X146334584Y-128174137D01*
X146238611Y-128326876D01*
X146179031Y-128497145D01*
X146179030Y-128497150D01*
X146158835Y-128676396D01*
X143044481Y-128676396D01*
X143041663Y-128644192D01*
X142980503Y-128415937D01*
X142880635Y-128201771D01*
X142877089Y-128196706D01*
X142745094Y-128008197D01*
X142578002Y-127841106D01*
X142577996Y-127841101D01*
X142392442Y-127711175D01*
X142348817Y-127656598D01*
X142341623Y-127587100D01*
X142373146Y-127524745D01*
X142392442Y-127508025D01*
X142414626Y-127492491D01*
X142578001Y-127378095D01*
X142745095Y-127211001D01*
X142862747Y-127042977D01*
X142917324Y-126999352D01*
X142964322Y-126990100D01*
X143929671Y-126990100D01*
X144014215Y-126973282D01*
X144055344Y-126965101D01*
X144173727Y-126916065D01*
X144221999Y-126883811D01*
X144280269Y-126844877D01*
X152912527Y-118212619D01*
X152973850Y-118179134D01*
X153000208Y-118176300D01*
X161603937Y-118176300D01*
X161670976Y-118195985D01*
X161716731Y-118248789D01*
X161727157Y-118314184D01*
X161707235Y-118490997D01*
X161707235Y-118491003D01*
X161727430Y-118670249D01*
X161727431Y-118670254D01*
X161787011Y-118840523D01*
X161821322Y-118895128D01*
X161840322Y-118962365D01*
X161819954Y-119029200D01*
X161766686Y-119074414D01*
X161716328Y-119085100D01*
X155714129Y-119085100D01*
X155588461Y-119110097D01*
X155588455Y-119110099D01*
X155550068Y-119126000D01*
X155550067Y-119126000D01*
X155470081Y-119159130D01*
X155470063Y-119159140D01*
X155363532Y-119230321D01*
X155363525Y-119230327D01*
X152656726Y-121937126D01*
X152585534Y-122043674D01*
X152536499Y-122162055D01*
X152536497Y-122162061D01*
X152511500Y-122287728D01*
X152511500Y-125459778D01*
X152513971Y-125472198D01*
X152531926Y-125562461D01*
X152535320Y-125579523D01*
X152536499Y-125585451D01*
X152585534Y-125703832D01*
X152656726Y-125810380D01*
X152656727Y-125810381D01*
X153673321Y-126826974D01*
X153681292Y-126834199D01*
X154467008Y-127619915D01*
X154500493Y-127681238D01*
X154495509Y-127750930D01*
X154484321Y-127773568D01*
X154392011Y-127920476D01*
X154332431Y-128090745D01*
X154332430Y-128090750D01*
X154312235Y-128269996D01*
X154312235Y-128270003D01*
X154332430Y-128449249D01*
X154332431Y-128449254D01*
X154392011Y-128619524D01*
X154448293Y-128709094D01*
X154467300Y-128775067D01*
X154467300Y-129828791D01*
X154447615Y-129895830D01*
X154430981Y-129916472D01*
X151692175Y-132655277D01*
X151630852Y-132688762D01*
X151618388Y-132690815D01*
X151611152Y-132691630D01*
X151611144Y-132691632D01*
X151440878Y-132751210D01*
X151288137Y-132847184D01*
X151160584Y-132974737D01*
X151064611Y-133127476D01*
X151005031Y-133297745D01*
X151005030Y-133297750D01*
X150984835Y-133476996D01*
X150984835Y-133477003D01*
X151005030Y-133656249D01*
X151005031Y-133656254D01*
X151064611Y-133826523D01*
X151160584Y-133979262D01*
X151288138Y-134106816D01*
X151440878Y-134202789D01*
X151611145Y-134262368D01*
X151611150Y-134262369D01*
X151790396Y-134282565D01*
X151790400Y-134282565D01*
X151790404Y-134282565D01*
X151969649Y-134262369D01*
X151969652Y-134262368D01*
X151969655Y-134262368D01*
X152139922Y-134202789D01*
X152292662Y-134106816D01*
X152420216Y-133979262D01*
X152516189Y-133826522D01*
X152575768Y-133656255D01*
X152576582Y-133649025D01*
X152603645Y-133584611D01*
X152612112Y-133575232D01*
X155474819Y-130712526D01*
X155536142Y-130679041D01*
X155605834Y-130684025D01*
X155661767Y-130725897D01*
X155686184Y-130791361D01*
X155686500Y-130800207D01*
X155686500Y-131574931D01*
X155667494Y-131640903D01*
X155611211Y-131730477D01*
X155611209Y-131730481D01*
X155551633Y-131900737D01*
X155551630Y-131900750D01*
X155531435Y-132079996D01*
X155531435Y-132080003D01*
X155551630Y-132259249D01*
X155551631Y-132259254D01*
X155611211Y-132429523D01*
X155693910Y-132561137D01*
X155707184Y-132582262D01*
X155834738Y-132709816D01*
X155987478Y-132805789D01*
X156105778Y-132847184D01*
X156157745Y-132865368D01*
X156157750Y-132865369D01*
X156336996Y-132885565D01*
X156337000Y-132885565D01*
X156337004Y-132885565D01*
X156516249Y-132865369D01*
X156516252Y-132865368D01*
X156516255Y-132865368D01*
X156686522Y-132805789D01*
X156839262Y-132709816D01*
X156966816Y-132582262D01*
X157062789Y-132429522D01*
X157122368Y-132259255D01*
X157125064Y-132235331D01*
X157142565Y-132080003D01*
X157142565Y-132079996D01*
X157122369Y-131900750D01*
X157122366Y-131900737D01*
X157062790Y-131730481D01*
X157062789Y-131730478D01*
X157038150Y-131691265D01*
X157006506Y-131640903D01*
X156987500Y-131574931D01*
X156987500Y-129733408D01*
X157007185Y-129666369D01*
X157059989Y-129620614D01*
X157129147Y-129610670D01*
X157192703Y-129639695D01*
X157199181Y-129645727D01*
X159173524Y-131620071D01*
X159173527Y-131620074D01*
X159225805Y-131655005D01*
X159225817Y-131655013D01*
X159238186Y-131663277D01*
X159282993Y-131716885D01*
X159293300Y-131766382D01*
X159293300Y-132235331D01*
X159274294Y-132301303D01*
X159218011Y-132390877D01*
X159218009Y-132390881D01*
X159158433Y-132561137D01*
X159158430Y-132561150D01*
X159138235Y-132740396D01*
X159138235Y-132740403D01*
X159158430Y-132919649D01*
X159158431Y-132919654D01*
X159218011Y-133089923D01*
X159241609Y-133127478D01*
X159313984Y-133242662D01*
X159441538Y-133370216D01*
X159594278Y-133466189D01*
X159625183Y-133477003D01*
X159764545Y-133525768D01*
X159764550Y-133525769D01*
X159943796Y-133545965D01*
X159943800Y-133545965D01*
X159943804Y-133545965D01*
X160123049Y-133525769D01*
X160123051Y-133525768D01*
X160123055Y-133525768D01*
X160123058Y-133525766D01*
X160123062Y-133525766D01*
X160262417Y-133477003D01*
X160293322Y-133466189D01*
X160382896Y-133409905D01*
X160448868Y-133390900D01*
X162700271Y-133390900D01*
X162784815Y-133374082D01*
X162825944Y-133365901D01*
X162944327Y-133316865D01*
X163050869Y-133245677D01*
X166451750Y-129844796D01*
X167190035Y-129844796D01*
X167190035Y-129844803D01*
X167210230Y-130024049D01*
X167210231Y-130024054D01*
X167269811Y-130194323D01*
X167295028Y-130234455D01*
X167365784Y-130347062D01*
X167493338Y-130474616D01*
X167516703Y-130489297D01*
X167636019Y-130564269D01*
X167646078Y-130570589D01*
X167757345Y-130609523D01*
X167816345Y-130630168D01*
X167816350Y-130630169D01*
X167995596Y-130650365D01*
X167995600Y-130650365D01*
X167995604Y-130650365D01*
X168174849Y-130630169D01*
X168174852Y-130630168D01*
X168174855Y-130630168D01*
X168345122Y-130570589D01*
X168497862Y-130474616D01*
X168625416Y-130347062D01*
X168721389Y-130194322D01*
X168780968Y-130024055D01*
X168790302Y-129941215D01*
X168801165Y-129844803D01*
X168801165Y-129844796D01*
X168780969Y-129665550D01*
X168780968Y-129665545D01*
X168721388Y-129495276D01*
X168625872Y-129343264D01*
X168625416Y-129342538D01*
X168497862Y-129214984D01*
X168366025Y-129132145D01*
X168345123Y-129119011D01*
X168174854Y-129059431D01*
X168174849Y-129059430D01*
X167995604Y-129039235D01*
X167995596Y-129039235D01*
X167816350Y-129059430D01*
X167816345Y-129059431D01*
X167646076Y-129119011D01*
X167493337Y-129214984D01*
X167365784Y-129342537D01*
X167269811Y-129495276D01*
X167210231Y-129665545D01*
X167210230Y-129665550D01*
X167190035Y-129844796D01*
X166451750Y-129844796D01*
X168907277Y-127389269D01*
X168978466Y-127282726D01*
X169027501Y-127164343D01*
X169038841Y-127107338D01*
X169052500Y-127038669D01*
X169052500Y-125168267D01*
X169071507Y-125102294D01*
X169127788Y-125012724D01*
X169132542Y-124999138D01*
X169187368Y-124842455D01*
X169187860Y-124838095D01*
X169200451Y-124726337D01*
X169227517Y-124661923D01*
X169285111Y-124622368D01*
X169309776Y-124617001D01*
X169368655Y-124610368D01*
X169538922Y-124550789D01*
X169691662Y-124454816D01*
X169819216Y-124327262D01*
X169915189Y-124174522D01*
X169974768Y-124004255D01*
X169974769Y-124004249D01*
X169994965Y-123825003D01*
X169994965Y-123824996D01*
X169974769Y-123645750D01*
X169974768Y-123645745D01*
X169915189Y-123475478D01*
X169819216Y-123322738D01*
X169691662Y-123195184D01*
X169613810Y-123146266D01*
X169538923Y-123099211D01*
X169368654Y-123039631D01*
X169368649Y-123039630D01*
X169189404Y-123019435D01*
X169189396Y-123019435D01*
X169024383Y-123038027D01*
X168955561Y-123025972D01*
X168904182Y-122978623D01*
X168886558Y-122911013D01*
X168908285Y-122844607D01*
X168922814Y-122827131D01*
X172528619Y-119221327D01*
X172589942Y-119187842D01*
X172659634Y-119192826D01*
X172715567Y-119234698D01*
X172739984Y-119300162D01*
X172740300Y-119309008D01*
X172740300Y-124124469D01*
X172740300Y-124124471D01*
X172740299Y-124124471D01*
X172763214Y-124239665D01*
X172765299Y-124250144D01*
X172765299Y-124250145D01*
X172814333Y-124368525D01*
X172829092Y-124390613D01*
X172881992Y-124469785D01*
X172885526Y-124475073D01*
X172885527Y-124475074D01*
X173171877Y-124761423D01*
X173205362Y-124822746D01*
X173207415Y-124835212D01*
X173208230Y-124842446D01*
X173208232Y-124842455D01*
X173267810Y-125012721D01*
X173324093Y-125102294D01*
X173363784Y-125165462D01*
X173491338Y-125293016D01*
X173540052Y-125323625D01*
X173626910Y-125378202D01*
X173644078Y-125388989D01*
X173683262Y-125402700D01*
X173814345Y-125448568D01*
X173814350Y-125448569D01*
X173993596Y-125468765D01*
X173993600Y-125468765D01*
X173993604Y-125468765D01*
X174172849Y-125448569D01*
X174172852Y-125448568D01*
X174172855Y-125448568D01*
X174343122Y-125388989D01*
X174495862Y-125293016D01*
X174623416Y-125165462D01*
X174719389Y-125012722D01*
X174778968Y-124842455D01*
X174779459Y-124838098D01*
X174799165Y-124663203D01*
X174799165Y-124663196D01*
X174778969Y-124483950D01*
X174778968Y-124483945D01*
X174774013Y-124469785D01*
X174719389Y-124313678D01*
X174623416Y-124160938D01*
X174495862Y-124033384D01*
X174449494Y-124004249D01*
X174343121Y-123937410D01*
X174172855Y-123877832D01*
X174172846Y-123877830D01*
X174165612Y-123877015D01*
X174101200Y-123849944D01*
X174091823Y-123841477D01*
X174077619Y-123827273D01*
X174044134Y-123765950D01*
X174041300Y-123739592D01*
X174041300Y-122467924D01*
X174060985Y-122400885D01*
X174113789Y-122355130D01*
X174151412Y-122344704D01*
X174220055Y-122336971D01*
X174390322Y-122277392D01*
X174543062Y-122181419D01*
X174670616Y-122053865D01*
X174766589Y-121901125D01*
X174826168Y-121730858D01*
X174826982Y-121723628D01*
X174854045Y-121659214D01*
X174862512Y-121649835D01*
X176560752Y-119951596D01*
X178264435Y-119951596D01*
X178264435Y-119951603D01*
X178284630Y-120130849D01*
X178284631Y-120130854D01*
X178344211Y-120301123D01*
X178418577Y-120419475D01*
X178440184Y-120453862D01*
X178567738Y-120581416D01*
X178720478Y-120677389D01*
X178890745Y-120736968D01*
X178890750Y-120736969D01*
X179069996Y-120757165D01*
X179070000Y-120757165D01*
X179070004Y-120757165D01*
X179249249Y-120736969D01*
X179249252Y-120736968D01*
X179249255Y-120736968D01*
X179419522Y-120677389D01*
X179572262Y-120581416D01*
X179699816Y-120453862D01*
X179795789Y-120301122D01*
X179855368Y-120130855D01*
X179857301Y-120113698D01*
X179875565Y-119951603D01*
X179875565Y-119951596D01*
X179855369Y-119772350D01*
X179855368Y-119772345D01*
X179801176Y-119617473D01*
X179795789Y-119602078D01*
X179699816Y-119449338D01*
X179572262Y-119321784D01*
X179419523Y-119225811D01*
X179249254Y-119166231D01*
X179249249Y-119166230D01*
X179070004Y-119146035D01*
X179069996Y-119146035D01*
X178890750Y-119166230D01*
X178890745Y-119166231D01*
X178720476Y-119225811D01*
X178567737Y-119321784D01*
X178440184Y-119449337D01*
X178344211Y-119602076D01*
X178284631Y-119772345D01*
X178284630Y-119772350D01*
X178264435Y-119951596D01*
X176560752Y-119951596D01*
X177994930Y-118517419D01*
X178056253Y-118483934D01*
X178082611Y-118481100D01*
X178564932Y-118481100D01*
X178630904Y-118500106D01*
X178720477Y-118556389D01*
X178720481Y-118556390D01*
X178890737Y-118615966D01*
X178890743Y-118615967D01*
X178890745Y-118615968D01*
X178890746Y-118615968D01*
X178890750Y-118615969D01*
X179069996Y-118636165D01*
X179070000Y-118636165D01*
X179070004Y-118636165D01*
X179249249Y-118615969D01*
X179249252Y-118615968D01*
X179249255Y-118615968D01*
X179419522Y-118556389D01*
X179572262Y-118460416D01*
X179699816Y-118332862D01*
X179795789Y-118180122D01*
X179855368Y-118009855D01*
X179857169Y-117993872D01*
X179875565Y-117830603D01*
X179875565Y-117830596D01*
X179855369Y-117651350D01*
X179855368Y-117651345D01*
X179795788Y-117481076D01*
X179748988Y-117406595D01*
X179699816Y-117328338D01*
X179572262Y-117200784D01*
X179509096Y-117161094D01*
X179419523Y-117104811D01*
X179249254Y-117045231D01*
X179249249Y-117045230D01*
X179070004Y-117025035D01*
X179069996Y-117025035D01*
X178890750Y-117045230D01*
X178890737Y-117045233D01*
X178720481Y-117104809D01*
X178720477Y-117104810D01*
X178630904Y-117161094D01*
X178564932Y-117180100D01*
X177697732Y-117180100D01*
X177572064Y-117205097D01*
X177572058Y-117205099D01*
X177453677Y-117254134D01*
X177347129Y-117325326D01*
X177347128Y-117325327D01*
X174252981Y-120419475D01*
X174191658Y-120452960D01*
X174121966Y-120447976D01*
X174066033Y-120406104D01*
X174041616Y-120340640D01*
X174041300Y-120331794D01*
X174041300Y-120042321D01*
X174060985Y-119975282D01*
X174113789Y-119929527D01*
X174151412Y-119919101D01*
X174220055Y-119911368D01*
X174390322Y-119851789D01*
X174543062Y-119755816D01*
X174670616Y-119628262D01*
X174766589Y-119475522D01*
X174826168Y-119305255D01*
X174826982Y-119298025D01*
X174854045Y-119233611D01*
X174862512Y-119224232D01*
X178109327Y-115977419D01*
X178170650Y-115943934D01*
X178197008Y-115941100D01*
X178564932Y-115941100D01*
X178630904Y-115960106D01*
X178720477Y-116016389D01*
X178720481Y-116016390D01*
X178890737Y-116075966D01*
X178890743Y-116075967D01*
X178890745Y-116075968D01*
X178890746Y-116075968D01*
X178890750Y-116075969D01*
X179069996Y-116096165D01*
X179070000Y-116096165D01*
X179070004Y-116096165D01*
X179249249Y-116075969D01*
X179249252Y-116075968D01*
X179249255Y-116075968D01*
X179419522Y-116016389D01*
X179572262Y-115920416D01*
X179699816Y-115792862D01*
X179795789Y-115640122D01*
X179855368Y-115469855D01*
X179855369Y-115469849D01*
X179875565Y-115290603D01*
X179875565Y-115290596D01*
X179855369Y-115111350D01*
X179855368Y-115111345D01*
X179795788Y-114941076D01*
X179699815Y-114788337D01*
X179572262Y-114660784D01*
X179419523Y-114564811D01*
X179249254Y-114505231D01*
X179249249Y-114505230D01*
X179070004Y-114485035D01*
X179069996Y-114485035D01*
X178890750Y-114505230D01*
X178890737Y-114505233D01*
X178720481Y-114564809D01*
X178720477Y-114564810D01*
X178630904Y-114621094D01*
X178564932Y-114640100D01*
X177812129Y-114640100D01*
X177686461Y-114665097D01*
X177686455Y-114665099D01*
X177568074Y-114714134D01*
X177461526Y-114785326D01*
X177461525Y-114785327D01*
X174252981Y-117993872D01*
X174191658Y-118027357D01*
X174121966Y-118022373D01*
X174066033Y-117980501D01*
X174041616Y-117915037D01*
X174041300Y-117906191D01*
X174041300Y-113995199D01*
X187188541Y-113995199D01*
X187188541Y-113995200D01*
X187209136Y-114230603D01*
X187209138Y-114230613D01*
X187270294Y-114458855D01*
X187270296Y-114458859D01*
X187270297Y-114458863D01*
X187364455Y-114660784D01*
X187370165Y-114673030D01*
X187370167Y-114673034D01*
X187505701Y-114866595D01*
X187505706Y-114866602D01*
X187672797Y-115033693D01*
X187672803Y-115033698D01*
X187858358Y-115163625D01*
X187901983Y-115218202D01*
X187909177Y-115287700D01*
X187877654Y-115350055D01*
X187858358Y-115366775D01*
X187672797Y-115496705D01*
X187505705Y-115663797D01*
X187370165Y-115857369D01*
X187370164Y-115857371D01*
X187270298Y-116071535D01*
X187270294Y-116071544D01*
X187209138Y-116299786D01*
X187209136Y-116299796D01*
X187188541Y-116535199D01*
X187188541Y-116535200D01*
X187209136Y-116770603D01*
X187209138Y-116770613D01*
X187270294Y-116998855D01*
X187270296Y-116998859D01*
X187270297Y-116998863D01*
X187364455Y-117200784D01*
X187370165Y-117213030D01*
X187370167Y-117213034D01*
X187505701Y-117406595D01*
X187505706Y-117406602D01*
X187672797Y-117573693D01*
X187672803Y-117573698D01*
X187858358Y-117703625D01*
X187901983Y-117758202D01*
X187909177Y-117827700D01*
X187877654Y-117890055D01*
X187858358Y-117906775D01*
X187672797Y-118036705D01*
X187505705Y-118203797D01*
X187370165Y-118397369D01*
X187370164Y-118397371D01*
X187270298Y-118611535D01*
X187270294Y-118611544D01*
X187209138Y-118839786D01*
X187209136Y-118839796D01*
X187188541Y-119075199D01*
X187188541Y-119075200D01*
X187209136Y-119310603D01*
X187209138Y-119310613D01*
X187270294Y-119538855D01*
X187270296Y-119538859D01*
X187270297Y-119538863D01*
X187315339Y-119635455D01*
X187370165Y-119753030D01*
X187370167Y-119753034D01*
X187439316Y-119851788D01*
X187492082Y-119927146D01*
X187505701Y-119946595D01*
X187505706Y-119946602D01*
X187672797Y-120113693D01*
X187672803Y-120113698D01*
X187858358Y-120243625D01*
X187901983Y-120298202D01*
X187909177Y-120367700D01*
X187877654Y-120430055D01*
X187858358Y-120446775D01*
X187672797Y-120576705D01*
X187505705Y-120743797D01*
X187370165Y-120937369D01*
X187370164Y-120937371D01*
X187270298Y-121151535D01*
X187270294Y-121151544D01*
X187209138Y-121379786D01*
X187209136Y-121379796D01*
X187188541Y-121615199D01*
X187188541Y-121615200D01*
X187209136Y-121850603D01*
X187209138Y-121850613D01*
X187270294Y-122078855D01*
X187270296Y-122078859D01*
X187270297Y-122078863D01*
X187318120Y-122181419D01*
X187370165Y-122293030D01*
X187370167Y-122293034D01*
X187505701Y-122486595D01*
X187505706Y-122486602D01*
X187672797Y-122653693D01*
X187672803Y-122653698D01*
X187858358Y-122783625D01*
X187901983Y-122838202D01*
X187909177Y-122907700D01*
X187877654Y-122970055D01*
X187858358Y-122986775D01*
X187672797Y-123116705D01*
X187505705Y-123283797D01*
X187370165Y-123477369D01*
X187370164Y-123477371D01*
X187270298Y-123691535D01*
X187270294Y-123691544D01*
X187209138Y-123919786D01*
X187209136Y-123919796D01*
X187188541Y-124155199D01*
X187188541Y-124155200D01*
X187209136Y-124390603D01*
X187209138Y-124390613D01*
X187270294Y-124618855D01*
X187270296Y-124618859D01*
X187270297Y-124618863D01*
X187369635Y-124831894D01*
X187370165Y-124833030D01*
X187370167Y-124833034D01*
X187464690Y-124968025D01*
X187486474Y-124999137D01*
X187505701Y-125026595D01*
X187505706Y-125026602D01*
X187672797Y-125193693D01*
X187672803Y-125193698D01*
X187858358Y-125323625D01*
X187901983Y-125378202D01*
X187909177Y-125447700D01*
X187877654Y-125510055D01*
X187858358Y-125526775D01*
X187672797Y-125656705D01*
X187505705Y-125823797D01*
X187370165Y-126017369D01*
X187370164Y-126017371D01*
X187270298Y-126231535D01*
X187270294Y-126231544D01*
X187209138Y-126459786D01*
X187209136Y-126459796D01*
X187188541Y-126695199D01*
X187188541Y-126695200D01*
X187209136Y-126930603D01*
X187209138Y-126930613D01*
X187270294Y-127158855D01*
X187270296Y-127158859D01*
X187270297Y-127158863D01*
X187328060Y-127282736D01*
X187370165Y-127373030D01*
X187370167Y-127373034D01*
X187505701Y-127566595D01*
X187505706Y-127566602D01*
X187672797Y-127733693D01*
X187672803Y-127733698D01*
X187858358Y-127863625D01*
X187901983Y-127918202D01*
X187909177Y-127987700D01*
X187877654Y-128050055D01*
X187858358Y-128066775D01*
X187672797Y-128196705D01*
X187505705Y-128363797D01*
X187370165Y-128557369D01*
X187370164Y-128557371D01*
X187270298Y-128771535D01*
X187270294Y-128771544D01*
X187209138Y-128999786D01*
X187209136Y-128999796D01*
X187188541Y-129235199D01*
X187188541Y-129235200D01*
X187209136Y-129470603D01*
X187209138Y-129470613D01*
X187270294Y-129698855D01*
X187270296Y-129698859D01*
X187270297Y-129698863D01*
X187370165Y-129913030D01*
X187370167Y-129913034D01*
X187457101Y-130037188D01*
X187505705Y-130106601D01*
X187672799Y-130273695D01*
X187769584Y-130341465D01*
X187866365Y-130409232D01*
X187866367Y-130409233D01*
X187866370Y-130409235D01*
X188080537Y-130509103D01*
X188308792Y-130570263D01*
X188497118Y-130586739D01*
X188544199Y-130590859D01*
X188544200Y-130590859D01*
X188544201Y-130590859D01*
X188583434Y-130587426D01*
X188779608Y-130570263D01*
X189007863Y-130509103D01*
X189222030Y-130409235D01*
X189415601Y-130273695D01*
X189582695Y-130106601D01*
X189718235Y-129913030D01*
X189818103Y-129698863D01*
X189879263Y-129470608D01*
X189899859Y-129235200D01*
X189879263Y-128999792D01*
X189818103Y-128771537D01*
X189718235Y-128557371D01*
X189696292Y-128526032D01*
X189582694Y-128363797D01*
X189415602Y-128196706D01*
X189415596Y-128196701D01*
X189230042Y-128066775D01*
X189186417Y-128012198D01*
X189179223Y-127942700D01*
X189210746Y-127880345D01*
X189230042Y-127863625D01*
X189262209Y-127841101D01*
X189415601Y-127733695D01*
X189582695Y-127566601D01*
X189718235Y-127373030D01*
X189818103Y-127158863D01*
X189879263Y-126930608D01*
X189899859Y-126695200D01*
X189879263Y-126459792D01*
X189818103Y-126231537D01*
X189718235Y-126017371D01*
X189619208Y-125875944D01*
X189582694Y-125823797D01*
X189415602Y-125656706D01*
X189415596Y-125656701D01*
X189230042Y-125526775D01*
X189186417Y-125472198D01*
X189179223Y-125402700D01*
X189210746Y-125340345D01*
X189230042Y-125323625D01*
X189279481Y-125289007D01*
X189415601Y-125193695D01*
X189582695Y-125026601D01*
X189718235Y-124833030D01*
X189818103Y-124618863D01*
X189879263Y-124390608D01*
X189899859Y-124155200D01*
X189897170Y-124124471D01*
X189886653Y-124004255D01*
X189879263Y-123919792D01*
X189818103Y-123691537D01*
X189718235Y-123477371D01*
X189716909Y-123475476D01*
X189582694Y-123283797D01*
X189415602Y-123116706D01*
X189415596Y-123116701D01*
X189230042Y-122986775D01*
X189186417Y-122932198D01*
X189179223Y-122862700D01*
X189210746Y-122800345D01*
X189230042Y-122783625D01*
X189262209Y-122761101D01*
X189415601Y-122653695D01*
X189582695Y-122486601D01*
X189718235Y-122293030D01*
X189818103Y-122078863D01*
X189879263Y-121850608D01*
X189899859Y-121615200D01*
X189879263Y-121379792D01*
X189818103Y-121151537D01*
X189718235Y-120937371D01*
X189582695Y-120743799D01*
X189582694Y-120743797D01*
X189415602Y-120576706D01*
X189415596Y-120576701D01*
X189230042Y-120446775D01*
X189186417Y-120392198D01*
X189179223Y-120322700D01*
X189210746Y-120260345D01*
X189230042Y-120243625D01*
X189252226Y-120228091D01*
X189415601Y-120113695D01*
X189582695Y-119946601D01*
X189718235Y-119753030D01*
X189818103Y-119538863D01*
X189879263Y-119310608D01*
X189899859Y-119075200D01*
X189879263Y-118839792D01*
X189818103Y-118611537D01*
X189718235Y-118397371D01*
X189677086Y-118338603D01*
X189582694Y-118203797D01*
X189415602Y-118036706D01*
X189415596Y-118036701D01*
X189230042Y-117906775D01*
X189186417Y-117852198D01*
X189179223Y-117782700D01*
X189210746Y-117720345D01*
X189230042Y-117703625D01*
X189304705Y-117651345D01*
X189415601Y-117573695D01*
X189582695Y-117406601D01*
X189718235Y-117213030D01*
X189818103Y-116998863D01*
X189879263Y-116770608D01*
X189899859Y-116535200D01*
X189879263Y-116299792D01*
X189818103Y-116071537D01*
X189718235Y-115857371D01*
X189582695Y-115663799D01*
X189582694Y-115663797D01*
X189415602Y-115496706D01*
X189415596Y-115496701D01*
X189230042Y-115366775D01*
X189186417Y-115312198D01*
X189179223Y-115242700D01*
X189210746Y-115180345D01*
X189230042Y-115163625D01*
X189304705Y-115111345D01*
X189415601Y-115033695D01*
X189582695Y-114866601D01*
X189718235Y-114673030D01*
X189818103Y-114458863D01*
X189879263Y-114230608D01*
X189899859Y-113995200D01*
X189879263Y-113759792D01*
X189818103Y-113531537D01*
X189718235Y-113317371D01*
X189676639Y-113257966D01*
X189582696Y-113123800D01*
X189565091Y-113106195D01*
X189460767Y-113001871D01*
X189427284Y-112940551D01*
X189432268Y-112870859D01*
X189474139Y-112814925D01*
X189505115Y-112798010D01*
X189636531Y-112748996D01*
X189751746Y-112662746D01*
X189837996Y-112547531D01*
X189888291Y-112412683D01*
X189894700Y-112353073D01*
X189894699Y-110557328D01*
X189888291Y-110497717D01*
X189875810Y-110464255D01*
X189837997Y-110362871D01*
X189837993Y-110362864D01*
X189751747Y-110247655D01*
X189751744Y-110247652D01*
X189636535Y-110161406D01*
X189636528Y-110161402D01*
X189501682Y-110111108D01*
X189501683Y-110111108D01*
X189442083Y-110104701D01*
X189442081Y-110104700D01*
X189442073Y-110104700D01*
X189442064Y-110104700D01*
X187646329Y-110104700D01*
X187646323Y-110104701D01*
X187586716Y-110111108D01*
X187451871Y-110161402D01*
X187451864Y-110161406D01*
X187336655Y-110247652D01*
X187336652Y-110247655D01*
X187250406Y-110362864D01*
X187250402Y-110362871D01*
X187200108Y-110497717D01*
X187194939Y-110545800D01*
X187193701Y-110557323D01*
X187193700Y-110557335D01*
X187193700Y-112353070D01*
X187193701Y-112353076D01*
X187200108Y-112412683D01*
X187250402Y-112547528D01*
X187250406Y-112547535D01*
X187336652Y-112662744D01*
X187336655Y-112662747D01*
X187451864Y-112748993D01*
X187451871Y-112748997D01*
X187583281Y-112798010D01*
X187639215Y-112839881D01*
X187663632Y-112905345D01*
X187648780Y-112973618D01*
X187627630Y-113001873D01*
X187505703Y-113123800D01*
X187370165Y-113317369D01*
X187370164Y-113317371D01*
X187270298Y-113531535D01*
X187270294Y-113531544D01*
X187209138Y-113759786D01*
X187209136Y-113759796D01*
X187188541Y-113995199D01*
X174041300Y-113995199D01*
X174041300Y-113757847D01*
X174060985Y-113690808D01*
X174077619Y-113670166D01*
X174383273Y-113364512D01*
X174383277Y-113364508D01*
X174454465Y-113257966D01*
X174503501Y-113139583D01*
X174510141Y-113106200D01*
X174528500Y-113013908D01*
X174528500Y-108750522D01*
X174548185Y-108683483D01*
X174581377Y-108648947D01*
X174632429Y-108613199D01*
X174749401Y-108531295D01*
X174916495Y-108364201D01*
X175052035Y-108170630D01*
X175151903Y-107956463D01*
X175213063Y-107728208D01*
X175233659Y-107492800D01*
X175213063Y-107257392D01*
X175151903Y-107029137D01*
X175052035Y-106814971D01*
X175046425Y-106806958D01*
X174916494Y-106621397D01*
X174749402Y-106454306D01*
X174749395Y-106454301D01*
X174555834Y-106318767D01*
X174555830Y-106318765D01*
X174555828Y-106318764D01*
X174341663Y-106218897D01*
X174341659Y-106218896D01*
X174341655Y-106218894D01*
X174113413Y-106157738D01*
X174113403Y-106157736D01*
X173878001Y-106137141D01*
X173877999Y-106137141D01*
X173642596Y-106157736D01*
X173642586Y-106157738D01*
X173414344Y-106218894D01*
X173414335Y-106218898D01*
X173200171Y-106318764D01*
X173200169Y-106318765D01*
X173006597Y-106454305D01*
X172839505Y-106621397D01*
X172709575Y-106806958D01*
X172654998Y-106850583D01*
X172585500Y-106857777D01*
X172523145Y-106826254D01*
X172506425Y-106806958D01*
X172376494Y-106621397D01*
X172209402Y-106454306D01*
X172209395Y-106454301D01*
X172015834Y-106318767D01*
X172015830Y-106318765D01*
X172015828Y-106318764D01*
X171801663Y-106218897D01*
X171801659Y-106218896D01*
X171801655Y-106218894D01*
X171573413Y-106157738D01*
X171573403Y-106157736D01*
X171338001Y-106137141D01*
X171337999Y-106137141D01*
X171102596Y-106157736D01*
X171102586Y-106157738D01*
X170874344Y-106218894D01*
X170874335Y-106218898D01*
X170660171Y-106318764D01*
X170660169Y-106318765D01*
X170466600Y-106454303D01*
X170344673Y-106576230D01*
X170283350Y-106609714D01*
X170213658Y-106604730D01*
X170157725Y-106562858D01*
X170140810Y-106531881D01*
X170091797Y-106400471D01*
X170091793Y-106400464D01*
X170005547Y-106285255D01*
X170005544Y-106285252D01*
X169890335Y-106199006D01*
X169890328Y-106199002D01*
X169755482Y-106148708D01*
X169755483Y-106148708D01*
X169695883Y-106142301D01*
X169695881Y-106142300D01*
X169695873Y-106142300D01*
X169695864Y-106142300D01*
X167900129Y-106142300D01*
X167900123Y-106142301D01*
X167840516Y-106148708D01*
X167705671Y-106199002D01*
X167705664Y-106199006D01*
X167590455Y-106285252D01*
X167590452Y-106285255D01*
X167504206Y-106400464D01*
X167504202Y-106400471D01*
X167453908Y-106535317D01*
X167447501Y-106594916D01*
X167447500Y-106594935D01*
X167447500Y-108390670D01*
X167447501Y-108390676D01*
X167453908Y-108450283D01*
X167504202Y-108585128D01*
X167504206Y-108585135D01*
X167590452Y-108700344D01*
X167590455Y-108700347D01*
X167705664Y-108786593D01*
X167705671Y-108786597D01*
X167840517Y-108836891D01*
X167840516Y-108836891D01*
X167847444Y-108837635D01*
X167900127Y-108843300D01*
X169695872Y-108843299D01*
X169755483Y-108836891D01*
X169890331Y-108786596D01*
X170005546Y-108700346D01*
X170091796Y-108585131D01*
X170140810Y-108453716D01*
X170182681Y-108397784D01*
X170248145Y-108373366D01*
X170316418Y-108388217D01*
X170344673Y-108409369D01*
X170466597Y-108531293D01*
X170466603Y-108531298D01*
X170634623Y-108648947D01*
X170678248Y-108703524D01*
X170687500Y-108750522D01*
X170687500Y-111381868D01*
X170692524Y-111407122D01*
X170692524Y-111407126D01*
X170710546Y-111497730D01*
X170712499Y-111507544D01*
X170761535Y-111625927D01*
X170832723Y-111732469D01*
X170832726Y-111732473D01*
X170832727Y-111732474D01*
X171245781Y-112145527D01*
X171279266Y-112206850D01*
X171282100Y-112233208D01*
X171282100Y-116377971D01*
X171262415Y-116445010D01*
X171209611Y-116490765D01*
X171140453Y-116500709D01*
X171076897Y-116471684D01*
X171053107Y-116443944D01*
X171008868Y-116373540D01*
X171008866Y-116373537D01*
X170881313Y-116245984D01*
X170728574Y-116150011D01*
X170558305Y-116090431D01*
X170558300Y-116090430D01*
X170379055Y-116070235D01*
X170379047Y-116070235D01*
X170199801Y-116090430D01*
X170199796Y-116090431D01*
X170029526Y-116150011D01*
X169932636Y-116210893D01*
X169866663Y-116229900D01*
X162024651Y-116229900D01*
X162000459Y-116227517D01*
X161937032Y-116214900D01*
X161937030Y-116214900D01*
X152310531Y-116214900D01*
X152310529Y-116214900D01*
X152184861Y-116239897D01*
X152184855Y-116239899D01*
X152066474Y-116288934D01*
X151959926Y-116360126D01*
X148975924Y-119344128D01*
X148914601Y-119377613D01*
X148844909Y-119372629D01*
X148788976Y-119330757D01*
X148770114Y-119283093D01*
X148767317Y-119283732D01*
X148765766Y-119276937D01*
X148705062Y-119103455D01*
X148701500Y-119033676D01*
X148705062Y-119021545D01*
X148765766Y-118848062D01*
X148765769Y-118848049D01*
X148785965Y-118668803D01*
X148785965Y-118668796D01*
X148765769Y-118489550D01*
X148765768Y-118489545D01*
X148706188Y-118319276D01*
X148659744Y-118245362D01*
X148610216Y-118166538D01*
X148482662Y-118038984D01*
X148410867Y-117993872D01*
X148329923Y-117943011D01*
X148159654Y-117883431D01*
X148159649Y-117883430D01*
X147980404Y-117863235D01*
X147980396Y-117863235D01*
X147801150Y-117883430D01*
X147801142Y-117883432D01*
X147653054Y-117935250D01*
X147583275Y-117938811D01*
X147571146Y-117935250D01*
X147423057Y-117883432D01*
X147423049Y-117883430D01*
X147243804Y-117863235D01*
X147243796Y-117863235D01*
X147064550Y-117883430D01*
X147064545Y-117883431D01*
X146894276Y-117943011D01*
X146741537Y-118038984D01*
X146613984Y-118166537D01*
X146518011Y-118319276D01*
X146458431Y-118489545D01*
X146458430Y-118489550D01*
X146438235Y-118668796D01*
X146438235Y-118668803D01*
X146458430Y-118848049D01*
X146458433Y-118848062D01*
X146519138Y-119021545D01*
X146522700Y-119091324D01*
X146519138Y-119103455D01*
X146458433Y-119276937D01*
X146458430Y-119276950D01*
X146438235Y-119456196D01*
X146438235Y-119456203D01*
X146458430Y-119635449D01*
X146458431Y-119635454D01*
X146518011Y-119805723D01*
X146594307Y-119927146D01*
X146613984Y-119958462D01*
X146741538Y-120086016D01*
X146894278Y-120181989D01*
X147053954Y-120237862D01*
X147064545Y-120241568D01*
X147064550Y-120241569D01*
X147243796Y-120261765D01*
X147243800Y-120261765D01*
X147243804Y-120261765D01*
X147423049Y-120241569D01*
X147423051Y-120241568D01*
X147423055Y-120241568D01*
X147423058Y-120241566D01*
X147423062Y-120241566D01*
X147571145Y-120189749D01*
X147640923Y-120186186D01*
X147653055Y-120189749D01*
X147801137Y-120241566D01*
X147801143Y-120241567D01*
X147801145Y-120241568D01*
X147801146Y-120241568D01*
X147807932Y-120243117D01*
X147807231Y-120246186D01*
X147858831Y-120267797D01*
X147898454Y-120325345D01*
X147900674Y-120395179D01*
X147868328Y-120451724D01*
X145207273Y-123112781D01*
X145145950Y-123146266D01*
X145119592Y-123149100D01*
X142964321Y-123149100D01*
X142897282Y-123129415D01*
X142862746Y-123096223D01*
X142745094Y-122928197D01*
X142578002Y-122761106D01*
X142577995Y-122761101D01*
X142384434Y-122625567D01*
X142384430Y-122625565D01*
X142313269Y-122592382D01*
X142170263Y-122525697D01*
X142170259Y-122525696D01*
X142170255Y-122525694D01*
X141942013Y-122464538D01*
X141942003Y-122464536D01*
X141706601Y-122443941D01*
X141706599Y-122443941D01*
X141471196Y-122464536D01*
X141471186Y-122464538D01*
X141242944Y-122525694D01*
X141242935Y-122525698D01*
X141028771Y-122625564D01*
X141028769Y-122625565D01*
X140835197Y-122761105D01*
X140668105Y-122928197D01*
X140532565Y-123121769D01*
X140532564Y-123121771D01*
X140432698Y-123335935D01*
X140432694Y-123335944D01*
X140371538Y-123564186D01*
X140371536Y-123564196D01*
X140350941Y-123799599D01*
X139702370Y-123799599D01*
X139707598Y-117821735D01*
X140356100Y-117821735D01*
X140356100Y-119617470D01*
X140356101Y-119617476D01*
X140362508Y-119677083D01*
X140412802Y-119811928D01*
X140412806Y-119811935D01*
X140499052Y-119927144D01*
X140499055Y-119927147D01*
X140614264Y-120013393D01*
X140614271Y-120013397D01*
X140749117Y-120063691D01*
X140749116Y-120063691D01*
X140756044Y-120064435D01*
X140808727Y-120070100D01*
X142604472Y-120070099D01*
X142664083Y-120063691D01*
X142798931Y-120013396D01*
X142914146Y-119927146D01*
X143000396Y-119811931D01*
X143050691Y-119677083D01*
X143057100Y-119617473D01*
X143057099Y-117821728D01*
X143050691Y-117762117D01*
X143030967Y-117709235D01*
X143000397Y-117627271D01*
X143000393Y-117627264D01*
X142914147Y-117512055D01*
X142914144Y-117512052D01*
X142798935Y-117425806D01*
X142798928Y-117425802D01*
X142664082Y-117375508D01*
X142664083Y-117375508D01*
X142604483Y-117369101D01*
X142604481Y-117369100D01*
X142604473Y-117369100D01*
X142604464Y-117369100D01*
X140808729Y-117369100D01*
X140808723Y-117369101D01*
X140749116Y-117375508D01*
X140614271Y-117425802D01*
X140614264Y-117425806D01*
X140499055Y-117512052D01*
X140499052Y-117512055D01*
X140412806Y-117627264D01*
X140412802Y-117627271D01*
X140362508Y-117762117D01*
X140356101Y-117821716D01*
X140356101Y-117821723D01*
X140356100Y-117821735D01*
X139707598Y-117821735D01*
X139715677Y-108584996D01*
X142417735Y-108584996D01*
X142417735Y-108585003D01*
X142437930Y-108764249D01*
X142437931Y-108764254D01*
X142497511Y-108934523D01*
X142593484Y-109087262D01*
X142721038Y-109214816D01*
X142797408Y-109262802D01*
X142873779Y-109310790D01*
X142894266Y-109317959D01*
X142951041Y-109358681D01*
X142976788Y-109423634D01*
X142963331Y-109492196D01*
X142914943Y-109542598D01*
X142894266Y-109552041D01*
X142873779Y-109559209D01*
X142721037Y-109655184D01*
X142593484Y-109782737D01*
X142497511Y-109935476D01*
X142437931Y-110105745D01*
X142437930Y-110105750D01*
X142417735Y-110284996D01*
X142417735Y-110285003D01*
X142437930Y-110464249D01*
X142437931Y-110464254D01*
X142497511Y-110634523D01*
X142593484Y-110787262D01*
X142721038Y-110914816D01*
X142797408Y-110962802D01*
X142873779Y-111010790D01*
X142894266Y-111017959D01*
X142951041Y-111058681D01*
X142976788Y-111123634D01*
X142963331Y-111192196D01*
X142914943Y-111242598D01*
X142894266Y-111252041D01*
X142873779Y-111259209D01*
X142721037Y-111355184D01*
X142593484Y-111482737D01*
X142497511Y-111635476D01*
X142437931Y-111805745D01*
X142437930Y-111805750D01*
X142417735Y-111984996D01*
X142417735Y-111985003D01*
X142437930Y-112164249D01*
X142437931Y-112164254D01*
X142497511Y-112334523D01*
X142593484Y-112487262D01*
X142721038Y-112614816D01*
X142873778Y-112710789D01*
X142982970Y-112748997D01*
X143044045Y-112770368D01*
X143044050Y-112770369D01*
X143223296Y-112790565D01*
X143223300Y-112790565D01*
X143223304Y-112790565D01*
X143402549Y-112770369D01*
X143402552Y-112770368D01*
X143402555Y-112770368D01*
X143572822Y-112710789D01*
X143725562Y-112614816D01*
X143853116Y-112487262D01*
X143949089Y-112334522D01*
X143951258Y-112328324D01*
X143991979Y-112271548D01*
X144056932Y-112245800D01*
X144125494Y-112259256D01*
X144175897Y-112307643D01*
X144185342Y-112328324D01*
X144187510Y-112334521D01*
X144216345Y-112380411D01*
X144283484Y-112487262D01*
X144411038Y-112614816D01*
X144563778Y-112710789D01*
X144672970Y-112748997D01*
X144734045Y-112770368D01*
X144734050Y-112770369D01*
X144913296Y-112790565D01*
X144913300Y-112790565D01*
X144913304Y-112790565D01*
X145092549Y-112770369D01*
X145092552Y-112770368D01*
X145092555Y-112770368D01*
X145262822Y-112710789D01*
X145415562Y-112614816D01*
X145543116Y-112487262D01*
X145638306Y-112335767D01*
X145690641Y-112289477D01*
X145759694Y-112278829D01*
X145823543Y-112307204D01*
X145848293Y-112335767D01*
X145943484Y-112487262D01*
X146071038Y-112614816D01*
X146223778Y-112710789D01*
X146332970Y-112748997D01*
X146394045Y-112770368D01*
X146394050Y-112770369D01*
X146573296Y-112790565D01*
X146573300Y-112790565D01*
X146573304Y-112790565D01*
X146752549Y-112770369D01*
X146752552Y-112770368D01*
X146752555Y-112770368D01*
X146922822Y-112710789D01*
X147075562Y-112614816D01*
X147203116Y-112487262D01*
X147299089Y-112334522D01*
X147358668Y-112164255D01*
X147378865Y-111985000D01*
X147363466Y-111848331D01*
X147358669Y-111805750D01*
X147358668Y-111805745D01*
X147333029Y-111732473D01*
X147299089Y-111635478D01*
X147298305Y-111634231D01*
X147259882Y-111573080D01*
X147203116Y-111482738D01*
X147075562Y-111355184D01*
X146922821Y-111259210D01*
X146902335Y-111252042D01*
X146845558Y-111211320D01*
X146819811Y-111146367D01*
X146833267Y-111077806D01*
X146881654Y-111027403D01*
X146902335Y-111017958D01*
X146911595Y-111014717D01*
X146922822Y-111010789D01*
X147075562Y-110914816D01*
X147203116Y-110787262D01*
X147299089Y-110634522D01*
X147358668Y-110464255D01*
X147370091Y-110362871D01*
X147378865Y-110285003D01*
X147378865Y-110284996D01*
X147358669Y-110105750D01*
X147358668Y-110105745D01*
X147318576Y-109991170D01*
X147299089Y-109935478D01*
X147298305Y-109934231D01*
X147203115Y-109782737D01*
X147075562Y-109655184D01*
X146922821Y-109559210D01*
X146902335Y-109552042D01*
X146845558Y-109511320D01*
X146819811Y-109446367D01*
X146833267Y-109377806D01*
X146881654Y-109327403D01*
X146902335Y-109317958D01*
X146911595Y-109314717D01*
X146922822Y-109310789D01*
X147075562Y-109214816D01*
X147203116Y-109087262D01*
X147299089Y-108934522D01*
X147358668Y-108764255D01*
X147358669Y-108764249D01*
X147378865Y-108585003D01*
X147378865Y-108584996D01*
X147358669Y-108405750D01*
X147358668Y-108405745D01*
X147318576Y-108291170D01*
X147299089Y-108235478D01*
X147298305Y-108234231D01*
X147203115Y-108082737D01*
X147075562Y-107955184D01*
X146922823Y-107859211D01*
X146752554Y-107799631D01*
X146752549Y-107799630D01*
X146573304Y-107779435D01*
X146573296Y-107779435D01*
X146394050Y-107799630D01*
X146394045Y-107799631D01*
X146223776Y-107859211D01*
X146071037Y-107955184D01*
X145943484Y-108082737D01*
X145848294Y-108234231D01*
X145795959Y-108280522D01*
X145726905Y-108291170D01*
X145663057Y-108262795D01*
X145638306Y-108234231D01*
X145543115Y-108082737D01*
X145415562Y-107955184D01*
X145262823Y-107859211D01*
X145092554Y-107799631D01*
X145092549Y-107799630D01*
X144913304Y-107779435D01*
X144913296Y-107779435D01*
X144734050Y-107799630D01*
X144734045Y-107799631D01*
X144563776Y-107859211D01*
X144411037Y-107955184D01*
X144283484Y-108082737D01*
X144187510Y-108235478D01*
X144185341Y-108241678D01*
X144144618Y-108298453D01*
X144079665Y-108324199D01*
X144011104Y-108310742D01*
X143960702Y-108262354D01*
X143951259Y-108241678D01*
X143949089Y-108235478D01*
X143948305Y-108234231D01*
X143853116Y-108082738D01*
X143725562Y-107955184D01*
X143572823Y-107859211D01*
X143402554Y-107799631D01*
X143402549Y-107799630D01*
X143223304Y-107779435D01*
X143223296Y-107779435D01*
X143044050Y-107799630D01*
X143044045Y-107799631D01*
X142873776Y-107859211D01*
X142721037Y-107955184D01*
X142593484Y-108082737D01*
X142497511Y-108235476D01*
X142437931Y-108405745D01*
X142437930Y-108405750D01*
X142417735Y-108584996D01*
X139715677Y-108584996D01*
X139717833Y-106119546D01*
X139717900Y-106118569D01*
X139717900Y-106051960D01*
X139718680Y-106038078D01*
X139722405Y-106005015D01*
X139730534Y-105932866D01*
X139736707Y-105905812D01*
X139769371Y-105812466D01*
X139781408Y-105787471D01*
X139834020Y-105703740D01*
X139851325Y-105682041D01*
X139921241Y-105612125D01*
X139942940Y-105594820D01*
X140026671Y-105542208D01*
X140051673Y-105530168D01*
X140145005Y-105497510D01*
X140172062Y-105491334D01*
X140267928Y-105480532D01*
X140277274Y-105479480D01*
X140291157Y-105478700D01*
X140357872Y-105478700D01*
X140358607Y-105478650D01*
X189941872Y-105445675D01*
X189955809Y-105446453D01*
G37*
%TD.AperFunction*%
%TD*%
M02*
