%TF.GenerationSoftware,KiCad,Pcbnew,8.0.6*%
%TF.CreationDate,2025-03-17T21:12:52+03:00*%
%TF.ProjectId,ECU_SW_Control,4543555f-5357-45f4-936f-6e74726f6c2e,v1*%
%TF.SameCoordinates,Original*%
%TF.FileFunction,Copper,L1,Top*%
%TF.FilePolarity,Positive*%
%FSLAX46Y46*%
G04 Gerber Fmt 4.6, Leading zero omitted, Abs format (unit mm)*
G04 Created by KiCad (PCBNEW 8.0.6) date 2025-03-17 21:12:52*
%MOMM*%
%LPD*%
G01*
G04 APERTURE LIST*
G04 Aperture macros list*
%AMRoundRect*
0 Rectangle with rounded corners*
0 $1 Rounding radius*
0 $2 $3 $4 $5 $6 $7 $8 $9 X,Y pos of 4 corners*
0 Add a 4 corners polygon primitive as box body*
4,1,4,$2,$3,$4,$5,$6,$7,$8,$9,$2,$3,0*
0 Add four circle primitives for the rounded corners*
1,1,$1+$1,$2,$3*
1,1,$1+$1,$4,$5*
1,1,$1+$1,$6,$7*
1,1,$1+$1,$8,$9*
0 Add four rect primitives between the rounded corners*
20,1,$1+$1,$2,$3,$4,$5,0*
20,1,$1+$1,$4,$5,$6,$7,0*
20,1,$1+$1,$6,$7,$8,$9,0*
20,1,$1+$1,$8,$9,$2,$3,0*%
G04 Aperture macros list end*
%TA.AperFunction,Conductor*%
%ADD10C,0.200000*%
%TD*%
%TA.AperFunction,SMDPad,CuDef*%
%ADD11RoundRect,0.237500X0.250000X0.237500X-0.250000X0.237500X-0.250000X-0.237500X0.250000X-0.237500X0*%
%TD*%
%TA.AperFunction,SMDPad,CuDef*%
%ADD12RoundRect,0.237500X-0.237500X0.300000X-0.237500X-0.300000X0.237500X-0.300000X0.237500X0.300000X0*%
%TD*%
%TA.AperFunction,SMDPad,CuDef*%
%ADD13RoundRect,0.150000X0.825000X0.150000X-0.825000X0.150000X-0.825000X-0.150000X0.825000X-0.150000X0*%
%TD*%
%TA.AperFunction,SMDPad,CuDef*%
%ADD14RoundRect,0.237500X-0.250000X-0.237500X0.250000X-0.237500X0.250000X0.237500X-0.250000X0.237500X0*%
%TD*%
%TA.AperFunction,ComponentPad*%
%ADD15R,1.700000X1.700000*%
%TD*%
%TA.AperFunction,ComponentPad*%
%ADD16O,1.700000X1.700000*%
%TD*%
%TA.AperFunction,SMDPad,CuDef*%
%ADD17RoundRect,0.237500X0.300000X0.237500X-0.300000X0.237500X-0.300000X-0.237500X0.300000X-0.237500X0*%
%TD*%
%TA.AperFunction,SMDPad,CuDef*%
%ADD18RoundRect,0.250000X-1.050000X-0.550000X1.050000X-0.550000X1.050000X0.550000X-1.050000X0.550000X0*%
%TD*%
%TA.AperFunction,SMDPad,CuDef*%
%ADD19R,3.000000X1.600000*%
%TD*%
%TA.AperFunction,SMDPad,CuDef*%
%ADD20R,6.700000X6.700000*%
%TD*%
%TA.AperFunction,SMDPad,CuDef*%
%ADD21RoundRect,0.237500X-0.300000X-0.237500X0.300000X-0.237500X0.300000X0.237500X-0.300000X0.237500X0*%
%TD*%
%TA.AperFunction,SMDPad,CuDef*%
%ADD22RoundRect,0.250000X-1.000000X-0.650000X1.000000X-0.650000X1.000000X0.650000X-1.000000X0.650000X0*%
%TD*%
%TA.AperFunction,SMDPad,CuDef*%
%ADD23R,0.550000X1.500000*%
%TD*%
%TA.AperFunction,SMDPad,CuDef*%
%ADD24R,1.500000X0.550000*%
%TD*%
%TA.AperFunction,SMDPad,CuDef*%
%ADD25RoundRect,0.237500X0.237500X-0.300000X0.237500X0.300000X-0.237500X0.300000X-0.237500X-0.300000X0*%
%TD*%
%TA.AperFunction,SMDPad,CuDef*%
%ADD26RoundRect,0.317500X0.317500X-0.382500X0.317500X0.382500X-0.317500X0.382500X-0.317500X-0.382500X0*%
%TD*%
%TA.AperFunction,SMDPad,CuDef*%
%ADD27R,4.720000X4.800000*%
%TD*%
%TA.AperFunction,SMDPad,CuDef*%
%ADD28R,1.300000X1.050000*%
%TD*%
%TA.AperFunction,ViaPad*%
%ADD29C,0.600000*%
%TD*%
%TA.AperFunction,Conductor*%
%ADD30C,1.000000*%
%TD*%
%TA.AperFunction,Conductor*%
%ADD31C,0.500000*%
%TD*%
%TA.AperFunction,Conductor*%
%ADD32C,0.300000*%
%TD*%
G04 APERTURE END LIST*
%TO.N,/CAN/5V*%
D10*
X146910600Y-118349800D02*
X148310600Y-118349800D01*
X148310600Y-119749800D01*
X146910600Y-119749800D01*
X146910600Y-118349800D01*
%TA.AperFunction,Conductor*%
G36*
X146910600Y-118349800D02*
G01*
X148310600Y-118349800D01*
X148310600Y-119749800D01*
X146910600Y-119749800D01*
X146910600Y-118349800D01*
G37*
%TD.AperFunction*%
%TD*%
D11*
%TO.P,R18,1*%
%TO.N,/CAN/RX*%
X150289900Y-125171200D03*
%TO.P,R18,2*%
%TO.N,/Connector/COMM2*%
X148464900Y-125171200D03*
%TD*%
%TO.P,R9,1*%
%TO.N,GND*%
X182370100Y-133070600D03*
%TO.P,R9,2*%
%TO.N,Net-(IC1-SD01{slash}RA4)*%
X180545100Y-133070600D03*
%TD*%
D12*
%TO.P,C10,1*%
%TO.N,/CAN/5V*%
X177622200Y-119965300D03*
%TO.P,C10,2*%
%TO.N,GND*%
X177622200Y-121690300D03*
%TD*%
D11*
%TO.P,R1,1*%
%TO.N,Net-(U2-SPLIT)*%
X150280500Y-133477000D03*
%TO.P,R1,2*%
%TO.N,Net-(C4-Pad1)*%
X148455500Y-133477000D03*
%TD*%
D13*
%TO.P,U2,1,TXD*%
%TO.N,/CAN/TX*%
X158089600Y-132080000D03*
%TO.P,U2,2,VSS*%
%TO.N,GND*%
X158089600Y-130810000D03*
%TO.P,U2,3,VDD*%
%TO.N,/CAN/5V*%
X158089600Y-129540000D03*
%TO.P,U2,4,RXD*%
%TO.N,/CAN/RX*%
X158089600Y-128270000D03*
%TO.P,U2,5,SPLIT*%
%TO.N,Net-(U2-SPLIT)*%
X153139600Y-128270000D03*
%TO.P,U2,6,CANL*%
%TO.N,/CAN/CAN-*%
X153139600Y-129540000D03*
%TO.P,U2,7,CANH*%
%TO.N,/CAN/CAN+*%
X153139600Y-130810000D03*
%TO.P,U2,8,STBY*%
%TO.N,/CAN/STBY*%
X153139600Y-132080000D03*
%TD*%
D14*
%TO.P,R16,1*%
%TO.N,Net-(IC1-SCK1{slash}RC3)*%
X180545100Y-120370600D03*
%TO.P,R16,2*%
%TO.N,/MCU/IO_C_SPI_CLK*%
X182370100Y-120370600D03*
%TD*%
%TO.P,R15,1*%
%TO.N,Net-(IC1-SD01{slash}RA4)*%
X180545100Y-130530600D03*
%TO.P,R15,2*%
%TO.N,/MCU/O_C_SPI_MOSI*%
X182370100Y-130530600D03*
%TD*%
D15*
%TO.P,J2,1,Pin_1*%
%TO.N,/MCU/I_MCLR*%
X188544200Y-111455200D03*
D16*
%TO.P,J2,2,Pin_2*%
%TO.N,/MCU/I_PROG_PGEC*%
X188544200Y-113995200D03*
%TO.P,J2,3,Pin_3*%
%TO.N,/MCU/I_PROG_PGED*%
X188544200Y-116535200D03*
%TO.P,J2,4,Pin_4*%
%TO.N,/MCU/IO_D_C_DEBUG*%
X188544200Y-119075200D03*
%TO.P,J2,5,Pin_5*%
%TO.N,/MCU/IO_C_SPI_CLK*%
X188544200Y-121615200D03*
%TO.P,J2,6,Pin_6*%
%TO.N,/MCU/I_C_SPI_MiSO*%
X188544200Y-124155200D03*
%TO.P,J2,7,Pin_7*%
%TO.N,/MCU/O_C_SPI_MOSI*%
X188544200Y-126695200D03*
%TO.P,J2,8,Pin_8*%
%TO.N,/CAN/5V*%
X188544200Y-129235200D03*
%TO.P,J2,9,Pin_9*%
%TO.N,GND*%
X188544200Y-131775200D03*
%TD*%
D17*
%TO.P,C12,1*%
%TO.N,Net-(IC1-RA7)*%
X160784500Y-116738400D03*
%TO.P,C12,2*%
%TO.N,GND*%
X159059500Y-116738400D03*
%TD*%
D11*
%TO.P,R5,1*%
%TO.N,Net-(Q1-OSC1)*%
X172789200Y-133934200D03*
%TO.P,R5,2*%
%TO.N,Net-(IC1-OSC1{slash}RA2)*%
X170964200Y-133934200D03*
%TD*%
D12*
%TO.P,C5,1*%
%TO.N,Net-(IC1-OSC1{slash}RA2)*%
X170281600Y-129160100D03*
%TO.P,C5,2*%
%TO.N,GND*%
X170281600Y-130885100D03*
%TD*%
D15*
%TO.P,J3,1,Pin_1*%
%TO.N,/MCU/I_A_TEST*%
X168798000Y-107492800D03*
D16*
%TO.P,J3,2,Pin_2*%
%TO.N,/MCU/O_PWM_TEST*%
X171338000Y-107492800D03*
%TO.P,J3,3,Pin_3*%
%TO.N,/MCU/O_D_TEST*%
X173878000Y-107492800D03*
%TD*%
D12*
%TO.P,C3,1*%
%TO.N,/CAN/5V*%
X160197800Y-129312500D03*
%TO.P,C3,2*%
%TO.N,GND*%
X160197800Y-131037500D03*
%TD*%
D14*
%TO.P,R17,1*%
%TO.N,Net-(IC1-RC5)*%
X180545100Y-117830600D03*
%TO.P,R17,2*%
%TO.N,/MCU/IO_D_C_DEBUG*%
X182370100Y-117830600D03*
%TD*%
D18*
%TO.P,C2,1*%
%TO.N,/CAN/5V*%
X150713800Y-119049800D03*
%TO.P,C2,2*%
%TO.N,GND*%
X154313800Y-119049800D03*
%TD*%
D19*
%TO.P,U1,1,VI*%
%TO.N,/LDO/V_BATPROT*%
X151688800Y-108935000D03*
D20*
%TO.P,U1,2,GND*%
%TO.N,GND*%
X158338800Y-111235000D03*
D19*
%TO.P,U1,3,VO*%
%TO.N,/CAN/5V*%
X151688800Y-113535000D03*
%TD*%
D14*
%TO.P,R13,1*%
%TO.N,Net-(IC1-PGED2{slash}RB5)*%
X180545100Y-115290600D03*
%TO.P,R13,2*%
%TO.N,/MCU/I_PROG_PGED*%
X182370100Y-115290600D03*
%TD*%
%TO.P,R3,1*%
%TO.N,Net-(C4-Pad1)*%
X148455500Y-128676400D03*
%TO.P,R3,2*%
%TO.N,/CAN/CAN-*%
X150280500Y-128676400D03*
%TD*%
D17*
%TO.P,C9,1*%
%TO.N,/CAN/5V*%
X160784500Y-121996200D03*
%TO.P,C9,2*%
%TO.N,GND*%
X159059500Y-121996200D03*
%TD*%
D14*
%TO.P,R12,1*%
%TO.N,Net-(IC1-PGEC2{slash}RB6)*%
X180545100Y-112750600D03*
%TO.P,R12,2*%
%TO.N,/MCU/I_PROG_PGEC*%
X182370100Y-112750600D03*
%TD*%
%TO.P,R14,1*%
%TO.N,Net-(IC1-SDI1{slash}RA9)*%
X180545100Y-125450600D03*
%TO.P,R14,2*%
%TO.N,/MCU/I_C_SPI_MiSO*%
X182370100Y-125450600D03*
%TD*%
D11*
%TO.P,R8,1*%
%TO.N,GND*%
X182370100Y-127990600D03*
%TO.P,R8,2*%
%TO.N,Net-(IC1-SDI1{slash}RA9)*%
X180545100Y-127990600D03*
%TD*%
D17*
%TO.P,C11,1*%
%TO.N,/CAN/5V*%
X167993400Y-128346200D03*
%TO.P,C11,2*%
%TO.N,GND*%
X166268400Y-128346200D03*
%TD*%
D11*
%TO.P,R6,1*%
%TO.N,/MCU/I_A_TEST*%
X167005000Y-113106200D03*
%TO.P,R6,2*%
%TO.N,Net-(IC1-RA7)*%
X165180000Y-113106200D03*
%TD*%
D17*
%TO.P,C7,1*%
%TO.N,/CAN/5V*%
X160784500Y-118491000D03*
%TO.P,C7,2*%
%TO.N,GND*%
X159059500Y-118491000D03*
%TD*%
%TO.P,C14,1*%
%TO.N,Net-(IC1-~{MCLR})*%
X160784500Y-123748800D03*
%TO.P,C14,2*%
%TO.N,GND*%
X159059500Y-123748800D03*
%TD*%
D15*
%TO.P,J1,1,Pin_1*%
%TO.N,/Connector/V_BAT*%
X141706600Y-118719600D03*
D16*
%TO.P,J1,2,Pin_2*%
%TO.N,GND*%
X141706600Y-121259600D03*
%TO.P,J1,3,Pin_3*%
%TO.N,/Connector/COMM1*%
X141706600Y-123799600D03*
%TO.P,J1,4,Pin_4*%
%TO.N,/Connector/COMM2*%
X141706600Y-126339600D03*
%TO.P,J1,5,Pin_5*%
%TO.N,/CAN/CAN-*%
X141706600Y-128879600D03*
%TO.P,J1,6,Pin_6*%
%TO.N,/CAN/CAN+*%
X141706600Y-131419600D03*
%TD*%
D11*
%TO.P,R4,1*%
%TO.N,Net-(IC1-OSC2{slash}RA3)*%
X176914200Y-133934200D03*
%TO.P,R4,2*%
%TO.N,Net-(Q1-OSC1)*%
X175089200Y-133934200D03*
%TD*%
D21*
%TO.P,C4,1*%
%TO.N,Net-(C4-Pad1)*%
X148505500Y-126923800D03*
%TO.P,C4,2*%
%TO.N,GND*%
X150230500Y-126923800D03*
%TD*%
D14*
%TO.P,R19,1*%
%TO.N,/Connector/COMM1*%
X148464900Y-123418600D03*
%TO.P,R19,2*%
%TO.N,/CAN/TX*%
X150289900Y-123418600D03*
%TD*%
D11*
%TO.P,R10,1*%
%TO.N,GND*%
X182370100Y-122910600D03*
%TO.P,R10,2*%
%TO.N,Net-(IC1-SCK1{slash}RC3)*%
X180545100Y-122910600D03*
%TD*%
D14*
%TO.P,R11,1*%
%TO.N,Net-(IC1-~{MCLR})*%
X180545100Y-110210600D03*
%TO.P,R11,2*%
%TO.N,/MCU/I_MCLR*%
X182370100Y-110210600D03*
%TD*%
D22*
%TO.P,D1,1,A1*%
%TO.N,/Connector/V_BAT*%
X141895800Y-114935000D03*
%TO.P,D1,2,A2*%
%TO.N,GND*%
X145895800Y-114935000D03*
%TD*%
D17*
%TO.P,C8,1*%
%TO.N,/CAN/5V*%
X160784500Y-120243600D03*
%TO.P,C8,2*%
%TO.N,GND*%
X159059500Y-120243600D03*
%TD*%
D23*
%TO.P,IC1,1,PWM1L3/RB11*%
%TO.N,unconnected-(IC1-PWM1L3{slash}RB11-Pad1)*%
X173989000Y-115066600D03*
%TO.P,IC1,2,RC6*%
%TO.N,unconnected-(IC1-RC6-Pad2)*%
X173189000Y-115066600D03*
%TO.P,IC1,3,RC7*%
%TO.N,unconnected-(IC1-RC7-Pad3)*%
X172389000Y-115066600D03*
%TO.P,IC1,4,RC8*%
%TO.N,/Connector/COMM2*%
X171589000Y-115066600D03*
%TO.P,IC1,5,RC9*%
%TO.N,/Connector/COMM1*%
X170789000Y-115066600D03*
%TO.P,IC1,6,VSS*%
%TO.N,GND*%
X169989000Y-115066600D03*
%TO.P,IC1,7,VCAP*%
%TO.N,Net-(IC1-VCAP)*%
X169189000Y-115066600D03*
%TO.P,IC1,8,PWM1H3/RB10*%
%TO.N,unconnected-(IC1-PWM1H3{slash}RB10-Pad8)*%
X168389000Y-115066600D03*
%TO.P,IC1,9,PWM1L3/RB11*%
%TO.N,unconnected-(IC1-PWM1L3{slash}RB11-Pad9)*%
X167589000Y-115066600D03*
%TO.P,IC1,10,PWM1H2/RB12*%
%TO.N,unconnected-(IC1-PWM1H2{slash}RB12-Pad10)*%
X166789000Y-115066600D03*
%TO.P,IC1,11,PWM1L2/RB13*%
%TO.N,unconnected-(IC1-PWM1L2{slash}RB13-Pad11)*%
X165989000Y-115066600D03*
D24*
%TO.P,IC1,12,RA10*%
%TO.N,unconnected-(IC1-RA10-Pad12)*%
X164289000Y-116766600D03*
%TO.P,IC1,13,RA7*%
%TO.N,Net-(IC1-RA7)*%
X164289000Y-117566600D03*
%TO.P,IC1,14,PWM1H1/RB14*%
%TO.N,/MCU/O_PWM_TEST*%
X164289000Y-118366600D03*
%TO.P,IC1,15,PWM1L1/RB15*%
%TO.N,/CAN/STBY*%
X164289000Y-119166600D03*
%TO.P,IC1,16,AVSS*%
%TO.N,GND*%
X164289000Y-119966600D03*
%TO.P,IC1,17,AVDD*%
%TO.N,/CAN/5V*%
X164289000Y-120766600D03*
%TO.P,IC1,18,~{MCLR}*%
%TO.N,Net-(IC1-~{MCLR})*%
X164289000Y-121566600D03*
%TO.P,IC1,19,AN0/RA0*%
%TO.N,unconnected-(IC1-AN0{slash}RA0-Pad19)*%
X164289000Y-122366600D03*
%TO.P,IC1,20,AN1/RA1*%
%TO.N,unconnected-(IC1-AN1{slash}RA1-Pad20)*%
X164289000Y-123166600D03*
%TO.P,IC1,21,AN2/RB0*%
%TO.N,unconnected-(IC1-AN2{slash}RB0-Pad21)*%
X164289000Y-123966600D03*
%TO.P,IC1,22,AN3/RB1*%
%TO.N,unconnected-(IC1-AN3{slash}RB1-Pad22)*%
X164289000Y-124766600D03*
D23*
%TO.P,IC1,23,AN4/RB2*%
%TO.N,unconnected-(IC1-AN4{slash}RB2-Pad23)*%
X165989000Y-126466600D03*
%TO.P,IC1,24,AN5/RB3*%
%TO.N,unconnected-(IC1-AN5{slash}RB3-Pad24)*%
X166789000Y-126466600D03*
%TO.P,IC1,25,OA3OUT/RC0*%
%TO.N,unconnected-(IC1-OA3OUT{slash}RC0-Pad25)*%
X167589000Y-126466600D03*
%TO.P,IC1,26,C3IN1-/RC1*%
%TO.N,/CAN/TX*%
X168389000Y-126466600D03*
%TO.P,IC1,27,C3IN1-/RC2*%
%TO.N,/CAN/RX*%
X169189000Y-126466600D03*
%TO.P,IC1,28,VDD*%
%TO.N,/CAN/5V*%
X169989000Y-126466600D03*
%TO.P,IC1,29,VSS*%
%TO.N,GND*%
X170789000Y-126466600D03*
%TO.P,IC1,30,OSC1/RA2*%
%TO.N,Net-(IC1-OSC1{slash}RA2)*%
X171589000Y-126466600D03*
%TO.P,IC1,31,OSC2/RA3*%
%TO.N,Net-(IC1-OSC2{slash}RA3)*%
X172389000Y-126466600D03*
%TO.P,IC1,32,RA8*%
%TO.N,unconnected-(IC1-RA8-Pad32)*%
X173189000Y-126466600D03*
%TO.P,IC1,33,FLT32/RB4*%
%TO.N,/MCU/O_D_TEST*%
X173989000Y-126466600D03*
D24*
%TO.P,IC1,34,SD01/RA4*%
%TO.N,Net-(IC1-SD01{slash}RA4)*%
X175689000Y-124766600D03*
%TO.P,IC1,35,SDI1/RA9*%
%TO.N,Net-(IC1-SDI1{slash}RA9)*%
X175689000Y-123966600D03*
%TO.P,IC1,36,SCK1/RC3*%
%TO.N,Net-(IC1-SCK1{slash}RC3)*%
X175689000Y-123166600D03*
%TO.P,IC1,37,RC4*%
%TO.N,unconnected-(IC1-RC4-Pad37)*%
X175689000Y-122366600D03*
%TO.P,IC1,38,RC5*%
%TO.N,Net-(IC1-RC5)*%
X175689000Y-121566600D03*
%TO.P,IC1,39,VSS*%
%TO.N,GND*%
X175689000Y-120766600D03*
%TO.P,IC1,40,VDD*%
%TO.N,/CAN/5V*%
X175689000Y-119966600D03*
%TO.P,IC1,41,PGED2/RB5*%
%TO.N,Net-(IC1-PGED2{slash}RB5)*%
X175689000Y-119166600D03*
%TO.P,IC1,42,PGEC2/RB6*%
%TO.N,Net-(IC1-PGEC2{slash}RB6)*%
X175689000Y-118366600D03*
%TO.P,IC1,43,RB7*%
%TO.N,unconnected-(IC1-RB7-Pad43)*%
X175689000Y-117566600D03*
%TO.P,IC1,44,RB8*%
%TO.N,unconnected-(IC1-RB8-Pad44)*%
X175689000Y-116766600D03*
%TD*%
D25*
%TO.P,C6,1*%
%TO.N,GND*%
X177596800Y-130885100D03*
%TO.P,C6,2*%
%TO.N,Net-(IC1-OSC2{slash}RA3)*%
X177596800Y-129160100D03*
%TD*%
D11*
%TO.P,R7,1*%
%TO.N,Net-(IC1-~{MCLR})*%
X160834500Y-125501400D03*
%TO.P,R7,2*%
%TO.N,/CAN/5V*%
X159009500Y-125501400D03*
%TD*%
D26*
%TO.P,D2,1,A_1*%
%TO.N,/Connector/V_BAT*%
X141108300Y-111325000D03*
%TO.P,D2,2,A_2*%
%TO.N,unconnected-(D2-A_2-Pad2)*%
X141108300Y-109245000D03*
D27*
%TO.P,D2,3,K*%
%TO.N,/LDO/V_BATPROT*%
X144913300Y-110285000D03*
%TD*%
D11*
%TO.P,R2,1*%
%TO.N,/CAN/CAN+*%
X150280500Y-131724400D03*
%TO.P,R2,2*%
%TO.N,Net-(C4-Pad1)*%
X148455500Y-131724400D03*
%TD*%
D28*
%TO.P,Q1,1,OSC1*%
%TO.N,Net-(Q1-OSC1)*%
X172782200Y-130937000D03*
%TO.P,Q1,2,GND*%
%TO.N,GND*%
X175082200Y-130937000D03*
%TO.P,Q1,3,OSC2*%
%TO.N,Net-(IC1-OSC2{slash}RA3)*%
X175082200Y-129087000D03*
%TO.P,Q1,4,GND*%
%TO.N,GND*%
X172782200Y-129087000D03*
%TD*%
D12*
%TO.P,C1,1*%
%TO.N,/LDO/V_BATPROT*%
X148361400Y-108935000D03*
%TO.P,C1,2*%
%TO.N,GND*%
X148361400Y-110660000D03*
%TD*%
D21*
%TO.P,C13,1*%
%TO.N,Net-(IC1-VCAP)*%
X168736900Y-113106200D03*
%TO.P,C13,2*%
%TO.N,GND*%
X170461900Y-113106200D03*
%TD*%
D29*
%TO.N,/LDO/V_BATPROT*%
X143223300Y-108585000D03*
X146573300Y-110285000D03*
X144913300Y-111985000D03*
X143223300Y-111985000D03*
X144913300Y-108585000D03*
X144913300Y-110285000D03*
X146573300Y-111985000D03*
X146573300Y-108585000D03*
X143223300Y-110285000D03*
%TO.N,GND*%
X182651400Y-113995200D03*
X157950400Y-108457600D03*
X147040600Y-134315200D03*
X167360600Y-111455200D03*
X179070000Y-121676600D03*
X187731400Y-134315200D03*
X147040600Y-106375200D03*
X185191400Y-113995200D03*
X170789600Y-124663200D03*
X158750400Y-109257600D03*
X182651400Y-129235200D03*
X169900600Y-111455200D03*
X182651400Y-121615200D03*
X158750400Y-108457600D03*
X161100400Y-111607600D03*
X173939200Y-130022600D03*
X151790400Y-126923800D03*
X164871400Y-134315200D03*
X158750400Y-113957600D03*
X152171400Y-134315200D03*
X154660600Y-106375200D03*
X160300400Y-109257600D03*
X159740600Y-106375200D03*
X182651400Y-108915200D03*
X162280600Y-106375200D03*
X158750400Y-110807600D03*
X161100400Y-113957600D03*
X164871400Y-131775200D03*
X158750400Y-111607600D03*
X180111400Y-116535200D03*
X177571400Y-113995200D03*
X182651400Y-124155200D03*
X157251400Y-134315200D03*
X180111400Y-113995200D03*
X180111400Y-134315200D03*
X160300400Y-111607600D03*
X164820600Y-106375200D03*
X144500600Y-119075200D03*
X172440600Y-111455200D03*
X157950400Y-113957600D03*
X156400400Y-109257600D03*
X157251400Y-121615200D03*
X157950400Y-111607600D03*
X157950400Y-110807600D03*
X155600400Y-113957600D03*
X164820600Y-108915200D03*
X182651400Y-126695200D03*
X141960600Y-134315200D03*
X185191400Y-116535200D03*
X160300400Y-108457600D03*
X160300400Y-113157600D03*
X166068800Y-119938800D03*
X152120600Y-106375200D03*
X156400400Y-111607600D03*
X177571400Y-108915200D03*
X182651400Y-119075200D03*
X185191400Y-111455200D03*
X182651400Y-116535200D03*
X149580600Y-134315200D03*
X158750400Y-113157600D03*
X155600400Y-109257600D03*
X187731400Y-106375200D03*
X149580600Y-121615200D03*
X152171400Y-121615200D03*
X185191400Y-108915200D03*
X182651400Y-134315200D03*
X177571400Y-106375200D03*
X155600400Y-108457600D03*
X156400400Y-113157600D03*
X147040600Y-124155200D03*
X144500600Y-134315200D03*
X177571400Y-126695200D03*
X144500600Y-106375200D03*
X164820600Y-111455200D03*
X185191400Y-134315200D03*
X161100400Y-110807600D03*
X182651400Y-131775200D03*
X160300400Y-113957600D03*
X141960600Y-106375200D03*
X180111400Y-119075200D03*
X144500600Y-131775200D03*
X147040600Y-126695200D03*
X161100400Y-108457600D03*
X180111400Y-111455200D03*
X157200600Y-106375200D03*
X185191400Y-126695200D03*
X156400400Y-110807600D03*
X164871400Y-129235200D03*
X161100400Y-113157600D03*
X149580600Y-106375200D03*
X185191400Y-121615200D03*
X156400400Y-113957600D03*
X159791400Y-134315200D03*
X180111400Y-108915200D03*
X162331400Y-124155200D03*
X160300400Y-110807600D03*
X167411400Y-134315200D03*
X180111400Y-106375200D03*
X182651400Y-111455200D03*
X161696400Y-131038600D03*
X185191400Y-124155200D03*
X187731400Y-108915200D03*
X162331400Y-134315200D03*
X177571400Y-111455200D03*
X144500600Y-121615200D03*
X161100400Y-109257600D03*
X155600400Y-110807600D03*
X144500600Y-126695200D03*
X167411400Y-131775200D03*
X155600400Y-111607600D03*
X180111400Y-129235200D03*
X155600400Y-113157600D03*
X156400400Y-108457600D03*
X182651400Y-106375200D03*
X154711400Y-134315200D03*
X180111400Y-124155200D03*
X185191400Y-119075200D03*
X185191400Y-131775200D03*
X157950400Y-113157600D03*
X157950400Y-109257600D03*
X185191400Y-106375200D03*
%TO.N,/CAN/5V*%
X157305800Y-125501400D03*
X167995600Y-129844800D03*
X147980400Y-118668800D03*
X162512800Y-118491000D03*
X147980400Y-119456200D03*
X161696400Y-129311400D03*
X147243800Y-119456200D03*
X147243800Y-118668800D03*
X179070000Y-119951600D03*
%TO.N,Net-(C4-Pad1)*%
X146964400Y-128676400D03*
X146964400Y-131724400D03*
%TO.N,Net-(IC1-~{MCLR})*%
X162331400Y-125501400D03*
X172802400Y-113106200D03*
%TO.N,Net-(IC1-RC5)*%
X174040800Y-121551603D03*
X179070000Y-117830600D03*
%TO.N,/CAN/TX*%
X159943800Y-132740400D03*
X153873200Y-123418600D03*
X168402000Y-124663200D03*
%TO.N,/Connector/COMM2*%
X170891200Y-117525800D03*
%TO.N,/Connector/COMM1*%
X170379051Y-116875800D03*
%TO.N,/MCU/O_D_TEST*%
X173993600Y-124663200D03*
%TO.N,/CAN/STBY*%
X156337000Y-132080000D03*
X162509200Y-119735600D03*
%TO.N,/CAN/RX*%
X154561792Y-125168408D03*
X159943800Y-127609600D03*
X169189400Y-123825000D03*
%TO.N,Net-(IC1-PGED2{slash}RB5)*%
X179070000Y-115290600D03*
X174040800Y-119126000D03*
%TO.N,/MCU/O_PWM_TEST*%
X166068800Y-118338600D03*
%TO.N,Net-(U2-SPLIT)*%
X151790400Y-133477000D03*
X155117800Y-128270000D03*
%TD*%
D30*
%TO.N,/LDO/V_BATPROT*%
X146263300Y-108935000D02*
X148361400Y-108935000D01*
X148361400Y-108935000D02*
X151688800Y-108935000D01*
X144913300Y-110285000D02*
X146263300Y-108935000D01*
D31*
%TO.N,GND*%
X170461900Y-113716900D02*
X170461900Y-113106200D01*
D32*
X173939200Y-130022600D02*
X174864200Y-130947600D01*
X172789200Y-129097600D02*
X171001700Y-130885100D01*
D31*
X164302200Y-119951600D02*
X166056000Y-119951600D01*
X161695300Y-131037500D02*
X161696400Y-131038600D01*
X170002200Y-114176600D02*
X170461900Y-113716900D01*
X170002200Y-115051600D02*
X170002200Y-114176600D01*
X176671800Y-120751600D02*
X177596800Y-121676600D01*
X177596800Y-121676600D02*
X179070000Y-121676600D01*
D32*
X150230500Y-126923800D02*
X151790400Y-126923800D01*
D31*
X158089600Y-130810000D02*
X159970300Y-130810000D01*
X170802200Y-126451600D02*
X170802200Y-124675800D01*
D32*
X177534300Y-130947600D02*
X177596800Y-130885100D01*
X173014200Y-129097600D02*
X173939200Y-130022600D01*
X171001700Y-130885100D02*
X170281600Y-130885100D01*
D31*
X160197800Y-131037500D02*
X161695300Y-131037500D01*
D32*
X174864200Y-130947600D02*
X175089200Y-130947600D01*
X172789200Y-129097600D02*
X173014200Y-129097600D01*
X175089200Y-130947600D02*
X177534300Y-130947600D01*
D31*
X159970300Y-130810000D02*
X160197800Y-131037500D01*
X166056000Y-119951600D02*
X166068800Y-119938800D01*
X170802200Y-124675800D02*
X170789600Y-124663200D01*
X175702200Y-120751600D02*
X176671800Y-120751600D01*
%TO.N,/CAN/5V*%
X158089600Y-129540000D02*
X159970300Y-129540000D01*
D30*
X150723600Y-119040000D02*
X150723600Y-116128800D01*
X151688800Y-115163600D02*
X151688800Y-113535000D01*
D31*
X169057600Y-128346200D02*
X167989700Y-128346200D01*
X160197800Y-129312500D02*
X161695300Y-129312500D01*
X162029100Y-120751600D02*
X160784500Y-121996200D01*
D30*
X150723600Y-116128800D02*
X151688800Y-115163600D01*
D31*
X177596800Y-119951600D02*
X179068900Y-119951600D01*
X170002200Y-127401600D02*
X169057600Y-128346200D01*
X159970300Y-129540000D02*
X160197800Y-129312500D01*
X164302200Y-120751600D02*
X162029100Y-120751600D01*
X158922000Y-125501400D02*
X157305800Y-125501400D01*
X167989700Y-128346200D02*
X167989700Y-129838900D01*
D30*
X151751800Y-113535000D02*
X151790400Y-113573600D01*
D31*
X161695300Y-129312500D02*
X161696400Y-129311400D01*
D30*
X150713800Y-119049800D02*
X147610600Y-119049800D01*
X150713800Y-119049800D02*
X150723600Y-119040000D01*
D31*
X170002200Y-126451600D02*
X170002200Y-127401600D01*
X167989700Y-129838900D02*
X167995600Y-129844800D01*
X160784500Y-120243600D02*
X160784500Y-118491000D01*
X160784500Y-121996200D02*
X160784500Y-120243600D01*
X175702200Y-119951600D02*
X177596800Y-119951600D01*
X160959500Y-118491000D02*
X162512800Y-118491000D01*
D32*
%TO.N,Net-(C4-Pad1)*%
X148455500Y-128676400D02*
X146964400Y-128676400D01*
X148455500Y-126973800D02*
X148505500Y-126923800D01*
X148455500Y-133477000D02*
X148455500Y-131724400D01*
D10*
X148368000Y-126607700D02*
X148330500Y-126570200D01*
X148098000Y-132070600D02*
X148368000Y-131800600D01*
D32*
X148455500Y-131724400D02*
X146964400Y-131724400D01*
X148455500Y-128676400D02*
X148455500Y-126973800D01*
%TO.N,Net-(IC1-OSC1{slash}RA2)*%
X169164000Y-130277700D02*
X170281600Y-129160100D01*
X171602200Y-126451600D02*
X171602200Y-127839500D01*
X171602400Y-126451800D02*
X171602200Y-126451600D01*
X169164000Y-132134000D02*
X169164000Y-130277700D01*
X170964200Y-133934200D02*
X169164000Y-132134000D01*
X171602200Y-127839500D02*
X170281600Y-129160100D01*
%TO.N,Net-(IC1-OSC2{slash}RA3)*%
X172402200Y-126451600D02*
X172402200Y-127401600D01*
X178689000Y-130252300D02*
X177596800Y-129160100D01*
X178689000Y-132159400D02*
X178689000Y-130252300D01*
X177596800Y-129160100D02*
X175155300Y-129160100D01*
X176914200Y-133934200D02*
X178689000Y-132159400D01*
X174087400Y-128092200D02*
X175082200Y-129087000D01*
X173092800Y-128092200D02*
X174087400Y-128092200D01*
X175155300Y-129160100D02*
X175082200Y-129087000D01*
X172402200Y-127401600D02*
X173092800Y-128092200D01*
%TO.N,Net-(IC1-RA7)*%
X161547800Y-116738400D02*
X165180000Y-113106200D01*
X161597700Y-117551600D02*
X160784500Y-116738400D01*
X164302200Y-117551600D02*
X161597700Y-117551600D01*
X160784500Y-116738400D02*
X161547800Y-116738400D01*
%TO.N,Net-(IC1-VCAP)*%
X168736900Y-113691500D02*
X168736900Y-113106200D01*
X169202200Y-114156800D02*
X168736900Y-113691500D01*
X169202200Y-115051600D02*
X169202200Y-114156800D01*
%TO.N,Net-(IC1-~{MCLR})*%
X180545100Y-110210600D02*
X175698000Y-110210600D01*
X160428900Y-125197400D02*
X160478900Y-125247400D01*
D10*
X160603900Y-125209900D02*
X160566400Y-125247400D01*
D32*
X160834500Y-125501400D02*
X162331400Y-125501400D01*
X160784500Y-123748800D02*
X160784500Y-125451400D01*
X164302200Y-121551600D02*
X162981700Y-121551600D01*
X162981700Y-121551600D02*
X160784500Y-123748800D01*
X175698000Y-110210600D02*
X172802400Y-113106200D01*
D30*
%TO.N,/Connector/V_BAT*%
X141147800Y-114187000D02*
X141147800Y-111364500D01*
X141895800Y-114935000D02*
X141147800Y-114187000D01*
X141706600Y-115124200D02*
X141895800Y-114935000D01*
X141706600Y-118719600D02*
X141706600Y-115124200D01*
X141147800Y-111364500D02*
X141108300Y-111325000D01*
D32*
%TO.N,Net-(IC1-RC5)*%
X180545100Y-117830600D02*
X179070000Y-117830600D01*
X175702200Y-121551600D02*
X174040803Y-121551600D01*
X174040803Y-121551600D02*
X174040800Y-121551603D01*
%TO.N,Net-(IC1-PGEC2{slash}RB6)*%
X178358800Y-113893600D02*
X179501800Y-112750600D01*
X176948800Y-118351600D02*
X178358800Y-116941600D01*
X178358800Y-116941600D02*
X178358800Y-113893600D01*
X175702200Y-118351600D02*
X176948800Y-118351600D01*
X179501800Y-112750600D02*
X180545100Y-112750600D01*
D10*
%TO.N,/CAN/TX*%
X168402200Y-124663400D02*
X168402000Y-124663200D01*
D32*
X150289900Y-123418600D02*
X153873200Y-123418600D01*
X159943800Y-132740400D02*
X159283400Y-132080000D01*
X159283400Y-132080000D02*
X158075400Y-132080000D01*
X168402200Y-126451600D02*
X168402200Y-124663400D01*
%TO.N,/Connector/COMM2*%
X148464900Y-125171200D02*
X142900400Y-125171200D01*
X171602200Y-115051600D02*
X171602200Y-116814800D01*
X171602200Y-116814800D02*
X170891200Y-117525800D01*
X142900400Y-125171200D02*
X141732000Y-126339600D01*
%TO.N,/Connector/COMM1*%
X148464900Y-123418600D02*
X142087600Y-123418600D01*
X141706600Y-123799600D02*
X141732000Y-123799600D01*
X170802200Y-116452651D02*
X170802200Y-115051600D01*
X170379051Y-116875800D02*
X170802200Y-116452651D01*
X142087600Y-123418600D02*
X141706600Y-123799600D01*
%TO.N,/MCU/O_D_TEST*%
X174002200Y-124671800D02*
X173993600Y-124663200D01*
X174002200Y-126451600D02*
X174002200Y-124671800D01*
%TO.N,Net-(IC1-SCK1{slash}RC3)*%
X180289100Y-123166600D02*
X175689000Y-123166600D01*
X180545100Y-122910600D02*
X180289100Y-123166600D01*
X180545100Y-122910600D02*
X180304100Y-123151600D01*
X180545100Y-122910600D02*
X180545100Y-120370600D01*
%TO.N,/CAN/STBY*%
X164289000Y-119166600D02*
X163078200Y-119166600D01*
X153125400Y-132080000D02*
X156337000Y-132080000D01*
X163078200Y-119166600D02*
X162509200Y-119735600D01*
%TO.N,Net-(IC1-SDI1{slash}RA9)*%
X175702200Y-123951600D02*
X178688600Y-123951600D01*
X180187600Y-125450600D02*
X180545100Y-125450600D01*
X178688600Y-123951600D02*
X180187600Y-125450600D01*
X180545100Y-125450600D02*
X180545100Y-127990600D01*
%TO.N,/CAN/RX*%
X159283400Y-128270000D02*
X158089600Y-128270000D01*
D10*
X154559000Y-125171200D02*
X154561792Y-125168408D01*
D32*
X169202200Y-123837800D02*
X169189400Y-123825000D01*
X159943800Y-127609600D02*
X159283400Y-128270000D01*
X169202200Y-126451600D02*
X169202200Y-123837800D01*
D10*
X150289900Y-125171200D02*
X154559000Y-125171200D01*
D32*
%TO.N,Net-(IC1-PGED2{slash}RB5)*%
X180545100Y-115290600D02*
X179070000Y-115290600D01*
X174066400Y-119151600D02*
X174040800Y-119126000D01*
X175702200Y-119151600D02*
X174066400Y-119151600D01*
%TO.N,/MCU/O_PWM_TEST*%
X164302200Y-118351600D02*
X166055800Y-118351600D01*
D10*
X166055800Y-118351600D02*
X166068800Y-118338600D01*
D32*
%TO.N,Net-(IC1-SD01{slash}RA4)*%
X180545100Y-130530600D02*
X180545100Y-133070600D01*
X180289200Y-130530600D02*
X180545100Y-130530600D01*
X179120800Y-129362200D02*
X180289200Y-130530600D01*
X175702200Y-124751600D02*
X176618400Y-124751600D01*
X179120800Y-127254000D02*
X179120800Y-129362200D01*
X176618400Y-124751600D02*
X179120800Y-127254000D01*
%TO.N,/CAN/CAN+*%
X151561800Y-130810000D02*
X151307800Y-130556000D01*
X150266400Y-130556000D02*
X150280500Y-130570100D01*
X150266400Y-130556000D02*
X142595600Y-130556000D01*
X153139600Y-130810000D02*
X151561800Y-130810000D01*
X150280500Y-130570100D02*
X150280500Y-131724400D01*
X151307800Y-130556000D02*
X150266400Y-130556000D01*
X142595600Y-130556000D02*
X141732000Y-131419600D01*
%TO.N,/CAN/CAN-*%
X153139600Y-129540000D02*
X151612600Y-129540000D01*
X150291800Y-129844800D02*
X142697200Y-129844800D01*
X151612600Y-129540000D02*
X151307800Y-129844800D01*
X150280500Y-129833500D02*
X150280500Y-128676400D01*
X142697200Y-129844800D02*
X141732000Y-128879600D01*
X151307800Y-129844800D02*
X150291800Y-129844800D01*
X150291800Y-129844800D02*
X150280500Y-129833500D01*
%TO.N,/MCU/IO_C_SPI_CLK*%
X182370100Y-120370600D02*
X187299600Y-120370600D01*
X187299600Y-120370600D02*
X188544200Y-121615200D01*
%TO.N,/MCU/O_C_SPI_MOSI*%
X184708800Y-130530600D02*
X188544200Y-126695200D01*
X182370100Y-130530600D02*
X184708800Y-130530600D01*
%TO.N,/MCU/IO_D_C_DEBUG*%
X187299600Y-117830600D02*
X188544200Y-119075200D01*
X182370100Y-117830600D02*
X187299600Y-117830600D01*
%TO.N,/MCU/I_C_SPI_MiSO*%
X187248800Y-125450600D02*
X182370100Y-125450600D01*
X188544200Y-124155200D02*
X187248800Y-125450600D01*
%TO.N,/MCU/I_MCLR*%
X187299600Y-110210600D02*
X188544200Y-111455200D01*
X182370100Y-110210600D02*
X187299600Y-110210600D01*
%TO.N,/MCU/I_PROG_PGEC*%
X182370100Y-112750600D02*
X187299600Y-112750600D01*
X187299600Y-112750600D02*
X188544200Y-113995200D01*
%TO.N,/MCU/I_PROG_PGED*%
X187299600Y-115290600D02*
X188544200Y-116535200D01*
X182370100Y-115290600D02*
X187299600Y-115290600D01*
%TO.N,/MCU/I_A_TEST*%
X168798000Y-111313200D02*
X168798000Y-107492800D01*
X167005000Y-113106200D02*
X168798000Y-111313200D01*
%TO.N,Net-(Q1-OSC1)*%
X172789200Y-133934200D02*
X172789200Y-130947600D01*
X172789200Y-133934200D02*
X175089200Y-133934200D01*
%TO.N,Net-(U2-SPLIT)*%
X153125400Y-128270000D02*
X155117800Y-128270000D01*
D10*
X150280500Y-133477000D02*
X151790400Y-133477000D01*
%TD*%
%TA.AperFunction,Conductor*%
%TO.N,GND*%
G36*
X176706228Y-129830285D02*
G01*
X176744728Y-129869504D01*
X176776459Y-129920949D01*
X176790782Y-129935272D01*
X176824267Y-129996595D01*
X176819283Y-130066287D01*
X176790785Y-130110632D01*
X176776852Y-130124565D01*
X176686351Y-130271288D01*
X176686346Y-130271299D01*
X176632119Y-130434947D01*
X176621800Y-130535945D01*
X176621800Y-130635100D01*
X177722800Y-130635100D01*
X177789839Y-130654785D01*
X177835594Y-130707589D01*
X177846800Y-130759100D01*
X177846800Y-131929377D01*
X177872131Y-131975768D01*
X177867147Y-132045460D01*
X177838646Y-132089807D01*
X177006071Y-132922381D01*
X176944748Y-132955866D01*
X176918390Y-132958700D01*
X176615031Y-132958700D01*
X176615012Y-132958701D01*
X176513947Y-132969025D01*
X176350184Y-133023292D01*
X176350181Y-133023293D01*
X176203348Y-133113861D01*
X176089381Y-133227829D01*
X176028058Y-133261314D01*
X175958366Y-133256330D01*
X175914019Y-133227829D01*
X175800051Y-133113861D01*
X175800050Y-133113860D01*
X175653216Y-133023292D01*
X175489453Y-132969026D01*
X175489451Y-132969025D01*
X175388378Y-132958700D01*
X174790030Y-132958700D01*
X174790012Y-132958701D01*
X174688947Y-132969025D01*
X174525184Y-133023292D01*
X174525181Y-133023293D01*
X174378348Y-133113861D01*
X174256355Y-133235854D01*
X174255755Y-133236614D01*
X174255210Y-133236999D01*
X174251253Y-133240957D01*
X174250576Y-133240280D01*
X174198732Y-133276989D01*
X174158492Y-133283700D01*
X173719908Y-133283700D01*
X173652869Y-133264015D01*
X173627283Y-133240819D01*
X173627146Y-133240957D01*
X173624336Y-133238147D01*
X173622645Y-133236614D01*
X173622047Y-133235858D01*
X173622041Y-133235852D01*
X173622040Y-133235850D01*
X173500050Y-133113860D01*
X173500049Y-133113859D01*
X173500046Y-133113856D01*
X173500045Y-133113855D01*
X173498600Y-133112964D01*
X173497817Y-133112093D01*
X173494384Y-133109379D01*
X173494847Y-133108792D01*
X173451877Y-133061015D01*
X173439700Y-133007428D01*
X173439700Y-132077831D01*
X173459385Y-132010792D01*
X173512189Y-131965037D01*
X173535184Y-131957155D01*
X173539678Y-131956092D01*
X173539679Y-131956091D01*
X173539683Y-131956091D01*
X173674531Y-131905796D01*
X173789746Y-131819546D01*
X173833246Y-131761436D01*
X173889179Y-131719567D01*
X173958871Y-131714583D01*
X174020194Y-131748068D01*
X174031778Y-131761438D01*
X174075009Y-131819187D01*
X174075012Y-131819190D01*
X174190106Y-131905350D01*
X174190113Y-131905354D01*
X174324820Y-131955596D01*
X174324827Y-131955598D01*
X174384355Y-131961999D01*
X174384372Y-131962000D01*
X174832200Y-131962000D01*
X175332200Y-131962000D01*
X175780028Y-131962000D01*
X175780044Y-131961999D01*
X175839572Y-131955598D01*
X175839579Y-131955596D01*
X175974286Y-131905354D01*
X175974293Y-131905350D01*
X176089387Y-131819190D01*
X176089390Y-131819187D01*
X176175550Y-131704093D01*
X176175554Y-131704086D01*
X176225796Y-131569379D01*
X176225798Y-131569372D01*
X176232199Y-131509844D01*
X176232200Y-131509827D01*
X176232200Y-131234254D01*
X176621801Y-131234254D01*
X176632119Y-131335252D01*
X176686346Y-131498900D01*
X176686351Y-131498911D01*
X176776852Y-131645634D01*
X176776855Y-131645638D01*
X176898761Y-131767544D01*
X176898765Y-131767547D01*
X177045488Y-131858048D01*
X177045499Y-131858053D01*
X177209147Y-131912280D01*
X177310152Y-131922599D01*
X177346800Y-131922599D01*
X177346800Y-131135100D01*
X176621801Y-131135100D01*
X176621801Y-131234254D01*
X176232200Y-131234254D01*
X176232200Y-131187000D01*
X175332200Y-131187000D01*
X175332200Y-131962000D01*
X174832200Y-131962000D01*
X174832200Y-130811000D01*
X174851885Y-130743961D01*
X174904689Y-130698206D01*
X174956200Y-130687000D01*
X176232200Y-130687000D01*
X176232200Y-130364172D01*
X176232199Y-130364155D01*
X176225798Y-130304627D01*
X176225796Y-130304620D01*
X176175554Y-130169913D01*
X176175552Y-130169910D01*
X176113282Y-130086727D01*
X176088865Y-130021262D01*
X176103717Y-129952989D01*
X176113283Y-129938104D01*
X176115404Y-129935272D01*
X176158827Y-129877266D01*
X176171537Y-129860288D01*
X176227471Y-129818418D01*
X176270803Y-129810600D01*
X176639189Y-129810600D01*
X176706228Y-129830285D01*
G37*
%TD.AperFunction*%
%TA.AperFunction,Conductor*%
G36*
X172975239Y-128856685D02*
G01*
X173020994Y-128909489D01*
X173032200Y-128961000D01*
X173032200Y-129213000D01*
X173012515Y-129280039D01*
X172959711Y-129325794D01*
X172908200Y-129337000D01*
X171632200Y-129337000D01*
X171632200Y-129659844D01*
X171638601Y-129719372D01*
X171638603Y-129719379D01*
X171688845Y-129854086D01*
X171688846Y-129854088D01*
X171751118Y-129937272D01*
X171775535Y-130002736D01*
X171760684Y-130071009D01*
X171751118Y-130085894D01*
X171688404Y-130169669D01*
X171688402Y-130169671D01*
X171638108Y-130304517D01*
X171631701Y-130364116D01*
X171631700Y-130364135D01*
X171631700Y-131509870D01*
X171631701Y-131509876D01*
X171638108Y-131569483D01*
X171688402Y-131704328D01*
X171688406Y-131704335D01*
X171774652Y-131819544D01*
X171774655Y-131819547D01*
X171889864Y-131905793D01*
X171889871Y-131905797D01*
X172024713Y-131956090D01*
X172024714Y-131956090D01*
X172024717Y-131956091D01*
X172027953Y-131956438D01*
X172030297Y-131957409D01*
X172032262Y-131957874D01*
X172032186Y-131958192D01*
X172092503Y-131983174D01*
X172132353Y-132040565D01*
X172138700Y-132079728D01*
X172138700Y-133007428D01*
X172119015Y-133074467D01*
X172083769Y-133109067D01*
X172084016Y-133109379D01*
X172081115Y-133111672D01*
X172079800Y-133112964D01*
X172078354Y-133113855D01*
X171964380Y-133227829D01*
X171903057Y-133261313D01*
X171833365Y-133256329D01*
X171789018Y-133227828D01*
X171675051Y-133113861D01*
X171675050Y-133113860D01*
X171528216Y-133023292D01*
X171364453Y-132969026D01*
X171364451Y-132969025D01*
X171263384Y-132958700D01*
X171263377Y-132958700D01*
X170960008Y-132958700D01*
X170892969Y-132939015D01*
X170872327Y-132922381D01*
X170039753Y-132089807D01*
X170006268Y-132028484D01*
X170011252Y-131958792D01*
X170031600Y-131927130D01*
X170031600Y-131922599D01*
X170531600Y-131922599D01*
X170568240Y-131922599D01*
X170568254Y-131922598D01*
X170669252Y-131912280D01*
X170832900Y-131858053D01*
X170832911Y-131858048D01*
X170979634Y-131767547D01*
X170979638Y-131767544D01*
X171101544Y-131645638D01*
X171101547Y-131645634D01*
X171192048Y-131498911D01*
X171192053Y-131498900D01*
X171246280Y-131335252D01*
X171256599Y-131234254D01*
X171256600Y-131234241D01*
X171256600Y-131135100D01*
X170531600Y-131135100D01*
X170531600Y-131922599D01*
X170031600Y-131922599D01*
X170031600Y-130759100D01*
X170051285Y-130692061D01*
X170104089Y-130646306D01*
X170155600Y-130635100D01*
X171256599Y-130635100D01*
X171256599Y-130535960D01*
X171256598Y-130535945D01*
X171246280Y-130434947D01*
X171192053Y-130271299D01*
X171192048Y-130271288D01*
X171101547Y-130124565D01*
X171101544Y-130124561D01*
X171087617Y-130110634D01*
X171054132Y-130049311D01*
X171059116Y-129979619D01*
X171087617Y-129935272D01*
X171101940Y-129920950D01*
X171192508Y-129774116D01*
X171246774Y-129610353D01*
X171257100Y-129509277D01*
X171257099Y-129155906D01*
X171276783Y-129088868D01*
X171293413Y-129068231D01*
X171490743Y-128870901D01*
X171552064Y-128837418D01*
X171580838Y-128839475D01*
X171580838Y-128837000D01*
X172908200Y-128837000D01*
X172975239Y-128856685D01*
G37*
%TD.AperFunction*%
%TA.AperFunction,Conductor*%
G36*
X187210686Y-126120785D02*
G01*
X187256441Y-126173589D01*
X187266385Y-126242747D01*
X187263422Y-126257193D01*
X187209138Y-126459786D01*
X187209136Y-126459796D01*
X187188541Y-126695199D01*
X187188541Y-126695200D01*
X187209136Y-126930603D01*
X187209139Y-126930616D01*
X187228584Y-127003189D01*
X187226921Y-127073039D01*
X187196490Y-127122962D01*
X184475673Y-129843781D01*
X184414350Y-129877266D01*
X184387992Y-129880100D01*
X183300808Y-129880100D01*
X183233769Y-129860415D01*
X183208184Y-129837219D01*
X183208047Y-129837357D01*
X183205247Y-129834557D01*
X183203545Y-129833014D01*
X183202944Y-129832254D01*
X183080951Y-129710261D01*
X183080950Y-129710260D01*
X182934116Y-129619692D01*
X182770353Y-129565426D01*
X182770351Y-129565425D01*
X182669278Y-129555100D01*
X182070930Y-129555100D01*
X182070912Y-129555101D01*
X181969847Y-129565425D01*
X181806084Y-129619692D01*
X181806081Y-129619693D01*
X181659248Y-129710261D01*
X181545281Y-129824229D01*
X181483958Y-129857714D01*
X181414266Y-129852730D01*
X181369919Y-129824229D01*
X181255951Y-129710261D01*
X181255950Y-129710260D01*
X181109116Y-129619692D01*
X180945353Y-129565426D01*
X180945351Y-129565425D01*
X180844284Y-129555100D01*
X180285008Y-129555100D01*
X180217969Y-129535415D01*
X180197327Y-129518781D01*
X179807619Y-129129073D01*
X179774134Y-129067750D01*
X179771300Y-129041392D01*
X179771300Y-128994286D01*
X179790985Y-128927247D01*
X179843789Y-128881492D01*
X179912947Y-128871548D01*
X179960393Y-128888746D01*
X179981084Y-128901508D01*
X180144847Y-128955774D01*
X180245923Y-128966100D01*
X180844276Y-128966099D01*
X180844284Y-128966098D01*
X180844287Y-128966098D01*
X180899630Y-128960444D01*
X180945353Y-128955774D01*
X181109116Y-128901508D01*
X181255950Y-128810940D01*
X181370275Y-128696614D01*
X181431594Y-128663132D01*
X181501286Y-128668116D01*
X181545634Y-128696617D01*
X181659561Y-128810544D01*
X181659565Y-128810547D01*
X181806288Y-128901048D01*
X181806299Y-128901053D01*
X181969947Y-128955280D01*
X182070951Y-128965599D01*
X182620100Y-128965599D01*
X182669240Y-128965599D01*
X182669254Y-128965598D01*
X182770252Y-128955280D01*
X182933900Y-128901053D01*
X182933911Y-128901048D01*
X183080634Y-128810547D01*
X183080638Y-128810544D01*
X183202544Y-128688638D01*
X183202547Y-128688634D01*
X183293048Y-128541911D01*
X183293053Y-128541900D01*
X183347280Y-128378252D01*
X183357599Y-128277254D01*
X183357600Y-128277241D01*
X183357600Y-128240600D01*
X182620100Y-128240600D01*
X182620100Y-128965599D01*
X182070951Y-128965599D01*
X182120099Y-128965598D01*
X182120100Y-128965598D01*
X182120100Y-127740600D01*
X182620100Y-127740600D01*
X183357599Y-127740600D01*
X183357599Y-127703960D01*
X183357598Y-127703945D01*
X183347280Y-127602947D01*
X183293053Y-127439299D01*
X183293048Y-127439288D01*
X183202547Y-127292565D01*
X183202544Y-127292561D01*
X183080638Y-127170655D01*
X183080634Y-127170652D01*
X182933911Y-127080151D01*
X182933900Y-127080146D01*
X182770252Y-127025919D01*
X182669254Y-127015600D01*
X182620100Y-127015600D01*
X182620100Y-127740600D01*
X182120100Y-127740600D01*
X182120100Y-127015600D01*
X182120099Y-127015599D01*
X182070961Y-127015600D01*
X182070943Y-127015601D01*
X181969947Y-127025919D01*
X181806299Y-127080146D01*
X181806288Y-127080151D01*
X181659565Y-127170652D01*
X181545634Y-127284583D01*
X181484311Y-127318067D01*
X181414619Y-127313083D01*
X181370273Y-127284583D01*
X181255950Y-127170260D01*
X181255949Y-127170259D01*
X181255946Y-127170256D01*
X181255945Y-127170255D01*
X181254500Y-127169364D01*
X181253717Y-127168493D01*
X181250284Y-127165779D01*
X181250747Y-127165192D01*
X181207777Y-127117415D01*
X181195600Y-127063828D01*
X181195600Y-126377371D01*
X181215285Y-126310332D01*
X181250529Y-126275732D01*
X181250283Y-126275421D01*
X181253182Y-126273128D01*
X181254501Y-126271833D01*
X181255950Y-126270940D01*
X181369919Y-126156971D01*
X181431242Y-126123486D01*
X181500934Y-126128470D01*
X181545281Y-126156971D01*
X181659250Y-126270940D01*
X181806084Y-126361508D01*
X181969847Y-126415774D01*
X182070923Y-126426100D01*
X182669276Y-126426099D01*
X182669284Y-126426098D01*
X182669287Y-126426098D01*
X182724630Y-126420444D01*
X182770353Y-126415774D01*
X182934116Y-126361508D01*
X183080950Y-126270940D01*
X183202940Y-126148950D01*
X183202941Y-126148947D01*
X183202944Y-126148945D01*
X183203545Y-126148186D01*
X183204089Y-126147800D01*
X183208047Y-126143843D01*
X183208723Y-126144519D01*
X183260568Y-126107811D01*
X183300808Y-126101100D01*
X187143647Y-126101100D01*
X187210686Y-126120785D01*
G37*
%TD.AperFunction*%
%TA.AperFunction,Conductor*%
G36*
X174891127Y-125542100D02*
G01*
X176437591Y-125542099D01*
X176504630Y-125561784D01*
X176525272Y-125578418D01*
X178433981Y-127487127D01*
X178467466Y-127548450D01*
X178470300Y-127574808D01*
X178470300Y-128163118D01*
X178450615Y-128230157D01*
X178397811Y-128275912D01*
X178328653Y-128285856D01*
X178281204Y-128268657D01*
X178148322Y-128186695D01*
X178148317Y-128186693D01*
X178148316Y-128186692D01*
X177984553Y-128132426D01*
X177984551Y-128132425D01*
X177883478Y-128122100D01*
X177310130Y-128122100D01*
X177310112Y-128122101D01*
X177209047Y-128132425D01*
X177045284Y-128186692D01*
X177045281Y-128186693D01*
X176898448Y-128277261D01*
X176776459Y-128399250D01*
X176744728Y-128450696D01*
X176692780Y-128497421D01*
X176639189Y-128509600D01*
X176332931Y-128509600D01*
X176265892Y-128489915D01*
X176220137Y-128437111D01*
X176216749Y-128428933D01*
X176175997Y-128319671D01*
X176175993Y-128319664D01*
X176089747Y-128204455D01*
X176089744Y-128204452D01*
X175974535Y-128118206D01*
X175974528Y-128118202D01*
X175839682Y-128067908D01*
X175839683Y-128067908D01*
X175780083Y-128061501D01*
X175780081Y-128061500D01*
X175780073Y-128061500D01*
X175780065Y-128061500D01*
X175028008Y-128061500D01*
X174960969Y-128041815D01*
X174940327Y-128025181D01*
X174640903Y-127725757D01*
X174607418Y-127664434D01*
X174612402Y-127594742D01*
X174629317Y-127563765D01*
X174643956Y-127544210D01*
X174707796Y-127458931D01*
X174758091Y-127324083D01*
X174764500Y-127264473D01*
X174764499Y-125668728D01*
X174764499Y-125668727D01*
X174764499Y-125666099D01*
X174784184Y-125599060D01*
X174836987Y-125553305D01*
X174888499Y-125542099D01*
X174891118Y-125542099D01*
X174891127Y-125542100D01*
G37*
%TD.AperFunction*%
%TA.AperFunction,Conductor*%
G36*
X166406514Y-116310689D02*
G01*
X166406517Y-116310691D01*
X166466127Y-116317100D01*
X167111872Y-116317099D01*
X167171483Y-116310691D01*
X167171486Y-116310689D01*
X167175744Y-116310232D01*
X167202254Y-116310232D01*
X167206514Y-116310689D01*
X167206517Y-116310691D01*
X167266127Y-116317100D01*
X167911872Y-116317099D01*
X167971483Y-116310691D01*
X167971486Y-116310689D01*
X167975744Y-116310232D01*
X168002254Y-116310232D01*
X168006514Y-116310689D01*
X168006517Y-116310691D01*
X168066127Y-116317100D01*
X168711872Y-116317099D01*
X168771483Y-116310691D01*
X168771486Y-116310689D01*
X168775744Y-116310232D01*
X168802254Y-116310232D01*
X168806514Y-116310689D01*
X168806517Y-116310691D01*
X168866127Y-116317100D01*
X169511872Y-116317099D01*
X169550111Y-116312988D01*
X169618870Y-116325394D01*
X169670007Y-116373005D01*
X169687286Y-116440704D01*
X169668360Y-116502249D01*
X169653262Y-116526277D01*
X169593682Y-116696545D01*
X169593681Y-116696550D01*
X169573486Y-116875796D01*
X169573486Y-116875803D01*
X169593681Y-117055049D01*
X169593682Y-117055054D01*
X169653262Y-117225323D01*
X169693713Y-117289700D01*
X169749235Y-117378062D01*
X169876789Y-117505616D01*
X169985133Y-117573693D01*
X170029534Y-117601592D01*
X170035805Y-117604612D01*
X170034435Y-117607455D01*
X170079900Y-117639920D01*
X170103831Y-117698361D01*
X170104280Y-117698259D01*
X170104897Y-117700965D01*
X170105550Y-117702558D01*
X170105830Y-117705050D01*
X170165410Y-117875321D01*
X170233771Y-117984117D01*
X170261384Y-118028062D01*
X170388938Y-118155616D01*
X170427939Y-118180122D01*
X170526905Y-118242307D01*
X170541678Y-118251589D01*
X170706738Y-118309346D01*
X170711945Y-118311168D01*
X170711950Y-118311169D01*
X170891196Y-118331365D01*
X170891200Y-118331365D01*
X170891204Y-118331365D01*
X171070449Y-118311169D01*
X171070452Y-118311168D01*
X171070455Y-118311168D01*
X171240722Y-118251589D01*
X171393462Y-118155616D01*
X171521016Y-118028062D01*
X171616989Y-117875322D01*
X171676568Y-117705055D01*
X171677382Y-117697825D01*
X171704445Y-117633411D01*
X171712902Y-117624042D01*
X172107477Y-117229469D01*
X172178665Y-117122927D01*
X172227701Y-117004544D01*
X172236974Y-116957927D01*
X172239358Y-116945941D01*
X172252700Y-116878871D01*
X172252700Y-116441099D01*
X172272385Y-116374060D01*
X172325189Y-116328305D01*
X172376700Y-116317099D01*
X172711871Y-116317099D01*
X172711872Y-116317099D01*
X172771483Y-116310691D01*
X172771486Y-116310689D01*
X172775744Y-116310232D01*
X172802254Y-116310232D01*
X172806514Y-116310689D01*
X172806517Y-116310691D01*
X172866127Y-116317100D01*
X173511872Y-116317099D01*
X173571483Y-116310691D01*
X173571486Y-116310689D01*
X173575744Y-116310232D01*
X173602254Y-116310232D01*
X173606514Y-116310689D01*
X173606517Y-116310691D01*
X173666127Y-116317100D01*
X174311872Y-116317099D01*
X174314500Y-116317099D01*
X174381539Y-116336783D01*
X174427294Y-116389587D01*
X174438500Y-116441099D01*
X174438500Y-117089470D01*
X174438501Y-117089479D01*
X174445367Y-117153351D01*
X174445367Y-117179857D01*
X174444909Y-117184116D01*
X174444909Y-117184117D01*
X174438500Y-117243727D01*
X174438500Y-117243729D01*
X174438500Y-117243733D01*
X174438500Y-117889470D01*
X174438501Y-117889479D01*
X174445367Y-117953351D01*
X174445367Y-117979857D01*
X174444909Y-117984116D01*
X174444909Y-117984117D01*
X174438500Y-118043727D01*
X174438500Y-118043732D01*
X174438500Y-118242307D01*
X174418815Y-118309346D01*
X174366011Y-118355101D01*
X174296853Y-118365045D01*
X174273545Y-118359349D01*
X174220054Y-118340631D01*
X174220049Y-118340630D01*
X174040804Y-118320435D01*
X174040796Y-118320435D01*
X173861550Y-118340630D01*
X173861545Y-118340631D01*
X173691276Y-118400211D01*
X173538537Y-118496184D01*
X173410984Y-118623737D01*
X173315011Y-118776476D01*
X173255431Y-118946745D01*
X173255430Y-118946750D01*
X173235235Y-119125996D01*
X173235235Y-119126003D01*
X173255430Y-119305249D01*
X173255431Y-119305254D01*
X173315011Y-119475523D01*
X173382044Y-119582204D01*
X173410984Y-119628262D01*
X173538538Y-119755816D01*
X173691278Y-119851789D01*
X173808055Y-119892651D01*
X173861545Y-119911368D01*
X173861550Y-119911369D01*
X174040796Y-119931565D01*
X174040800Y-119931565D01*
X174040804Y-119931565D01*
X174220049Y-119911369D01*
X174220051Y-119911368D01*
X174220055Y-119911368D01*
X174273545Y-119892650D01*
X174343322Y-119889088D01*
X174403950Y-119923816D01*
X174436178Y-119985809D01*
X174438500Y-120009692D01*
X174438500Y-120289469D01*
X174438501Y-120289476D01*
X174445619Y-120355692D01*
X174445619Y-120382199D01*
X174439000Y-120443769D01*
X174439000Y-120668085D01*
X174419315Y-120735124D01*
X174366511Y-120780879D01*
X174297353Y-120790823D01*
X174274045Y-120785126D01*
X174220062Y-120766236D01*
X174220049Y-120766233D01*
X174040804Y-120746038D01*
X174040796Y-120746038D01*
X173861550Y-120766233D01*
X173861545Y-120766234D01*
X173691276Y-120825814D01*
X173538537Y-120921787D01*
X173410984Y-121049340D01*
X173315011Y-121202079D01*
X173255431Y-121372348D01*
X173255430Y-121372353D01*
X173235235Y-121551599D01*
X173235235Y-121551606D01*
X173255430Y-121730852D01*
X173255431Y-121730857D01*
X173315011Y-121901126D01*
X173364480Y-121979855D01*
X173410984Y-122053865D01*
X173538538Y-122181419D01*
X173691278Y-122277392D01*
X173861542Y-122336970D01*
X173861545Y-122336971D01*
X173861550Y-122336972D01*
X174040796Y-122357168D01*
X174040800Y-122357168D01*
X174040804Y-122357168D01*
X174220049Y-122336972D01*
X174220051Y-122336971D01*
X174220055Y-122336971D01*
X174273545Y-122318253D01*
X174343322Y-122314691D01*
X174403950Y-122349419D01*
X174436178Y-122411412D01*
X174438500Y-122435295D01*
X174438500Y-122689469D01*
X174438501Y-122689479D01*
X174445367Y-122753351D01*
X174445367Y-122779857D01*
X174444909Y-122784116D01*
X174444909Y-122784117D01*
X174438500Y-122843727D01*
X174438500Y-122843729D01*
X174438500Y-122843733D01*
X174438500Y-123489470D01*
X174438501Y-123489479D01*
X174445367Y-123553351D01*
X174445367Y-123579857D01*
X174444909Y-123584116D01*
X174444909Y-123584117D01*
X174438500Y-123643727D01*
X174438500Y-123643728D01*
X174438500Y-123643732D01*
X174438500Y-123796022D01*
X174418815Y-123863061D01*
X174366011Y-123908816D01*
X174296853Y-123918760D01*
X174273546Y-123913064D01*
X174172857Y-123877832D01*
X174172849Y-123877830D01*
X173993604Y-123857635D01*
X173993596Y-123857635D01*
X173814350Y-123877830D01*
X173814345Y-123877831D01*
X173644076Y-123937411D01*
X173491337Y-124033384D01*
X173363784Y-124160937D01*
X173267811Y-124313676D01*
X173208231Y-124483945D01*
X173208230Y-124483950D01*
X173188035Y-124663196D01*
X173188035Y-124663203D01*
X173208230Y-124842449D01*
X173208231Y-124842454D01*
X173267812Y-125012725D01*
X173276234Y-125026129D01*
X173295234Y-125093366D01*
X173274866Y-125160201D01*
X173221597Y-125205414D01*
X173171240Y-125216100D01*
X172866130Y-125216100D01*
X172866120Y-125216101D01*
X172802248Y-125222967D01*
X172775742Y-125222967D01*
X172771483Y-125222509D01*
X172711873Y-125216100D01*
X172711864Y-125216100D01*
X172066129Y-125216100D01*
X172066120Y-125216101D01*
X172002248Y-125222967D01*
X171975742Y-125222967D01*
X171971483Y-125222509D01*
X171911873Y-125216100D01*
X171911864Y-125216100D01*
X171266129Y-125216100D01*
X171266125Y-125216101D01*
X171218160Y-125221257D01*
X171206517Y-125222509D01*
X171206516Y-125222509D01*
X171199904Y-125223220D01*
X171173393Y-125223219D01*
X171111842Y-125216600D01*
X171039000Y-125216600D01*
X171039000Y-125235190D01*
X171019315Y-125302229D01*
X170989313Y-125334456D01*
X170956451Y-125359056D01*
X170888266Y-125450140D01*
X170832332Y-125492011D01*
X170762641Y-125496995D01*
X170701318Y-125463509D01*
X170689734Y-125450140D01*
X170621548Y-125359056D01*
X170621546Y-125359055D01*
X170621546Y-125359054D01*
X170588686Y-125334455D01*
X170546817Y-125278521D01*
X170539000Y-125235190D01*
X170539000Y-125216600D01*
X170466166Y-125216600D01*
X170404595Y-125223219D01*
X170378088Y-125223219D01*
X170366279Y-125221949D01*
X170311873Y-125216100D01*
X170311867Y-125216100D01*
X169976700Y-125216100D01*
X169909661Y-125196415D01*
X169863906Y-125143611D01*
X169852700Y-125092100D01*
X169852700Y-124309696D01*
X169871707Y-124243723D01*
X169915188Y-124174524D01*
X169919942Y-124160938D01*
X169974768Y-124004255D01*
X169976622Y-123987800D01*
X169994965Y-123825003D01*
X169994965Y-123824996D01*
X169974769Y-123645750D01*
X169974768Y-123645745D01*
X169961782Y-123608634D01*
X169915189Y-123475478D01*
X169906811Y-123462145D01*
X169819215Y-123322737D01*
X169691662Y-123195184D01*
X169538923Y-123099211D01*
X169368654Y-123039631D01*
X169368649Y-123039630D01*
X169189404Y-123019435D01*
X169189396Y-123019435D01*
X169010150Y-123039630D01*
X169010145Y-123039631D01*
X168839876Y-123099211D01*
X168687137Y-123195184D01*
X168559584Y-123322737D01*
X168463611Y-123475476D01*
X168404031Y-123645745D01*
X168404030Y-123645749D01*
X168390948Y-123761862D01*
X168363881Y-123826276D01*
X168306286Y-123865831D01*
X168281613Y-123871198D01*
X168222750Y-123877830D01*
X168052478Y-123937410D01*
X167899737Y-124033384D01*
X167772184Y-124160937D01*
X167676211Y-124313676D01*
X167616631Y-124483945D01*
X167616630Y-124483950D01*
X167596435Y-124663196D01*
X167596435Y-124663203D01*
X167616630Y-124842449D01*
X167616631Y-124842454D01*
X167676212Y-125012725D01*
X167684634Y-125026129D01*
X167703634Y-125093366D01*
X167683266Y-125160201D01*
X167629997Y-125205414D01*
X167579640Y-125216100D01*
X167266130Y-125216100D01*
X167266120Y-125216101D01*
X167202248Y-125222967D01*
X167175742Y-125222967D01*
X167171483Y-125222509D01*
X167111873Y-125216100D01*
X167111864Y-125216100D01*
X166466129Y-125216100D01*
X166466120Y-125216101D01*
X166402248Y-125222967D01*
X166375742Y-125222967D01*
X166371483Y-125222509D01*
X166311873Y-125216100D01*
X166311866Y-125216100D01*
X165663499Y-125216100D01*
X165596460Y-125196415D01*
X165550705Y-125143611D01*
X165539499Y-125092100D01*
X165539499Y-125089482D01*
X165539500Y-125089473D01*
X165539499Y-124443728D01*
X165533091Y-124384117D01*
X165533089Y-124384113D01*
X165532632Y-124379855D01*
X165532632Y-124353345D01*
X165533089Y-124349086D01*
X165533091Y-124349083D01*
X165539500Y-124289473D01*
X165539499Y-123643728D01*
X165533091Y-123584117D01*
X165533089Y-123584113D01*
X165532632Y-123579855D01*
X165532632Y-123553345D01*
X165533089Y-123549086D01*
X165533091Y-123549083D01*
X165539500Y-123489473D01*
X165539499Y-122843728D01*
X165533091Y-122784117D01*
X165533089Y-122784113D01*
X165532632Y-122779855D01*
X165532632Y-122753345D01*
X165533089Y-122749086D01*
X165533091Y-122749083D01*
X165539500Y-122689473D01*
X165539499Y-122043728D01*
X165533091Y-121984117D01*
X165533089Y-121984113D01*
X165532632Y-121979855D01*
X165532632Y-121953345D01*
X165533089Y-121949086D01*
X165533091Y-121949083D01*
X165539500Y-121889473D01*
X165539499Y-121243728D01*
X165533091Y-121184117D01*
X165533089Y-121184113D01*
X165532632Y-121179855D01*
X165532632Y-121153345D01*
X165533089Y-121149086D01*
X165533091Y-121149083D01*
X165539500Y-121089473D01*
X165539499Y-120443728D01*
X165533091Y-120384117D01*
X165533090Y-120384116D01*
X165532380Y-120377504D01*
X165532381Y-120350993D01*
X165538999Y-120289442D01*
X165539000Y-120289427D01*
X165539000Y-120216600D01*
X165520409Y-120216600D01*
X165453370Y-120196915D01*
X165421144Y-120166913D01*
X165396546Y-120134054D01*
X165305457Y-120065865D01*
X165263588Y-120009933D01*
X165258604Y-119940241D01*
X165292089Y-119878918D01*
X165305452Y-119867338D01*
X165396546Y-119799146D01*
X165421143Y-119766287D01*
X165477076Y-119724418D01*
X165520409Y-119716600D01*
X165539000Y-119716600D01*
X165539000Y-119643772D01*
X165538999Y-119643760D01*
X165532380Y-119582204D01*
X165532380Y-119555690D01*
X165533090Y-119549085D01*
X165533091Y-119549083D01*
X165539500Y-119489473D01*
X165539499Y-119175155D01*
X165559183Y-119108118D01*
X165611987Y-119062363D01*
X165681146Y-119052419D01*
X165717306Y-119063440D01*
X165719271Y-119064386D01*
X165719276Y-119064387D01*
X165719278Y-119064389D01*
X165889545Y-119123968D01*
X165889550Y-119123969D01*
X166068796Y-119144165D01*
X166068800Y-119144165D01*
X166068804Y-119144165D01*
X166248049Y-119123969D01*
X166248052Y-119123968D01*
X166248055Y-119123968D01*
X166418322Y-119064389D01*
X166571062Y-118968416D01*
X166698616Y-118840862D01*
X166794589Y-118688122D01*
X166854168Y-118517855D01*
X166854217Y-118517419D01*
X166874365Y-118338603D01*
X166874365Y-118338596D01*
X166854169Y-118159350D01*
X166854168Y-118159345D01*
X166819752Y-118060990D01*
X166794589Y-117989078D01*
X166769458Y-117949083D01*
X166743071Y-117907087D01*
X166698616Y-117836338D01*
X166571062Y-117708784D01*
X166510388Y-117670660D01*
X166418323Y-117612811D01*
X166248054Y-117553231D01*
X166248049Y-117553230D01*
X166068804Y-117533035D01*
X166068796Y-117533035D01*
X165889550Y-117553230D01*
X165889545Y-117553231D01*
X165719271Y-117612813D01*
X165717295Y-117613765D01*
X165715891Y-117613996D01*
X165712705Y-117615111D01*
X165712509Y-117614552D01*
X165648354Y-117625114D01*
X165584220Y-117597388D01*
X165545258Y-117539391D01*
X165539499Y-117502045D01*
X165539499Y-117243728D01*
X165533091Y-117184117D01*
X165533089Y-117184113D01*
X165532632Y-117179855D01*
X165532632Y-117153345D01*
X165533089Y-117149086D01*
X165533091Y-117149083D01*
X165539500Y-117089473D01*
X165539499Y-116443728D01*
X165539499Y-116443727D01*
X165539499Y-116441099D01*
X165559183Y-116374060D01*
X165611987Y-116328305D01*
X165663499Y-116317099D01*
X165666118Y-116317099D01*
X165666127Y-116317100D01*
X166311872Y-116317099D01*
X166371483Y-116310691D01*
X166371486Y-116310689D01*
X166375744Y-116310232D01*
X166402254Y-116310232D01*
X166406514Y-116310689D01*
G37*
%TD.AperFunction*%
%TA.AperFunction,Conductor*%
G36*
X162959580Y-122596178D02*
G01*
X163015513Y-122638050D01*
X163039536Y-122699107D01*
X163045367Y-122753350D01*
X163045367Y-122779857D01*
X163044909Y-122784116D01*
X163044909Y-122784117D01*
X163038500Y-122843727D01*
X163038500Y-122843729D01*
X163038500Y-122843733D01*
X163038500Y-123489470D01*
X163038501Y-123489479D01*
X163045367Y-123553351D01*
X163045367Y-123579857D01*
X163044909Y-123584116D01*
X163044909Y-123584117D01*
X163038500Y-123643727D01*
X163038500Y-123643729D01*
X163038500Y-123643733D01*
X163038500Y-124289470D01*
X163038501Y-124289479D01*
X163045367Y-124353351D01*
X163045367Y-124379857D01*
X163044909Y-124384116D01*
X163044909Y-124384117D01*
X163038500Y-124443727D01*
X163038500Y-124443729D01*
X163038500Y-124443733D01*
X163038500Y-124777449D01*
X163018815Y-124844488D01*
X162966011Y-124890243D01*
X162896853Y-124900187D01*
X162837183Y-124874393D01*
X162833667Y-124871589D01*
X162833662Y-124871584D01*
X162732499Y-124808019D01*
X162680923Y-124775611D01*
X162510654Y-124716031D01*
X162510649Y-124716030D01*
X162331404Y-124695835D01*
X162331396Y-124695835D01*
X162152150Y-124716030D01*
X162152137Y-124716033D01*
X161981881Y-124775609D01*
X161981877Y-124775610D01*
X161892304Y-124831894D01*
X161826332Y-124850900D01*
X161765208Y-124850900D01*
X161698169Y-124831215D01*
X161672584Y-124808019D01*
X161672447Y-124808157D01*
X161669647Y-124805357D01*
X161667945Y-124803814D01*
X161667344Y-124803054D01*
X161577071Y-124712781D01*
X161543586Y-124651458D01*
X161548570Y-124581766D01*
X161577071Y-124537419D01*
X161613475Y-124501015D01*
X161667340Y-124447150D01*
X161757908Y-124300316D01*
X161812174Y-124136553D01*
X161822500Y-124035477D01*
X161822499Y-123682106D01*
X161842183Y-123615068D01*
X161858813Y-123594431D01*
X162828567Y-122624677D01*
X162889888Y-122591194D01*
X162959580Y-122596178D01*
G37*
%TD.AperFunction*%
%TA.AperFunction,Conductor*%
G36*
X187045831Y-121040785D02*
G01*
X187066473Y-121057419D01*
X187196490Y-121187436D01*
X187229975Y-121248759D01*
X187228584Y-121307208D01*
X187209137Y-121379789D01*
X187209137Y-121379790D01*
X187188541Y-121615199D01*
X187188541Y-121615200D01*
X187209136Y-121850603D01*
X187209138Y-121850613D01*
X187270294Y-122078855D01*
X187270296Y-122078859D01*
X187270297Y-122078863D01*
X187342211Y-122233083D01*
X187370165Y-122293030D01*
X187370167Y-122293034D01*
X187505701Y-122486595D01*
X187505706Y-122486602D01*
X187672797Y-122653693D01*
X187672803Y-122653698D01*
X187858358Y-122783625D01*
X187901983Y-122838202D01*
X187909177Y-122907700D01*
X187877654Y-122970055D01*
X187858358Y-122986775D01*
X187672797Y-123116705D01*
X187505705Y-123283797D01*
X187370165Y-123477369D01*
X187370164Y-123477371D01*
X187270298Y-123691535D01*
X187270294Y-123691544D01*
X187209138Y-123919786D01*
X187209136Y-123919796D01*
X187188541Y-124155199D01*
X187188541Y-124155200D01*
X187209136Y-124390603D01*
X187209139Y-124390616D01*
X187228584Y-124463189D01*
X187226921Y-124533039D01*
X187196490Y-124582962D01*
X187015671Y-124763782D01*
X186954351Y-124797266D01*
X186927992Y-124800100D01*
X183300808Y-124800100D01*
X183233769Y-124780415D01*
X183208184Y-124757219D01*
X183208047Y-124757357D01*
X183205247Y-124754557D01*
X183203545Y-124753014D01*
X183202944Y-124752254D01*
X183080951Y-124630261D01*
X183080950Y-124630260D01*
X182979793Y-124567866D01*
X182934118Y-124539693D01*
X182934113Y-124539691D01*
X182923656Y-124536226D01*
X182770353Y-124485426D01*
X182770351Y-124485425D01*
X182669278Y-124475100D01*
X182070930Y-124475100D01*
X182070912Y-124475101D01*
X181969847Y-124485425D01*
X181806084Y-124539692D01*
X181806081Y-124539693D01*
X181659248Y-124630261D01*
X181545281Y-124744229D01*
X181483958Y-124777714D01*
X181414266Y-124772730D01*
X181369919Y-124744229D01*
X181255951Y-124630261D01*
X181255950Y-124630260D01*
X181154793Y-124567866D01*
X181109118Y-124539693D01*
X181109113Y-124539691D01*
X181098656Y-124536226D01*
X180945353Y-124485426D01*
X180945351Y-124485425D01*
X180844278Y-124475100D01*
X180245930Y-124475100D01*
X180245909Y-124475102D01*
X180201216Y-124479667D01*
X180132523Y-124466896D01*
X180100935Y-124443990D01*
X179685727Y-124028781D01*
X179652242Y-123967458D01*
X179657226Y-123897766D01*
X179699098Y-123841833D01*
X179764562Y-123817416D01*
X179773408Y-123817100D01*
X179947770Y-123817100D01*
X179986774Y-123823394D01*
X180040145Y-123841079D01*
X180144847Y-123875774D01*
X180245923Y-123886100D01*
X180844276Y-123886099D01*
X180844284Y-123886098D01*
X180844287Y-123886098D01*
X180925206Y-123877832D01*
X180945353Y-123875774D01*
X181109116Y-123821508D01*
X181255950Y-123730940D01*
X181370275Y-123616614D01*
X181431594Y-123583132D01*
X181501286Y-123588116D01*
X181545634Y-123616617D01*
X181659561Y-123730544D01*
X181659565Y-123730547D01*
X181806288Y-123821048D01*
X181806299Y-123821053D01*
X181969947Y-123875280D01*
X182070951Y-123885599D01*
X182620100Y-123885599D01*
X182669240Y-123885599D01*
X182669254Y-123885598D01*
X182770252Y-123875280D01*
X182933900Y-123821053D01*
X182933911Y-123821048D01*
X183080634Y-123730547D01*
X183080638Y-123730544D01*
X183202544Y-123608638D01*
X183202547Y-123608634D01*
X183293048Y-123461911D01*
X183293053Y-123461900D01*
X183347280Y-123298252D01*
X183357599Y-123197254D01*
X183357600Y-123197241D01*
X183357600Y-123160600D01*
X182620100Y-123160600D01*
X182620100Y-123885599D01*
X182070951Y-123885599D01*
X182120099Y-123885598D01*
X182120100Y-123885598D01*
X182120100Y-122660600D01*
X182620100Y-122660600D01*
X183357599Y-122660600D01*
X183357599Y-122623960D01*
X183357598Y-122623945D01*
X183347280Y-122522947D01*
X183293053Y-122359299D01*
X183293048Y-122359288D01*
X183202547Y-122212565D01*
X183202544Y-122212561D01*
X183080638Y-122090655D01*
X183080634Y-122090652D01*
X182933911Y-122000151D01*
X182933900Y-122000146D01*
X182770252Y-121945919D01*
X182669254Y-121935600D01*
X182620100Y-121935600D01*
X182620100Y-122660600D01*
X182120100Y-122660600D01*
X182120100Y-121935600D01*
X182120099Y-121935599D01*
X182070961Y-121935600D01*
X182070943Y-121935601D01*
X181969947Y-121945919D01*
X181806299Y-122000146D01*
X181806288Y-122000151D01*
X181659565Y-122090652D01*
X181545634Y-122204583D01*
X181484311Y-122238067D01*
X181414619Y-122233083D01*
X181370273Y-122204583D01*
X181255950Y-122090260D01*
X181255949Y-122090259D01*
X181255946Y-122090256D01*
X181255945Y-122090255D01*
X181254500Y-122089364D01*
X181253717Y-122088493D01*
X181250284Y-122085779D01*
X181250747Y-122085192D01*
X181207777Y-122037415D01*
X181195600Y-121983828D01*
X181195600Y-121297371D01*
X181215285Y-121230332D01*
X181250529Y-121195732D01*
X181250283Y-121195421D01*
X181253182Y-121193128D01*
X181254501Y-121191833D01*
X181255950Y-121190940D01*
X181369919Y-121076971D01*
X181431242Y-121043486D01*
X181500934Y-121048470D01*
X181545281Y-121076971D01*
X181659250Y-121190940D01*
X181806084Y-121281508D01*
X181969847Y-121335774D01*
X182070923Y-121346100D01*
X182669276Y-121346099D01*
X182669284Y-121346098D01*
X182669287Y-121346098D01*
X182724630Y-121340444D01*
X182770353Y-121335774D01*
X182934116Y-121281508D01*
X183080950Y-121190940D01*
X183202940Y-121068950D01*
X183202941Y-121068947D01*
X183202944Y-121068945D01*
X183203545Y-121068186D01*
X183204089Y-121067800D01*
X183208047Y-121063843D01*
X183208723Y-121064519D01*
X183260568Y-121027811D01*
X183300808Y-121021100D01*
X186978792Y-121021100D01*
X187045831Y-121040785D01*
G37*
%TD.AperFunction*%
%TA.AperFunction,Conductor*%
G36*
X179539419Y-120712233D02*
G01*
X179567674Y-120759103D01*
X179579540Y-120794911D01*
X179619610Y-120915834D01*
X179621692Y-120922115D01*
X179621693Y-120922118D01*
X179633731Y-120941634D01*
X179712260Y-121068950D01*
X179834250Y-121190940D01*
X179835698Y-121191833D01*
X179836482Y-121192704D01*
X179839917Y-121195421D01*
X179839452Y-121196007D01*
X179882421Y-121243780D01*
X179894600Y-121297371D01*
X179894600Y-121983828D01*
X179874915Y-122050867D01*
X179839669Y-122085467D01*
X179839916Y-122085779D01*
X179837015Y-122088072D01*
X179835700Y-122089364D01*
X179834254Y-122090255D01*
X179834253Y-122090256D01*
X179712259Y-122212251D01*
X179621693Y-122359081D01*
X179621691Y-122359086D01*
X179597827Y-122431104D01*
X179558054Y-122488549D01*
X179493538Y-122515372D01*
X179480121Y-122516100D01*
X178624066Y-122516100D01*
X178557027Y-122496415D01*
X178511272Y-122443611D01*
X178501328Y-122374453D01*
X178518528Y-122327001D01*
X178532652Y-122304102D01*
X178532653Y-122304100D01*
X178586880Y-122140452D01*
X178597199Y-122039454D01*
X178597200Y-122039441D01*
X178597200Y-121940300D01*
X177496200Y-121940300D01*
X177429161Y-121920615D01*
X177383406Y-121867811D01*
X177372200Y-121816300D01*
X177372200Y-121564300D01*
X177391885Y-121497261D01*
X177444689Y-121451506D01*
X177496200Y-121440300D01*
X178597199Y-121440300D01*
X178597199Y-121341160D01*
X178597198Y-121341145D01*
X178586880Y-121240147D01*
X178532653Y-121076499D01*
X178532648Y-121076488D01*
X178442147Y-120929765D01*
X178442144Y-120929761D01*
X178428217Y-120915834D01*
X178394732Y-120854511D01*
X178399716Y-120784819D01*
X178428255Y-120740434D01*
X178430314Y-120738376D01*
X178491654Y-120704921D01*
X178517953Y-120702100D01*
X178770028Y-120702100D01*
X178810982Y-120709057D01*
X178859829Y-120726150D01*
X178890745Y-120736968D01*
X178890750Y-120736969D01*
X179069996Y-120757165D01*
X179070000Y-120757165D01*
X179070004Y-120757165D01*
X179249249Y-120736969D01*
X179249251Y-120736968D01*
X179249255Y-120736968D01*
X179249258Y-120736966D01*
X179249262Y-120736966D01*
X179409013Y-120681067D01*
X179478792Y-120677505D01*
X179539419Y-120712233D01*
G37*
%TD.AperFunction*%
%TA.AperFunction,Conductor*%
G36*
X178256883Y-118065974D02*
G01*
X178312817Y-118107845D01*
X178330592Y-118141201D01*
X178344211Y-118180123D01*
X178401152Y-118270743D01*
X178440184Y-118332862D01*
X178567738Y-118460416D01*
X178720478Y-118556389D01*
X178878076Y-118611535D01*
X178890745Y-118615968D01*
X178890750Y-118615969D01*
X179069996Y-118636165D01*
X179070000Y-118636165D01*
X179070004Y-118636165D01*
X179249249Y-118615969D01*
X179249251Y-118615968D01*
X179249255Y-118615968D01*
X179249258Y-118615966D01*
X179249262Y-118615966D01*
X179339377Y-118584432D01*
X179419522Y-118556389D01*
X179509096Y-118500105D01*
X179575068Y-118481100D01*
X179614392Y-118481100D01*
X179681431Y-118500785D01*
X179707015Y-118523980D01*
X179707153Y-118523843D01*
X179709952Y-118526642D01*
X179711655Y-118528186D01*
X179712255Y-118528945D01*
X179712260Y-118528950D01*
X179834250Y-118650940D01*
X179981084Y-118741508D01*
X180144847Y-118795774D01*
X180245923Y-118806100D01*
X180844276Y-118806099D01*
X180844284Y-118806098D01*
X180844287Y-118806098D01*
X180905940Y-118799800D01*
X180945353Y-118795774D01*
X181109116Y-118741508D01*
X181255950Y-118650940D01*
X181369919Y-118536971D01*
X181431242Y-118503486D01*
X181500934Y-118508470D01*
X181545281Y-118536971D01*
X181659250Y-118650940D01*
X181806084Y-118741508D01*
X181969847Y-118795774D01*
X182070923Y-118806100D01*
X182669276Y-118806099D01*
X182669284Y-118806098D01*
X182669287Y-118806098D01*
X182730940Y-118799800D01*
X182770353Y-118795774D01*
X182934116Y-118741508D01*
X183080950Y-118650940D01*
X183202940Y-118528950D01*
X183202941Y-118528947D01*
X183202944Y-118528945D01*
X183203545Y-118528186D01*
X183204089Y-118527800D01*
X183208047Y-118523843D01*
X183208723Y-118524519D01*
X183260568Y-118487811D01*
X183300808Y-118481100D01*
X186978792Y-118481100D01*
X187045831Y-118500785D01*
X187066473Y-118517419D01*
X187196490Y-118647436D01*
X187229975Y-118708759D01*
X187228584Y-118767208D01*
X187209137Y-118839789D01*
X187209137Y-118839790D01*
X187188541Y-119075199D01*
X187188541Y-119075200D01*
X187209136Y-119310603D01*
X187209138Y-119310613D01*
X187270294Y-119538855D01*
X187270296Y-119538861D01*
X187270297Y-119538863D01*
X187270298Y-119538865D01*
X187272552Y-119543699D01*
X187283041Y-119612777D01*
X187254520Y-119676560D01*
X187196042Y-119714797D01*
X187160168Y-119720100D01*
X183300808Y-119720100D01*
X183233769Y-119700415D01*
X183208184Y-119677219D01*
X183208047Y-119677357D01*
X183205247Y-119674557D01*
X183203545Y-119673014D01*
X183202944Y-119672254D01*
X183080951Y-119550261D01*
X183080950Y-119550260D01*
X182959782Y-119475523D01*
X182934118Y-119459693D01*
X182934113Y-119459691D01*
X182902870Y-119449338D01*
X182770353Y-119405426D01*
X182770351Y-119405425D01*
X182669278Y-119395100D01*
X182070930Y-119395100D01*
X182070912Y-119395101D01*
X181969847Y-119405425D01*
X181806084Y-119459692D01*
X181806081Y-119459693D01*
X181659248Y-119550261D01*
X181545281Y-119664229D01*
X181483958Y-119697714D01*
X181414266Y-119692730D01*
X181369919Y-119664229D01*
X181255951Y-119550261D01*
X181255950Y-119550260D01*
X181134782Y-119475523D01*
X181109118Y-119459693D01*
X181109113Y-119459691D01*
X181077870Y-119449338D01*
X180945353Y-119405426D01*
X180945351Y-119405425D01*
X180844278Y-119395100D01*
X180245930Y-119395100D01*
X180245912Y-119395101D01*
X180144847Y-119405425D01*
X179981084Y-119459692D01*
X179981077Y-119459695D01*
X179887730Y-119517272D01*
X179820337Y-119535712D01*
X179753674Y-119514789D01*
X179717640Y-119477705D01*
X179716268Y-119475522D01*
X179699816Y-119449338D01*
X179572262Y-119321784D01*
X179565799Y-119317723D01*
X179419523Y-119225811D01*
X179249254Y-119166231D01*
X179249249Y-119166230D01*
X179070004Y-119146035D01*
X179069996Y-119146035D01*
X178890750Y-119166230D01*
X178890745Y-119166231D01*
X178810983Y-119194142D01*
X178770028Y-119201100D01*
X178490552Y-119201100D01*
X178423513Y-119181415D01*
X178402871Y-119164781D01*
X178320551Y-119082461D01*
X178320550Y-119082460D01*
X178173716Y-118991892D01*
X178009953Y-118937626D01*
X178009951Y-118937625D01*
X177908884Y-118927300D01*
X177592408Y-118927300D01*
X177525369Y-118907615D01*
X177479614Y-118854811D01*
X177469670Y-118785653D01*
X177498695Y-118722097D01*
X177504727Y-118715619D01*
X177608811Y-118611535D01*
X178125871Y-118094473D01*
X178187192Y-118060990D01*
X178256883Y-118065974D01*
G37*
%TD.AperFunction*%
%TA.AperFunction,Conductor*%
G36*
X179681431Y-110880785D02*
G01*
X179707015Y-110903980D01*
X179707153Y-110903843D01*
X179709952Y-110906642D01*
X179711655Y-110908186D01*
X179712255Y-110908945D01*
X179712260Y-110908950D01*
X179834250Y-111030940D01*
X179981084Y-111121508D01*
X180144847Y-111175774D01*
X180245923Y-111186100D01*
X180844276Y-111186099D01*
X180844284Y-111186098D01*
X180844287Y-111186098D01*
X180899630Y-111180444D01*
X180945353Y-111175774D01*
X181109116Y-111121508D01*
X181255950Y-111030940D01*
X181369919Y-110916971D01*
X181431242Y-110883486D01*
X181500934Y-110888470D01*
X181545281Y-110916971D01*
X181659250Y-111030940D01*
X181806084Y-111121508D01*
X181969847Y-111175774D01*
X182070923Y-111186100D01*
X182669276Y-111186099D01*
X182669284Y-111186098D01*
X182669287Y-111186098D01*
X182724630Y-111180444D01*
X182770353Y-111175774D01*
X182934116Y-111121508D01*
X183080950Y-111030940D01*
X183202940Y-110908950D01*
X183202941Y-110908947D01*
X183202944Y-110908945D01*
X183203545Y-110908186D01*
X183204089Y-110907800D01*
X183208047Y-110903843D01*
X183208723Y-110904519D01*
X183260568Y-110867811D01*
X183300808Y-110861100D01*
X186978791Y-110861100D01*
X187045830Y-110880785D01*
X187066472Y-110897418D01*
X187157381Y-110988326D01*
X187190866Y-111049649D01*
X187193700Y-111076008D01*
X187193700Y-111542447D01*
X187193701Y-111976100D01*
X187174017Y-112043139D01*
X187121213Y-112088894D01*
X187069701Y-112100100D01*
X183300808Y-112100100D01*
X183233769Y-112080415D01*
X183208184Y-112057219D01*
X183208047Y-112057357D01*
X183205247Y-112054557D01*
X183203545Y-112053014D01*
X183202944Y-112052254D01*
X183080951Y-111930261D01*
X183080950Y-111930260D01*
X182934116Y-111839692D01*
X182770353Y-111785426D01*
X182770351Y-111785425D01*
X182669278Y-111775100D01*
X182070930Y-111775100D01*
X182070912Y-111775101D01*
X181969847Y-111785425D01*
X181806084Y-111839692D01*
X181806081Y-111839693D01*
X181659248Y-111930261D01*
X181545281Y-112044229D01*
X181483958Y-112077714D01*
X181414266Y-112072730D01*
X181369919Y-112044229D01*
X181255951Y-111930261D01*
X181255950Y-111930260D01*
X181109116Y-111839692D01*
X180945353Y-111785426D01*
X180945351Y-111785425D01*
X180844278Y-111775100D01*
X180245930Y-111775100D01*
X180245912Y-111775101D01*
X180144847Y-111785425D01*
X179981084Y-111839692D01*
X179981081Y-111839693D01*
X179834248Y-111930261D01*
X179712255Y-112052254D01*
X179711655Y-112053014D01*
X179711110Y-112053399D01*
X179707153Y-112057357D01*
X179706476Y-112056680D01*
X179654632Y-112093389D01*
X179614392Y-112100100D01*
X179437729Y-112100100D01*
X179312061Y-112125097D01*
X179312055Y-112125099D01*
X179193674Y-112174134D01*
X179087126Y-112245326D01*
X177853524Y-113478928D01*
X177785767Y-113580336D01*
X177782339Y-113585466D01*
X177782333Y-113585477D01*
X177733299Y-113703855D01*
X177733297Y-113703861D01*
X177708300Y-113829528D01*
X177708300Y-116620792D01*
X177688615Y-116687831D01*
X177671981Y-116708473D01*
X177145702Y-117234751D01*
X177084379Y-117268236D01*
X177014687Y-117263252D01*
X176958754Y-117221380D01*
X176934337Y-117155916D01*
X176934731Y-117133821D01*
X176939500Y-117089473D01*
X176939499Y-116443728D01*
X176933091Y-116384117D01*
X176929145Y-116373538D01*
X176882797Y-116249271D01*
X176882793Y-116249264D01*
X176796547Y-116134055D01*
X176796544Y-116134052D01*
X176681335Y-116047806D01*
X176681328Y-116047802D01*
X176546482Y-115997508D01*
X176546483Y-115997508D01*
X176486883Y-115991101D01*
X176486881Y-115991100D01*
X176486873Y-115991100D01*
X176486865Y-115991100D01*
X174888499Y-115991100D01*
X174821460Y-115971415D01*
X174775705Y-115918611D01*
X174764499Y-115867100D01*
X174764499Y-115864482D01*
X174764500Y-115864473D01*
X174764499Y-114268728D01*
X174758091Y-114209117D01*
X174729443Y-114132309D01*
X174707797Y-114074271D01*
X174707793Y-114074264D01*
X174621547Y-113959055D01*
X174621544Y-113959052D01*
X174506335Y-113872806D01*
X174506328Y-113872802D01*
X174371486Y-113822510D01*
X174371485Y-113822509D01*
X174371483Y-113822509D01*
X174311873Y-113816100D01*
X174311863Y-113816100D01*
X173666129Y-113816100D01*
X173666120Y-113816101D01*
X173602248Y-113822967D01*
X173575741Y-113822966D01*
X173510158Y-113815915D01*
X173445607Y-113789177D01*
X173405759Y-113731785D01*
X173403265Y-113661960D01*
X173429776Y-113615421D01*
X173427875Y-113613905D01*
X173432211Y-113608466D01*
X173432216Y-113608462D01*
X173528189Y-113455722D01*
X173587768Y-113285455D01*
X173588582Y-113278225D01*
X173615645Y-113213811D01*
X173624112Y-113204432D01*
X175931127Y-110897419D01*
X175992450Y-110863934D01*
X176018808Y-110861100D01*
X179614392Y-110861100D01*
X179681431Y-110880785D01*
G37*
%TD.AperFunction*%
%TA.AperFunction,Conductor*%
G36*
X179681431Y-115960785D02*
G01*
X179707015Y-115983980D01*
X179707153Y-115983843D01*
X179709952Y-115986642D01*
X179711655Y-115988186D01*
X179712255Y-115988945D01*
X179712260Y-115988950D01*
X179834250Y-116110940D01*
X179981084Y-116201508D01*
X180144847Y-116255774D01*
X180245923Y-116266100D01*
X180844276Y-116266099D01*
X180844284Y-116266098D01*
X180844287Y-116266098D01*
X180900106Y-116260396D01*
X180945353Y-116255774D01*
X181109116Y-116201508D01*
X181255950Y-116110940D01*
X181369919Y-115996971D01*
X181431242Y-115963486D01*
X181500934Y-115968470D01*
X181545281Y-115996971D01*
X181659250Y-116110940D01*
X181806084Y-116201508D01*
X181969847Y-116255774D01*
X182070923Y-116266100D01*
X182669276Y-116266099D01*
X182669284Y-116266098D01*
X182669287Y-116266098D01*
X182725106Y-116260396D01*
X182770353Y-116255774D01*
X182934116Y-116201508D01*
X183080950Y-116110940D01*
X183202940Y-115988950D01*
X183202941Y-115988947D01*
X183202944Y-115988945D01*
X183203545Y-115988186D01*
X183204089Y-115987800D01*
X183208047Y-115983843D01*
X183208723Y-115984519D01*
X183260568Y-115947811D01*
X183300808Y-115941100D01*
X186978792Y-115941100D01*
X187045831Y-115960785D01*
X187066473Y-115977419D01*
X187196490Y-116107436D01*
X187229975Y-116168759D01*
X187228584Y-116227208D01*
X187209137Y-116299789D01*
X187209137Y-116299790D01*
X187188541Y-116535199D01*
X187188541Y-116535200D01*
X187209136Y-116770603D01*
X187209138Y-116770613D01*
X187270294Y-116998855D01*
X187270296Y-116998861D01*
X187270297Y-116998863D01*
X187270298Y-116998865D01*
X187272552Y-117003699D01*
X187283041Y-117072777D01*
X187254520Y-117136560D01*
X187196042Y-117174797D01*
X187160168Y-117180100D01*
X183300808Y-117180100D01*
X183233769Y-117160415D01*
X183208184Y-117137219D01*
X183208047Y-117137357D01*
X183205247Y-117134557D01*
X183203545Y-117133014D01*
X183202944Y-117132254D01*
X183080951Y-117010261D01*
X183080950Y-117010260D01*
X182934116Y-116919692D01*
X182770353Y-116865426D01*
X182770351Y-116865425D01*
X182669278Y-116855100D01*
X182070930Y-116855100D01*
X182070912Y-116855101D01*
X181969847Y-116865425D01*
X181806084Y-116919692D01*
X181806081Y-116919693D01*
X181659248Y-117010261D01*
X181545281Y-117124229D01*
X181483958Y-117157714D01*
X181414266Y-117152730D01*
X181369919Y-117124229D01*
X181255951Y-117010261D01*
X181255950Y-117010260D01*
X181109116Y-116919692D01*
X180945353Y-116865426D01*
X180945351Y-116865425D01*
X180844278Y-116855100D01*
X180245930Y-116855100D01*
X180245912Y-116855101D01*
X180144847Y-116865425D01*
X179981084Y-116919692D01*
X179981081Y-116919693D01*
X179834248Y-117010261D01*
X179712255Y-117132254D01*
X179711655Y-117133014D01*
X179711110Y-117133399D01*
X179707153Y-117137357D01*
X179706476Y-117136680D01*
X179654632Y-117173389D01*
X179614392Y-117180100D01*
X179575068Y-117180100D01*
X179509096Y-117161094D01*
X179419522Y-117104810D01*
X179419518Y-117104809D01*
X179249262Y-117045233D01*
X179249250Y-117045230D01*
X179119416Y-117030602D01*
X179055002Y-117003535D01*
X179015447Y-116945941D01*
X179009300Y-116907382D01*
X179009300Y-116213817D01*
X179028985Y-116146778D01*
X179081789Y-116101023D01*
X179119416Y-116090597D01*
X179148401Y-116087331D01*
X179249249Y-116075969D01*
X179249251Y-116075968D01*
X179249255Y-116075968D01*
X179249258Y-116075966D01*
X179249262Y-116075966D01*
X179348659Y-116041185D01*
X179419522Y-116016389D01*
X179509096Y-115960105D01*
X179575068Y-115941100D01*
X179614392Y-115941100D01*
X179681431Y-115960785D01*
G37*
%TD.AperFunction*%
%TA.AperFunction,Conductor*%
G36*
X187045831Y-113420785D02*
G01*
X187066473Y-113437419D01*
X187196490Y-113567436D01*
X187229975Y-113628759D01*
X187228584Y-113687208D01*
X187209137Y-113759789D01*
X187209137Y-113759790D01*
X187188541Y-113995199D01*
X187188541Y-113995200D01*
X187209136Y-114230603D01*
X187209138Y-114230613D01*
X187270294Y-114458855D01*
X187270296Y-114458861D01*
X187270297Y-114458863D01*
X187270298Y-114458865D01*
X187272552Y-114463699D01*
X187283041Y-114532777D01*
X187254520Y-114596560D01*
X187196042Y-114634797D01*
X187160168Y-114640100D01*
X183300808Y-114640100D01*
X183233769Y-114620415D01*
X183208184Y-114597219D01*
X183208047Y-114597357D01*
X183205247Y-114594557D01*
X183203545Y-114593014D01*
X183202944Y-114592254D01*
X183080951Y-114470261D01*
X183080950Y-114470260D01*
X182976672Y-114405941D01*
X182934118Y-114379693D01*
X182934113Y-114379691D01*
X182896967Y-114367382D01*
X182770353Y-114325426D01*
X182770351Y-114325425D01*
X182669278Y-114315100D01*
X182070930Y-114315100D01*
X182070912Y-114315101D01*
X181969847Y-114325425D01*
X181806084Y-114379692D01*
X181806081Y-114379693D01*
X181659248Y-114470261D01*
X181545281Y-114584229D01*
X181483958Y-114617714D01*
X181414266Y-114612730D01*
X181369919Y-114584229D01*
X181255951Y-114470261D01*
X181255950Y-114470260D01*
X181151672Y-114405941D01*
X181109118Y-114379693D01*
X181109113Y-114379691D01*
X181071967Y-114367382D01*
X180945353Y-114325426D01*
X180945351Y-114325425D01*
X180844278Y-114315100D01*
X180245930Y-114315100D01*
X180245912Y-114315101D01*
X180144847Y-114325425D01*
X179981084Y-114379692D01*
X179981081Y-114379693D01*
X179834248Y-114470261D01*
X179712255Y-114592254D01*
X179711655Y-114593014D01*
X179711110Y-114593399D01*
X179707153Y-114597357D01*
X179706476Y-114596680D01*
X179654632Y-114633389D01*
X179614392Y-114640100D01*
X179575068Y-114640100D01*
X179509096Y-114621094D01*
X179419522Y-114564810D01*
X179419518Y-114564809D01*
X179249262Y-114505233D01*
X179249250Y-114505230D01*
X179119416Y-114490602D01*
X179055002Y-114463535D01*
X179015447Y-114405941D01*
X179009300Y-114367382D01*
X179009300Y-114214408D01*
X179028985Y-114147369D01*
X179045619Y-114126727D01*
X179630147Y-113542199D01*
X179691470Y-113508714D01*
X179761162Y-113513698D01*
X179805509Y-113542199D01*
X179834250Y-113570940D01*
X179981084Y-113661508D01*
X180144847Y-113715774D01*
X180245923Y-113726100D01*
X180844276Y-113726099D01*
X180844284Y-113726098D01*
X180844287Y-113726098D01*
X180899630Y-113720444D01*
X180945353Y-113715774D01*
X181109116Y-113661508D01*
X181255950Y-113570940D01*
X181369919Y-113456971D01*
X181431242Y-113423486D01*
X181500934Y-113428470D01*
X181545281Y-113456971D01*
X181659250Y-113570940D01*
X181806084Y-113661508D01*
X181969847Y-113715774D01*
X182070923Y-113726100D01*
X182669276Y-113726099D01*
X182669284Y-113726098D01*
X182669287Y-113726098D01*
X182724630Y-113720444D01*
X182770353Y-113715774D01*
X182934116Y-113661508D01*
X183080950Y-113570940D01*
X183202940Y-113448950D01*
X183202941Y-113448947D01*
X183202944Y-113448945D01*
X183203545Y-113448186D01*
X183204089Y-113447800D01*
X183208047Y-113443843D01*
X183208723Y-113444519D01*
X183260568Y-113407811D01*
X183300808Y-113401100D01*
X186978792Y-113401100D01*
X187045831Y-113420785D01*
G37*
%TD.AperFunction*%
%TA.AperFunction,Conductor*%
G36*
X147601231Y-125841385D02*
G01*
X147626815Y-125864580D01*
X147626953Y-125864443D01*
X147629752Y-125867242D01*
X147631455Y-125868786D01*
X147632055Y-125869545D01*
X147717629Y-125955119D01*
X147751114Y-126016442D01*
X147746130Y-126086134D01*
X147717629Y-126130481D01*
X147622661Y-126225448D01*
X147532093Y-126372281D01*
X147532091Y-126372286D01*
X147518829Y-126412308D01*
X147477826Y-126536047D01*
X147477826Y-126536048D01*
X147477825Y-126536048D01*
X147467500Y-126637115D01*
X147467500Y-127210469D01*
X147467501Y-127210487D01*
X147477825Y-127311552D01*
X147498199Y-127373034D01*
X147532020Y-127475100D01*
X147532092Y-127475315D01*
X147532093Y-127475318D01*
X147552267Y-127508025D01*
X147622464Y-127621833D01*
X147622661Y-127622151D01*
X147712928Y-127712418D01*
X147746413Y-127773741D01*
X147741429Y-127843433D01*
X147712929Y-127887779D01*
X147622656Y-127978053D01*
X147622055Y-127978814D01*
X147621510Y-127979199D01*
X147617554Y-127983156D01*
X147616877Y-127982479D01*
X147565032Y-128019189D01*
X147524792Y-128025900D01*
X147469468Y-128025900D01*
X147403496Y-128006894D01*
X147313922Y-127950610D01*
X147313918Y-127950609D01*
X147143662Y-127891033D01*
X147143649Y-127891030D01*
X146964404Y-127870835D01*
X146964396Y-127870835D01*
X146785150Y-127891030D01*
X146785145Y-127891031D01*
X146614876Y-127950611D01*
X146462137Y-128046584D01*
X146334584Y-128174137D01*
X146238611Y-128326876D01*
X146179031Y-128497145D01*
X146179030Y-128497150D01*
X146158835Y-128676396D01*
X146158835Y-128676403D01*
X146179030Y-128855649D01*
X146179033Y-128855662D01*
X146239808Y-129029345D01*
X146243370Y-129099124D01*
X146208642Y-129159751D01*
X146146648Y-129191979D01*
X146122767Y-129194300D01*
X143170048Y-129194300D01*
X143103009Y-129174615D01*
X143057254Y-129121811D01*
X143046520Y-129059492D01*
X143054956Y-128963077D01*
X143062259Y-128879600D01*
X143041663Y-128644192D01*
X142989817Y-128450696D01*
X142980505Y-128415944D01*
X142980504Y-128415943D01*
X142980503Y-128415937D01*
X142880635Y-128201771D01*
X142877089Y-128196706D01*
X142745094Y-128008197D01*
X142578002Y-127841106D01*
X142577996Y-127841101D01*
X142392442Y-127711175D01*
X142348817Y-127656598D01*
X142341623Y-127587100D01*
X142373146Y-127524745D01*
X142392442Y-127508025D01*
X142425849Y-127484633D01*
X142578001Y-127378095D01*
X142745095Y-127211001D01*
X142880635Y-127017430D01*
X142980503Y-126803263D01*
X143041663Y-126575008D01*
X143062259Y-126339600D01*
X143041663Y-126104192D01*
X143027582Y-126051641D01*
X143029245Y-125981793D01*
X143059677Y-125931867D01*
X143133528Y-125858018D01*
X143194852Y-125824533D01*
X143221208Y-125821700D01*
X147534192Y-125821700D01*
X147601231Y-125841385D01*
G37*
%TD.AperFunction*%
%TA.AperFunction,Conductor*%
G36*
X147601231Y-124088785D02*
G01*
X147626815Y-124111980D01*
X147626953Y-124111843D01*
X147629752Y-124114642D01*
X147631455Y-124116186D01*
X147632055Y-124116945D01*
X147722329Y-124207219D01*
X147755814Y-124268542D01*
X147750830Y-124338234D01*
X147722329Y-124382581D01*
X147632055Y-124472854D01*
X147631455Y-124473614D01*
X147630910Y-124473999D01*
X147626953Y-124477957D01*
X147626276Y-124477280D01*
X147574432Y-124513989D01*
X147534192Y-124520700D01*
X143055099Y-124520700D01*
X142988060Y-124501015D01*
X142942305Y-124448211D01*
X142932361Y-124379053D01*
X142942717Y-124344295D01*
X142953459Y-124321258D01*
X142980503Y-124263263D01*
X143007902Y-124161007D01*
X143044266Y-124101347D01*
X143107113Y-124070817D01*
X143127677Y-124069100D01*
X147534192Y-124069100D01*
X147601231Y-124088785D01*
G37*
%TD.AperFunction*%
%TA.AperFunction,Conductor*%
G36*
X189955809Y-105446453D02*
G01*
X190060991Y-105458298D01*
X190088057Y-105464475D01*
X190181374Y-105497123D01*
X190206393Y-105509171D01*
X190290104Y-105561768D01*
X190311815Y-105579082D01*
X190381717Y-105648984D01*
X190399031Y-105670695D01*
X190451628Y-105754406D01*
X190463676Y-105779427D01*
X190496323Y-105872740D01*
X190502501Y-105899813D01*
X190514348Y-106005015D01*
X190515127Y-106018897D01*
X190515124Y-106084285D01*
X190515304Y-106086997D01*
X190583681Y-135019309D01*
X190582901Y-135033485D01*
X190571066Y-135138530D01*
X190564887Y-135165602D01*
X190532234Y-135258918D01*
X190520187Y-135283935D01*
X190467583Y-135367653D01*
X190450270Y-135389362D01*
X190380362Y-135459270D01*
X190358653Y-135476583D01*
X190274935Y-135529187D01*
X190249922Y-135541232D01*
X190156598Y-135573888D01*
X190129529Y-135580066D01*
X190042519Y-135589869D01*
X190024315Y-135591920D01*
X190010434Y-135592700D01*
X189944255Y-135592700D01*
X189942932Y-135592786D01*
X140265463Y-135651149D01*
X140251434Y-135650369D01*
X140146668Y-135638565D01*
X140119595Y-135632386D01*
X140026275Y-135599731D01*
X140001257Y-135587683D01*
X139917537Y-135535076D01*
X139895829Y-135517763D01*
X139854650Y-135476583D01*
X139825918Y-135447850D01*
X139808611Y-135426148D01*
X139756007Y-135342424D01*
X139743960Y-135317406D01*
X139711308Y-135224082D01*
X139705130Y-135197010D01*
X139693285Y-135091848D01*
X139692506Y-135077861D01*
X139692551Y-135026413D01*
X139702370Y-123799599D01*
X140350941Y-123799599D01*
X140350941Y-123799600D01*
X140371536Y-124035003D01*
X140371538Y-124035013D01*
X140432694Y-124263255D01*
X140432696Y-124263259D01*
X140432697Y-124263263D01*
X140516850Y-124443729D01*
X140532565Y-124477430D01*
X140532567Y-124477434D01*
X140631598Y-124618864D01*
X140664705Y-124666146D01*
X140668101Y-124670995D01*
X140668106Y-124671002D01*
X140835197Y-124838093D01*
X140835203Y-124838098D01*
X141020758Y-124968025D01*
X141064383Y-125022602D01*
X141071577Y-125092100D01*
X141040054Y-125154455D01*
X141020758Y-125171175D01*
X140835197Y-125301105D01*
X140668105Y-125468197D01*
X140532565Y-125661769D01*
X140532564Y-125661771D01*
X140432698Y-125875935D01*
X140432694Y-125875944D01*
X140371538Y-126104186D01*
X140371536Y-126104196D01*
X140350941Y-126339599D01*
X140350941Y-126339600D01*
X140371536Y-126575003D01*
X140371538Y-126575013D01*
X140432694Y-126803255D01*
X140432696Y-126803259D01*
X140432697Y-126803263D01*
X140503533Y-126955170D01*
X140532565Y-127017430D01*
X140532567Y-127017434D01*
X140631598Y-127158864D01*
X140667737Y-127210476D01*
X140668101Y-127210995D01*
X140668106Y-127211002D01*
X140835197Y-127378093D01*
X140835203Y-127378098D01*
X141020758Y-127508025D01*
X141064383Y-127562602D01*
X141071577Y-127632100D01*
X141040054Y-127694455D01*
X141020758Y-127711175D01*
X140835197Y-127841105D01*
X140668105Y-128008197D01*
X140532565Y-128201769D01*
X140532564Y-128201771D01*
X140432698Y-128415935D01*
X140432694Y-128415944D01*
X140371538Y-128644186D01*
X140371536Y-128644196D01*
X140350941Y-128879599D01*
X140350941Y-128879600D01*
X140371536Y-129115003D01*
X140371538Y-129115013D01*
X140432694Y-129343255D01*
X140432696Y-129343259D01*
X140432697Y-129343263D01*
X140510111Y-129509277D01*
X140532565Y-129557430D01*
X140532567Y-129557434D01*
X140668101Y-129750995D01*
X140668106Y-129751002D01*
X140835197Y-129918093D01*
X140835203Y-129918098D01*
X141020758Y-130048025D01*
X141064383Y-130102602D01*
X141071577Y-130172100D01*
X141040054Y-130234455D01*
X141020758Y-130251175D01*
X140835197Y-130381105D01*
X140668105Y-130548197D01*
X140532565Y-130741769D01*
X140532564Y-130741771D01*
X140432698Y-130955935D01*
X140432694Y-130955944D01*
X140371538Y-131184186D01*
X140371536Y-131184196D01*
X140350941Y-131419599D01*
X140350941Y-131419600D01*
X140371536Y-131655003D01*
X140371538Y-131655013D01*
X140432694Y-131883255D01*
X140432696Y-131883259D01*
X140432697Y-131883263D01*
X140523426Y-132077831D01*
X140532565Y-132097430D01*
X140532567Y-132097434D01*
X140620820Y-132223471D01*
X140668105Y-132291001D01*
X140835199Y-132458095D01*
X140908993Y-132509766D01*
X141028765Y-132593632D01*
X141028767Y-132593633D01*
X141028770Y-132593635D01*
X141242937Y-132693503D01*
X141242943Y-132693504D01*
X141242944Y-132693505D01*
X141297885Y-132708226D01*
X141471192Y-132754663D01*
X141659518Y-132771139D01*
X141706599Y-132775259D01*
X141706600Y-132775259D01*
X141706601Y-132775259D01*
X141745834Y-132771826D01*
X141942008Y-132754663D01*
X142170263Y-132693503D01*
X142384430Y-132593635D01*
X142578001Y-132458095D01*
X142745095Y-132291001D01*
X142880635Y-132097430D01*
X142980503Y-131883263D01*
X143041663Y-131655008D01*
X143062259Y-131419600D01*
X143055409Y-131341307D01*
X143069175Y-131272808D01*
X143117790Y-131222625D01*
X143178937Y-131206500D01*
X146122767Y-131206500D01*
X146189806Y-131226185D01*
X146235561Y-131278989D01*
X146245505Y-131348147D01*
X146239808Y-131371455D01*
X146179033Y-131545137D01*
X146179030Y-131545150D01*
X146158835Y-131724396D01*
X146158835Y-131724403D01*
X146179030Y-131903649D01*
X146179031Y-131903654D01*
X146238611Y-132073923D01*
X146262633Y-132112153D01*
X146334584Y-132226662D01*
X146462138Y-132354216D01*
X146552480Y-132410982D01*
X146597573Y-132439316D01*
X146614878Y-132450189D01*
X146767015Y-132503424D01*
X146785145Y-132509768D01*
X146785150Y-132509769D01*
X146964396Y-132529965D01*
X146964400Y-132529965D01*
X146964404Y-132529965D01*
X147143649Y-132509769D01*
X147143651Y-132509768D01*
X147143655Y-132509768D01*
X147143658Y-132509766D01*
X147143662Y-132509766D01*
X147233777Y-132478232D01*
X147313922Y-132450189D01*
X147403496Y-132393905D01*
X147469468Y-132374900D01*
X147508699Y-132374900D01*
X147575738Y-132394585D01*
X147612364Y-132432996D01*
X147612533Y-132432867D01*
X147613738Y-132434438D01*
X147616085Y-132436899D01*
X147617476Y-132439309D01*
X147617483Y-132439318D01*
X147702056Y-132523891D01*
X147735541Y-132585214D01*
X147730557Y-132654906D01*
X147702057Y-132699253D01*
X147622659Y-132778651D01*
X147532093Y-132925481D01*
X147532091Y-132925486D01*
X147515771Y-132974738D01*
X147477826Y-133089247D01*
X147477826Y-133089248D01*
X147477825Y-133089248D01*
X147467500Y-133190315D01*
X147467500Y-133763669D01*
X147467501Y-133763687D01*
X147477825Y-133864752D01*
X147532092Y-134028515D01*
X147532093Y-134028518D01*
X147562306Y-134077500D01*
X147622660Y-134175350D01*
X147744650Y-134297340D01*
X147891484Y-134387908D01*
X148055247Y-134442174D01*
X148156323Y-134452500D01*
X148754676Y-134452499D01*
X148754684Y-134452498D01*
X148754687Y-134452498D01*
X148810030Y-134446844D01*
X148855753Y-134442174D01*
X149019516Y-134387908D01*
X149166350Y-134297340D01*
X149280319Y-134183371D01*
X149341642Y-134149886D01*
X149411334Y-134154870D01*
X149455681Y-134183371D01*
X149569650Y-134297340D01*
X149716484Y-134387908D01*
X149880247Y-134442174D01*
X149981323Y-134452500D01*
X150579676Y-134452499D01*
X150579684Y-134452498D01*
X150579687Y-134452498D01*
X150635030Y-134446844D01*
X150680753Y-134442174D01*
X150844516Y-134387908D01*
X150991350Y-134297340D01*
X151113340Y-134175350D01*
X151126988Y-134153221D01*
X151178932Y-134106499D01*
X151247894Y-134095275D01*
X151298498Y-134113326D01*
X151440873Y-134202787D01*
X151440877Y-134202788D01*
X151440878Y-134202789D01*
X151611145Y-134262368D01*
X151611150Y-134262369D01*
X151790396Y-134282565D01*
X151790400Y-134282565D01*
X151790404Y-134282565D01*
X151969649Y-134262369D01*
X151969652Y-134262368D01*
X151969655Y-134262368D01*
X152139922Y-134202789D01*
X152292662Y-134106816D01*
X152420216Y-133979262D01*
X152516189Y-133826522D01*
X152575768Y-133656255D01*
X152575769Y-133656249D01*
X152595965Y-133477003D01*
X152595965Y-133476996D01*
X152575769Y-133297750D01*
X152575768Y-133297745D01*
X152538179Y-133190323D01*
X152516189Y-133127478D01*
X152507629Y-133113855D01*
X152480370Y-133070472D01*
X152461370Y-133003235D01*
X152481738Y-132936400D01*
X152535006Y-132891186D01*
X152585364Y-132880500D01*
X154030286Y-132880500D01*
X154030294Y-132880500D01*
X154067169Y-132877598D01*
X154067171Y-132877597D01*
X154067173Y-132877597D01*
X154128863Y-132859674D01*
X154224998Y-132831744D01*
X154350254Y-132757667D01*
X154413375Y-132740400D01*
X155847688Y-132740400D01*
X155913659Y-132759405D01*
X155987478Y-132805789D01*
X156157745Y-132865368D01*
X156157750Y-132865369D01*
X156336996Y-132885565D01*
X156337000Y-132885565D01*
X156337004Y-132885565D01*
X156516249Y-132865369D01*
X156516252Y-132865368D01*
X156516255Y-132865368D01*
X156686522Y-132805789D01*
X156686524Y-132805787D01*
X156686526Y-132805787D01*
X156755255Y-132762602D01*
X156822491Y-132743601D01*
X156884348Y-132760863D01*
X157004202Y-132831744D01*
X157034939Y-132840674D01*
X157162026Y-132877597D01*
X157162029Y-132877597D01*
X157162031Y-132877598D01*
X157198906Y-132880500D01*
X157198914Y-132880500D01*
X158980286Y-132880500D01*
X158980294Y-132880500D01*
X159017169Y-132877598D01*
X159019192Y-132877010D01*
X159020370Y-132877013D01*
X159023399Y-132876460D01*
X159023501Y-132877021D01*
X159089058Y-132877199D01*
X159147734Y-132915132D01*
X159170844Y-132955127D01*
X159218010Y-133089921D01*
X159241609Y-133127478D01*
X159313984Y-133242662D01*
X159441538Y-133370216D01*
X159594278Y-133466189D01*
X159625183Y-133477003D01*
X159764545Y-133525768D01*
X159764550Y-133525769D01*
X159943796Y-133545965D01*
X159943800Y-133545965D01*
X159943804Y-133545965D01*
X160123049Y-133525769D01*
X160123052Y-133525768D01*
X160123055Y-133525768D01*
X160293322Y-133466189D01*
X160446062Y-133370216D01*
X160573616Y-133242662D01*
X160669589Y-133089922D01*
X160729168Y-132919655D01*
X160734031Y-132876500D01*
X160749365Y-132740400D01*
X160749365Y-132740396D01*
X160729169Y-132561150D01*
X160729168Y-132561145D01*
X160711190Y-132509766D01*
X160669589Y-132390878D01*
X160659549Y-132374900D01*
X160597355Y-132275918D01*
X160573616Y-132238138D01*
X160573615Y-132238137D01*
X160569911Y-132232242D01*
X160572487Y-132230622D01*
X160551174Y-132178453D01*
X160563912Y-132109754D01*
X160611770Y-132058848D01*
X160635523Y-132048089D01*
X160749098Y-132010454D01*
X160749111Y-132010448D01*
X160895834Y-131919947D01*
X160895838Y-131919944D01*
X161017744Y-131798038D01*
X161017747Y-131798034D01*
X161108248Y-131651311D01*
X161108253Y-131651300D01*
X161162480Y-131487652D01*
X161172799Y-131386654D01*
X161172800Y-131386641D01*
X161172800Y-131287500D01*
X159303800Y-131287500D01*
X159236761Y-131267815D01*
X159191006Y-131215011D01*
X159179800Y-131163500D01*
X159179800Y-131060000D01*
X157963600Y-131060000D01*
X157896561Y-131040315D01*
X157850806Y-130987511D01*
X157839600Y-130936000D01*
X157839600Y-130684000D01*
X157859285Y-130616961D01*
X157912089Y-130571206D01*
X157963600Y-130560000D01*
X159483600Y-130560000D01*
X159550639Y-130579685D01*
X159596394Y-130632489D01*
X159607600Y-130684000D01*
X159607600Y-130787500D01*
X161172799Y-130787500D01*
X161172799Y-130688360D01*
X161172798Y-130688345D01*
X161162480Y-130587347D01*
X161108253Y-130423699D01*
X161108248Y-130423688D01*
X161017747Y-130276965D01*
X161017744Y-130276961D01*
X161015464Y-130274681D01*
X161014398Y-130272730D01*
X161013267Y-130271299D01*
X161013511Y-130271105D01*
X160981979Y-130213358D01*
X160986963Y-130143666D01*
X161028835Y-130087733D01*
X161094299Y-130063316D01*
X161103145Y-130063000D01*
X161399575Y-130063000D01*
X161440529Y-130069958D01*
X161517145Y-130096768D01*
X161517151Y-130096768D01*
X161517153Y-130096769D01*
X161696396Y-130116965D01*
X161696400Y-130116965D01*
X161696404Y-130116965D01*
X161875649Y-130096769D01*
X161875652Y-130096768D01*
X161875655Y-130096768D01*
X162045922Y-130037189D01*
X162198662Y-129941216D01*
X162326216Y-129813662D01*
X162422189Y-129660922D01*
X162481768Y-129490655D01*
X162484027Y-129470608D01*
X162501965Y-129311403D01*
X162501965Y-129311396D01*
X162481769Y-129132150D01*
X162481768Y-129132145D01*
X162475773Y-129115013D01*
X162422189Y-128961878D01*
X162421637Y-128961000D01*
X162365431Y-128871548D01*
X162326216Y-128809138D01*
X162198662Y-128681584D01*
X162121109Y-128632854D01*
X165230901Y-128632854D01*
X165241219Y-128733852D01*
X165295446Y-128897500D01*
X165295451Y-128897511D01*
X165385952Y-129044234D01*
X165385955Y-129044238D01*
X165507861Y-129166144D01*
X165507865Y-129166147D01*
X165654588Y-129256648D01*
X165654599Y-129256653D01*
X165818247Y-129310880D01*
X165919251Y-129321199D01*
X166018400Y-129321198D01*
X166018400Y-128596200D01*
X165230901Y-128596200D01*
X165230901Y-128632854D01*
X162121109Y-128632854D01*
X162045923Y-128585611D01*
X161875654Y-128526031D01*
X161875649Y-128526030D01*
X161696404Y-128505835D01*
X161696396Y-128505835D01*
X161517150Y-128526030D01*
X161517137Y-128526033D01*
X161434240Y-128555041D01*
X161393285Y-128562000D01*
X161079852Y-128562000D01*
X161012813Y-128542315D01*
X160992171Y-128525681D01*
X160896151Y-128429661D01*
X160896150Y-128429660D01*
X160804929Y-128373395D01*
X160749318Y-128339093D01*
X160749317Y-128339092D01*
X160749316Y-128339092D01*
X160635852Y-128301493D01*
X160578409Y-128261721D01*
X160551586Y-128197205D01*
X160563901Y-128128429D01*
X160570522Y-128118142D01*
X160569911Y-128117758D01*
X160583457Y-128096200D01*
X160669589Y-127959122D01*
X160729168Y-127788855D01*
X160730871Y-127773741D01*
X160749365Y-127609603D01*
X160749365Y-127609596D01*
X160729169Y-127430350D01*
X160729167Y-127430341D01*
X160687601Y-127311553D01*
X160669589Y-127260078D01*
X160638752Y-127211002D01*
X160613399Y-127170652D01*
X160573616Y-127107338D01*
X160446062Y-126979784D01*
X160392093Y-126945873D01*
X160293323Y-126883811D01*
X160123054Y-126824231D01*
X160123049Y-126824230D01*
X159943804Y-126804035D01*
X159943796Y-126804035D01*
X159764550Y-126824230D01*
X159764545Y-126824231D01*
X159594276Y-126883811D01*
X159441537Y-126979784D01*
X159313984Y-127107337D01*
X159218009Y-127260080D01*
X159170843Y-127394873D01*
X159130122Y-127451649D01*
X159065169Y-127477396D01*
X159023421Y-127473397D01*
X159023396Y-127473540D01*
X159021730Y-127473235D01*
X159019207Y-127472994D01*
X159017169Y-127472402D01*
X159017166Y-127472401D01*
X159017163Y-127472401D01*
X158980301Y-127469500D01*
X158980294Y-127469500D01*
X157198906Y-127469500D01*
X157198898Y-127469500D01*
X157162032Y-127472401D01*
X157162026Y-127472402D01*
X157004207Y-127518254D01*
X157004196Y-127518258D01*
X156917649Y-127569441D01*
X156855315Y-127586706D01*
X155584268Y-127594751D01*
X155517510Y-127575746D01*
X155467324Y-127544211D01*
X155297054Y-127484631D01*
X155297049Y-127484630D01*
X155117804Y-127464435D01*
X155117796Y-127464435D01*
X154938550Y-127484630D01*
X154938537Y-127484633D01*
X154768278Y-127544210D01*
X154708611Y-127581701D01*
X154643425Y-127600705D01*
X154401710Y-127602235D01*
X154337804Y-127584969D01*
X154224996Y-127518255D01*
X154224993Y-127518254D01*
X154067173Y-127472402D01*
X154067167Y-127472401D01*
X154030301Y-127469500D01*
X154030294Y-127469500D01*
X152248906Y-127469500D01*
X152248898Y-127469500D01*
X152212032Y-127472401D01*
X152212026Y-127472402D01*
X152054206Y-127518254D01*
X152054203Y-127518255D01*
X151912737Y-127601917D01*
X151912729Y-127601923D01*
X151796523Y-127718129D01*
X151796517Y-127718137D01*
X151712855Y-127859603D01*
X151712854Y-127859606D01*
X151667002Y-128017426D01*
X151667001Y-128017432D01*
X151664100Y-128054298D01*
X151664100Y-128485701D01*
X151667001Y-128522567D01*
X151667002Y-128522573D01*
X151712853Y-128680392D01*
X151712855Y-128680396D01*
X151712856Y-128680398D01*
X151725856Y-128702381D01*
X151743039Y-128770102D01*
X151720880Y-128836365D01*
X151666414Y-128880128D01*
X151619124Y-128889500D01*
X151548529Y-128889500D01*
X151416882Y-128915687D01*
X151416347Y-128913000D01*
X151358090Y-128913257D01*
X151299146Y-128875743D01*
X151269840Y-128812316D01*
X151268499Y-128794136D01*
X151268499Y-128389724D01*
X151267337Y-128378353D01*
X151258174Y-128288647D01*
X151251550Y-128268657D01*
X151203908Y-128124884D01*
X151113340Y-127978050D01*
X151022717Y-127887427D01*
X150989232Y-127826104D01*
X150994216Y-127756412D01*
X151022717Y-127712064D01*
X151112948Y-127621833D01*
X151203448Y-127475111D01*
X151203453Y-127475100D01*
X151257680Y-127311452D01*
X151267999Y-127210454D01*
X151268000Y-127210441D01*
X151268000Y-127173800D01*
X150104500Y-127173800D01*
X150037461Y-127154115D01*
X149991706Y-127101311D01*
X149980500Y-127049800D01*
X149980500Y-126797800D01*
X150000185Y-126730761D01*
X150052989Y-126685006D01*
X150104500Y-126673800D01*
X151267999Y-126673800D01*
X151267999Y-126637160D01*
X151267998Y-126637145D01*
X151257680Y-126536147D01*
X151203453Y-126372499D01*
X151203448Y-126372488D01*
X151112947Y-126225765D01*
X151112944Y-126225761D01*
X151027417Y-126140234D01*
X150993932Y-126078911D01*
X150998916Y-126009219D01*
X151027413Y-125964876D01*
X151122740Y-125869550D01*
X151146762Y-125830604D01*
X151198710Y-125783879D01*
X151252301Y-125771700D01*
X153982881Y-125771700D01*
X154049920Y-125791385D01*
X154058923Y-125797842D01*
X154059528Y-125798222D01*
X154059530Y-125798224D01*
X154143400Y-125850923D01*
X154183220Y-125875944D01*
X154212270Y-125894197D01*
X154319925Y-125931867D01*
X154382537Y-125953776D01*
X154382542Y-125953777D01*
X154561788Y-125973973D01*
X154561792Y-125973973D01*
X154561796Y-125973973D01*
X154741041Y-125953777D01*
X154741044Y-125953776D01*
X154741047Y-125953776D01*
X154911314Y-125894197D01*
X155064054Y-125798224D01*
X155191608Y-125670670D01*
X155287581Y-125517930D01*
X155293366Y-125501396D01*
X156500235Y-125501396D01*
X156500235Y-125501403D01*
X156520430Y-125680649D01*
X156520431Y-125680654D01*
X156580011Y-125850923D01*
X156644639Y-125953777D01*
X156675984Y-126003662D01*
X156803538Y-126131216D01*
X156893880Y-126187982D01*
X156954011Y-126225765D01*
X156956278Y-126227189D01*
X157087564Y-126273128D01*
X157126545Y-126286768D01*
X157126550Y-126286769D01*
X157305796Y-126306965D01*
X157305800Y-126306965D01*
X157305804Y-126306965D01*
X157485049Y-126286769D01*
X157485052Y-126286768D01*
X157485055Y-126286768D01*
X157564817Y-126258857D01*
X157605772Y-126251900D01*
X158177448Y-126251900D01*
X158244487Y-126271585D01*
X158265129Y-126288219D01*
X158298650Y-126321740D01*
X158445484Y-126412308D01*
X158609247Y-126466574D01*
X158710323Y-126476900D01*
X159308676Y-126476899D01*
X159308684Y-126476898D01*
X159308687Y-126476898D01*
X159364030Y-126471244D01*
X159409753Y-126466574D01*
X159573516Y-126412308D01*
X159720350Y-126321740D01*
X159834319Y-126207771D01*
X159895642Y-126174286D01*
X159965334Y-126179270D01*
X160009681Y-126207771D01*
X160123650Y-126321740D01*
X160270484Y-126412308D01*
X160434247Y-126466574D01*
X160535323Y-126476900D01*
X161133676Y-126476899D01*
X161133684Y-126476898D01*
X161133687Y-126476898D01*
X161189030Y-126471244D01*
X161234753Y-126466574D01*
X161398516Y-126412308D01*
X161545350Y-126321740D01*
X161667340Y-126199750D01*
X161667341Y-126199747D01*
X161667344Y-126199745D01*
X161667945Y-126198986D01*
X161668489Y-126198600D01*
X161672447Y-126194643D01*
X161673123Y-126195319D01*
X161724968Y-126158611D01*
X161765208Y-126151900D01*
X161826332Y-126151900D01*
X161892304Y-126170906D01*
X161981877Y-126227189D01*
X161981881Y-126227190D01*
X162152137Y-126286766D01*
X162152143Y-126286767D01*
X162152145Y-126286768D01*
X162152146Y-126286768D01*
X162152150Y-126286769D01*
X162331396Y-126306965D01*
X162331400Y-126306965D01*
X162331404Y-126306965D01*
X162510649Y-126286769D01*
X162510652Y-126286768D01*
X162510655Y-126286768D01*
X162680922Y-126227189D01*
X162833662Y-126131216D01*
X162961216Y-126003662D01*
X163057189Y-125850922D01*
X163116768Y-125680655D01*
X163119467Y-125656706D01*
X163127358Y-125586666D01*
X163154424Y-125522252D01*
X163212019Y-125482697D01*
X163281856Y-125480559D01*
X163293911Y-125484367D01*
X163296668Y-125485395D01*
X163296669Y-125485396D01*
X163431517Y-125535691D01*
X163431516Y-125535691D01*
X163438444Y-125536435D01*
X163491127Y-125542100D01*
X165086872Y-125542099D01*
X165089500Y-125542099D01*
X165156539Y-125561784D01*
X165202294Y-125614587D01*
X165213500Y-125666099D01*
X165213500Y-127264470D01*
X165213501Y-127264476D01*
X165219908Y-127324083D01*
X165270202Y-127458928D01*
X165270206Y-127458935D01*
X165347075Y-127561618D01*
X165371493Y-127627082D01*
X165356642Y-127695355D01*
X165353347Y-127701026D01*
X165295451Y-127794888D01*
X165295446Y-127794899D01*
X165241219Y-127958547D01*
X165230900Y-128059545D01*
X165230900Y-128096200D01*
X166394400Y-128096200D01*
X166461439Y-128115885D01*
X166507194Y-128168689D01*
X166518400Y-128220200D01*
X166518400Y-129321199D01*
X166617540Y-129321199D01*
X166617554Y-129321198D01*
X166718552Y-129310880D01*
X166882200Y-129256653D01*
X166882211Y-129256648D01*
X167028937Y-129166145D01*
X167034606Y-129161664D01*
X167035729Y-129163084D01*
X167088825Y-129134082D01*
X167158518Y-129139057D01*
X167214457Y-129180921D01*
X167238883Y-129246382D01*
X167239200Y-129255245D01*
X167239200Y-129561688D01*
X167232242Y-129602642D01*
X167210232Y-129665542D01*
X167210230Y-129665550D01*
X167190035Y-129844796D01*
X167190035Y-129844803D01*
X167210230Y-130024049D01*
X167210231Y-130024054D01*
X167269811Y-130194323D01*
X167331025Y-130291744D01*
X167365784Y-130347062D01*
X167493338Y-130474616D01*
X167535081Y-130500845D01*
X167629225Y-130560000D01*
X167646078Y-130570589D01*
X167778602Y-130616961D01*
X167816345Y-130630168D01*
X167816350Y-130630169D01*
X167995596Y-130650365D01*
X167995600Y-130650365D01*
X167995604Y-130650365D01*
X168174849Y-130630169D01*
X168174851Y-130630168D01*
X168174855Y-130630168D01*
X168174858Y-130630166D01*
X168174862Y-130630166D01*
X168348545Y-130569392D01*
X168418324Y-130565830D01*
X168478951Y-130600558D01*
X168511179Y-130662552D01*
X168513500Y-130686433D01*
X168513500Y-132198071D01*
X168531985Y-132290995D01*
X168533948Y-132300865D01*
X168538499Y-132323744D01*
X168586370Y-132439316D01*
X168587535Y-132442127D01*
X168638957Y-132519086D01*
X168658726Y-132548673D01*
X168658727Y-132548674D01*
X169939881Y-133829827D01*
X169973366Y-133891150D01*
X169976200Y-133917508D01*
X169976200Y-134220868D01*
X169976201Y-134220887D01*
X169986525Y-134321952D01*
X170040792Y-134485715D01*
X170040793Y-134485718D01*
X170075095Y-134541329D01*
X170131360Y-134632550D01*
X170253350Y-134754540D01*
X170400184Y-134845108D01*
X170563947Y-134899374D01*
X170665023Y-134909700D01*
X171263376Y-134909699D01*
X171263384Y-134909698D01*
X171263387Y-134909698D01*
X171318730Y-134904044D01*
X171364453Y-134899374D01*
X171528216Y-134845108D01*
X171675050Y-134754540D01*
X171789019Y-134640571D01*
X171850342Y-134607086D01*
X171920034Y-134612070D01*
X171964381Y-134640571D01*
X172078350Y-134754540D01*
X172225184Y-134845108D01*
X172388947Y-134899374D01*
X172490023Y-134909700D01*
X173088376Y-134909699D01*
X173088384Y-134909698D01*
X173088387Y-134909698D01*
X173143730Y-134904044D01*
X173189453Y-134899374D01*
X173353216Y-134845108D01*
X173500050Y-134754540D01*
X173622040Y-134632550D01*
X173622041Y-134632547D01*
X173622044Y-134632545D01*
X173622645Y-134631786D01*
X173623189Y-134631400D01*
X173627147Y-134627443D01*
X173627823Y-134628119D01*
X173679668Y-134591411D01*
X173719908Y-134584700D01*
X174158492Y-134584700D01*
X174225531Y-134604385D01*
X174251115Y-134627580D01*
X174251253Y-134627443D01*
X174254052Y-134630242D01*
X174255755Y-134631786D01*
X174256355Y-134632545D01*
X174256360Y-134632550D01*
X174378350Y-134754540D01*
X174525184Y-134845108D01*
X174688947Y-134899374D01*
X174790023Y-134909700D01*
X175388376Y-134909699D01*
X175388384Y-134909698D01*
X175388387Y-134909698D01*
X175443730Y-134904044D01*
X175489453Y-134899374D01*
X175653216Y-134845108D01*
X175800050Y-134754540D01*
X175914019Y-134640571D01*
X175975342Y-134607086D01*
X176045034Y-134612070D01*
X176089381Y-134640571D01*
X176203350Y-134754540D01*
X176350184Y-134845108D01*
X176513947Y-134899374D01*
X176615023Y-134909700D01*
X177213376Y-134909699D01*
X177213384Y-134909698D01*
X177213387Y-134909698D01*
X177268730Y-134904044D01*
X177314453Y-134899374D01*
X177478216Y-134845108D01*
X177625050Y-134754540D01*
X177747040Y-134632550D01*
X177837608Y-134485716D01*
X177891874Y-134321953D01*
X177902200Y-134220877D01*
X177902199Y-133917506D01*
X177921883Y-133850468D01*
X177938513Y-133829831D01*
X179194276Y-132574069D01*
X179265465Y-132467527D01*
X179314501Y-132349144D01*
X179325550Y-132293600D01*
X179339500Y-132223471D01*
X179339500Y-130998942D01*
X179359185Y-130931903D01*
X179411989Y-130886148D01*
X179481147Y-130876204D01*
X179544703Y-130905229D01*
X179581205Y-130959937D01*
X179621692Y-131082116D01*
X179712260Y-131228950D01*
X179834250Y-131350940D01*
X179835698Y-131351833D01*
X179836482Y-131352704D01*
X179839917Y-131355421D01*
X179839452Y-131356007D01*
X179882421Y-131403780D01*
X179894600Y-131457371D01*
X179894600Y-132143828D01*
X179874915Y-132210867D01*
X179839669Y-132245467D01*
X179839916Y-132245779D01*
X179837015Y-132248072D01*
X179835700Y-132249364D01*
X179834254Y-132250255D01*
X179834253Y-132250256D01*
X179712259Y-132372251D01*
X179621693Y-132519081D01*
X179621691Y-132519086D01*
X179596989Y-132593632D01*
X179567426Y-132682847D01*
X179567426Y-132682848D01*
X179567425Y-132682848D01*
X179557100Y-132783915D01*
X179557100Y-133357269D01*
X179557101Y-133357287D01*
X179567425Y-133458352D01*
X179596458Y-133545965D01*
X179621620Y-133621900D01*
X179621692Y-133622115D01*
X179621693Y-133622118D01*
X179642749Y-133656255D01*
X179712260Y-133768950D01*
X179834250Y-133890940D01*
X179981084Y-133981508D01*
X180144847Y-134035774D01*
X180245923Y-134046100D01*
X180844276Y-134046099D01*
X180844284Y-134046098D01*
X180844287Y-134046098D01*
X180899630Y-134040444D01*
X180945353Y-134035774D01*
X181109116Y-133981508D01*
X181255950Y-133890940D01*
X181370275Y-133776614D01*
X181431594Y-133743132D01*
X181501286Y-133748116D01*
X181545634Y-133776617D01*
X181659561Y-133890544D01*
X181659565Y-133890547D01*
X181806288Y-133981048D01*
X181806299Y-133981053D01*
X181969947Y-134035280D01*
X182070951Y-134045599D01*
X182620100Y-134045599D01*
X182669240Y-134045599D01*
X182669254Y-134045598D01*
X182770252Y-134035280D01*
X182933900Y-133981053D01*
X182933911Y-133981048D01*
X183080634Y-133890547D01*
X183080638Y-133890544D01*
X183202544Y-133768638D01*
X183202547Y-133768634D01*
X183293048Y-133621911D01*
X183293053Y-133621900D01*
X183347280Y-133458252D01*
X183357599Y-133357254D01*
X183357600Y-133357241D01*
X183357600Y-133320600D01*
X182620100Y-133320600D01*
X182620100Y-134045599D01*
X182070951Y-134045599D01*
X182120099Y-134045598D01*
X182120100Y-134045598D01*
X182120100Y-132820600D01*
X182620100Y-132820600D01*
X183357599Y-132820600D01*
X183357599Y-132783960D01*
X183357598Y-132783945D01*
X183347280Y-132682947D01*
X183293053Y-132519299D01*
X183293048Y-132519288D01*
X183202547Y-132372565D01*
X183202544Y-132372561D01*
X183080638Y-132250655D01*
X183080634Y-132250652D01*
X182933911Y-132160151D01*
X182933900Y-132160146D01*
X182770252Y-132105919D01*
X182669254Y-132095600D01*
X182620100Y-132095600D01*
X182620100Y-132820600D01*
X182120100Y-132820600D01*
X182120100Y-132095600D01*
X182120099Y-132095599D01*
X182070961Y-132095600D01*
X182070943Y-132095601D01*
X181969947Y-132105919D01*
X181806299Y-132160146D01*
X181806288Y-132160151D01*
X181659565Y-132250652D01*
X181545634Y-132364583D01*
X181484311Y-132398067D01*
X181414619Y-132393083D01*
X181370273Y-132364583D01*
X181255950Y-132250260D01*
X181255949Y-132250259D01*
X181255946Y-132250256D01*
X181255945Y-132250255D01*
X181254500Y-132249364D01*
X181253717Y-132248493D01*
X181250284Y-132245779D01*
X181250747Y-132245192D01*
X181207777Y-132197415D01*
X181195600Y-132143828D01*
X181195600Y-131457371D01*
X181215285Y-131390332D01*
X181250529Y-131355732D01*
X181250283Y-131355421D01*
X181253182Y-131353128D01*
X181254501Y-131351833D01*
X181255950Y-131350940D01*
X181369919Y-131236971D01*
X181431242Y-131203486D01*
X181500934Y-131208470D01*
X181545281Y-131236971D01*
X181659250Y-131350940D01*
X181806084Y-131441508D01*
X181969847Y-131495774D01*
X182070923Y-131506100D01*
X182669276Y-131506099D01*
X182669284Y-131506098D01*
X182669287Y-131506098D01*
X182739751Y-131498900D01*
X182770353Y-131495774D01*
X182934116Y-131441508D01*
X183080950Y-131350940D01*
X183202940Y-131228950D01*
X183202941Y-131228947D01*
X183202944Y-131228945D01*
X183203545Y-131228186D01*
X183204089Y-131227800D01*
X183208047Y-131223843D01*
X183208723Y-131224519D01*
X183260568Y-131187811D01*
X183300808Y-131181100D01*
X184772871Y-131181100D01*
X184861348Y-131163500D01*
X184898544Y-131156101D01*
X185016927Y-131107065D01*
X185054266Y-131082116D01*
X185123469Y-131035877D01*
X186979239Y-129180105D01*
X187040560Y-129146622D01*
X187110251Y-129151606D01*
X187166185Y-129193477D01*
X187190446Y-129256980D01*
X187209136Y-129470603D01*
X187209138Y-129470613D01*
X187270294Y-129698855D01*
X187270296Y-129698859D01*
X187270297Y-129698863D01*
X187369452Y-129911500D01*
X187370165Y-129913030D01*
X187370167Y-129913034D01*
X187457101Y-130037188D01*
X187505705Y-130106601D01*
X187672799Y-130273695D01*
X187764062Y-130337598D01*
X187866365Y-130409232D01*
X187866367Y-130409233D01*
X187866370Y-130409235D01*
X188080537Y-130509103D01*
X188308792Y-130570263D01*
X188497118Y-130586739D01*
X188544199Y-130590859D01*
X188544200Y-130590859D01*
X188544201Y-130590859D01*
X188584341Y-130587347D01*
X188779608Y-130570263D01*
X189007863Y-130509103D01*
X189222030Y-130409235D01*
X189415601Y-130273695D01*
X189582695Y-130106601D01*
X189718235Y-129913030D01*
X189818103Y-129698863D01*
X189879263Y-129470608D01*
X189899859Y-129235200D01*
X189879263Y-128999792D01*
X189818103Y-128771537D01*
X189718235Y-128557371D01*
X189714230Y-128551650D01*
X189582694Y-128363797D01*
X189415602Y-128196706D01*
X189415596Y-128196701D01*
X189230042Y-128066775D01*
X189186417Y-128012198D01*
X189179223Y-127942700D01*
X189210746Y-127880345D01*
X189230042Y-127863625D01*
X189283627Y-127826104D01*
X189415601Y-127733695D01*
X189582695Y-127566601D01*
X189718235Y-127373030D01*
X189818103Y-127158863D01*
X189879263Y-126930608D01*
X189899859Y-126695200D01*
X189879263Y-126459792D01*
X189818103Y-126231537D01*
X189718235Y-126017371D01*
X189707554Y-126002116D01*
X189582694Y-125823797D01*
X189415602Y-125656706D01*
X189415596Y-125656701D01*
X189230042Y-125526775D01*
X189186417Y-125472198D01*
X189179223Y-125402700D01*
X189210746Y-125340345D01*
X189230042Y-125323625D01*
X189257385Y-125304479D01*
X189415601Y-125193695D01*
X189582695Y-125026601D01*
X189718235Y-124833030D01*
X189818103Y-124618863D01*
X189879263Y-124390608D01*
X189899859Y-124155200D01*
X189879263Y-123919792D01*
X189818103Y-123691537D01*
X189718235Y-123477371D01*
X189716909Y-123475476D01*
X189582694Y-123283797D01*
X189415602Y-123116706D01*
X189415596Y-123116701D01*
X189230042Y-122986775D01*
X189186417Y-122932198D01*
X189179223Y-122862700D01*
X189210746Y-122800345D01*
X189230042Y-122783625D01*
X189317256Y-122722557D01*
X189415601Y-122653695D01*
X189582695Y-122486601D01*
X189718235Y-122293030D01*
X189818103Y-122078863D01*
X189879263Y-121850608D01*
X189899859Y-121615200D01*
X189879263Y-121379792D01*
X189821237Y-121163234D01*
X189818105Y-121151544D01*
X189818104Y-121151543D01*
X189818103Y-121151537D01*
X189718235Y-120937371D01*
X189715913Y-120934054D01*
X189582694Y-120743797D01*
X189415602Y-120576706D01*
X189415596Y-120576701D01*
X189230042Y-120446775D01*
X189186417Y-120392198D01*
X189179223Y-120322700D01*
X189210746Y-120260345D01*
X189230042Y-120243625D01*
X189252226Y-120228091D01*
X189415601Y-120113695D01*
X189582695Y-119946601D01*
X189718235Y-119753030D01*
X189818103Y-119538863D01*
X189879263Y-119310608D01*
X189899859Y-119075200D01*
X189879263Y-118839792D01*
X189818103Y-118611537D01*
X189718235Y-118397371D01*
X189695601Y-118365045D01*
X189582694Y-118203797D01*
X189415602Y-118036706D01*
X189415596Y-118036701D01*
X189230042Y-117906775D01*
X189186417Y-117852198D01*
X189179223Y-117782700D01*
X189210746Y-117720345D01*
X189230042Y-117703625D01*
X189277121Y-117670660D01*
X189415601Y-117573695D01*
X189582695Y-117406601D01*
X189718235Y-117213030D01*
X189818103Y-116998863D01*
X189879263Y-116770608D01*
X189899859Y-116535200D01*
X189879263Y-116299792D01*
X189818103Y-116071537D01*
X189718235Y-115857371D01*
X189703950Y-115836969D01*
X189582694Y-115663797D01*
X189415602Y-115496706D01*
X189415596Y-115496701D01*
X189230042Y-115366775D01*
X189186417Y-115312198D01*
X189179223Y-115242700D01*
X189210746Y-115180345D01*
X189230042Y-115163625D01*
X189342331Y-115084999D01*
X189415601Y-115033695D01*
X189582695Y-114866601D01*
X189718235Y-114673030D01*
X189818103Y-114458863D01*
X189879263Y-114230608D01*
X189899859Y-113995200D01*
X189879263Y-113759792D01*
X189832553Y-113585466D01*
X189818105Y-113531544D01*
X189818104Y-113531543D01*
X189818103Y-113531537D01*
X189718235Y-113317371D01*
X189695887Y-113285455D01*
X189582696Y-113123800D01*
X189565092Y-113106196D01*
X189460767Y-113001871D01*
X189427284Y-112940551D01*
X189432268Y-112870859D01*
X189474139Y-112814925D01*
X189505115Y-112798010D01*
X189636531Y-112748996D01*
X189751746Y-112662746D01*
X189837996Y-112547531D01*
X189888291Y-112412683D01*
X189894700Y-112353073D01*
X189894699Y-110557328D01*
X189888291Y-110497717D01*
X189862757Y-110429258D01*
X189837997Y-110362871D01*
X189837993Y-110362864D01*
X189751747Y-110247655D01*
X189751744Y-110247652D01*
X189636535Y-110161406D01*
X189636528Y-110161402D01*
X189501682Y-110111108D01*
X189501683Y-110111108D01*
X189442083Y-110104701D01*
X189442081Y-110104700D01*
X189442073Y-110104700D01*
X189442065Y-110104700D01*
X188165008Y-110104700D01*
X188097969Y-110085015D01*
X188077327Y-110068381D01*
X187714274Y-109705327D01*
X187714273Y-109705326D01*
X187714269Y-109705323D01*
X187607727Y-109634135D01*
X187489344Y-109585099D01*
X187489338Y-109585097D01*
X187363671Y-109560100D01*
X187363669Y-109560100D01*
X183300808Y-109560100D01*
X183233769Y-109540415D01*
X183208184Y-109517219D01*
X183208047Y-109517357D01*
X183205247Y-109514557D01*
X183203545Y-109513014D01*
X183202944Y-109512254D01*
X183080951Y-109390261D01*
X183080950Y-109390260D01*
X182934116Y-109299692D01*
X182770353Y-109245426D01*
X182770351Y-109245425D01*
X182669278Y-109235100D01*
X182070930Y-109235100D01*
X182070912Y-109235101D01*
X181969847Y-109245425D01*
X181806084Y-109299692D01*
X181806081Y-109299693D01*
X181659248Y-109390261D01*
X181545281Y-109504229D01*
X181483958Y-109537714D01*
X181414266Y-109532730D01*
X181369919Y-109504229D01*
X181255951Y-109390261D01*
X181255950Y-109390260D01*
X181109116Y-109299692D01*
X180945353Y-109245426D01*
X180945351Y-109245425D01*
X180844278Y-109235100D01*
X180245930Y-109235100D01*
X180245912Y-109235101D01*
X180144847Y-109245425D01*
X179981084Y-109299692D01*
X179981081Y-109299693D01*
X179834248Y-109390261D01*
X179712255Y-109512254D01*
X179711655Y-109513014D01*
X179711110Y-109513399D01*
X179707153Y-109517357D01*
X179706476Y-109516680D01*
X179654632Y-109553389D01*
X179614392Y-109560100D01*
X175633929Y-109560100D01*
X175508261Y-109585097D01*
X175508255Y-109585099D01*
X175389874Y-109634134D01*
X175283326Y-109705326D01*
X172704175Y-112284477D01*
X172642852Y-112317962D01*
X172630388Y-112320015D01*
X172623152Y-112320830D01*
X172623144Y-112320832D01*
X172452878Y-112380410D01*
X172300137Y-112476384D01*
X172172584Y-112603937D01*
X172076611Y-112756676D01*
X172017031Y-112926945D01*
X172017030Y-112926950D01*
X171996835Y-113106196D01*
X171996835Y-113106203D01*
X172017030Y-113285449D01*
X172017031Y-113285454D01*
X172076611Y-113455723D01*
X172172584Y-113608462D01*
X172176925Y-113613905D01*
X172174692Y-113615685D01*
X172202026Y-113665742D01*
X172197042Y-113735434D01*
X172155170Y-113791367D01*
X172089706Y-113815784D01*
X172080867Y-113816100D01*
X172066133Y-113816100D01*
X172066120Y-113816101D01*
X172002248Y-113822967D01*
X171975742Y-113822967D01*
X171971483Y-113822509D01*
X171911873Y-113816100D01*
X171911867Y-113816100D01*
X171554019Y-113816100D01*
X171486980Y-113796415D01*
X171441225Y-113743611D01*
X171431281Y-113674453D01*
X171436313Y-113653096D01*
X171489080Y-113493852D01*
X171499399Y-113392854D01*
X171499400Y-113392841D01*
X171499400Y-113356200D01*
X170335900Y-113356200D01*
X170268861Y-113336515D01*
X170223106Y-113283711D01*
X170211900Y-113232200D01*
X170211900Y-112856200D01*
X170711900Y-112856200D01*
X171499399Y-112856200D01*
X171499399Y-112819560D01*
X171499398Y-112819545D01*
X171489080Y-112718547D01*
X171434853Y-112554899D01*
X171434848Y-112554888D01*
X171344347Y-112408165D01*
X171344344Y-112408161D01*
X171222438Y-112286255D01*
X171222434Y-112286252D01*
X171075711Y-112195751D01*
X171075700Y-112195746D01*
X170912052Y-112141519D01*
X170811054Y-112131200D01*
X170711900Y-112131200D01*
X170711900Y-112856200D01*
X170211900Y-112856200D01*
X170211900Y-112131199D01*
X170112760Y-112131200D01*
X170112744Y-112131201D01*
X170011747Y-112141519D01*
X169848099Y-112195746D01*
X169848088Y-112195751D01*
X169701365Y-112286252D01*
X169687432Y-112300185D01*
X169626108Y-112333668D01*
X169556416Y-112328682D01*
X169512072Y-112300182D01*
X169497751Y-112285861D01*
X169497750Y-112285860D01*
X169392177Y-112220742D01*
X169350918Y-112195293D01*
X169350913Y-112195291D01*
X169336844Y-112190629D01*
X169187153Y-112141026D01*
X169187150Y-112141025D01*
X169177248Y-112140014D01*
X169112556Y-112113617D01*
X169072405Y-112056436D01*
X169069542Y-111986625D01*
X169102168Y-111928977D01*
X169303277Y-111727869D01*
X169374465Y-111621327D01*
X169423501Y-111502944D01*
X169427520Y-111482738D01*
X169448500Y-111377269D01*
X169448500Y-108967299D01*
X169468185Y-108900260D01*
X169520989Y-108854505D01*
X169572500Y-108843299D01*
X169695871Y-108843299D01*
X169695872Y-108843299D01*
X169755483Y-108836891D01*
X169890331Y-108786596D01*
X170005546Y-108700346D01*
X170091796Y-108585131D01*
X170140810Y-108453716D01*
X170182681Y-108397784D01*
X170248145Y-108373366D01*
X170316418Y-108388217D01*
X170344673Y-108409369D01*
X170466599Y-108531295D01*
X170563384Y-108599065D01*
X170660165Y-108666832D01*
X170660167Y-108666833D01*
X170660170Y-108666835D01*
X170874337Y-108766703D01*
X171102592Y-108827863D01*
X171279034Y-108843300D01*
X171337999Y-108848459D01*
X171338000Y-108848459D01*
X171338001Y-108848459D01*
X171396966Y-108843300D01*
X171573408Y-108827863D01*
X171801663Y-108766703D01*
X172015830Y-108666835D01*
X172209401Y-108531295D01*
X172376495Y-108364201D01*
X172506425Y-108178642D01*
X172561002Y-108135017D01*
X172630500Y-108127823D01*
X172692855Y-108159346D01*
X172709575Y-108178642D01*
X172839500Y-108364195D01*
X172839505Y-108364201D01*
X173006599Y-108531295D01*
X173103384Y-108599065D01*
X173200165Y-108666832D01*
X173200167Y-108666833D01*
X173200170Y-108666835D01*
X173414337Y-108766703D01*
X173642592Y-108827863D01*
X173819034Y-108843300D01*
X173877999Y-108848459D01*
X173878000Y-108848459D01*
X173878001Y-108848459D01*
X173936966Y-108843300D01*
X174113408Y-108827863D01*
X174341663Y-108766703D01*
X174555830Y-108666835D01*
X174749401Y-108531295D01*
X174916495Y-108364201D01*
X175052035Y-108170630D01*
X175151903Y-107956463D01*
X175213063Y-107728208D01*
X175233659Y-107492800D01*
X175213063Y-107257392D01*
X175151903Y-107029137D01*
X175052035Y-106814971D01*
X175046425Y-106806958D01*
X174916494Y-106621397D01*
X174749402Y-106454306D01*
X174749395Y-106454301D01*
X174555834Y-106318767D01*
X174555830Y-106318765D01*
X174555828Y-106318764D01*
X174341663Y-106218897D01*
X174341659Y-106218896D01*
X174341655Y-106218894D01*
X174113413Y-106157738D01*
X174113403Y-106157736D01*
X173878001Y-106137141D01*
X173877999Y-106137141D01*
X173642596Y-106157736D01*
X173642586Y-106157738D01*
X173414344Y-106218894D01*
X173414335Y-106218898D01*
X173200171Y-106318764D01*
X173200169Y-106318765D01*
X173006597Y-106454305D01*
X172839505Y-106621397D01*
X172709575Y-106806958D01*
X172654998Y-106850583D01*
X172585500Y-106857777D01*
X172523145Y-106826254D01*
X172506425Y-106806958D01*
X172376494Y-106621397D01*
X172209402Y-106454306D01*
X172209395Y-106454301D01*
X172015834Y-106318767D01*
X172015830Y-106318765D01*
X172015828Y-106318764D01*
X171801663Y-106218897D01*
X171801659Y-106218896D01*
X171801655Y-106218894D01*
X171573413Y-106157738D01*
X171573403Y-106157736D01*
X171338001Y-106137141D01*
X171337999Y-106137141D01*
X171102596Y-106157736D01*
X171102586Y-106157738D01*
X170874344Y-106218894D01*
X170874335Y-106218898D01*
X170660171Y-106318764D01*
X170660169Y-106318765D01*
X170466600Y-106454303D01*
X170344673Y-106576230D01*
X170283350Y-106609714D01*
X170213658Y-106604730D01*
X170157725Y-106562858D01*
X170140810Y-106531881D01*
X170091797Y-106400471D01*
X170091793Y-106400464D01*
X170005547Y-106285255D01*
X170005544Y-106285252D01*
X169890335Y-106199006D01*
X169890328Y-106199002D01*
X169755482Y-106148708D01*
X169755483Y-106148708D01*
X169695883Y-106142301D01*
X169695881Y-106142300D01*
X169695873Y-106142300D01*
X169695864Y-106142300D01*
X167900129Y-106142300D01*
X167900123Y-106142301D01*
X167840516Y-106148708D01*
X167705671Y-106199002D01*
X167705664Y-106199006D01*
X167590455Y-106285252D01*
X167590452Y-106285255D01*
X167504206Y-106400464D01*
X167504202Y-106400471D01*
X167453908Y-106535317D01*
X167447501Y-106594916D01*
X167447500Y-106594935D01*
X167447500Y-108390670D01*
X167447501Y-108390676D01*
X167453908Y-108450283D01*
X167504202Y-108585128D01*
X167504206Y-108585135D01*
X167590452Y-108700344D01*
X167590455Y-108700347D01*
X167705664Y-108786593D01*
X167705671Y-108786597D01*
X167750618Y-108803361D01*
X167840517Y-108836891D01*
X167900127Y-108843300D01*
X168023500Y-108843299D01*
X168090539Y-108862983D01*
X168136294Y-108915787D01*
X168147500Y-108967299D01*
X168147500Y-110992391D01*
X168127815Y-111059430D01*
X168111181Y-111080072D01*
X167096871Y-112094381D01*
X167035548Y-112127866D01*
X167009190Y-112130700D01*
X166705831Y-112130700D01*
X166705812Y-112130701D01*
X166604747Y-112141025D01*
X166440984Y-112195292D01*
X166440981Y-112195293D01*
X166294148Y-112285861D01*
X166180181Y-112399829D01*
X166118858Y-112433314D01*
X166049166Y-112428330D01*
X166004819Y-112399829D01*
X165890851Y-112285861D01*
X165890850Y-112285860D01*
X165785277Y-112220742D01*
X165744018Y-112195293D01*
X165744013Y-112195291D01*
X165729944Y-112190629D01*
X165580253Y-112141026D01*
X165580251Y-112141025D01*
X165479178Y-112130700D01*
X164880830Y-112130700D01*
X164880812Y-112130701D01*
X164779747Y-112141025D01*
X164615984Y-112195292D01*
X164615981Y-112195293D01*
X164469148Y-112285861D01*
X164347161Y-112407848D01*
X164256593Y-112554681D01*
X164256591Y-112554686D01*
X164240271Y-112603937D01*
X164202326Y-112718447D01*
X164202326Y-112718448D01*
X164202325Y-112718448D01*
X164192000Y-112819515D01*
X164192000Y-113122891D01*
X164172315Y-113189930D01*
X164155681Y-113210572D01*
X161554587Y-115811665D01*
X161493264Y-115845150D01*
X161423572Y-115840166D01*
X161401814Y-115829526D01*
X161398521Y-115827495D01*
X161398520Y-115827494D01*
X161398516Y-115827492D01*
X161234753Y-115773226D01*
X161234751Y-115773225D01*
X161133678Y-115762900D01*
X160435330Y-115762900D01*
X160435312Y-115762901D01*
X160334247Y-115773225D01*
X160170484Y-115827492D01*
X160170481Y-115827493D01*
X160023648Y-115918061D01*
X160009325Y-115932384D01*
X159948001Y-115965868D01*
X159878309Y-115960882D01*
X159833965Y-115932382D01*
X159820038Y-115918455D01*
X159820034Y-115918452D01*
X159673311Y-115827951D01*
X159673300Y-115827946D01*
X159509652Y-115773719D01*
X159408654Y-115763400D01*
X159309500Y-115763400D01*
X159309500Y-123874800D01*
X159289815Y-123941839D01*
X159237011Y-123987594D01*
X159185500Y-123998800D01*
X158022001Y-123998800D01*
X158022001Y-124035454D01*
X158032319Y-124136452D01*
X158086546Y-124300100D01*
X158086551Y-124300111D01*
X158177052Y-124446834D01*
X158177055Y-124446838D01*
X158267282Y-124537065D01*
X158300767Y-124598388D01*
X158295783Y-124668080D01*
X158267303Y-124712407D01*
X158265147Y-124714562D01*
X158203834Y-124748060D01*
X158177448Y-124750900D01*
X157605772Y-124750900D01*
X157564817Y-124743942D01*
X157485054Y-124716031D01*
X157485049Y-124716030D01*
X157305804Y-124695835D01*
X157305796Y-124695835D01*
X157126550Y-124716030D01*
X157126545Y-124716031D01*
X156956276Y-124775611D01*
X156803537Y-124871584D01*
X156675984Y-124999137D01*
X156580011Y-125151876D01*
X156520431Y-125322145D01*
X156520430Y-125322150D01*
X156500235Y-125501396D01*
X155293366Y-125501396D01*
X155347160Y-125347663D01*
X155348648Y-125334456D01*
X155367357Y-125168411D01*
X155367357Y-125168404D01*
X155347161Y-124989158D01*
X155347160Y-124989153D01*
X155298783Y-124850900D01*
X155287581Y-124818886D01*
X155284373Y-124813781D01*
X155245711Y-124752250D01*
X155191608Y-124666146D01*
X155064054Y-124538592D01*
X155060289Y-124536226D01*
X154911315Y-124442619D01*
X154741046Y-124383039D01*
X154741041Y-124383038D01*
X154561796Y-124362843D01*
X154561788Y-124362843D01*
X154382542Y-124383038D01*
X154382537Y-124383039D01*
X154212268Y-124442619D01*
X154059529Y-124538592D01*
X154054087Y-124542933D01*
X154052264Y-124540647D01*
X154002418Y-124567866D01*
X153976060Y-124570700D01*
X151252301Y-124570700D01*
X151185262Y-124551015D01*
X151146762Y-124511796D01*
X151122740Y-124472850D01*
X151032471Y-124382581D01*
X150998986Y-124321258D01*
X151003970Y-124251566D01*
X151032471Y-124207219D01*
X151065168Y-124174522D01*
X151122740Y-124116950D01*
X151122741Y-124116947D01*
X151122744Y-124116945D01*
X151123345Y-124116186D01*
X151123889Y-124115800D01*
X151127847Y-124111843D01*
X151128523Y-124112519D01*
X151180368Y-124075811D01*
X151220608Y-124069100D01*
X153368132Y-124069100D01*
X153434104Y-124088106D01*
X153523677Y-124144389D01*
X153523681Y-124144390D01*
X153693937Y-124203966D01*
X153693943Y-124203967D01*
X153693945Y-124203968D01*
X153693946Y-124203968D01*
X153693950Y-124203969D01*
X153873196Y-124224165D01*
X153873200Y-124224165D01*
X153873204Y-124224165D01*
X154052449Y-124203969D01*
X154052452Y-124203968D01*
X154052455Y-124203968D01*
X154222722Y-124144389D01*
X154375462Y-124048416D01*
X154503016Y-123920862D01*
X154598989Y-123768122D01*
X154658568Y-123597855D01*
X154658569Y-123597849D01*
X154673859Y-123462145D01*
X158022000Y-123462145D01*
X158022000Y-123498800D01*
X158809500Y-123498800D01*
X158809500Y-122246200D01*
X158022001Y-122246200D01*
X158022001Y-122282854D01*
X158032319Y-122383852D01*
X158086546Y-122547500D01*
X158086551Y-122547511D01*
X158177052Y-122694234D01*
X158267636Y-122784819D01*
X158301120Y-122846143D01*
X158296136Y-122915834D01*
X158267636Y-122960181D01*
X158177052Y-123050765D01*
X158086551Y-123197488D01*
X158086546Y-123197499D01*
X158032319Y-123361147D01*
X158022000Y-123462145D01*
X154673859Y-123462145D01*
X154678765Y-123418603D01*
X154678765Y-123418596D01*
X154658569Y-123239350D01*
X154658568Y-123239345D01*
X154598988Y-123069076D01*
X154559782Y-123006680D01*
X154503016Y-122916338D01*
X154375462Y-122788784D01*
X154342544Y-122768100D01*
X154222723Y-122692811D01*
X154052454Y-122633231D01*
X154052449Y-122633230D01*
X153873204Y-122613035D01*
X153873196Y-122613035D01*
X153693950Y-122633230D01*
X153693937Y-122633233D01*
X153523681Y-122692809D01*
X153523677Y-122692810D01*
X153447415Y-122740730D01*
X153434122Y-122749083D01*
X153434104Y-122749094D01*
X153368132Y-122768100D01*
X151220608Y-122768100D01*
X151153569Y-122748415D01*
X151127984Y-122725219D01*
X151127847Y-122725357D01*
X151125047Y-122722557D01*
X151123345Y-122721014D01*
X151122744Y-122720254D01*
X151000751Y-122598261D01*
X151000750Y-122598260D01*
X150909529Y-122541995D01*
X150853918Y-122507693D01*
X150853913Y-122507691D01*
X150819884Y-122496415D01*
X150690153Y-122453426D01*
X150690151Y-122453425D01*
X150589078Y-122443100D01*
X149990730Y-122443100D01*
X149990712Y-122443101D01*
X149889647Y-122453425D01*
X149725884Y-122507692D01*
X149725881Y-122507693D01*
X149579048Y-122598261D01*
X149465081Y-122712229D01*
X149403758Y-122745714D01*
X149334066Y-122740730D01*
X149289719Y-122712229D01*
X149175751Y-122598261D01*
X149175750Y-122598260D01*
X149084529Y-122541995D01*
X149028918Y-122507693D01*
X149028913Y-122507691D01*
X148994884Y-122496415D01*
X148865153Y-122453426D01*
X148865151Y-122453425D01*
X148764078Y-122443100D01*
X148165730Y-122443100D01*
X148165712Y-122443101D01*
X148064647Y-122453425D01*
X147900884Y-122507692D01*
X147900881Y-122507693D01*
X147754048Y-122598261D01*
X147632055Y-122720254D01*
X147631455Y-122721014D01*
X147630910Y-122721399D01*
X147626953Y-122725357D01*
X147626276Y-122724680D01*
X147574432Y-122761389D01*
X147534192Y-122768100D01*
X142627088Y-122768100D01*
X142560049Y-122748415D01*
X142555980Y-122745686D01*
X142384430Y-122625565D01*
X142170263Y-122525697D01*
X142170259Y-122525696D01*
X142170255Y-122525694D01*
X141942013Y-122464538D01*
X141942003Y-122464536D01*
X141706601Y-122443941D01*
X141706599Y-122443941D01*
X141471196Y-122464536D01*
X141471186Y-122464538D01*
X141242944Y-122525694D01*
X141242935Y-122525698D01*
X141028771Y-122625564D01*
X141028769Y-122625565D01*
X140835197Y-122761105D01*
X140668105Y-122928197D01*
X140532565Y-123121769D01*
X140532564Y-123121771D01*
X140432698Y-123335935D01*
X140432694Y-123335944D01*
X140371538Y-123564186D01*
X140371536Y-123564196D01*
X140350941Y-123799599D01*
X139702370Y-123799599D01*
X139704198Y-121709545D01*
X158022000Y-121709545D01*
X158022000Y-121746200D01*
X158809500Y-121746200D01*
X158809500Y-120493600D01*
X158022001Y-120493600D01*
X158022001Y-120530254D01*
X158032319Y-120631252D01*
X158086546Y-120794900D01*
X158086551Y-120794911D01*
X158177052Y-120941634D01*
X158267636Y-121032219D01*
X158301120Y-121093543D01*
X158296136Y-121163234D01*
X158267636Y-121207581D01*
X158177052Y-121298165D01*
X158086551Y-121444888D01*
X158086546Y-121444899D01*
X158032319Y-121608547D01*
X158022000Y-121709545D01*
X139704198Y-121709545D01*
X139715474Y-108816557D01*
X139972800Y-108816557D01*
X139972800Y-109673442D01*
X139988261Y-109810671D01*
X139999393Y-109842483D01*
X140046578Y-109977331D01*
X140049145Y-109984665D01*
X140147215Y-110140742D01*
X140203792Y-110197319D01*
X140237277Y-110258642D01*
X140232293Y-110328334D01*
X140203792Y-110372681D01*
X140147215Y-110429257D01*
X140049145Y-110585334D01*
X139988261Y-110759328D01*
X139972800Y-110896557D01*
X139972800Y-111753442D01*
X139988261Y-111890671D01*
X140021837Y-111986625D01*
X140046265Y-112056436D01*
X140049145Y-112064665D01*
X140079904Y-112113617D01*
X140097125Y-112141025D01*
X140128294Y-112190629D01*
X140147300Y-112256601D01*
X140147300Y-114209095D01*
X140146658Y-114221698D01*
X140145300Y-114234983D01*
X140145300Y-115635001D01*
X140145301Y-115635018D01*
X140155800Y-115737796D01*
X140155801Y-115737799D01*
X140185673Y-115827946D01*
X140210986Y-115904334D01*
X140303088Y-116053656D01*
X140427144Y-116177712D01*
X140576466Y-116269814D01*
X140621105Y-116284605D01*
X140678549Y-116324377D01*
X140705372Y-116388893D01*
X140706100Y-116402311D01*
X140706100Y-117305458D01*
X140686415Y-117372497D01*
X140633611Y-117418252D01*
X140625447Y-117421634D01*
X140614269Y-117425804D01*
X140614264Y-117425806D01*
X140499055Y-117512052D01*
X140499052Y-117512055D01*
X140412806Y-117627264D01*
X140412802Y-117627271D01*
X140362508Y-117762117D01*
X140356101Y-117821716D01*
X140356101Y-117821723D01*
X140356100Y-117821735D01*
X140356100Y-119617470D01*
X140356101Y-119617476D01*
X140362508Y-119677083D01*
X140412802Y-119811928D01*
X140412806Y-119811935D01*
X140499052Y-119927144D01*
X140499055Y-119927147D01*
X140614264Y-120013393D01*
X140614271Y-120013397D01*
X140749117Y-120063691D01*
X140749116Y-120063691D01*
X140756044Y-120064435D01*
X140808727Y-120070100D01*
X142604472Y-120070099D01*
X142664083Y-120063691D01*
X142798931Y-120013396D01*
X142914146Y-119927146D01*
X143000396Y-119811931D01*
X143050691Y-119677083D01*
X143057100Y-119617473D01*
X143057099Y-118270743D01*
X146310100Y-118270743D01*
X146310100Y-119828857D01*
X146343626Y-119953976D01*
X146351023Y-119981583D01*
X146351026Y-119981590D01*
X146430075Y-120118509D01*
X146430079Y-120118514D01*
X146430080Y-120118516D01*
X146541884Y-120230320D01*
X146541886Y-120230321D01*
X146541890Y-120230324D01*
X146644261Y-120289427D01*
X146678816Y-120309377D01*
X146831543Y-120350300D01*
X146831545Y-120350300D01*
X148389655Y-120350300D01*
X148389657Y-120350300D01*
X148542384Y-120309377D01*
X148679316Y-120230320D01*
X148791120Y-120118516D01*
X148794708Y-120112300D01*
X148845275Y-120064085D01*
X148902096Y-120050300D01*
X149001569Y-120050300D01*
X149068608Y-120069985D01*
X149089250Y-120086618D01*
X149195144Y-120192512D01*
X149344466Y-120284614D01*
X149511003Y-120339799D01*
X149613791Y-120350300D01*
X151813808Y-120350299D01*
X151916597Y-120339799D01*
X152083134Y-120284614D01*
X152232456Y-120192512D01*
X152356512Y-120068456D01*
X152408555Y-119984079D01*
X152460501Y-119937356D01*
X152529464Y-119926133D01*
X152593546Y-119953976D01*
X152619631Y-119984080D01*
X152671480Y-120068140D01*
X152671483Y-120068144D01*
X152795454Y-120192115D01*
X152944675Y-120284156D01*
X152944680Y-120284158D01*
X153111102Y-120339305D01*
X153111109Y-120339306D01*
X153213819Y-120349799D01*
X154063799Y-120349799D01*
X154563800Y-120349799D01*
X155413772Y-120349799D01*
X155413786Y-120349798D01*
X155516497Y-120339305D01*
X155682919Y-120284158D01*
X155682924Y-120284156D01*
X155832145Y-120192115D01*
X155956115Y-120068145D01*
X156024704Y-119956945D01*
X158022000Y-119956945D01*
X158022000Y-119993600D01*
X158809500Y-119993600D01*
X158809500Y-118741000D01*
X158022001Y-118741000D01*
X158022001Y-118777654D01*
X158032319Y-118878652D01*
X158086546Y-119042300D01*
X158086551Y-119042311D01*
X158177052Y-119189034D01*
X158267636Y-119279619D01*
X158301120Y-119340943D01*
X158296136Y-119410634D01*
X158267636Y-119454981D01*
X158177052Y-119545565D01*
X158086551Y-119692288D01*
X158086546Y-119692299D01*
X158032319Y-119855947D01*
X158022000Y-119956945D01*
X156024704Y-119956945D01*
X156048156Y-119918924D01*
X156048158Y-119918919D01*
X156103305Y-119752497D01*
X156103306Y-119752490D01*
X156113799Y-119649786D01*
X156113800Y-119649773D01*
X156113800Y-119299800D01*
X154563800Y-119299800D01*
X154563800Y-120349799D01*
X154063799Y-120349799D01*
X154063800Y-120349798D01*
X154063800Y-118799800D01*
X154563800Y-118799800D01*
X156113799Y-118799800D01*
X156113799Y-118449828D01*
X156113798Y-118449813D01*
X156103305Y-118347102D01*
X156056000Y-118204345D01*
X158022000Y-118204345D01*
X158022000Y-118241000D01*
X158809500Y-118241000D01*
X158809500Y-116988400D01*
X158022001Y-116988400D01*
X158022001Y-117025054D01*
X158032319Y-117126052D01*
X158086546Y-117289700D01*
X158086551Y-117289711D01*
X158177052Y-117436434D01*
X158267636Y-117527019D01*
X158301120Y-117588343D01*
X158296136Y-117658034D01*
X158267636Y-117702381D01*
X158177052Y-117792965D01*
X158086551Y-117939688D01*
X158086546Y-117939699D01*
X158032319Y-118103347D01*
X158022000Y-118204345D01*
X156056000Y-118204345D01*
X156048158Y-118180680D01*
X156048156Y-118180675D01*
X155956115Y-118031454D01*
X155832145Y-117907484D01*
X155682924Y-117815443D01*
X155682919Y-117815441D01*
X155516497Y-117760294D01*
X155516490Y-117760293D01*
X155413786Y-117749800D01*
X154563800Y-117749800D01*
X154563800Y-118799800D01*
X154063800Y-118799800D01*
X154063800Y-117749800D01*
X153213828Y-117749800D01*
X153213812Y-117749801D01*
X153111102Y-117760294D01*
X152944680Y-117815441D01*
X152944675Y-117815443D01*
X152795454Y-117907484D01*
X152671482Y-118031456D01*
X152619631Y-118115520D01*
X152567683Y-118162244D01*
X152498720Y-118173465D01*
X152434638Y-118145622D01*
X152408554Y-118115518D01*
X152356512Y-118031144D01*
X152232457Y-117907089D01*
X152232456Y-117907088D01*
X152094076Y-117821735D01*
X152083136Y-117814987D01*
X152083131Y-117814985D01*
X152053602Y-117805200D01*
X151916597Y-117759801D01*
X151916594Y-117759800D01*
X151835497Y-117751515D01*
X151770805Y-117725118D01*
X151730654Y-117667937D01*
X151724100Y-117628157D01*
X151724100Y-116594581D01*
X151743785Y-116527542D01*
X151760415Y-116506904D01*
X151815574Y-116451745D01*
X158022000Y-116451745D01*
X158022000Y-116488400D01*
X158809500Y-116488400D01*
X158809500Y-115763399D01*
X158710360Y-115763400D01*
X158710344Y-115763401D01*
X158609347Y-115773719D01*
X158445699Y-115827946D01*
X158445688Y-115827951D01*
X158298965Y-115918452D01*
X158298961Y-115918455D01*
X158177055Y-116040361D01*
X158177052Y-116040365D01*
X158086551Y-116187088D01*
X158086546Y-116187099D01*
X158032319Y-116350747D01*
X158022000Y-116451745D01*
X151815574Y-116451745D01*
X152326578Y-115940741D01*
X152326582Y-115940739D01*
X152465939Y-115801382D01*
X152575432Y-115637514D01*
X152636112Y-115491018D01*
X152650851Y-115455436D01*
X152671653Y-115350859D01*
X152689300Y-115262141D01*
X152689300Y-114959499D01*
X152708985Y-114892460D01*
X152761789Y-114846705D01*
X152813300Y-114835499D01*
X153236671Y-114835499D01*
X153236672Y-114835499D01*
X153296283Y-114829091D01*
X153431131Y-114778796D01*
X153546346Y-114692546D01*
X153591039Y-114632844D01*
X154488800Y-114632844D01*
X154495201Y-114692372D01*
X154495203Y-114692379D01*
X154545445Y-114827086D01*
X154545449Y-114827093D01*
X154631609Y-114942187D01*
X154631612Y-114942190D01*
X154746706Y-115028350D01*
X154746713Y-115028354D01*
X154881420Y-115078596D01*
X154881427Y-115078598D01*
X154940955Y-115084999D01*
X154940972Y-115085000D01*
X158088800Y-115085000D01*
X158588800Y-115085000D01*
X161736628Y-115085000D01*
X161736644Y-115084999D01*
X161796172Y-115078598D01*
X161796179Y-115078596D01*
X161930886Y-115028354D01*
X161930893Y-115028350D01*
X162045987Y-114942190D01*
X162045990Y-114942187D01*
X162132150Y-114827093D01*
X162132154Y-114827086D01*
X162182396Y-114692379D01*
X162182398Y-114692372D01*
X162188799Y-114632844D01*
X162188800Y-114632827D01*
X162188800Y-111485000D01*
X158588800Y-111485000D01*
X158588800Y-115085000D01*
X158088800Y-115085000D01*
X158088800Y-111485000D01*
X154488800Y-111485000D01*
X154488800Y-114632844D01*
X153591039Y-114632844D01*
X153632596Y-114577331D01*
X153682891Y-114442483D01*
X153689300Y-114382873D01*
X153689299Y-112687128D01*
X153682891Y-112627517D01*
X153674096Y-112603937D01*
X153632597Y-112492671D01*
X153632593Y-112492664D01*
X153546347Y-112377455D01*
X153546344Y-112377452D01*
X153431135Y-112291206D01*
X153431128Y-112291202D01*
X153296282Y-112240908D01*
X153296283Y-112240908D01*
X153236683Y-112234501D01*
X153236681Y-112234500D01*
X153236673Y-112234500D01*
X153236664Y-112234500D01*
X150140929Y-112234500D01*
X150140923Y-112234501D01*
X150081316Y-112240908D01*
X149946471Y-112291202D01*
X149946464Y-112291206D01*
X149831255Y-112377452D01*
X149831252Y-112377455D01*
X149745006Y-112492664D01*
X149745002Y-112492671D01*
X149694708Y-112627517D01*
X149690921Y-112662746D01*
X149688301Y-112687123D01*
X149688300Y-112687135D01*
X149688300Y-114382870D01*
X149688301Y-114382876D01*
X149694708Y-114442483D01*
X149745002Y-114577328D01*
X149745006Y-114577335D01*
X149831252Y-114692544D01*
X149831255Y-114692547D01*
X149946464Y-114778793D01*
X149946471Y-114778797D01*
X149991418Y-114795561D01*
X150081317Y-114829091D01*
X150140927Y-114835500D01*
X150302618Y-114835499D01*
X150369656Y-114855183D01*
X150415411Y-114907987D01*
X150425355Y-114977145D01*
X150396330Y-115040701D01*
X150390298Y-115047180D01*
X150194779Y-115242700D01*
X150085821Y-115351658D01*
X150085818Y-115351661D01*
X150016138Y-115421340D01*
X149946459Y-115491019D01*
X149836971Y-115654879D01*
X149836964Y-115654892D01*
X149792227Y-115762900D01*
X149792227Y-115762901D01*
X149765473Y-115827492D01*
X149765471Y-115827497D01*
X149761550Y-115836959D01*
X149761547Y-115836969D01*
X149723100Y-116030256D01*
X149723100Y-117626156D01*
X149703415Y-117693195D01*
X149650611Y-117738950D01*
X149611702Y-117749514D01*
X149511002Y-117759801D01*
X149511000Y-117759801D01*
X149344468Y-117814985D01*
X149344463Y-117814987D01*
X149195145Y-117907087D01*
X149089250Y-118012982D01*
X149027927Y-118046466D01*
X149001569Y-118049300D01*
X148902096Y-118049300D01*
X148835057Y-118029615D01*
X148794708Y-117987299D01*
X148791120Y-117981084D01*
X148679317Y-117869281D01*
X148679309Y-117869275D01*
X148542390Y-117790226D01*
X148542386Y-117790224D01*
X148542384Y-117790223D01*
X148389657Y-117749300D01*
X146989657Y-117749300D01*
X146831543Y-117749300D01*
X146678816Y-117790223D01*
X146678809Y-117790226D01*
X146541890Y-117869275D01*
X146541882Y-117869281D01*
X146430081Y-117981082D01*
X146430075Y-117981090D01*
X146351026Y-118118009D01*
X146351023Y-118118016D01*
X146310100Y-118270743D01*
X143057099Y-118270743D01*
X143057099Y-117821728D01*
X143050691Y-117762117D01*
X143049827Y-117759801D01*
X143000397Y-117627271D01*
X143000393Y-117627264D01*
X142914147Y-117512055D01*
X142914144Y-117512052D01*
X142798935Y-117425806D01*
X142798932Y-117425805D01*
X142798931Y-117425804D01*
X142787761Y-117421638D01*
X142731831Y-117379766D01*
X142707416Y-117314301D01*
X142707100Y-117305458D01*
X142707100Y-116459499D01*
X142726785Y-116392460D01*
X142779589Y-116346705D01*
X142831100Y-116335499D01*
X142945802Y-116335499D01*
X142945808Y-116335499D01*
X143048597Y-116324999D01*
X143215134Y-116269814D01*
X143364456Y-116177712D01*
X143488512Y-116053656D01*
X143580614Y-115904334D01*
X143635799Y-115737797D01*
X143646300Y-115635009D01*
X143646300Y-115634986D01*
X144145801Y-115634986D01*
X144156294Y-115737697D01*
X144211441Y-115904119D01*
X144211443Y-115904124D01*
X144303484Y-116053345D01*
X144427454Y-116177315D01*
X144576675Y-116269356D01*
X144576680Y-116269358D01*
X144743102Y-116324505D01*
X144743109Y-116324506D01*
X144845819Y-116334999D01*
X145645799Y-116334999D01*
X146145800Y-116334999D01*
X146945772Y-116334999D01*
X146945786Y-116334998D01*
X147048497Y-116324505D01*
X147214919Y-116269358D01*
X147214924Y-116269356D01*
X147364145Y-116177315D01*
X147488115Y-116053345D01*
X147580156Y-115904124D01*
X147580158Y-115904119D01*
X147635305Y-115737697D01*
X147635306Y-115737690D01*
X147645799Y-115634986D01*
X147645800Y-115634973D01*
X147645800Y-115185000D01*
X146145800Y-115185000D01*
X146145800Y-116334999D01*
X145645799Y-116334999D01*
X145645800Y-116334998D01*
X145645800Y-115185000D01*
X144145801Y-115185000D01*
X144145801Y-115634986D01*
X143646300Y-115634986D01*
X143646299Y-114235013D01*
X144145800Y-114235013D01*
X144145800Y-114685000D01*
X145645800Y-114685000D01*
X146145800Y-114685000D01*
X147645799Y-114685000D01*
X147645799Y-114235028D01*
X147645798Y-114235013D01*
X147635305Y-114132302D01*
X147580158Y-113965880D01*
X147580156Y-113965875D01*
X147488115Y-113816654D01*
X147364145Y-113692684D01*
X147214924Y-113600643D01*
X147214919Y-113600641D01*
X147048497Y-113545494D01*
X147048490Y-113545493D01*
X146945786Y-113535000D01*
X146145800Y-113535000D01*
X146145800Y-114685000D01*
X145645800Y-114685000D01*
X145645800Y-113535000D01*
X144845828Y-113535000D01*
X144845812Y-113535001D01*
X144743102Y-113545494D01*
X144576680Y-113600641D01*
X144576675Y-113600643D01*
X144427454Y-113692684D01*
X144303484Y-113816654D01*
X144211443Y-113965875D01*
X144211441Y-113965880D01*
X144156294Y-114132302D01*
X144156293Y-114132309D01*
X144145800Y-114235013D01*
X143646299Y-114235013D01*
X143646299Y-114234992D01*
X143643166Y-114204326D01*
X143635799Y-114132203D01*
X143635798Y-114132200D01*
X143621304Y-114088460D01*
X143580614Y-113965666D01*
X143488512Y-113816344D01*
X143364456Y-113692288D01*
X143271688Y-113635069D01*
X143215136Y-113600187D01*
X143215131Y-113600185D01*
X143170712Y-113585466D01*
X143048597Y-113545001D01*
X143048595Y-113545000D01*
X142945816Y-113534500D01*
X142945809Y-113534500D01*
X142272300Y-113534500D01*
X142205261Y-113514815D01*
X142159506Y-113462011D01*
X142148300Y-113410500D01*
X142148300Y-113246717D01*
X142167985Y-113179678D01*
X142220789Y-113133923D01*
X142289947Y-113123979D01*
X142315626Y-113130532D01*
X142445817Y-113179091D01*
X142505427Y-113185500D01*
X147321172Y-113185499D01*
X147380783Y-113179091D01*
X147515631Y-113128796D01*
X147630846Y-113042546D01*
X147717096Y-112927331D01*
X147767391Y-112792483D01*
X147773800Y-112732873D01*
X147773799Y-111792641D01*
X147793483Y-111725605D01*
X147846287Y-111679850D01*
X147915446Y-111669906D01*
X147936804Y-111674939D01*
X147973745Y-111687180D01*
X148074752Y-111697499D01*
X148111400Y-111697499D01*
X148611400Y-111697499D01*
X148648040Y-111697499D01*
X148648054Y-111697498D01*
X148749052Y-111687180D01*
X148912700Y-111632953D01*
X148912711Y-111632948D01*
X149059434Y-111542447D01*
X149059438Y-111542444D01*
X149181344Y-111420538D01*
X149181347Y-111420534D01*
X149271848Y-111273811D01*
X149271853Y-111273800D01*
X149326080Y-111110152D01*
X149336399Y-111009154D01*
X149336400Y-111009141D01*
X149336400Y-110910000D01*
X148611400Y-110910000D01*
X148611400Y-111697499D01*
X148111400Y-111697499D01*
X148111400Y-110534000D01*
X148131085Y-110466961D01*
X148183889Y-110421206D01*
X148235400Y-110410000D01*
X149336399Y-110410000D01*
X149336399Y-110310860D01*
X149336398Y-110310845D01*
X149326080Y-110209847D01*
X149289185Y-110098504D01*
X149286783Y-110028676D01*
X149322515Y-109968634D01*
X149385035Y-109937441D01*
X149406891Y-109935500D01*
X149651620Y-109935500D01*
X149718659Y-109955185D01*
X149750885Y-109985187D01*
X149831254Y-110092546D01*
X149839213Y-110098504D01*
X149946464Y-110178793D01*
X149946471Y-110178797D01*
X150081317Y-110229091D01*
X150081316Y-110229091D01*
X150088244Y-110229835D01*
X150140927Y-110235500D01*
X153236672Y-110235499D01*
X153296283Y-110229091D01*
X153431131Y-110178796D01*
X153546346Y-110092546D01*
X153632596Y-109977331D01*
X153682891Y-109842483D01*
X153689300Y-109782873D01*
X153689299Y-108087128D01*
X153682891Y-108027517D01*
X153645850Y-107928206D01*
X153632597Y-107892671D01*
X153632593Y-107892664D01*
X153591039Y-107837155D01*
X154488800Y-107837155D01*
X154488800Y-110985000D01*
X158088800Y-110985000D01*
X158588800Y-110985000D01*
X162188800Y-110985000D01*
X162188800Y-107837172D01*
X162188799Y-107837155D01*
X162182398Y-107777627D01*
X162182396Y-107777620D01*
X162132154Y-107642913D01*
X162132150Y-107642906D01*
X162045990Y-107527812D01*
X162045987Y-107527809D01*
X161930893Y-107441649D01*
X161930886Y-107441645D01*
X161796179Y-107391403D01*
X161796172Y-107391401D01*
X161736644Y-107385000D01*
X158588800Y-107385000D01*
X158588800Y-110985000D01*
X158088800Y-110985000D01*
X158088800Y-107385000D01*
X154940955Y-107385000D01*
X154881427Y-107391401D01*
X154881420Y-107391403D01*
X154746713Y-107441645D01*
X154746706Y-107441649D01*
X154631612Y-107527809D01*
X154631609Y-107527812D01*
X154545449Y-107642906D01*
X154545445Y-107642913D01*
X154495203Y-107777620D01*
X154495201Y-107777627D01*
X154488800Y-107837155D01*
X153591039Y-107837155D01*
X153546347Y-107777455D01*
X153546344Y-107777452D01*
X153431135Y-107691206D01*
X153431128Y-107691202D01*
X153296282Y-107640908D01*
X153296283Y-107640908D01*
X153236683Y-107634501D01*
X153236681Y-107634500D01*
X153236673Y-107634500D01*
X153236664Y-107634500D01*
X150140929Y-107634500D01*
X150140923Y-107634501D01*
X150081316Y-107640908D01*
X149946471Y-107691202D01*
X149946464Y-107691206D01*
X149831256Y-107777452D01*
X149831255Y-107777453D01*
X149831254Y-107777454D01*
X149750887Y-107884811D01*
X149694953Y-107926682D01*
X149651620Y-107934500D01*
X148851168Y-107934500D01*
X148812164Y-107928206D01*
X148796218Y-107922922D01*
X148749153Y-107907326D01*
X148749151Y-107907325D01*
X148648078Y-107897000D01*
X148074730Y-107897000D01*
X148074712Y-107897001D01*
X147973647Y-107907325D01*
X147973644Y-107907326D01*
X147933829Y-107920520D01*
X147864000Y-107922922D01*
X147803959Y-107887190D01*
X147772766Y-107824669D01*
X147771535Y-107816067D01*
X147767391Y-107777516D01*
X147717097Y-107642671D01*
X147717093Y-107642664D01*
X147630847Y-107527455D01*
X147630844Y-107527452D01*
X147515635Y-107441206D01*
X147515628Y-107441202D01*
X147380782Y-107390908D01*
X147380783Y-107390908D01*
X147321183Y-107384501D01*
X147321181Y-107384500D01*
X147321173Y-107384500D01*
X147321164Y-107384500D01*
X142505429Y-107384500D01*
X142505423Y-107384501D01*
X142445816Y-107390908D01*
X142310971Y-107441202D01*
X142310964Y-107441206D01*
X142195755Y-107527452D01*
X142195752Y-107527455D01*
X142109506Y-107642664D01*
X142109502Y-107642671D01*
X142059208Y-107777517D01*
X142052801Y-107837116D01*
X142052800Y-107837135D01*
X142052800Y-108066032D01*
X142033115Y-108133071D01*
X141980311Y-108178826D01*
X141911153Y-108188770D01*
X141862828Y-108171026D01*
X141782965Y-108120845D01*
X141782964Y-108120844D01*
X141782963Y-108120844D01*
X141741196Y-108106229D01*
X141608971Y-108059961D01*
X141471742Y-108044500D01*
X141471738Y-108044500D01*
X140744862Y-108044500D01*
X140744858Y-108044500D01*
X140607628Y-108059961D01*
X140433634Y-108120845D01*
X140277557Y-108218915D01*
X140147215Y-108349257D01*
X140049145Y-108505334D01*
X139988261Y-108679328D01*
X139972800Y-108816557D01*
X139715474Y-108816557D01*
X139717833Y-106119546D01*
X139717900Y-106118569D01*
X139717900Y-106051960D01*
X139718680Y-106038078D01*
X139722405Y-106005015D01*
X139730534Y-105932866D01*
X139736707Y-105905812D01*
X139769371Y-105812466D01*
X139781408Y-105787471D01*
X139834020Y-105703740D01*
X139851325Y-105682041D01*
X139921241Y-105612125D01*
X139942940Y-105594820D01*
X140026671Y-105542208D01*
X140051673Y-105530168D01*
X140145005Y-105497510D01*
X140172062Y-105491334D01*
X140267928Y-105480532D01*
X140277274Y-105479480D01*
X140291157Y-105478700D01*
X140357872Y-105478700D01*
X140358607Y-105478650D01*
X189941872Y-105445675D01*
X189955809Y-105446453D01*
G37*
%TD.AperFunction*%
%TD*%
M02*
