%TF.GenerationSoftware,KiCad,Pcbnew,8.0.6*%
%TF.CreationDate,2025-03-17T21:12:52+03:00*%
%TF.ProjectId,ECU_SW_Control,4543555f-5357-45f4-936f-6e74726f6c2e,v1*%
%TF.SameCoordinates,Original*%
%TF.FileFunction,Copper,L2,Inr*%
%TF.FilePolarity,Positive*%
%FSLAX46Y46*%
G04 Gerber Fmt 4.6, Leading zero omitted, Abs format (unit mm)*
G04 Created by KiCad (PCBNEW 8.0.6) date 2025-03-17 21:12:52*
%MOMM*%
%LPD*%
G01*
G04 APERTURE LIST*
%TA.AperFunction,ComponentPad*%
%ADD10R,1.700000X1.700000*%
%TD*%
%TA.AperFunction,ComponentPad*%
%ADD11O,1.700000X1.700000*%
%TD*%
%TA.AperFunction,ViaPad*%
%ADD12C,0.600000*%
%TD*%
G04 APERTURE END LIST*
D10*
%TO.N,/MCU/I_MCLR*%
%TO.C,J2*%
X188544200Y-111455200D03*
D11*
%TO.N,/MCU/I_PROG_PGEC*%
X188544200Y-113995200D03*
%TO.N,/MCU/I_PROG_PGED*%
X188544200Y-116535200D03*
%TO.N,/MCU/IO_D_C_DEBUG*%
X188544200Y-119075200D03*
%TO.N,/MCU/IO_C_SPI_CLK*%
X188544200Y-121615200D03*
%TO.N,/MCU/I_C_SPI_MiSO*%
X188544200Y-124155200D03*
%TO.N,/MCU/O_C_SPI_MOSI*%
X188544200Y-126695200D03*
%TO.N,/CAN/5V*%
X188544200Y-129235200D03*
%TO.N,GND*%
X188544200Y-131775200D03*
%TD*%
D10*
%TO.N,/MCU/I_A_TEST*%
%TO.C,J3*%
X168798000Y-107492800D03*
D11*
%TO.N,/MCU/O_PWM_TEST*%
X171338000Y-107492800D03*
%TO.N,/MCU/O_D_TEST*%
X173878000Y-107492800D03*
%TD*%
D10*
%TO.N,/Connector/V_BAT*%
%TO.C,J1*%
X141706600Y-118719600D03*
D11*
%TO.N,GND*%
X141706600Y-121259600D03*
%TO.N,/Connector/COMM1*%
X141706600Y-123799600D03*
%TO.N,/Connector/COMM2*%
X141706600Y-126339600D03*
%TO.N,/CAN/CAN-*%
X141706600Y-128879600D03*
%TO.N,/CAN/CAN+*%
X141706600Y-131419600D03*
%TD*%
D12*
%TO.N,/LDO/V_BATPROT*%
X143223300Y-108585000D03*
X146573300Y-110285000D03*
X144913300Y-111985000D03*
X143223300Y-111985000D03*
X144913300Y-108585000D03*
X144913300Y-110285000D03*
X146573300Y-111985000D03*
X146573300Y-108585000D03*
X143223300Y-110285000D03*
%TO.N,GND*%
X182651400Y-113995200D03*
X157950400Y-108457600D03*
X147040600Y-134315200D03*
X167360600Y-111455200D03*
X179070000Y-121676600D03*
X187731400Y-134315200D03*
X147040600Y-106375200D03*
X185191400Y-113995200D03*
X170789600Y-124663200D03*
X158750400Y-109257600D03*
X182651400Y-129235200D03*
X169900600Y-111455200D03*
X182651400Y-121615200D03*
X158750400Y-108457600D03*
X161100400Y-111607600D03*
X173939200Y-130022600D03*
X151790400Y-126923800D03*
X164871400Y-134315200D03*
X158750400Y-113957600D03*
X152171400Y-134315200D03*
X154660600Y-106375200D03*
X160300400Y-109257600D03*
X159740600Y-106375200D03*
X182651400Y-108915200D03*
X162280600Y-106375200D03*
X158750400Y-110807600D03*
X161100400Y-113957600D03*
X164871400Y-131775200D03*
X158750400Y-111607600D03*
X180111400Y-116535200D03*
X177571400Y-113995200D03*
X182651400Y-124155200D03*
X157251400Y-134315200D03*
X180111400Y-113995200D03*
X180111400Y-134315200D03*
X160300400Y-111607600D03*
X164820600Y-106375200D03*
X144500600Y-119075200D03*
X172440600Y-111455200D03*
X157950400Y-113957600D03*
X156400400Y-109257600D03*
X157251400Y-121615200D03*
X157950400Y-111607600D03*
X157950400Y-110807600D03*
X155600400Y-113957600D03*
X164820600Y-108915200D03*
X182651400Y-126695200D03*
X141960600Y-134315200D03*
X185191400Y-116535200D03*
X160300400Y-108457600D03*
X160300400Y-113157600D03*
X166068800Y-119938800D03*
X152120600Y-106375200D03*
X156400400Y-111607600D03*
X177571400Y-108915200D03*
X182651400Y-119075200D03*
X185191400Y-111455200D03*
X182651400Y-116535200D03*
X149580600Y-134315200D03*
X158750400Y-113157600D03*
X155600400Y-109257600D03*
X187731400Y-106375200D03*
X149580600Y-121615200D03*
X152171400Y-121615200D03*
X185191400Y-108915200D03*
X182651400Y-134315200D03*
X177571400Y-106375200D03*
X155600400Y-108457600D03*
X156400400Y-113157600D03*
X147040600Y-124155200D03*
X144500600Y-134315200D03*
X177571400Y-126695200D03*
X144500600Y-106375200D03*
X164820600Y-111455200D03*
X185191400Y-134315200D03*
X161100400Y-110807600D03*
X182651400Y-131775200D03*
X160300400Y-113957600D03*
X141960600Y-106375200D03*
X180111400Y-119075200D03*
X144500600Y-131775200D03*
X147040600Y-126695200D03*
X161100400Y-108457600D03*
X180111400Y-111455200D03*
X157200600Y-106375200D03*
X185191400Y-126695200D03*
X156400400Y-110807600D03*
X164871400Y-129235200D03*
X161100400Y-113157600D03*
X149580600Y-106375200D03*
X185191400Y-121615200D03*
X156400400Y-113957600D03*
X159791400Y-134315200D03*
X180111400Y-108915200D03*
X162331400Y-124155200D03*
X160300400Y-110807600D03*
X167411400Y-134315200D03*
X180111400Y-106375200D03*
X182651400Y-111455200D03*
X161696400Y-131038600D03*
X185191400Y-124155200D03*
X187731400Y-108915200D03*
X162331400Y-134315200D03*
X177571400Y-111455200D03*
X144500600Y-121615200D03*
X161100400Y-109257600D03*
X155600400Y-110807600D03*
X144500600Y-126695200D03*
X167411400Y-131775200D03*
X155600400Y-111607600D03*
X180111400Y-129235200D03*
X155600400Y-113157600D03*
X156400400Y-108457600D03*
X182651400Y-106375200D03*
X154711400Y-134315200D03*
X180111400Y-124155200D03*
X185191400Y-119075200D03*
X185191400Y-131775200D03*
X157950400Y-113157600D03*
X157950400Y-109257600D03*
X185191400Y-106375200D03*
%TO.N,/CAN/5V*%
X157305800Y-125501400D03*
X167995600Y-129844800D03*
X147980400Y-118668800D03*
X162512800Y-118491000D03*
X147980400Y-119456200D03*
X161696400Y-129311400D03*
X147243800Y-119456200D03*
X147243800Y-118668800D03*
X179070000Y-119951600D03*
%TO.N,Net-(C4-Pad1)*%
X146964400Y-128676400D03*
X146964400Y-131724400D03*
%TO.N,Net-(IC1-~{MCLR})*%
X162331400Y-125501400D03*
X172802400Y-113106200D03*
%TO.N,Net-(IC1-RC5)*%
X174040800Y-121551603D03*
X179070000Y-117830600D03*
%TO.N,/CAN/TX*%
X159943800Y-132740400D03*
X153873200Y-123418600D03*
X168402000Y-124663200D03*
%TO.N,/Connector/COMM2*%
X170891200Y-117525800D03*
%TO.N,/Connector/COMM1*%
X170379051Y-116875800D03*
%TO.N,/MCU/O_D_TEST*%
X173993600Y-124663200D03*
%TO.N,/CAN/STBY*%
X156337000Y-132080000D03*
X162509200Y-119735600D03*
%TO.N,/CAN/RX*%
X154561792Y-125168408D03*
X159943800Y-127609600D03*
X169189400Y-123825000D03*
%TO.N,Net-(IC1-PGED2{slash}RB5)*%
X179070000Y-115290600D03*
X174040800Y-119126000D03*
%TO.N,/MCU/O_PWM_TEST*%
X166068800Y-118338600D03*
%TO.N,Net-(U2-SPLIT)*%
X151790400Y-133477000D03*
X155117800Y-128270000D03*
%TD*%
%TA.AperFunction,Conductor*%
%TO.N,GND*%
G36*
X189955809Y-105446453D02*
G01*
X190060991Y-105458298D01*
X190088057Y-105464475D01*
X190181374Y-105497123D01*
X190206393Y-105509171D01*
X190290104Y-105561768D01*
X190311815Y-105579082D01*
X190381717Y-105648984D01*
X190399031Y-105670695D01*
X190451628Y-105754406D01*
X190463676Y-105779427D01*
X190496323Y-105872740D01*
X190502501Y-105899813D01*
X190514348Y-106005015D01*
X190515127Y-106018897D01*
X190515124Y-106084285D01*
X190515304Y-106086997D01*
X190583681Y-135019309D01*
X190582901Y-135033485D01*
X190571066Y-135138530D01*
X190564887Y-135165602D01*
X190532234Y-135258918D01*
X190520187Y-135283935D01*
X190467583Y-135367653D01*
X190450270Y-135389362D01*
X190380362Y-135459270D01*
X190358653Y-135476583D01*
X190274935Y-135529187D01*
X190249922Y-135541232D01*
X190156598Y-135573888D01*
X190129529Y-135580066D01*
X190042519Y-135589869D01*
X190024315Y-135591920D01*
X190010434Y-135592700D01*
X189944255Y-135592700D01*
X189942932Y-135592786D01*
X140265463Y-135651149D01*
X140251434Y-135650369D01*
X140146668Y-135638565D01*
X140119595Y-135632386D01*
X140026275Y-135599731D01*
X140001257Y-135587683D01*
X139917537Y-135535076D01*
X139895829Y-135517763D01*
X139854650Y-135476583D01*
X139825918Y-135447850D01*
X139808611Y-135426148D01*
X139756007Y-135342424D01*
X139743960Y-135317406D01*
X139711308Y-135224082D01*
X139705130Y-135197010D01*
X139693285Y-135091848D01*
X139692506Y-135077861D01*
X139692551Y-135026413D01*
X139693906Y-133476996D01*
X150984835Y-133476996D01*
X150984835Y-133477003D01*
X151005030Y-133656249D01*
X151005031Y-133656254D01*
X151064611Y-133826523D01*
X151160584Y-133979262D01*
X151288138Y-134106816D01*
X151440878Y-134202789D01*
X151611145Y-134262368D01*
X151611150Y-134262369D01*
X151790396Y-134282565D01*
X151790400Y-134282565D01*
X151790404Y-134282565D01*
X151969649Y-134262369D01*
X151969652Y-134262368D01*
X151969655Y-134262368D01*
X152139922Y-134202789D01*
X152292662Y-134106816D01*
X152420216Y-133979262D01*
X152516189Y-133826522D01*
X152575768Y-133656255D01*
X152590470Y-133525769D01*
X152595965Y-133477003D01*
X152595965Y-133476996D01*
X152575769Y-133297750D01*
X152575768Y-133297745D01*
X152516188Y-133127476D01*
X152420215Y-132974737D01*
X152292662Y-132847184D01*
X152139923Y-132751211D01*
X151969654Y-132691631D01*
X151969649Y-132691630D01*
X151790404Y-132671435D01*
X151790396Y-132671435D01*
X151611150Y-132691630D01*
X151611145Y-132691631D01*
X151440876Y-132751211D01*
X151288137Y-132847184D01*
X151160584Y-132974737D01*
X151064611Y-133127476D01*
X151005031Y-133297745D01*
X151005030Y-133297750D01*
X150984835Y-133476996D01*
X139693906Y-133476996D01*
X139702370Y-123799599D01*
X140350941Y-123799599D01*
X140350941Y-123799600D01*
X140371536Y-124035003D01*
X140371538Y-124035013D01*
X140432694Y-124263255D01*
X140432696Y-124263259D01*
X140432697Y-124263263D01*
X140516332Y-124442619D01*
X140532565Y-124477430D01*
X140532567Y-124477434D01*
X140631598Y-124618864D01*
X140664705Y-124666146D01*
X140668101Y-124670995D01*
X140668106Y-124671002D01*
X140835197Y-124838093D01*
X140835203Y-124838098D01*
X141020758Y-124968025D01*
X141064383Y-125022602D01*
X141071577Y-125092100D01*
X141040054Y-125154455D01*
X141020758Y-125171175D01*
X140835197Y-125301105D01*
X140668105Y-125468197D01*
X140532565Y-125661769D01*
X140532564Y-125661771D01*
X140432698Y-125875935D01*
X140432694Y-125875944D01*
X140371538Y-126104186D01*
X140371536Y-126104196D01*
X140350941Y-126339599D01*
X140350941Y-126339600D01*
X140371536Y-126575003D01*
X140371538Y-126575013D01*
X140432694Y-126803255D01*
X140432696Y-126803259D01*
X140432697Y-126803263D01*
X140515010Y-126979784D01*
X140532565Y-127017430D01*
X140532567Y-127017434D01*
X140668101Y-127210995D01*
X140668106Y-127211002D01*
X140835197Y-127378093D01*
X140835203Y-127378098D01*
X141020758Y-127508025D01*
X141064383Y-127562602D01*
X141071577Y-127632100D01*
X141040054Y-127694455D01*
X141020758Y-127711175D01*
X140835197Y-127841105D01*
X140668105Y-128008197D01*
X140532565Y-128201769D01*
X140532564Y-128201771D01*
X140432698Y-128415935D01*
X140432694Y-128415944D01*
X140371538Y-128644186D01*
X140371536Y-128644196D01*
X140350941Y-128879599D01*
X140350941Y-128879600D01*
X140371536Y-129115003D01*
X140371538Y-129115013D01*
X140432694Y-129343255D01*
X140432696Y-129343259D01*
X140432697Y-129343263D01*
X140501427Y-129490654D01*
X140532565Y-129557430D01*
X140532567Y-129557434D01*
X140668101Y-129750995D01*
X140668106Y-129751002D01*
X140835197Y-129918093D01*
X140835203Y-129918098D01*
X141020758Y-130048025D01*
X141064383Y-130102602D01*
X141071577Y-130172100D01*
X141040054Y-130234455D01*
X141020758Y-130251175D01*
X140835197Y-130381105D01*
X140668105Y-130548197D01*
X140532565Y-130741769D01*
X140532564Y-130741771D01*
X140432698Y-130955935D01*
X140432694Y-130955944D01*
X140371538Y-131184186D01*
X140371536Y-131184196D01*
X140350941Y-131419599D01*
X140350941Y-131419600D01*
X140371536Y-131655003D01*
X140371538Y-131655013D01*
X140432694Y-131883255D01*
X140432696Y-131883259D01*
X140432697Y-131883263D01*
X140524435Y-132079996D01*
X140532565Y-132097430D01*
X140532567Y-132097434D01*
X140623054Y-132226662D01*
X140668105Y-132291001D01*
X140835199Y-132458095D01*
X140908996Y-132509768D01*
X141028765Y-132593632D01*
X141028767Y-132593633D01*
X141028770Y-132593635D01*
X141242937Y-132693503D01*
X141471192Y-132754663D01*
X141659518Y-132771139D01*
X141706599Y-132775259D01*
X141706600Y-132775259D01*
X141706601Y-132775259D01*
X141745834Y-132771826D01*
X141942008Y-132754663D01*
X142170263Y-132693503D01*
X142384430Y-132593635D01*
X142578001Y-132458095D01*
X142745095Y-132291001D01*
X142880635Y-132097430D01*
X142980503Y-131883263D01*
X143023071Y-131724396D01*
X146158835Y-131724396D01*
X146158835Y-131724403D01*
X146179030Y-131903649D01*
X146179031Y-131903654D01*
X146238611Y-132073923D01*
X146261647Y-132110584D01*
X146334584Y-132226662D01*
X146462138Y-132354216D01*
X146520482Y-132390876D01*
X146581986Y-132429522D01*
X146614878Y-132450189D01*
X146637481Y-132458098D01*
X146785145Y-132509768D01*
X146785150Y-132509769D01*
X146964396Y-132529965D01*
X146964400Y-132529965D01*
X146964404Y-132529965D01*
X147143649Y-132509769D01*
X147143652Y-132509768D01*
X147143655Y-132509768D01*
X147313922Y-132450189D01*
X147466662Y-132354216D01*
X147594216Y-132226662D01*
X147686372Y-132079996D01*
X155531435Y-132079996D01*
X155531435Y-132080003D01*
X155551630Y-132259249D01*
X155551631Y-132259254D01*
X155611211Y-132429523D01*
X155693915Y-132561145D01*
X155707184Y-132582262D01*
X155834738Y-132709816D01*
X155987478Y-132805789D01*
X156105778Y-132847184D01*
X156157745Y-132865368D01*
X156157750Y-132865369D01*
X156336996Y-132885565D01*
X156337000Y-132885565D01*
X156337004Y-132885565D01*
X156516249Y-132865369D01*
X156516252Y-132865368D01*
X156516255Y-132865368D01*
X156686522Y-132805789D01*
X156790594Y-132740396D01*
X159138235Y-132740396D01*
X159138235Y-132740403D01*
X159158430Y-132919649D01*
X159158431Y-132919654D01*
X159218011Y-133089923D01*
X159241609Y-133127478D01*
X159313984Y-133242662D01*
X159441538Y-133370216D01*
X159594278Y-133466189D01*
X159625183Y-133477003D01*
X159764545Y-133525768D01*
X159764550Y-133525769D01*
X159943796Y-133545965D01*
X159943800Y-133545965D01*
X159943804Y-133545965D01*
X160123049Y-133525769D01*
X160123052Y-133525768D01*
X160123055Y-133525768D01*
X160293322Y-133466189D01*
X160446062Y-133370216D01*
X160573616Y-133242662D01*
X160669589Y-133089922D01*
X160729168Y-132919655D01*
X160735285Y-132865368D01*
X160749365Y-132740403D01*
X160749365Y-132740396D01*
X160729169Y-132561150D01*
X160729168Y-132561145D01*
X160693109Y-132458095D01*
X160669589Y-132390878D01*
X160573616Y-132238138D01*
X160446062Y-132110584D01*
X160397382Y-132079996D01*
X160293323Y-132014611D01*
X160123054Y-131955031D01*
X160123049Y-131955030D01*
X159943804Y-131934835D01*
X159943796Y-131934835D01*
X159764550Y-131955030D01*
X159764545Y-131955031D01*
X159594276Y-132014611D01*
X159441537Y-132110584D01*
X159313984Y-132238137D01*
X159218011Y-132390876D01*
X159158431Y-132561145D01*
X159158430Y-132561150D01*
X159138235Y-132740396D01*
X156790594Y-132740396D01*
X156839262Y-132709816D01*
X156966816Y-132582262D01*
X157062789Y-132429522D01*
X157122368Y-132259255D01*
X157122369Y-132259249D01*
X157142565Y-132080003D01*
X157142565Y-132079996D01*
X157122369Y-131900750D01*
X157122368Y-131900745D01*
X157062788Y-131730476D01*
X156966815Y-131577737D01*
X156839262Y-131450184D01*
X156686523Y-131354211D01*
X156516254Y-131294631D01*
X156516249Y-131294630D01*
X156337004Y-131274435D01*
X156336996Y-131274435D01*
X156157750Y-131294630D01*
X156157745Y-131294631D01*
X155987476Y-131354211D01*
X155834737Y-131450184D01*
X155707184Y-131577737D01*
X155611211Y-131730476D01*
X155551631Y-131900745D01*
X155551630Y-131900750D01*
X155531435Y-132079996D01*
X147686372Y-132079996D01*
X147690189Y-132073922D01*
X147749768Y-131903655D01*
X147749769Y-131903649D01*
X147769965Y-131724403D01*
X147769965Y-131724396D01*
X147749769Y-131545150D01*
X147749768Y-131545145D01*
X147705838Y-131419600D01*
X147690189Y-131374878D01*
X147594216Y-131222138D01*
X147466662Y-131094584D01*
X147313923Y-130998611D01*
X147143654Y-130939031D01*
X147143649Y-130939030D01*
X146964404Y-130918835D01*
X146964396Y-130918835D01*
X146785150Y-130939030D01*
X146785145Y-130939031D01*
X146614876Y-130998611D01*
X146462137Y-131094584D01*
X146334584Y-131222137D01*
X146238611Y-131374876D01*
X146179031Y-131545145D01*
X146179030Y-131545150D01*
X146158835Y-131724396D01*
X143023071Y-131724396D01*
X143041663Y-131655008D01*
X143062259Y-131419600D01*
X143041663Y-131184192D01*
X142980503Y-130955937D01*
X142880635Y-130741771D01*
X142816633Y-130650365D01*
X142745094Y-130548197D01*
X142578002Y-130381106D01*
X142577996Y-130381101D01*
X142392442Y-130251175D01*
X142348817Y-130196598D01*
X142341623Y-130127100D01*
X142373146Y-130064745D01*
X142392442Y-130048025D01*
X142426683Y-130024049D01*
X142578001Y-129918095D01*
X142745095Y-129751001D01*
X142880635Y-129557430D01*
X142980503Y-129343263D01*
X143041663Y-129115008D01*
X143062259Y-128879600D01*
X143044481Y-128676396D01*
X146158835Y-128676396D01*
X146158835Y-128676403D01*
X146179030Y-128855649D01*
X146179031Y-128855654D01*
X146238611Y-129025923D01*
X146334584Y-129178662D01*
X146462138Y-129306216D01*
X146614878Y-129402189D01*
X146785145Y-129461768D01*
X146785150Y-129461769D01*
X146964396Y-129481965D01*
X146964400Y-129481965D01*
X146964404Y-129481965D01*
X147143649Y-129461769D01*
X147143652Y-129461768D01*
X147143655Y-129461768D01*
X147313922Y-129402189D01*
X147458418Y-129311396D01*
X160890835Y-129311396D01*
X160890835Y-129311403D01*
X160911030Y-129490649D01*
X160911031Y-129490654D01*
X160970611Y-129660923D01*
X161027211Y-129751001D01*
X161066584Y-129813662D01*
X161194138Y-129941216D01*
X161346878Y-130037189D01*
X161425629Y-130064745D01*
X161517145Y-130096768D01*
X161517150Y-130096769D01*
X161696396Y-130116965D01*
X161696400Y-130116965D01*
X161696404Y-130116965D01*
X161875649Y-130096769D01*
X161875652Y-130096768D01*
X161875655Y-130096768D01*
X162045922Y-130037189D01*
X162198662Y-129941216D01*
X162295082Y-129844796D01*
X167190035Y-129844796D01*
X167190035Y-129844803D01*
X167210230Y-130024049D01*
X167210231Y-130024054D01*
X167269811Y-130194323D01*
X167295028Y-130234455D01*
X167365784Y-130347062D01*
X167493338Y-130474616D01*
X167548221Y-130509101D01*
X167610444Y-130548199D01*
X167646078Y-130570589D01*
X167816345Y-130630168D01*
X167816350Y-130630169D01*
X167995596Y-130650365D01*
X167995600Y-130650365D01*
X167995604Y-130650365D01*
X168174849Y-130630169D01*
X168174852Y-130630168D01*
X168174855Y-130630168D01*
X168345122Y-130570589D01*
X168497862Y-130474616D01*
X168625416Y-130347062D01*
X168721389Y-130194322D01*
X168780968Y-130024055D01*
X168790302Y-129941215D01*
X168801165Y-129844803D01*
X168801165Y-129844796D01*
X168780969Y-129665550D01*
X168780968Y-129665545D01*
X168721388Y-129495276D01*
X168662897Y-129402189D01*
X168625416Y-129342538D01*
X168497862Y-129214984D01*
X168366025Y-129132145D01*
X168345123Y-129119011D01*
X168174854Y-129059431D01*
X168174849Y-129059430D01*
X167995604Y-129039235D01*
X167995596Y-129039235D01*
X167816350Y-129059430D01*
X167816345Y-129059431D01*
X167646076Y-129119011D01*
X167493337Y-129214984D01*
X167365784Y-129342537D01*
X167269811Y-129495276D01*
X167210231Y-129665545D01*
X167210230Y-129665550D01*
X167190035Y-129844796D01*
X162295082Y-129844796D01*
X162326216Y-129813662D01*
X162422189Y-129660922D01*
X162481768Y-129490655D01*
X162484027Y-129470608D01*
X162501965Y-129311403D01*
X162501965Y-129311396D01*
X162481769Y-129132150D01*
X162481768Y-129132145D01*
X162475773Y-129115013D01*
X162422189Y-128961878D01*
X162326216Y-128809138D01*
X162198662Y-128681584D01*
X162045923Y-128585611D01*
X161875654Y-128526031D01*
X161875649Y-128526030D01*
X161696404Y-128505835D01*
X161696396Y-128505835D01*
X161517150Y-128526030D01*
X161517145Y-128526031D01*
X161346876Y-128585611D01*
X161194137Y-128681584D01*
X161066584Y-128809137D01*
X160970611Y-128961876D01*
X160911031Y-129132145D01*
X160911030Y-129132150D01*
X160890835Y-129311396D01*
X147458418Y-129311396D01*
X147466662Y-129306216D01*
X147594216Y-129178662D01*
X147690189Y-129025922D01*
X147749768Y-128855655D01*
X147755009Y-128809138D01*
X147769965Y-128676403D01*
X147769965Y-128676396D01*
X147749769Y-128497150D01*
X147749768Y-128497145D01*
X147690189Y-128326878D01*
X147654448Y-128269996D01*
X154312235Y-128269996D01*
X154312235Y-128270003D01*
X154332430Y-128449249D01*
X154332431Y-128449254D01*
X154392011Y-128619523D01*
X154431007Y-128681584D01*
X154487984Y-128772262D01*
X154615538Y-128899816D01*
X154768278Y-128995789D01*
X154854396Y-129025923D01*
X154938545Y-129055368D01*
X154938550Y-129055369D01*
X155117796Y-129075565D01*
X155117800Y-129075565D01*
X155117804Y-129075565D01*
X155297049Y-129055369D01*
X155297052Y-129055368D01*
X155297055Y-129055368D01*
X155467322Y-128995789D01*
X155620062Y-128899816D01*
X155747616Y-128772262D01*
X155843589Y-128619522D01*
X155903168Y-128449255D01*
X155903169Y-128449249D01*
X155923365Y-128270003D01*
X155923365Y-128269996D01*
X155903169Y-128090750D01*
X155903168Y-128090745D01*
X155843589Y-127920478D01*
X155747616Y-127767738D01*
X155620062Y-127640184D01*
X155571382Y-127609596D01*
X159138235Y-127609596D01*
X159138235Y-127609603D01*
X159158430Y-127788849D01*
X159158431Y-127788854D01*
X159218011Y-127959123D01*
X159272967Y-128046584D01*
X159313984Y-128111862D01*
X159441538Y-128239416D01*
X159490206Y-128269996D01*
X159580729Y-128326876D01*
X159594278Y-128335389D01*
X159764545Y-128394968D01*
X159764550Y-128394969D01*
X159943796Y-128415165D01*
X159943800Y-128415165D01*
X159943804Y-128415165D01*
X160123049Y-128394969D01*
X160123052Y-128394968D01*
X160123055Y-128394968D01*
X160293322Y-128335389D01*
X160446062Y-128239416D01*
X160573616Y-128111862D01*
X160669589Y-127959122D01*
X160729168Y-127788855D01*
X160729169Y-127788849D01*
X160749365Y-127609603D01*
X160749365Y-127609596D01*
X160729169Y-127430350D01*
X160729167Y-127430341D01*
X160669588Y-127260076D01*
X160573615Y-127107337D01*
X160446062Y-126979784D01*
X160293323Y-126883811D01*
X160123054Y-126824231D01*
X160123049Y-126824230D01*
X159943804Y-126804035D01*
X159943796Y-126804035D01*
X159764550Y-126824230D01*
X159764545Y-126824231D01*
X159594276Y-126883811D01*
X159441537Y-126979784D01*
X159313984Y-127107337D01*
X159218011Y-127260076D01*
X159158433Y-127430341D01*
X159158430Y-127430350D01*
X159138235Y-127609596D01*
X155571382Y-127609596D01*
X155467323Y-127544211D01*
X155297054Y-127484631D01*
X155297049Y-127484630D01*
X155117804Y-127464435D01*
X155117796Y-127464435D01*
X154938550Y-127484630D01*
X154938545Y-127484631D01*
X154768276Y-127544211D01*
X154615537Y-127640184D01*
X154487984Y-127767737D01*
X154392011Y-127920476D01*
X154332431Y-128090745D01*
X154332430Y-128090750D01*
X154312235Y-128269996D01*
X147654448Y-128269996D01*
X147594216Y-128174138D01*
X147466662Y-128046584D01*
X147372949Y-127987700D01*
X147313923Y-127950611D01*
X147143654Y-127891031D01*
X147143649Y-127891030D01*
X146964404Y-127870835D01*
X146964396Y-127870835D01*
X146785150Y-127891030D01*
X146785145Y-127891031D01*
X146614876Y-127950611D01*
X146462137Y-128046584D01*
X146334584Y-128174137D01*
X146238611Y-128326876D01*
X146179031Y-128497145D01*
X146179030Y-128497150D01*
X146158835Y-128676396D01*
X143044481Y-128676396D01*
X143041663Y-128644192D01*
X142980503Y-128415937D01*
X142880635Y-128201771D01*
X142877089Y-128196706D01*
X142745094Y-128008197D01*
X142578002Y-127841106D01*
X142577996Y-127841101D01*
X142392442Y-127711175D01*
X142348817Y-127656598D01*
X142341623Y-127587100D01*
X142373146Y-127524745D01*
X142392442Y-127508025D01*
X142414626Y-127492491D01*
X142578001Y-127378095D01*
X142745095Y-127211001D01*
X142880635Y-127017430D01*
X142980503Y-126803263D01*
X143041663Y-126575008D01*
X143062259Y-126339600D01*
X143041663Y-126104192D01*
X142985396Y-125894197D01*
X142980505Y-125875944D01*
X142980504Y-125875943D01*
X142980503Y-125875937D01*
X142880635Y-125661771D01*
X142877089Y-125656706D01*
X142745094Y-125468197D01*
X142578002Y-125301106D01*
X142577996Y-125301101D01*
X142392442Y-125171175D01*
X142390227Y-125168404D01*
X153756227Y-125168404D01*
X153756227Y-125168411D01*
X153776422Y-125347657D01*
X153776423Y-125347662D01*
X153836003Y-125517931D01*
X153923199Y-125656701D01*
X153931976Y-125670670D01*
X154059530Y-125798224D01*
X154143398Y-125850922D01*
X154183220Y-125875944D01*
X154212270Y-125894197D01*
X154382537Y-125953776D01*
X154382542Y-125953777D01*
X154561788Y-125973973D01*
X154561792Y-125973973D01*
X154561796Y-125973973D01*
X154741041Y-125953777D01*
X154741044Y-125953776D01*
X154741047Y-125953776D01*
X154911314Y-125894197D01*
X155064054Y-125798224D01*
X155191608Y-125670670D01*
X155287581Y-125517930D01*
X155293366Y-125501396D01*
X156500235Y-125501396D01*
X156500235Y-125501403D01*
X156520430Y-125680649D01*
X156520431Y-125680654D01*
X156580011Y-125850923D01*
X156644639Y-125953777D01*
X156675984Y-126003662D01*
X156803538Y-126131216D01*
X156956278Y-126227189D01*
X157126545Y-126286768D01*
X157126550Y-126286769D01*
X157305796Y-126306965D01*
X157305800Y-126306965D01*
X157305804Y-126306965D01*
X157485049Y-126286769D01*
X157485052Y-126286768D01*
X157485055Y-126286768D01*
X157655322Y-126227189D01*
X157808062Y-126131216D01*
X157935616Y-126003662D01*
X158031589Y-125850922D01*
X158091168Y-125680655D01*
X158093296Y-125661769D01*
X158111365Y-125501403D01*
X158111365Y-125501396D01*
X161525835Y-125501396D01*
X161525835Y-125501403D01*
X161546030Y-125680649D01*
X161546031Y-125680654D01*
X161605611Y-125850923D01*
X161670239Y-125953777D01*
X161701584Y-126003662D01*
X161829138Y-126131216D01*
X161981878Y-126227189D01*
X162152145Y-126286768D01*
X162152150Y-126286769D01*
X162331396Y-126306965D01*
X162331400Y-126306965D01*
X162331404Y-126306965D01*
X162510649Y-126286769D01*
X162510652Y-126286768D01*
X162510655Y-126286768D01*
X162680922Y-126227189D01*
X162833662Y-126131216D01*
X162961216Y-126003662D01*
X163057189Y-125850922D01*
X163116768Y-125680655D01*
X163118896Y-125661769D01*
X163136965Y-125501403D01*
X163136965Y-125501396D01*
X163116769Y-125322150D01*
X163116768Y-125322145D01*
X163071821Y-125193695D01*
X163057189Y-125151878D01*
X162961216Y-124999138D01*
X162833662Y-124871584D01*
X162787294Y-124842449D01*
X162680923Y-124775611D01*
X162510654Y-124716031D01*
X162510649Y-124716030D01*
X162331404Y-124695835D01*
X162331396Y-124695835D01*
X162152150Y-124716030D01*
X162152145Y-124716031D01*
X161981876Y-124775611D01*
X161829137Y-124871584D01*
X161701584Y-124999137D01*
X161605611Y-125151876D01*
X161546031Y-125322145D01*
X161546030Y-125322150D01*
X161525835Y-125501396D01*
X158111365Y-125501396D01*
X158091169Y-125322150D01*
X158091168Y-125322145D01*
X158046221Y-125193695D01*
X158031589Y-125151878D01*
X157935616Y-124999138D01*
X157808062Y-124871584D01*
X157761694Y-124842449D01*
X157655323Y-124775611D01*
X157485054Y-124716031D01*
X157485049Y-124716030D01*
X157305804Y-124695835D01*
X157305796Y-124695835D01*
X157126550Y-124716030D01*
X157126545Y-124716031D01*
X156956276Y-124775611D01*
X156803537Y-124871584D01*
X156675984Y-124999137D01*
X156580011Y-125151876D01*
X156520431Y-125322145D01*
X156520430Y-125322150D01*
X156500235Y-125501396D01*
X155293366Y-125501396D01*
X155347160Y-125347663D01*
X155347985Y-125340345D01*
X155367357Y-125168411D01*
X155367357Y-125168404D01*
X155347161Y-124989158D01*
X155347160Y-124989153D01*
X155295826Y-124842449D01*
X155287581Y-124818886D01*
X155260389Y-124775611D01*
X155248374Y-124756488D01*
X155191608Y-124666146D01*
X155188658Y-124663196D01*
X167596435Y-124663196D01*
X167596435Y-124663203D01*
X167616630Y-124842449D01*
X167616631Y-124842454D01*
X167676211Y-125012723D01*
X167763647Y-125151876D01*
X167772184Y-125165462D01*
X167899738Y-125293016D01*
X167948452Y-125323625D01*
X168035310Y-125378202D01*
X168052478Y-125388989D01*
X168091662Y-125402700D01*
X168222745Y-125448568D01*
X168222750Y-125448569D01*
X168401996Y-125468765D01*
X168402000Y-125468765D01*
X168402004Y-125468765D01*
X168581249Y-125448569D01*
X168581252Y-125448568D01*
X168581255Y-125448568D01*
X168751522Y-125388989D01*
X168904262Y-125293016D01*
X169031816Y-125165462D01*
X169127789Y-125012722D01*
X169187368Y-124842455D01*
X169187860Y-124838095D01*
X169200451Y-124726337D01*
X169226982Y-124663196D01*
X173188035Y-124663196D01*
X173188035Y-124663203D01*
X173208230Y-124842449D01*
X173208231Y-124842454D01*
X173267811Y-125012723D01*
X173355247Y-125151876D01*
X173363784Y-125165462D01*
X173491338Y-125293016D01*
X173540052Y-125323625D01*
X173626910Y-125378202D01*
X173644078Y-125388989D01*
X173683262Y-125402700D01*
X173814345Y-125448568D01*
X173814350Y-125448569D01*
X173993596Y-125468765D01*
X173993600Y-125468765D01*
X173993604Y-125468765D01*
X174172849Y-125448569D01*
X174172852Y-125448568D01*
X174172855Y-125448568D01*
X174343122Y-125388989D01*
X174495862Y-125293016D01*
X174623416Y-125165462D01*
X174719389Y-125012722D01*
X174778968Y-124842455D01*
X174779459Y-124838098D01*
X174799165Y-124663203D01*
X174799165Y-124663196D01*
X174778969Y-124483950D01*
X174778968Y-124483945D01*
X174743659Y-124383038D01*
X174719389Y-124313678D01*
X174623416Y-124160938D01*
X174495862Y-124033384D01*
X174449494Y-124004249D01*
X174343123Y-123937411D01*
X174172854Y-123877831D01*
X174172849Y-123877830D01*
X173993604Y-123857635D01*
X173993596Y-123857635D01*
X173814350Y-123877830D01*
X173814345Y-123877831D01*
X173644076Y-123937411D01*
X173491337Y-124033384D01*
X173363784Y-124160937D01*
X173267811Y-124313676D01*
X173208231Y-124483945D01*
X173208230Y-124483950D01*
X173188035Y-124663196D01*
X169226982Y-124663196D01*
X169227517Y-124661923D01*
X169285111Y-124622368D01*
X169309776Y-124617001D01*
X169368655Y-124610368D01*
X169538922Y-124550789D01*
X169691662Y-124454816D01*
X169819216Y-124327262D01*
X169915189Y-124174522D01*
X169974768Y-124004255D01*
X169974769Y-124004249D01*
X169994965Y-123825003D01*
X169994965Y-123824996D01*
X169974769Y-123645750D01*
X169974768Y-123645745D01*
X169915189Y-123475478D01*
X169819216Y-123322738D01*
X169691662Y-123195184D01*
X169538923Y-123099211D01*
X169368654Y-123039631D01*
X169368649Y-123039630D01*
X169189404Y-123019435D01*
X169189396Y-123019435D01*
X169010150Y-123039630D01*
X169010145Y-123039631D01*
X168839876Y-123099211D01*
X168687137Y-123195184D01*
X168559584Y-123322737D01*
X168463611Y-123475476D01*
X168404031Y-123645745D01*
X168404030Y-123645749D01*
X168390948Y-123761862D01*
X168363881Y-123826276D01*
X168306286Y-123865831D01*
X168281613Y-123871198D01*
X168222750Y-123877830D01*
X168052478Y-123937410D01*
X167899737Y-124033384D01*
X167772184Y-124160937D01*
X167676211Y-124313676D01*
X167616631Y-124483945D01*
X167616630Y-124483950D01*
X167596435Y-124663196D01*
X155188658Y-124663196D01*
X155064054Y-124538592D01*
X154966722Y-124477434D01*
X154911315Y-124442619D01*
X154741046Y-124383039D01*
X154741041Y-124383038D01*
X154561796Y-124362843D01*
X154561788Y-124362843D01*
X154382542Y-124383038D01*
X154382537Y-124383039D01*
X154212268Y-124442619D01*
X154059529Y-124538592D01*
X153931976Y-124666145D01*
X153836003Y-124818884D01*
X153776423Y-124989153D01*
X153776422Y-124989158D01*
X153756227Y-125168404D01*
X142390227Y-125168404D01*
X142348817Y-125116598D01*
X142341623Y-125047100D01*
X142373146Y-124984745D01*
X142392442Y-124968025D01*
X142414626Y-124952491D01*
X142578001Y-124838095D01*
X142745095Y-124671001D01*
X142880635Y-124477430D01*
X142980503Y-124263263D01*
X143041663Y-124035008D01*
X143062259Y-123799600D01*
X143041663Y-123564192D01*
X143002651Y-123418596D01*
X153067635Y-123418596D01*
X153067635Y-123418603D01*
X153087830Y-123597849D01*
X153087831Y-123597854D01*
X153147411Y-123768123D01*
X153212178Y-123871198D01*
X153243384Y-123920862D01*
X153370938Y-124048416D01*
X153523678Y-124144389D01*
X153609796Y-124174523D01*
X153693945Y-124203968D01*
X153693950Y-124203969D01*
X153873196Y-124224165D01*
X153873200Y-124224165D01*
X153873204Y-124224165D01*
X154052449Y-124203969D01*
X154052452Y-124203968D01*
X154052455Y-124203968D01*
X154222722Y-124144389D01*
X154375462Y-124048416D01*
X154503016Y-123920862D01*
X154598989Y-123768122D01*
X154658568Y-123597855D01*
X154658569Y-123597849D01*
X154678765Y-123418603D01*
X154678765Y-123418596D01*
X154658569Y-123239350D01*
X154658568Y-123239345D01*
X154598988Y-123069076D01*
X154559782Y-123006680D01*
X154503016Y-122916338D01*
X154375462Y-122788784D01*
X154331405Y-122761101D01*
X154222723Y-122692811D01*
X154052454Y-122633231D01*
X154052449Y-122633230D01*
X153873204Y-122613035D01*
X153873196Y-122613035D01*
X153693950Y-122633230D01*
X153693945Y-122633231D01*
X153523676Y-122692811D01*
X153370937Y-122788784D01*
X153243384Y-122916337D01*
X153147411Y-123069076D01*
X153087831Y-123239345D01*
X153087830Y-123239350D01*
X153067635Y-123418596D01*
X143002651Y-123418596D01*
X142980503Y-123335937D01*
X142880635Y-123121771D01*
X142877089Y-123116706D01*
X142745094Y-122928197D01*
X142578002Y-122761106D01*
X142577995Y-122761101D01*
X142384434Y-122625567D01*
X142384430Y-122625565D01*
X142357559Y-122613035D01*
X142170263Y-122525697D01*
X142170259Y-122525696D01*
X142170255Y-122525694D01*
X141942013Y-122464538D01*
X141942003Y-122464536D01*
X141706601Y-122443941D01*
X141706599Y-122443941D01*
X141471196Y-122464536D01*
X141471186Y-122464538D01*
X141242944Y-122525694D01*
X141242935Y-122525698D01*
X141028771Y-122625564D01*
X141028769Y-122625565D01*
X140835197Y-122761105D01*
X140668105Y-122928197D01*
X140532565Y-123121769D01*
X140532564Y-123121771D01*
X140432698Y-123335935D01*
X140432694Y-123335944D01*
X140371538Y-123564186D01*
X140371536Y-123564196D01*
X140350941Y-123799599D01*
X139702370Y-123799599D01*
X139704336Y-121551599D01*
X173235235Y-121551599D01*
X173235235Y-121551606D01*
X173255430Y-121730852D01*
X173255431Y-121730857D01*
X173315011Y-121901126D01*
X173410984Y-122053865D01*
X173538538Y-122181419D01*
X173691278Y-122277392D01*
X173861545Y-122336971D01*
X173861550Y-122336972D01*
X174040796Y-122357168D01*
X174040800Y-122357168D01*
X174040804Y-122357168D01*
X174220049Y-122336972D01*
X174220052Y-122336971D01*
X174220055Y-122336971D01*
X174390322Y-122277392D01*
X174543062Y-122181419D01*
X174670616Y-122053865D01*
X174766589Y-121901125D01*
X174826168Y-121730858D01*
X174826169Y-121730852D01*
X174846365Y-121551606D01*
X174846365Y-121551599D01*
X174826169Y-121372353D01*
X174826168Y-121372348D01*
X174766588Y-121202079D01*
X174670615Y-121049340D01*
X174543062Y-120921787D01*
X174390323Y-120825814D01*
X174220054Y-120766234D01*
X174220049Y-120766233D01*
X174040804Y-120746038D01*
X174040796Y-120746038D01*
X173861550Y-120766233D01*
X173861545Y-120766234D01*
X173691276Y-120825814D01*
X173538537Y-120921787D01*
X173410984Y-121049340D01*
X173315011Y-121202079D01*
X173255431Y-121372348D01*
X173255430Y-121372353D01*
X173235235Y-121551599D01*
X139704336Y-121551599D01*
X139707598Y-117821735D01*
X140356100Y-117821735D01*
X140356100Y-119617470D01*
X140356101Y-119617476D01*
X140362508Y-119677083D01*
X140412802Y-119811928D01*
X140412806Y-119811935D01*
X140499052Y-119927144D01*
X140499055Y-119927147D01*
X140614264Y-120013393D01*
X140614271Y-120013397D01*
X140749117Y-120063691D01*
X140749116Y-120063691D01*
X140756044Y-120064435D01*
X140808727Y-120070100D01*
X142604472Y-120070099D01*
X142664083Y-120063691D01*
X142798931Y-120013396D01*
X142914146Y-119927146D01*
X143000396Y-119811931D01*
X143050691Y-119677083D01*
X143057100Y-119617473D01*
X143057099Y-118668796D01*
X146438235Y-118668796D01*
X146438235Y-118668803D01*
X146458430Y-118848049D01*
X146458433Y-118848062D01*
X146519138Y-119021545D01*
X146522700Y-119091324D01*
X146519138Y-119103455D01*
X146458433Y-119276937D01*
X146458430Y-119276950D01*
X146438235Y-119456196D01*
X146438235Y-119456203D01*
X146458430Y-119635449D01*
X146458431Y-119635454D01*
X146518011Y-119805723D01*
X146594307Y-119927146D01*
X146613984Y-119958462D01*
X146741538Y-120086016D01*
X146894278Y-120181989D01*
X147053954Y-120237862D01*
X147064545Y-120241568D01*
X147064550Y-120241569D01*
X147243796Y-120261765D01*
X147243800Y-120261765D01*
X147243804Y-120261765D01*
X147423049Y-120241569D01*
X147423051Y-120241568D01*
X147423055Y-120241568D01*
X147423058Y-120241566D01*
X147423062Y-120241566D01*
X147571145Y-120189749D01*
X147640923Y-120186186D01*
X147653055Y-120189749D01*
X147801137Y-120241566D01*
X147801143Y-120241567D01*
X147801145Y-120241568D01*
X147801146Y-120241568D01*
X147801150Y-120241569D01*
X147980396Y-120261765D01*
X147980400Y-120261765D01*
X147980404Y-120261765D01*
X148159649Y-120241569D01*
X148159652Y-120241568D01*
X148159655Y-120241568D01*
X148329922Y-120181989D01*
X148482662Y-120086016D01*
X148610216Y-119958462D01*
X148706189Y-119805722D01*
X148730727Y-119735596D01*
X161703635Y-119735596D01*
X161703635Y-119735603D01*
X161723830Y-119914849D01*
X161723831Y-119914854D01*
X161783411Y-120085123D01*
X161879384Y-120237862D01*
X162006938Y-120365416D01*
X162159678Y-120461389D01*
X162329945Y-120520968D01*
X162329950Y-120520969D01*
X162509196Y-120541165D01*
X162509200Y-120541165D01*
X162509204Y-120541165D01*
X162688449Y-120520969D01*
X162688452Y-120520968D01*
X162688455Y-120520968D01*
X162858722Y-120461389D01*
X163011462Y-120365416D01*
X163139016Y-120237862D01*
X163234989Y-120085122D01*
X163281712Y-119951596D01*
X178264435Y-119951596D01*
X178264435Y-119951603D01*
X178284630Y-120130849D01*
X178284631Y-120130854D01*
X178344211Y-120301123D01*
X178401438Y-120392198D01*
X178440184Y-120453862D01*
X178567738Y-120581416D01*
X178720478Y-120677389D01*
X178890745Y-120736968D01*
X178890750Y-120736969D01*
X179069996Y-120757165D01*
X179070000Y-120757165D01*
X179070004Y-120757165D01*
X179249249Y-120736969D01*
X179249252Y-120736968D01*
X179249255Y-120736968D01*
X179419522Y-120677389D01*
X179572262Y-120581416D01*
X179699816Y-120453862D01*
X179795789Y-120301122D01*
X179855368Y-120130855D01*
X179857301Y-120113698D01*
X179875565Y-119951603D01*
X179875565Y-119951596D01*
X179855369Y-119772350D01*
X179855368Y-119772345D01*
X179801176Y-119617473D01*
X179795789Y-119602078D01*
X179699816Y-119449338D01*
X179572262Y-119321784D01*
X179419523Y-119225811D01*
X179249254Y-119166231D01*
X179249249Y-119166230D01*
X179070004Y-119146035D01*
X179069996Y-119146035D01*
X178890750Y-119166230D01*
X178890745Y-119166231D01*
X178720476Y-119225811D01*
X178567737Y-119321784D01*
X178440184Y-119449337D01*
X178344211Y-119602076D01*
X178284631Y-119772345D01*
X178284630Y-119772350D01*
X178264435Y-119951596D01*
X163281712Y-119951596D01*
X163294568Y-119914855D01*
X163301674Y-119851788D01*
X163314765Y-119735603D01*
X163314765Y-119735596D01*
X163294569Y-119556350D01*
X163294568Y-119556345D01*
X163259524Y-119456196D01*
X163234989Y-119386078D01*
X163139016Y-119233338D01*
X163108459Y-119202781D01*
X163074974Y-119141458D01*
X163079958Y-119071766D01*
X163108459Y-119027419D01*
X163117556Y-119018322D01*
X163142616Y-118993262D01*
X163238589Y-118840522D01*
X163298168Y-118670255D01*
X163298332Y-118668800D01*
X163318365Y-118491003D01*
X163318365Y-118490996D01*
X163301194Y-118338596D01*
X165263235Y-118338596D01*
X165263235Y-118338603D01*
X165283430Y-118517849D01*
X165283431Y-118517854D01*
X165343011Y-118688123D01*
X165398529Y-118776478D01*
X165438984Y-118840862D01*
X165566538Y-118968416D01*
X165606080Y-118993262D01*
X165716271Y-119062500D01*
X165719278Y-119064389D01*
X165840133Y-119106678D01*
X165889545Y-119123968D01*
X165889550Y-119123969D01*
X166068796Y-119144165D01*
X166068800Y-119144165D01*
X166068804Y-119144165D01*
X166230059Y-119125996D01*
X173235235Y-119125996D01*
X173235235Y-119126003D01*
X173255430Y-119305249D01*
X173255431Y-119305254D01*
X173315011Y-119475523D01*
X173394530Y-119602076D01*
X173410984Y-119628262D01*
X173538538Y-119755816D01*
X173691278Y-119851789D01*
X173861545Y-119911368D01*
X173861550Y-119911369D01*
X174040796Y-119931565D01*
X174040800Y-119931565D01*
X174040804Y-119931565D01*
X174220049Y-119911369D01*
X174220052Y-119911368D01*
X174220055Y-119911368D01*
X174390322Y-119851789D01*
X174543062Y-119755816D01*
X174670616Y-119628262D01*
X174766589Y-119475522D01*
X174826168Y-119305255D01*
X174826169Y-119305249D01*
X174846365Y-119126003D01*
X174846365Y-119125996D01*
X174826169Y-118946750D01*
X174826168Y-118946745D01*
X174788745Y-118839796D01*
X174766589Y-118776478D01*
X174670616Y-118623738D01*
X174543062Y-118496184D01*
X174390323Y-118400211D01*
X174220054Y-118340631D01*
X174220049Y-118340630D01*
X174040804Y-118320435D01*
X174040796Y-118320435D01*
X173861550Y-118340630D01*
X173861545Y-118340631D01*
X173691276Y-118400211D01*
X173538537Y-118496184D01*
X173410984Y-118623737D01*
X173315011Y-118776476D01*
X173255431Y-118946745D01*
X173255430Y-118946750D01*
X173235235Y-119125996D01*
X166230059Y-119125996D01*
X166248049Y-119123969D01*
X166248052Y-119123968D01*
X166248055Y-119123968D01*
X166418322Y-119064389D01*
X166571062Y-118968416D01*
X166698616Y-118840862D01*
X166794589Y-118688122D01*
X166854168Y-118517855D01*
X166856610Y-118496184D01*
X166874365Y-118338603D01*
X166874365Y-118338596D01*
X166854169Y-118159350D01*
X166854168Y-118159345D01*
X166794588Y-117989076D01*
X166755382Y-117926680D01*
X166698616Y-117836338D01*
X166571062Y-117708784D01*
X166554312Y-117698259D01*
X166418323Y-117612811D01*
X166248054Y-117553231D01*
X166248049Y-117553230D01*
X166068804Y-117533035D01*
X166068796Y-117533035D01*
X165889550Y-117553230D01*
X165889545Y-117553231D01*
X165719276Y-117612811D01*
X165566537Y-117708784D01*
X165438984Y-117836337D01*
X165343011Y-117989076D01*
X165283431Y-118159345D01*
X165283430Y-118159350D01*
X165263235Y-118338596D01*
X163301194Y-118338596D01*
X163298169Y-118311750D01*
X163298168Y-118311745D01*
X163297966Y-118311168D01*
X163238589Y-118141478D01*
X163142616Y-117988738D01*
X163015062Y-117861184D01*
X162975520Y-117836338D01*
X162862323Y-117765211D01*
X162692054Y-117705631D01*
X162692049Y-117705630D01*
X162512804Y-117685435D01*
X162512796Y-117685435D01*
X162333550Y-117705630D01*
X162333545Y-117705631D01*
X162163276Y-117765211D01*
X162010537Y-117861184D01*
X161882984Y-117988737D01*
X161787011Y-118141476D01*
X161727431Y-118311745D01*
X161727430Y-118311750D01*
X161707235Y-118490996D01*
X161707235Y-118491003D01*
X161727430Y-118670249D01*
X161727431Y-118670254D01*
X161787011Y-118840523D01*
X161882984Y-118993262D01*
X161913541Y-119023819D01*
X161947026Y-119085142D01*
X161942042Y-119154834D01*
X161913541Y-119199181D01*
X161879384Y-119233337D01*
X161783411Y-119386076D01*
X161723831Y-119556345D01*
X161723830Y-119556350D01*
X161703635Y-119735596D01*
X148730727Y-119735596D01*
X148765768Y-119635455D01*
X148765769Y-119635449D01*
X148785965Y-119456203D01*
X148785965Y-119456196D01*
X148765769Y-119276950D01*
X148765766Y-119276937D01*
X148705062Y-119103455D01*
X148701500Y-119033676D01*
X148705062Y-119021545D01*
X148765766Y-118848062D01*
X148765769Y-118848049D01*
X148785965Y-118668803D01*
X148785965Y-118668796D01*
X148765769Y-118489550D01*
X148765768Y-118489545D01*
X148713661Y-118340632D01*
X148706189Y-118319278D01*
X148610216Y-118166538D01*
X148482662Y-118038984D01*
X148436294Y-118009849D01*
X148329923Y-117943011D01*
X148159654Y-117883431D01*
X148159649Y-117883430D01*
X147980404Y-117863235D01*
X147980396Y-117863235D01*
X147801150Y-117883430D01*
X147801142Y-117883432D01*
X147653054Y-117935250D01*
X147583275Y-117938811D01*
X147571146Y-117935250D01*
X147423057Y-117883432D01*
X147423049Y-117883430D01*
X147243804Y-117863235D01*
X147243796Y-117863235D01*
X147064550Y-117883430D01*
X147064545Y-117883431D01*
X146894276Y-117943011D01*
X146741537Y-118038984D01*
X146613984Y-118166537D01*
X146518011Y-118319276D01*
X146458431Y-118489545D01*
X146458430Y-118489550D01*
X146438235Y-118668796D01*
X143057099Y-118668796D01*
X143057099Y-117821728D01*
X143050691Y-117762117D01*
X143030967Y-117709235D01*
X143000397Y-117627271D01*
X143000393Y-117627264D01*
X142914147Y-117512055D01*
X142914144Y-117512052D01*
X142798935Y-117425806D01*
X142798928Y-117425802D01*
X142664082Y-117375508D01*
X142664083Y-117375508D01*
X142604483Y-117369101D01*
X142604481Y-117369100D01*
X142604473Y-117369100D01*
X142604464Y-117369100D01*
X140808729Y-117369100D01*
X140808723Y-117369101D01*
X140749116Y-117375508D01*
X140614271Y-117425802D01*
X140614264Y-117425806D01*
X140499055Y-117512052D01*
X140499052Y-117512055D01*
X140412806Y-117627264D01*
X140412802Y-117627271D01*
X140362508Y-117762117D01*
X140356101Y-117821716D01*
X140356101Y-117821723D01*
X140356100Y-117821735D01*
X139707598Y-117821735D01*
X139708425Y-116875796D01*
X169573486Y-116875796D01*
X169573486Y-116875803D01*
X169593681Y-117055049D01*
X169593682Y-117055054D01*
X169653262Y-117225323D01*
X169729435Y-117346550D01*
X169749235Y-117378062D01*
X169876789Y-117505616D01*
X169985133Y-117573693D01*
X170029534Y-117601592D01*
X170035805Y-117604612D01*
X170034435Y-117607455D01*
X170079900Y-117639920D01*
X170103831Y-117698361D01*
X170104280Y-117698259D01*
X170104897Y-117700965D01*
X170105550Y-117702558D01*
X170105830Y-117705050D01*
X170165410Y-117875321D01*
X170236674Y-117988737D01*
X170261384Y-118028062D01*
X170388938Y-118155616D01*
X170541678Y-118251589D01*
X170711945Y-118311168D01*
X170711950Y-118311169D01*
X170891196Y-118331365D01*
X170891200Y-118331365D01*
X170891204Y-118331365D01*
X171070449Y-118311169D01*
X171070452Y-118311168D01*
X171070455Y-118311168D01*
X171240722Y-118251589D01*
X171393462Y-118155616D01*
X171521016Y-118028062D01*
X171616989Y-117875322D01*
X171632639Y-117830596D01*
X178264435Y-117830596D01*
X178264435Y-117830603D01*
X178284630Y-118009849D01*
X178284631Y-118009854D01*
X178344211Y-118180123D01*
X178426553Y-118311168D01*
X178440184Y-118332862D01*
X178567738Y-118460416D01*
X178720478Y-118556389D01*
X178878076Y-118611535D01*
X178890745Y-118615968D01*
X178890750Y-118615969D01*
X179069996Y-118636165D01*
X179070000Y-118636165D01*
X179070004Y-118636165D01*
X179249249Y-118615969D01*
X179249252Y-118615968D01*
X179249255Y-118615968D01*
X179419522Y-118556389D01*
X179572262Y-118460416D01*
X179699816Y-118332862D01*
X179795789Y-118180122D01*
X179855368Y-118009855D01*
X179857709Y-117989078D01*
X179875565Y-117830603D01*
X179875565Y-117830596D01*
X179855369Y-117651350D01*
X179855368Y-117651345D01*
X179821036Y-117553230D01*
X179795789Y-117481078D01*
X179699816Y-117328338D01*
X179572262Y-117200784D01*
X179533258Y-117176276D01*
X179419523Y-117104811D01*
X179249254Y-117045231D01*
X179249249Y-117045230D01*
X179070004Y-117025035D01*
X179069996Y-117025035D01*
X178890750Y-117045230D01*
X178890745Y-117045231D01*
X178720476Y-117104811D01*
X178567737Y-117200784D01*
X178440184Y-117328337D01*
X178344211Y-117481076D01*
X178284631Y-117651345D01*
X178284630Y-117651350D01*
X178264435Y-117830596D01*
X171632639Y-117830596D01*
X171676568Y-117705055D01*
X171676729Y-117703625D01*
X171696765Y-117525803D01*
X171696765Y-117525796D01*
X171676569Y-117346550D01*
X171676568Y-117346545D01*
X171670197Y-117328337D01*
X171616989Y-117176278D01*
X171521016Y-117023538D01*
X171393462Y-116895984D01*
X171240722Y-116800011D01*
X171240716Y-116800007D01*
X171234447Y-116796988D01*
X171235783Y-116794211D01*
X171190081Y-116761334D01*
X171166409Y-116703231D01*
X171165968Y-116703332D01*
X171165353Y-116700637D01*
X171164699Y-116699032D01*
X171164419Y-116696545D01*
X171104840Y-116526278D01*
X171008867Y-116373538D01*
X170881313Y-116245984D01*
X170728574Y-116150011D01*
X170558305Y-116090431D01*
X170558300Y-116090430D01*
X170379055Y-116070235D01*
X170379047Y-116070235D01*
X170199801Y-116090430D01*
X170199796Y-116090431D01*
X170029527Y-116150011D01*
X169876788Y-116245984D01*
X169749235Y-116373537D01*
X169653262Y-116526276D01*
X169593682Y-116696545D01*
X169593681Y-116696550D01*
X169573486Y-116875796D01*
X139708425Y-116875796D01*
X139709811Y-115290596D01*
X178264435Y-115290596D01*
X178264435Y-115290603D01*
X178284630Y-115469849D01*
X178284631Y-115469854D01*
X178344211Y-115640123D01*
X178359088Y-115663799D01*
X178440184Y-115792862D01*
X178567738Y-115920416D01*
X178720478Y-116016389D01*
X178874361Y-116070235D01*
X178890745Y-116075968D01*
X178890750Y-116075969D01*
X179069996Y-116096165D01*
X179070000Y-116096165D01*
X179070004Y-116096165D01*
X179249249Y-116075969D01*
X179249252Y-116075968D01*
X179249255Y-116075968D01*
X179419522Y-116016389D01*
X179572262Y-115920416D01*
X179699816Y-115792862D01*
X179795789Y-115640122D01*
X179855368Y-115469855D01*
X179855369Y-115469849D01*
X179875565Y-115290603D01*
X179875565Y-115290596D01*
X179855369Y-115111350D01*
X179855368Y-115111345D01*
X179795788Y-114941076D01*
X179699815Y-114788337D01*
X179572262Y-114660784D01*
X179419523Y-114564811D01*
X179249254Y-114505231D01*
X179249249Y-114505230D01*
X179070004Y-114485035D01*
X179069996Y-114485035D01*
X178890750Y-114505230D01*
X178890745Y-114505231D01*
X178720476Y-114564811D01*
X178567737Y-114660784D01*
X178440184Y-114788337D01*
X178344211Y-114941076D01*
X178284631Y-115111345D01*
X178284630Y-115111350D01*
X178264435Y-115290596D01*
X139709811Y-115290596D01*
X139710944Y-113995199D01*
X187188541Y-113995199D01*
X187188541Y-113995200D01*
X187209136Y-114230603D01*
X187209138Y-114230613D01*
X187270294Y-114458855D01*
X187270296Y-114458859D01*
X187270297Y-114458863D01*
X187319702Y-114564811D01*
X187370165Y-114673030D01*
X187370167Y-114673034D01*
X187505701Y-114866595D01*
X187505706Y-114866602D01*
X187672797Y-115033693D01*
X187672803Y-115033698D01*
X187858358Y-115163625D01*
X187901983Y-115218202D01*
X187909177Y-115287700D01*
X187877654Y-115350055D01*
X187858358Y-115366775D01*
X187672797Y-115496705D01*
X187505705Y-115663797D01*
X187370165Y-115857369D01*
X187370164Y-115857371D01*
X187270298Y-116071535D01*
X187270294Y-116071544D01*
X187209138Y-116299786D01*
X187209136Y-116299796D01*
X187188541Y-116535199D01*
X187188541Y-116535200D01*
X187209136Y-116770603D01*
X187209138Y-116770613D01*
X187270294Y-116998855D01*
X187270296Y-116998859D01*
X187270297Y-116998863D01*
X187296500Y-117055055D01*
X187370165Y-117213030D01*
X187370167Y-117213034D01*
X187505701Y-117406595D01*
X187505706Y-117406602D01*
X187672797Y-117573693D01*
X187672803Y-117573698D01*
X187858358Y-117703625D01*
X187901983Y-117758202D01*
X187909177Y-117827700D01*
X187877654Y-117890055D01*
X187858358Y-117906775D01*
X187672797Y-118036705D01*
X187505705Y-118203797D01*
X187370165Y-118397369D01*
X187370164Y-118397371D01*
X187270298Y-118611535D01*
X187270294Y-118611544D01*
X187209138Y-118839786D01*
X187209136Y-118839796D01*
X187188541Y-119075199D01*
X187188541Y-119075200D01*
X187209136Y-119310603D01*
X187209138Y-119310613D01*
X187270294Y-119538855D01*
X187270296Y-119538859D01*
X187270297Y-119538863D01*
X187315339Y-119635455D01*
X187370165Y-119753030D01*
X187370167Y-119753034D01*
X187439316Y-119851788D01*
X187492082Y-119927146D01*
X187505701Y-119946595D01*
X187505706Y-119946602D01*
X187672797Y-120113693D01*
X187672803Y-120113698D01*
X187858358Y-120243625D01*
X187901983Y-120298202D01*
X187909177Y-120367700D01*
X187877654Y-120430055D01*
X187858358Y-120446775D01*
X187672797Y-120576705D01*
X187505705Y-120743797D01*
X187370165Y-120937369D01*
X187370164Y-120937371D01*
X187270298Y-121151535D01*
X187270294Y-121151544D01*
X187209138Y-121379786D01*
X187209136Y-121379796D01*
X187188541Y-121615199D01*
X187188541Y-121615200D01*
X187209136Y-121850603D01*
X187209138Y-121850613D01*
X187270294Y-122078855D01*
X187270296Y-122078859D01*
X187270297Y-122078863D01*
X187318120Y-122181419D01*
X187370165Y-122293030D01*
X187370167Y-122293034D01*
X187505701Y-122486595D01*
X187505706Y-122486602D01*
X187672797Y-122653693D01*
X187672803Y-122653698D01*
X187858358Y-122783625D01*
X187901983Y-122838202D01*
X187909177Y-122907700D01*
X187877654Y-122970055D01*
X187858358Y-122986775D01*
X187672797Y-123116705D01*
X187505705Y-123283797D01*
X187370165Y-123477369D01*
X187370164Y-123477371D01*
X187270298Y-123691535D01*
X187270294Y-123691544D01*
X187209138Y-123919786D01*
X187209136Y-123919796D01*
X187188541Y-124155199D01*
X187188541Y-124155200D01*
X187209136Y-124390603D01*
X187209138Y-124390613D01*
X187270294Y-124618855D01*
X187270296Y-124618859D01*
X187270297Y-124618863D01*
X187315608Y-124716032D01*
X187370165Y-124833030D01*
X187370167Y-124833034D01*
X187464690Y-124968025D01*
X187486474Y-124999137D01*
X187505701Y-125026595D01*
X187505706Y-125026602D01*
X187672797Y-125193693D01*
X187672803Y-125193698D01*
X187858358Y-125323625D01*
X187901983Y-125378202D01*
X187909177Y-125447700D01*
X187877654Y-125510055D01*
X187858358Y-125526775D01*
X187672797Y-125656705D01*
X187505705Y-125823797D01*
X187370165Y-126017369D01*
X187370164Y-126017371D01*
X187270298Y-126231535D01*
X187270294Y-126231544D01*
X187209138Y-126459786D01*
X187209136Y-126459796D01*
X187188541Y-126695199D01*
X187188541Y-126695200D01*
X187209136Y-126930603D01*
X187209138Y-126930613D01*
X187270294Y-127158855D01*
X187270296Y-127158859D01*
X187270297Y-127158863D01*
X187370165Y-127373030D01*
X187370167Y-127373034D01*
X187505701Y-127566595D01*
X187505706Y-127566602D01*
X187672797Y-127733693D01*
X187672803Y-127733698D01*
X187858358Y-127863625D01*
X187901983Y-127918202D01*
X187909177Y-127987700D01*
X187877654Y-128050055D01*
X187858358Y-128066775D01*
X187672797Y-128196705D01*
X187505705Y-128363797D01*
X187370165Y-128557369D01*
X187370164Y-128557371D01*
X187270298Y-128771535D01*
X187270294Y-128771544D01*
X187209138Y-128999786D01*
X187209136Y-128999796D01*
X187188541Y-129235199D01*
X187188541Y-129235200D01*
X187209136Y-129470603D01*
X187209138Y-129470613D01*
X187270294Y-129698855D01*
X187270296Y-129698859D01*
X187270297Y-129698863D01*
X187294610Y-129751002D01*
X187370165Y-129913030D01*
X187370167Y-129913034D01*
X187457101Y-130037188D01*
X187505705Y-130106601D01*
X187672799Y-130273695D01*
X187769584Y-130341465D01*
X187866365Y-130409232D01*
X187866367Y-130409233D01*
X187866370Y-130409235D01*
X188080537Y-130509103D01*
X188308792Y-130570263D01*
X188497118Y-130586739D01*
X188544199Y-130590859D01*
X188544200Y-130590859D01*
X188544201Y-130590859D01*
X188583434Y-130587426D01*
X188779608Y-130570263D01*
X189007863Y-130509103D01*
X189222030Y-130409235D01*
X189415601Y-130273695D01*
X189582695Y-130106601D01*
X189718235Y-129913030D01*
X189818103Y-129698863D01*
X189879263Y-129470608D01*
X189899859Y-129235200D01*
X189879263Y-128999792D01*
X189818103Y-128771537D01*
X189718235Y-128557371D01*
X189696292Y-128526032D01*
X189582694Y-128363797D01*
X189415602Y-128196706D01*
X189415596Y-128196701D01*
X189230042Y-128066775D01*
X189186417Y-128012198D01*
X189179223Y-127942700D01*
X189210746Y-127880345D01*
X189230042Y-127863625D01*
X189336824Y-127788855D01*
X189415601Y-127733695D01*
X189582695Y-127566601D01*
X189718235Y-127373030D01*
X189818103Y-127158863D01*
X189879263Y-126930608D01*
X189899859Y-126695200D01*
X189879263Y-126459792D01*
X189818103Y-126231537D01*
X189718235Y-126017371D01*
X189673707Y-125953777D01*
X189582694Y-125823797D01*
X189415602Y-125656706D01*
X189415596Y-125656701D01*
X189230042Y-125526775D01*
X189186417Y-125472198D01*
X189179223Y-125402700D01*
X189210746Y-125340345D01*
X189230042Y-125323625D01*
X189273757Y-125293015D01*
X189415601Y-125193695D01*
X189582695Y-125026601D01*
X189718235Y-124833030D01*
X189818103Y-124618863D01*
X189879263Y-124390608D01*
X189899859Y-124155200D01*
X189879263Y-123919792D01*
X189818103Y-123691537D01*
X189718235Y-123477371D01*
X189716909Y-123475476D01*
X189582694Y-123283797D01*
X189415602Y-123116706D01*
X189415596Y-123116701D01*
X189230042Y-122986775D01*
X189186417Y-122932198D01*
X189179223Y-122862700D01*
X189210746Y-122800345D01*
X189230042Y-122783625D01*
X189262209Y-122761101D01*
X189415601Y-122653695D01*
X189582695Y-122486601D01*
X189718235Y-122293030D01*
X189818103Y-122078863D01*
X189879263Y-121850608D01*
X189899859Y-121615200D01*
X189879263Y-121379792D01*
X189818103Y-121151537D01*
X189718235Y-120937371D01*
X189640123Y-120825814D01*
X189582694Y-120743797D01*
X189415602Y-120576706D01*
X189415596Y-120576701D01*
X189230042Y-120446775D01*
X189186417Y-120392198D01*
X189179223Y-120322700D01*
X189210746Y-120260345D01*
X189230042Y-120243625D01*
X189252226Y-120228091D01*
X189415601Y-120113695D01*
X189582695Y-119946601D01*
X189718235Y-119753030D01*
X189818103Y-119538863D01*
X189879263Y-119310608D01*
X189899859Y-119075200D01*
X189879263Y-118839792D01*
X189818103Y-118611537D01*
X189718235Y-118397371D01*
X189678506Y-118340631D01*
X189582694Y-118203797D01*
X189415602Y-118036706D01*
X189415596Y-118036701D01*
X189230042Y-117906775D01*
X189186417Y-117852198D01*
X189179223Y-117782700D01*
X189210746Y-117720345D01*
X189230042Y-117703625D01*
X189321022Y-117639920D01*
X189415601Y-117573695D01*
X189582695Y-117406601D01*
X189718235Y-117213030D01*
X189818103Y-116998863D01*
X189879263Y-116770608D01*
X189899859Y-116535200D01*
X189879263Y-116299792D01*
X189818103Y-116071537D01*
X189718235Y-115857371D01*
X189582695Y-115663799D01*
X189582694Y-115663797D01*
X189415602Y-115496706D01*
X189415596Y-115496701D01*
X189230042Y-115366775D01*
X189186417Y-115312198D01*
X189179223Y-115242700D01*
X189210746Y-115180345D01*
X189230042Y-115163625D01*
X189304705Y-115111345D01*
X189415601Y-115033695D01*
X189582695Y-114866601D01*
X189718235Y-114673030D01*
X189818103Y-114458863D01*
X189879263Y-114230608D01*
X189899859Y-113995200D01*
X189879263Y-113759792D01*
X189818103Y-113531537D01*
X189718235Y-113317371D01*
X189695887Y-113285455D01*
X189582696Y-113123800D01*
X189565092Y-113106196D01*
X189460767Y-113001871D01*
X189427284Y-112940551D01*
X189432268Y-112870859D01*
X189474139Y-112814925D01*
X189505115Y-112798010D01*
X189636531Y-112748996D01*
X189751746Y-112662746D01*
X189837996Y-112547531D01*
X189888291Y-112412683D01*
X189894700Y-112353073D01*
X189894699Y-110557328D01*
X189888291Y-110497717D01*
X189875810Y-110464255D01*
X189837997Y-110362871D01*
X189837993Y-110362864D01*
X189751747Y-110247655D01*
X189751744Y-110247652D01*
X189636535Y-110161406D01*
X189636528Y-110161402D01*
X189501682Y-110111108D01*
X189501683Y-110111108D01*
X189442083Y-110104701D01*
X189442081Y-110104700D01*
X189442073Y-110104700D01*
X189442064Y-110104700D01*
X187646329Y-110104700D01*
X187646323Y-110104701D01*
X187586716Y-110111108D01*
X187451871Y-110161402D01*
X187451864Y-110161406D01*
X187336655Y-110247652D01*
X187336652Y-110247655D01*
X187250406Y-110362864D01*
X187250402Y-110362871D01*
X187200108Y-110497717D01*
X187194939Y-110545800D01*
X187193701Y-110557323D01*
X187193700Y-110557335D01*
X187193700Y-112353070D01*
X187193701Y-112353076D01*
X187200108Y-112412683D01*
X187250402Y-112547528D01*
X187250406Y-112547535D01*
X187336652Y-112662744D01*
X187336655Y-112662747D01*
X187451864Y-112748993D01*
X187451871Y-112748997D01*
X187583281Y-112798010D01*
X187639215Y-112839881D01*
X187663632Y-112905345D01*
X187648780Y-112973618D01*
X187627630Y-113001873D01*
X187505703Y-113123800D01*
X187370165Y-113317369D01*
X187370164Y-113317371D01*
X187270298Y-113531535D01*
X187270294Y-113531544D01*
X187209138Y-113759786D01*
X187209136Y-113759796D01*
X187188541Y-113995199D01*
X139710944Y-113995199D01*
X139711722Y-113106196D01*
X171996835Y-113106196D01*
X171996835Y-113106203D01*
X172017030Y-113285449D01*
X172017031Y-113285454D01*
X172076611Y-113455723D01*
X172124253Y-113531544D01*
X172172584Y-113608462D01*
X172300138Y-113736016D01*
X172452878Y-113831989D01*
X172623145Y-113891568D01*
X172623150Y-113891569D01*
X172802396Y-113911765D01*
X172802400Y-113911765D01*
X172802404Y-113911765D01*
X172981649Y-113891569D01*
X172981652Y-113891568D01*
X172981655Y-113891568D01*
X173151922Y-113831989D01*
X173304662Y-113736016D01*
X173432216Y-113608462D01*
X173528189Y-113455722D01*
X173587768Y-113285455D01*
X173607965Y-113106200D01*
X173596210Y-113001874D01*
X173587769Y-112926950D01*
X173587768Y-112926945D01*
X173550754Y-112821165D01*
X173528189Y-112756678D01*
X173432216Y-112603938D01*
X173304662Y-112476384D01*
X173203283Y-112412683D01*
X173151923Y-112380411D01*
X172981654Y-112320831D01*
X172981649Y-112320830D01*
X172802404Y-112300635D01*
X172802396Y-112300635D01*
X172623150Y-112320830D01*
X172623145Y-112320831D01*
X172452876Y-112380411D01*
X172300137Y-112476384D01*
X172172584Y-112603937D01*
X172076611Y-112756676D01*
X172017031Y-112926945D01*
X172017030Y-112926950D01*
X171996835Y-113106196D01*
X139711722Y-113106196D01*
X139715677Y-108584996D01*
X142417735Y-108584996D01*
X142417735Y-108585003D01*
X142437930Y-108764249D01*
X142437931Y-108764254D01*
X142497511Y-108934523D01*
X142593484Y-109087262D01*
X142721038Y-109214816D01*
X142797408Y-109262802D01*
X142873779Y-109310790D01*
X142894266Y-109317959D01*
X142951041Y-109358681D01*
X142976788Y-109423634D01*
X142963331Y-109492196D01*
X142914943Y-109542598D01*
X142894266Y-109552041D01*
X142873779Y-109559209D01*
X142721037Y-109655184D01*
X142593484Y-109782737D01*
X142497511Y-109935476D01*
X142437931Y-110105745D01*
X142437930Y-110105750D01*
X142417735Y-110284996D01*
X142417735Y-110285003D01*
X142437930Y-110464249D01*
X142437931Y-110464254D01*
X142497511Y-110634523D01*
X142593484Y-110787262D01*
X142721038Y-110914816D01*
X142797408Y-110962802D01*
X142873779Y-111010790D01*
X142894266Y-111017959D01*
X142951041Y-111058681D01*
X142976788Y-111123634D01*
X142963331Y-111192196D01*
X142914943Y-111242598D01*
X142894266Y-111252041D01*
X142873779Y-111259209D01*
X142721037Y-111355184D01*
X142593484Y-111482737D01*
X142497511Y-111635476D01*
X142437931Y-111805745D01*
X142437930Y-111805750D01*
X142417735Y-111984996D01*
X142417735Y-111985003D01*
X142437930Y-112164249D01*
X142437931Y-112164254D01*
X142497511Y-112334523D01*
X142526345Y-112380411D01*
X142593484Y-112487262D01*
X142721038Y-112614816D01*
X142873778Y-112710789D01*
X142982970Y-112748997D01*
X143044045Y-112770368D01*
X143044050Y-112770369D01*
X143223296Y-112790565D01*
X143223300Y-112790565D01*
X143223304Y-112790565D01*
X143402549Y-112770369D01*
X143402552Y-112770368D01*
X143402555Y-112770368D01*
X143572822Y-112710789D01*
X143725562Y-112614816D01*
X143853116Y-112487262D01*
X143949089Y-112334522D01*
X143951258Y-112328324D01*
X143991979Y-112271548D01*
X144056932Y-112245800D01*
X144125494Y-112259256D01*
X144175897Y-112307643D01*
X144185342Y-112328324D01*
X144187510Y-112334521D01*
X144216345Y-112380411D01*
X144283484Y-112487262D01*
X144411038Y-112614816D01*
X144563778Y-112710789D01*
X144672970Y-112748997D01*
X144734045Y-112770368D01*
X144734050Y-112770369D01*
X144913296Y-112790565D01*
X144913300Y-112790565D01*
X144913304Y-112790565D01*
X145092549Y-112770369D01*
X145092552Y-112770368D01*
X145092555Y-112770368D01*
X145262822Y-112710789D01*
X145415562Y-112614816D01*
X145543116Y-112487262D01*
X145638306Y-112335767D01*
X145690641Y-112289477D01*
X145759694Y-112278829D01*
X145823543Y-112307204D01*
X145848293Y-112335767D01*
X145943484Y-112487262D01*
X146071038Y-112614816D01*
X146223778Y-112710789D01*
X146332970Y-112748997D01*
X146394045Y-112770368D01*
X146394050Y-112770369D01*
X146573296Y-112790565D01*
X146573300Y-112790565D01*
X146573304Y-112790565D01*
X146752549Y-112770369D01*
X146752552Y-112770368D01*
X146752555Y-112770368D01*
X146922822Y-112710789D01*
X147075562Y-112614816D01*
X147203116Y-112487262D01*
X147299089Y-112334522D01*
X147358668Y-112164255D01*
X147378865Y-111985000D01*
X147358668Y-111805745D01*
X147299089Y-111635478D01*
X147298305Y-111634231D01*
X147203115Y-111482737D01*
X147075562Y-111355184D01*
X146922821Y-111259210D01*
X146902335Y-111252042D01*
X146845558Y-111211320D01*
X146819811Y-111146367D01*
X146833267Y-111077806D01*
X146881654Y-111027403D01*
X146902335Y-111017958D01*
X146911595Y-111014717D01*
X146922822Y-111010789D01*
X147075562Y-110914816D01*
X147203116Y-110787262D01*
X147299089Y-110634522D01*
X147358668Y-110464255D01*
X147370091Y-110362871D01*
X147378865Y-110285003D01*
X147378865Y-110284996D01*
X147358669Y-110105750D01*
X147358668Y-110105745D01*
X147318576Y-109991170D01*
X147299089Y-109935478D01*
X147298305Y-109934231D01*
X147203115Y-109782737D01*
X147075562Y-109655184D01*
X146922821Y-109559210D01*
X146902335Y-109552042D01*
X146845558Y-109511320D01*
X146819811Y-109446367D01*
X146833267Y-109377806D01*
X146881654Y-109327403D01*
X146902335Y-109317958D01*
X146911595Y-109314717D01*
X146922822Y-109310789D01*
X147075562Y-109214816D01*
X147203116Y-109087262D01*
X147299089Y-108934522D01*
X147358668Y-108764255D01*
X147365869Y-108700344D01*
X147378865Y-108585003D01*
X147378865Y-108584996D01*
X147358669Y-108405750D01*
X147358668Y-108405745D01*
X147318576Y-108291170D01*
X147299089Y-108235478D01*
X147298305Y-108234231D01*
X147203115Y-108082737D01*
X147075562Y-107955184D01*
X146922823Y-107859211D01*
X146752554Y-107799631D01*
X146752549Y-107799630D01*
X146573304Y-107779435D01*
X146573296Y-107779435D01*
X146394050Y-107799630D01*
X146394045Y-107799631D01*
X146223776Y-107859211D01*
X146071037Y-107955184D01*
X145943484Y-108082737D01*
X145848294Y-108234231D01*
X145795959Y-108280522D01*
X145726905Y-108291170D01*
X145663057Y-108262795D01*
X145638306Y-108234231D01*
X145543115Y-108082737D01*
X145415562Y-107955184D01*
X145262823Y-107859211D01*
X145092554Y-107799631D01*
X145092549Y-107799630D01*
X144913304Y-107779435D01*
X144913296Y-107779435D01*
X144734050Y-107799630D01*
X144734045Y-107799631D01*
X144563776Y-107859211D01*
X144411037Y-107955184D01*
X144283484Y-108082737D01*
X144187510Y-108235478D01*
X144185341Y-108241678D01*
X144144618Y-108298453D01*
X144079665Y-108324199D01*
X144011104Y-108310742D01*
X143960702Y-108262354D01*
X143951259Y-108241678D01*
X143949089Y-108235478D01*
X143948305Y-108234231D01*
X143853116Y-108082738D01*
X143725562Y-107955184D01*
X143572823Y-107859211D01*
X143402554Y-107799631D01*
X143402549Y-107799630D01*
X143223304Y-107779435D01*
X143223296Y-107779435D01*
X143044050Y-107799630D01*
X143044045Y-107799631D01*
X142873776Y-107859211D01*
X142721037Y-107955184D01*
X142593484Y-108082737D01*
X142497511Y-108235476D01*
X142437931Y-108405745D01*
X142437930Y-108405750D01*
X142417735Y-108584996D01*
X139715677Y-108584996D01*
X139717417Y-106594935D01*
X167447500Y-106594935D01*
X167447500Y-108390670D01*
X167447501Y-108390676D01*
X167453908Y-108450283D01*
X167504202Y-108585128D01*
X167504206Y-108585135D01*
X167590452Y-108700344D01*
X167590455Y-108700347D01*
X167705664Y-108786593D01*
X167705671Y-108786597D01*
X167840517Y-108836891D01*
X167840516Y-108836891D01*
X167847444Y-108837635D01*
X167900127Y-108843300D01*
X169695872Y-108843299D01*
X169755483Y-108836891D01*
X169890331Y-108786596D01*
X170005546Y-108700346D01*
X170091796Y-108585131D01*
X170140810Y-108453716D01*
X170182681Y-108397784D01*
X170248145Y-108373366D01*
X170316418Y-108388217D01*
X170344673Y-108409369D01*
X170466599Y-108531295D01*
X170563384Y-108599065D01*
X170660165Y-108666832D01*
X170660167Y-108666833D01*
X170660170Y-108666835D01*
X170874337Y-108766703D01*
X171102592Y-108827863D01*
X171279034Y-108843300D01*
X171337999Y-108848459D01*
X171338000Y-108848459D01*
X171338001Y-108848459D01*
X171396966Y-108843300D01*
X171573408Y-108827863D01*
X171801663Y-108766703D01*
X172015830Y-108666835D01*
X172209401Y-108531295D01*
X172376495Y-108364201D01*
X172506425Y-108178642D01*
X172561002Y-108135017D01*
X172630500Y-108127823D01*
X172692855Y-108159346D01*
X172709575Y-108178642D01*
X172839500Y-108364195D01*
X172839505Y-108364201D01*
X173006599Y-108531295D01*
X173103384Y-108599065D01*
X173200165Y-108666832D01*
X173200167Y-108666833D01*
X173200170Y-108666835D01*
X173414337Y-108766703D01*
X173642592Y-108827863D01*
X173819034Y-108843300D01*
X173877999Y-108848459D01*
X173878000Y-108848459D01*
X173878001Y-108848459D01*
X173936966Y-108843300D01*
X174113408Y-108827863D01*
X174341663Y-108766703D01*
X174555830Y-108666835D01*
X174749401Y-108531295D01*
X174916495Y-108364201D01*
X175052035Y-108170630D01*
X175151903Y-107956463D01*
X175213063Y-107728208D01*
X175233659Y-107492800D01*
X175213063Y-107257392D01*
X175151903Y-107029137D01*
X175052035Y-106814971D01*
X175046425Y-106806958D01*
X174916494Y-106621397D01*
X174749402Y-106454306D01*
X174749395Y-106454301D01*
X174555834Y-106318767D01*
X174555830Y-106318765D01*
X174555828Y-106318764D01*
X174341663Y-106218897D01*
X174341659Y-106218896D01*
X174341655Y-106218894D01*
X174113413Y-106157738D01*
X174113403Y-106157736D01*
X173878001Y-106137141D01*
X173877999Y-106137141D01*
X173642596Y-106157736D01*
X173642586Y-106157738D01*
X173414344Y-106218894D01*
X173414335Y-106218898D01*
X173200171Y-106318764D01*
X173200169Y-106318765D01*
X173006597Y-106454305D01*
X172839505Y-106621397D01*
X172709575Y-106806958D01*
X172654998Y-106850583D01*
X172585500Y-106857777D01*
X172523145Y-106826254D01*
X172506425Y-106806958D01*
X172376494Y-106621397D01*
X172209402Y-106454306D01*
X172209395Y-106454301D01*
X172015834Y-106318767D01*
X172015830Y-106318765D01*
X172015828Y-106318764D01*
X171801663Y-106218897D01*
X171801659Y-106218896D01*
X171801655Y-106218894D01*
X171573413Y-106157738D01*
X171573403Y-106157736D01*
X171338001Y-106137141D01*
X171337999Y-106137141D01*
X171102596Y-106157736D01*
X171102586Y-106157738D01*
X170874344Y-106218894D01*
X170874335Y-106218898D01*
X170660171Y-106318764D01*
X170660169Y-106318765D01*
X170466600Y-106454303D01*
X170344673Y-106576230D01*
X170283350Y-106609714D01*
X170213658Y-106604730D01*
X170157725Y-106562858D01*
X170140810Y-106531881D01*
X170091797Y-106400471D01*
X170091793Y-106400464D01*
X170005547Y-106285255D01*
X170005544Y-106285252D01*
X169890335Y-106199006D01*
X169890328Y-106199002D01*
X169755482Y-106148708D01*
X169755483Y-106148708D01*
X169695883Y-106142301D01*
X169695881Y-106142300D01*
X169695873Y-106142300D01*
X169695864Y-106142300D01*
X167900129Y-106142300D01*
X167900123Y-106142301D01*
X167840516Y-106148708D01*
X167705671Y-106199002D01*
X167705664Y-106199006D01*
X167590455Y-106285252D01*
X167590452Y-106285255D01*
X167504206Y-106400464D01*
X167504202Y-106400471D01*
X167453908Y-106535317D01*
X167447501Y-106594916D01*
X167447500Y-106594935D01*
X139717417Y-106594935D01*
X139717833Y-106119546D01*
X139717900Y-106118569D01*
X139717900Y-106051960D01*
X139718680Y-106038078D01*
X139722405Y-106005015D01*
X139730534Y-105932866D01*
X139736707Y-105905812D01*
X139769371Y-105812466D01*
X139781408Y-105787471D01*
X139834020Y-105703740D01*
X139851325Y-105682041D01*
X139921241Y-105612125D01*
X139942940Y-105594820D01*
X140026671Y-105542208D01*
X140051673Y-105530168D01*
X140145005Y-105497510D01*
X140172062Y-105491334D01*
X140267928Y-105480532D01*
X140277274Y-105479480D01*
X140291157Y-105478700D01*
X140357872Y-105478700D01*
X140358607Y-105478650D01*
X189941872Y-105445675D01*
X189955809Y-105446453D01*
G37*
%TD.AperFunction*%
%TD*%
M02*
