%TF.GenerationSoftware,KiCad,Pcbnew,8.0.6*%
%TF.CreationDate,2025-03-17T21:12:52+03:00*%
%TF.ProjectId,ECU_SW_Control,4543555f-5357-45f4-936f-6e74726f6c2e,v1*%
%TF.SameCoordinates,Original*%
%TF.FileFunction,Copper,L3,Inr*%
%TF.FilePolarity,Positive*%
%FSLAX46Y46*%
G04 Gerber Fmt 4.6, Leading zero omitted, Abs format (unit mm)*
G04 Created by KiCad (PCBNEW 8.0.6) date 2025-03-17 21:12:52*
%MOMM*%
%LPD*%
G01*
G04 APERTURE LIST*
%TA.AperFunction,ComponentPad*%
%ADD10R,1.700000X1.700000*%
%TD*%
%TA.AperFunction,ComponentPad*%
%ADD11O,1.700000X1.700000*%
%TD*%
%TA.AperFunction,ViaPad*%
%ADD12C,0.600000*%
%TD*%
G04 APERTURE END LIST*
D10*
%TO.N,/MCU/I_MCLR*%
%TO.C,J2*%
X188544200Y-111455200D03*
D11*
%TO.N,/MCU/I_PROG_PGEC*%
X188544200Y-113995200D03*
%TO.N,/MCU/I_PROG_PGED*%
X188544200Y-116535200D03*
%TO.N,/MCU/IO_D_C_DEBUG*%
X188544200Y-119075200D03*
%TO.N,/MCU/IO_C_SPI_CLK*%
X188544200Y-121615200D03*
%TO.N,/MCU/I_C_SPI_MiSO*%
X188544200Y-124155200D03*
%TO.N,/MCU/O_C_SPI_MOSI*%
X188544200Y-126695200D03*
%TO.N,/CAN/5V*%
X188544200Y-129235200D03*
%TO.N,GND*%
X188544200Y-131775200D03*
%TD*%
D10*
%TO.N,/MCU/I_A_TEST*%
%TO.C,J3*%
X168798000Y-107492800D03*
D11*
%TO.N,/MCU/O_PWM_TEST*%
X171338000Y-107492800D03*
%TO.N,/MCU/O_D_TEST*%
X173878000Y-107492800D03*
%TD*%
D10*
%TO.N,/Connector/V_BAT*%
%TO.C,J1*%
X141706600Y-118719600D03*
D11*
%TO.N,GND*%
X141706600Y-121259600D03*
%TO.N,/Connector/COMM1*%
X141706600Y-123799600D03*
%TO.N,/Connector/COMM2*%
X141706600Y-126339600D03*
%TO.N,/CAN/CAN-*%
X141706600Y-128879600D03*
%TO.N,/CAN/CAN+*%
X141706600Y-131419600D03*
%TD*%
D12*
%TO.N,/LDO/V_BATPROT*%
X143223300Y-108585000D03*
X146573300Y-110285000D03*
X144913300Y-111985000D03*
X143223300Y-111985000D03*
X144913300Y-108585000D03*
X144913300Y-110285000D03*
X146573300Y-111985000D03*
X146573300Y-108585000D03*
X143223300Y-110285000D03*
%TO.N,GND*%
X182651400Y-113995200D03*
X157950400Y-108457600D03*
X147040600Y-134315200D03*
X167360600Y-111455200D03*
X179070000Y-121676600D03*
X187731400Y-134315200D03*
X147040600Y-106375200D03*
X185191400Y-113995200D03*
X170789600Y-124663200D03*
X158750400Y-109257600D03*
X182651400Y-129235200D03*
X169900600Y-111455200D03*
X182651400Y-121615200D03*
X158750400Y-108457600D03*
X161100400Y-111607600D03*
X173939200Y-130022600D03*
X151790400Y-126923800D03*
X164871400Y-134315200D03*
X158750400Y-113957600D03*
X152171400Y-134315200D03*
X154660600Y-106375200D03*
X160300400Y-109257600D03*
X159740600Y-106375200D03*
X182651400Y-108915200D03*
X162280600Y-106375200D03*
X158750400Y-110807600D03*
X161100400Y-113957600D03*
X164871400Y-131775200D03*
X158750400Y-111607600D03*
X180111400Y-116535200D03*
X177571400Y-113995200D03*
X182651400Y-124155200D03*
X157251400Y-134315200D03*
X180111400Y-113995200D03*
X180111400Y-134315200D03*
X160300400Y-111607600D03*
X164820600Y-106375200D03*
X144500600Y-119075200D03*
X172440600Y-111455200D03*
X157950400Y-113957600D03*
X156400400Y-109257600D03*
X157251400Y-121615200D03*
X157950400Y-111607600D03*
X157950400Y-110807600D03*
X155600400Y-113957600D03*
X164820600Y-108915200D03*
X182651400Y-126695200D03*
X141960600Y-134315200D03*
X185191400Y-116535200D03*
X160300400Y-108457600D03*
X160300400Y-113157600D03*
X166068800Y-119938800D03*
X152120600Y-106375200D03*
X156400400Y-111607600D03*
X177571400Y-108915200D03*
X182651400Y-119075200D03*
X185191400Y-111455200D03*
X182651400Y-116535200D03*
X149580600Y-134315200D03*
X158750400Y-113157600D03*
X155600400Y-109257600D03*
X187731400Y-106375200D03*
X149580600Y-121615200D03*
X152171400Y-121615200D03*
X185191400Y-108915200D03*
X182651400Y-134315200D03*
X177571400Y-106375200D03*
X155600400Y-108457600D03*
X156400400Y-113157600D03*
X147040600Y-124155200D03*
X144500600Y-134315200D03*
X177571400Y-126695200D03*
X144500600Y-106375200D03*
X164820600Y-111455200D03*
X185191400Y-134315200D03*
X161100400Y-110807600D03*
X182651400Y-131775200D03*
X160300400Y-113957600D03*
X141960600Y-106375200D03*
X180111400Y-119075200D03*
X144500600Y-131775200D03*
X147040600Y-126695200D03*
X161100400Y-108457600D03*
X180111400Y-111455200D03*
X157200600Y-106375200D03*
X185191400Y-126695200D03*
X156400400Y-110807600D03*
X164871400Y-129235200D03*
X161100400Y-113157600D03*
X149580600Y-106375200D03*
X185191400Y-121615200D03*
X156400400Y-113957600D03*
X159791400Y-134315200D03*
X180111400Y-108915200D03*
X162331400Y-124155200D03*
X160300400Y-110807600D03*
X167411400Y-134315200D03*
X180111400Y-106375200D03*
X182651400Y-111455200D03*
X161696400Y-131038600D03*
X185191400Y-124155200D03*
X187731400Y-108915200D03*
X162331400Y-134315200D03*
X177571400Y-111455200D03*
X144500600Y-121615200D03*
X161100400Y-109257600D03*
X155600400Y-110807600D03*
X144500600Y-126695200D03*
X167411400Y-131775200D03*
X155600400Y-111607600D03*
X180111400Y-129235200D03*
X155600400Y-113157600D03*
X156400400Y-108457600D03*
X182651400Y-106375200D03*
X154711400Y-134315200D03*
X180111400Y-124155200D03*
X185191400Y-119075200D03*
X185191400Y-131775200D03*
X157950400Y-113157600D03*
X157950400Y-109257600D03*
X185191400Y-106375200D03*
%TO.N,/CAN/5V*%
X157305800Y-125501400D03*
X167995600Y-129844800D03*
X147980400Y-118668800D03*
X162512800Y-118491000D03*
X147980400Y-119456200D03*
X161696400Y-129311400D03*
X147243800Y-119456200D03*
X147243800Y-118668800D03*
X179070000Y-119951600D03*
%TO.N,Net-(C4-Pad1)*%
X146964400Y-128676400D03*
X146964400Y-131724400D03*
%TO.N,Net-(IC1-~{MCLR})*%
X162331400Y-125501400D03*
X172802400Y-113106200D03*
%TO.N,Net-(IC1-RC5)*%
X174040800Y-121551603D03*
X179070000Y-117830600D03*
%TO.N,/CAN/TX*%
X159943800Y-132740400D03*
X153873200Y-123418600D03*
X168402000Y-124663200D03*
%TO.N,/Connector/COMM2*%
X170891200Y-117525800D03*
%TO.N,/Connector/COMM1*%
X170379051Y-116875800D03*
%TO.N,/MCU/O_D_TEST*%
X173993600Y-124663200D03*
%TO.N,/CAN/STBY*%
X156337000Y-132080000D03*
X162509200Y-119735600D03*
%TO.N,/CAN/RX*%
X154561792Y-125168408D03*
X159943800Y-127609600D03*
X169189400Y-123825000D03*
%TO.N,Net-(IC1-PGED2{slash}RB5)*%
X179070000Y-115290600D03*
X174040800Y-119126000D03*
%TO.N,/MCU/O_PWM_TEST*%
X166068800Y-118338600D03*
%TO.N,Net-(U2-SPLIT)*%
X151790400Y-133477000D03*
X155117800Y-128270000D03*
%TD*%
%TA.AperFunction,Conductor*%
%TO.N,/CAN/5V*%
G36*
X189955809Y-105446453D02*
G01*
X190060991Y-105458298D01*
X190088057Y-105464475D01*
X190181374Y-105497123D01*
X190206393Y-105509171D01*
X190290104Y-105561768D01*
X190311815Y-105579082D01*
X190381717Y-105648984D01*
X190399031Y-105670695D01*
X190451628Y-105754406D01*
X190463676Y-105779427D01*
X190496323Y-105872740D01*
X190502501Y-105899813D01*
X190514348Y-106005015D01*
X190515127Y-106018897D01*
X190515124Y-106084285D01*
X190515304Y-106086997D01*
X190583681Y-135019309D01*
X190582901Y-135033485D01*
X190571066Y-135138530D01*
X190564887Y-135165602D01*
X190532234Y-135258918D01*
X190520187Y-135283935D01*
X190467583Y-135367653D01*
X190450270Y-135389362D01*
X190380362Y-135459270D01*
X190358653Y-135476583D01*
X190274935Y-135529187D01*
X190249922Y-135541232D01*
X190156598Y-135573888D01*
X190129529Y-135580066D01*
X190042519Y-135589869D01*
X190024315Y-135591920D01*
X190010434Y-135592700D01*
X189944255Y-135592700D01*
X189942932Y-135592786D01*
X140265463Y-135651149D01*
X140251434Y-135650369D01*
X140146668Y-135638565D01*
X140119595Y-135632386D01*
X140026275Y-135599731D01*
X140001257Y-135587683D01*
X139917537Y-135535076D01*
X139895829Y-135517763D01*
X139854650Y-135476583D01*
X139825918Y-135447850D01*
X139808611Y-135426148D01*
X139756007Y-135342424D01*
X139743960Y-135317406D01*
X139711308Y-135224082D01*
X139705130Y-135197010D01*
X139693285Y-135091848D01*
X139692506Y-135077861D01*
X139692551Y-135026413D01*
X139693173Y-134315196D01*
X141155035Y-134315196D01*
X141155035Y-134315203D01*
X141175230Y-134494449D01*
X141175231Y-134494454D01*
X141234811Y-134664723D01*
X141330784Y-134817462D01*
X141458338Y-134945016D01*
X141548680Y-135001782D01*
X141576574Y-135019309D01*
X141611078Y-135040989D01*
X141716452Y-135077861D01*
X141781345Y-135100568D01*
X141781350Y-135100569D01*
X141960596Y-135120765D01*
X141960600Y-135120765D01*
X141960604Y-135120765D01*
X142139849Y-135100569D01*
X142139852Y-135100568D01*
X142139855Y-135100568D01*
X142310122Y-135040989D01*
X142462862Y-134945016D01*
X142590416Y-134817462D01*
X142686389Y-134664722D01*
X142745968Y-134494455D01*
X142766165Y-134315200D01*
X142766165Y-134315196D01*
X143695035Y-134315196D01*
X143695035Y-134315203D01*
X143715230Y-134494449D01*
X143715231Y-134494454D01*
X143774811Y-134664723D01*
X143870784Y-134817462D01*
X143998338Y-134945016D01*
X144088680Y-135001782D01*
X144116574Y-135019309D01*
X144151078Y-135040989D01*
X144256452Y-135077861D01*
X144321345Y-135100568D01*
X144321350Y-135100569D01*
X144500596Y-135120765D01*
X144500600Y-135120765D01*
X144500604Y-135120765D01*
X144679849Y-135100569D01*
X144679852Y-135100568D01*
X144679855Y-135100568D01*
X144850122Y-135040989D01*
X145002862Y-134945016D01*
X145130416Y-134817462D01*
X145226389Y-134664722D01*
X145285968Y-134494455D01*
X145306165Y-134315200D01*
X145306165Y-134315196D01*
X146235035Y-134315196D01*
X146235035Y-134315203D01*
X146255230Y-134494449D01*
X146255231Y-134494454D01*
X146314811Y-134664723D01*
X146410784Y-134817462D01*
X146538338Y-134945016D01*
X146628680Y-135001782D01*
X146656574Y-135019309D01*
X146691078Y-135040989D01*
X146796452Y-135077861D01*
X146861345Y-135100568D01*
X146861350Y-135100569D01*
X147040596Y-135120765D01*
X147040600Y-135120765D01*
X147040604Y-135120765D01*
X147219849Y-135100569D01*
X147219852Y-135100568D01*
X147219855Y-135100568D01*
X147390122Y-135040989D01*
X147542862Y-134945016D01*
X147670416Y-134817462D01*
X147766389Y-134664722D01*
X147825968Y-134494455D01*
X147846165Y-134315200D01*
X147846165Y-134315196D01*
X148775035Y-134315196D01*
X148775035Y-134315203D01*
X148795230Y-134494449D01*
X148795231Y-134494454D01*
X148854811Y-134664723D01*
X148950784Y-134817462D01*
X149078338Y-134945016D01*
X149168680Y-135001782D01*
X149196574Y-135019309D01*
X149231078Y-135040989D01*
X149336452Y-135077861D01*
X149401345Y-135100568D01*
X149401350Y-135100569D01*
X149580596Y-135120765D01*
X149580600Y-135120765D01*
X149580604Y-135120765D01*
X149759849Y-135100569D01*
X149759852Y-135100568D01*
X149759855Y-135100568D01*
X149930122Y-135040989D01*
X150082862Y-134945016D01*
X150210416Y-134817462D01*
X150306389Y-134664722D01*
X150365968Y-134494455D01*
X150386165Y-134315200D01*
X150370601Y-134177066D01*
X150365969Y-134135950D01*
X150365968Y-134135945D01*
X150306388Y-133965676D01*
X150210415Y-133812937D01*
X150082862Y-133685384D01*
X149930123Y-133589411D01*
X149759854Y-133529831D01*
X149759849Y-133529830D01*
X149580604Y-133509635D01*
X149580596Y-133509635D01*
X149401350Y-133529830D01*
X149401345Y-133529831D01*
X149231076Y-133589411D01*
X149078337Y-133685384D01*
X148950784Y-133812937D01*
X148854811Y-133965676D01*
X148795231Y-134135945D01*
X148795230Y-134135950D01*
X148775035Y-134315196D01*
X147846165Y-134315196D01*
X147830601Y-134177066D01*
X147825969Y-134135950D01*
X147825968Y-134135945D01*
X147766388Y-133965676D01*
X147670415Y-133812937D01*
X147542862Y-133685384D01*
X147390123Y-133589411D01*
X147219854Y-133529831D01*
X147219849Y-133529830D01*
X147040604Y-133509635D01*
X147040596Y-133509635D01*
X146861350Y-133529830D01*
X146861345Y-133529831D01*
X146691076Y-133589411D01*
X146538337Y-133685384D01*
X146410784Y-133812937D01*
X146314811Y-133965676D01*
X146255231Y-134135945D01*
X146255230Y-134135950D01*
X146235035Y-134315196D01*
X145306165Y-134315196D01*
X145290601Y-134177066D01*
X145285969Y-134135950D01*
X145285968Y-134135945D01*
X145226388Y-133965676D01*
X145130415Y-133812937D01*
X145002862Y-133685384D01*
X144850123Y-133589411D01*
X144679854Y-133529831D01*
X144679849Y-133529830D01*
X144500604Y-133509635D01*
X144500596Y-133509635D01*
X144321350Y-133529830D01*
X144321345Y-133529831D01*
X144151076Y-133589411D01*
X143998337Y-133685384D01*
X143870784Y-133812937D01*
X143774811Y-133965676D01*
X143715231Y-134135945D01*
X143715230Y-134135950D01*
X143695035Y-134315196D01*
X142766165Y-134315196D01*
X142750601Y-134177066D01*
X142745969Y-134135950D01*
X142745968Y-134135945D01*
X142686388Y-133965676D01*
X142590415Y-133812937D01*
X142462862Y-133685384D01*
X142310123Y-133589411D01*
X142139854Y-133529831D01*
X142139849Y-133529830D01*
X141960604Y-133509635D01*
X141960596Y-133509635D01*
X141781350Y-133529830D01*
X141781345Y-133529831D01*
X141611076Y-133589411D01*
X141458337Y-133685384D01*
X141330784Y-133812937D01*
X141234811Y-133965676D01*
X141175231Y-134135945D01*
X141175230Y-134135950D01*
X141155035Y-134315196D01*
X139693173Y-134315196D01*
X139693906Y-133476996D01*
X150984835Y-133476996D01*
X150984835Y-133477003D01*
X151005030Y-133656249D01*
X151005031Y-133656254D01*
X151064611Y-133826523D01*
X151160584Y-133979262D01*
X151288140Y-134106818D01*
X151316651Y-134124732D01*
X151362943Y-134177066D01*
X151373901Y-134243608D01*
X151365836Y-134315196D01*
X151365835Y-134315204D01*
X151386030Y-134494449D01*
X151386031Y-134494454D01*
X151445611Y-134664723D01*
X151541584Y-134817462D01*
X151669138Y-134945016D01*
X151759480Y-135001782D01*
X151787374Y-135019309D01*
X151821878Y-135040989D01*
X151927252Y-135077861D01*
X151992145Y-135100568D01*
X151992150Y-135100569D01*
X152171396Y-135120765D01*
X152171400Y-135120765D01*
X152171404Y-135120765D01*
X152350649Y-135100569D01*
X152350652Y-135100568D01*
X152350655Y-135100568D01*
X152520922Y-135040989D01*
X152673662Y-134945016D01*
X152801216Y-134817462D01*
X152897189Y-134664722D01*
X152956768Y-134494455D01*
X152976965Y-134315200D01*
X152976965Y-134315196D01*
X153905835Y-134315196D01*
X153905835Y-134315203D01*
X153926030Y-134494449D01*
X153926031Y-134494454D01*
X153985611Y-134664723D01*
X154081584Y-134817462D01*
X154209138Y-134945016D01*
X154299480Y-135001782D01*
X154327374Y-135019309D01*
X154361878Y-135040989D01*
X154467252Y-135077861D01*
X154532145Y-135100568D01*
X154532150Y-135100569D01*
X154711396Y-135120765D01*
X154711400Y-135120765D01*
X154711404Y-135120765D01*
X154890649Y-135100569D01*
X154890652Y-135100568D01*
X154890655Y-135100568D01*
X155060922Y-135040989D01*
X155213662Y-134945016D01*
X155341216Y-134817462D01*
X155437189Y-134664722D01*
X155496768Y-134494455D01*
X155516965Y-134315200D01*
X155516965Y-134315196D01*
X156445835Y-134315196D01*
X156445835Y-134315203D01*
X156466030Y-134494449D01*
X156466031Y-134494454D01*
X156525611Y-134664723D01*
X156621584Y-134817462D01*
X156749138Y-134945016D01*
X156839480Y-135001782D01*
X156867374Y-135019309D01*
X156901878Y-135040989D01*
X157007252Y-135077861D01*
X157072145Y-135100568D01*
X157072150Y-135100569D01*
X157251396Y-135120765D01*
X157251400Y-135120765D01*
X157251404Y-135120765D01*
X157430649Y-135100569D01*
X157430652Y-135100568D01*
X157430655Y-135100568D01*
X157600922Y-135040989D01*
X157753662Y-134945016D01*
X157881216Y-134817462D01*
X157977189Y-134664722D01*
X158036768Y-134494455D01*
X158056965Y-134315200D01*
X158056965Y-134315196D01*
X158985835Y-134315196D01*
X158985835Y-134315203D01*
X159006030Y-134494449D01*
X159006031Y-134494454D01*
X159065611Y-134664723D01*
X159161584Y-134817462D01*
X159289138Y-134945016D01*
X159379480Y-135001782D01*
X159407374Y-135019309D01*
X159441878Y-135040989D01*
X159547252Y-135077861D01*
X159612145Y-135100568D01*
X159612150Y-135100569D01*
X159791396Y-135120765D01*
X159791400Y-135120765D01*
X159791404Y-135120765D01*
X159970649Y-135100569D01*
X159970652Y-135100568D01*
X159970655Y-135100568D01*
X160140922Y-135040989D01*
X160293662Y-134945016D01*
X160421216Y-134817462D01*
X160517189Y-134664722D01*
X160576768Y-134494455D01*
X160596965Y-134315200D01*
X160596965Y-134315196D01*
X161525835Y-134315196D01*
X161525835Y-134315203D01*
X161546030Y-134494449D01*
X161546031Y-134494454D01*
X161605611Y-134664723D01*
X161701584Y-134817462D01*
X161829138Y-134945016D01*
X161919480Y-135001782D01*
X161947374Y-135019309D01*
X161981878Y-135040989D01*
X162087252Y-135077861D01*
X162152145Y-135100568D01*
X162152150Y-135100569D01*
X162331396Y-135120765D01*
X162331400Y-135120765D01*
X162331404Y-135120765D01*
X162510649Y-135100569D01*
X162510652Y-135100568D01*
X162510655Y-135100568D01*
X162680922Y-135040989D01*
X162833662Y-134945016D01*
X162961216Y-134817462D01*
X163057189Y-134664722D01*
X163116768Y-134494455D01*
X163136965Y-134315200D01*
X163136965Y-134315196D01*
X164065835Y-134315196D01*
X164065835Y-134315203D01*
X164086030Y-134494449D01*
X164086031Y-134494454D01*
X164145611Y-134664723D01*
X164241584Y-134817462D01*
X164369138Y-134945016D01*
X164459480Y-135001782D01*
X164487374Y-135019309D01*
X164521878Y-135040989D01*
X164627252Y-135077861D01*
X164692145Y-135100568D01*
X164692150Y-135100569D01*
X164871396Y-135120765D01*
X164871400Y-135120765D01*
X164871404Y-135120765D01*
X165050649Y-135100569D01*
X165050652Y-135100568D01*
X165050655Y-135100568D01*
X165220922Y-135040989D01*
X165373662Y-134945016D01*
X165501216Y-134817462D01*
X165597189Y-134664722D01*
X165656768Y-134494455D01*
X165676965Y-134315200D01*
X165676965Y-134315196D01*
X166605835Y-134315196D01*
X166605835Y-134315203D01*
X166626030Y-134494449D01*
X166626031Y-134494454D01*
X166685611Y-134664723D01*
X166781584Y-134817462D01*
X166909138Y-134945016D01*
X166999480Y-135001782D01*
X167027374Y-135019309D01*
X167061878Y-135040989D01*
X167167252Y-135077861D01*
X167232145Y-135100568D01*
X167232150Y-135100569D01*
X167411396Y-135120765D01*
X167411400Y-135120765D01*
X167411404Y-135120765D01*
X167590649Y-135100569D01*
X167590652Y-135100568D01*
X167590655Y-135100568D01*
X167760922Y-135040989D01*
X167913662Y-134945016D01*
X168041216Y-134817462D01*
X168137189Y-134664722D01*
X168196768Y-134494455D01*
X168216965Y-134315200D01*
X168216965Y-134315196D01*
X179305835Y-134315196D01*
X179305835Y-134315203D01*
X179326030Y-134494449D01*
X179326031Y-134494454D01*
X179385611Y-134664723D01*
X179481584Y-134817462D01*
X179609138Y-134945016D01*
X179699480Y-135001782D01*
X179727374Y-135019309D01*
X179761878Y-135040989D01*
X179867252Y-135077861D01*
X179932145Y-135100568D01*
X179932150Y-135100569D01*
X180111396Y-135120765D01*
X180111400Y-135120765D01*
X180111404Y-135120765D01*
X180290649Y-135100569D01*
X180290652Y-135100568D01*
X180290655Y-135100568D01*
X180460922Y-135040989D01*
X180613662Y-134945016D01*
X180741216Y-134817462D01*
X180837189Y-134664722D01*
X180896768Y-134494455D01*
X180916965Y-134315200D01*
X180916965Y-134315196D01*
X181845835Y-134315196D01*
X181845835Y-134315203D01*
X181866030Y-134494449D01*
X181866031Y-134494454D01*
X181925611Y-134664723D01*
X182021584Y-134817462D01*
X182149138Y-134945016D01*
X182239480Y-135001782D01*
X182267374Y-135019309D01*
X182301878Y-135040989D01*
X182407252Y-135077861D01*
X182472145Y-135100568D01*
X182472150Y-135100569D01*
X182651396Y-135120765D01*
X182651400Y-135120765D01*
X182651404Y-135120765D01*
X182830649Y-135100569D01*
X182830652Y-135100568D01*
X182830655Y-135100568D01*
X183000922Y-135040989D01*
X183153662Y-134945016D01*
X183281216Y-134817462D01*
X183377189Y-134664722D01*
X183436768Y-134494455D01*
X183456965Y-134315200D01*
X183456965Y-134315196D01*
X184385835Y-134315196D01*
X184385835Y-134315203D01*
X184406030Y-134494449D01*
X184406031Y-134494454D01*
X184465611Y-134664723D01*
X184561584Y-134817462D01*
X184689138Y-134945016D01*
X184779480Y-135001782D01*
X184807374Y-135019309D01*
X184841878Y-135040989D01*
X184947252Y-135077861D01*
X185012145Y-135100568D01*
X185012150Y-135100569D01*
X185191396Y-135120765D01*
X185191400Y-135120765D01*
X185191404Y-135120765D01*
X185370649Y-135100569D01*
X185370652Y-135100568D01*
X185370655Y-135100568D01*
X185540922Y-135040989D01*
X185693662Y-134945016D01*
X185821216Y-134817462D01*
X185917189Y-134664722D01*
X185976768Y-134494455D01*
X185996965Y-134315200D01*
X185996965Y-134315196D01*
X186925835Y-134315196D01*
X186925835Y-134315203D01*
X186946030Y-134494449D01*
X186946031Y-134494454D01*
X187005611Y-134664723D01*
X187101584Y-134817462D01*
X187229138Y-134945016D01*
X187319480Y-135001782D01*
X187347374Y-135019309D01*
X187381878Y-135040989D01*
X187487252Y-135077861D01*
X187552145Y-135100568D01*
X187552150Y-135100569D01*
X187731396Y-135120765D01*
X187731400Y-135120765D01*
X187731404Y-135120765D01*
X187910649Y-135100569D01*
X187910652Y-135100568D01*
X187910655Y-135100568D01*
X188080922Y-135040989D01*
X188233662Y-134945016D01*
X188361216Y-134817462D01*
X188457189Y-134664722D01*
X188516768Y-134494455D01*
X188536965Y-134315200D01*
X188521401Y-134177066D01*
X188516769Y-134135950D01*
X188516768Y-134135945D01*
X188457188Y-133965676D01*
X188361215Y-133812937D01*
X188233662Y-133685384D01*
X188080923Y-133589411D01*
X187910654Y-133529831D01*
X187910649Y-133529830D01*
X187731404Y-133509635D01*
X187731396Y-133509635D01*
X187552150Y-133529830D01*
X187552145Y-133529831D01*
X187381876Y-133589411D01*
X187229137Y-133685384D01*
X187101584Y-133812937D01*
X187005611Y-133965676D01*
X186946031Y-134135945D01*
X186946030Y-134135950D01*
X186925835Y-134315196D01*
X185996965Y-134315196D01*
X185981401Y-134177066D01*
X185976769Y-134135950D01*
X185976768Y-134135945D01*
X185917188Y-133965676D01*
X185821215Y-133812937D01*
X185693662Y-133685384D01*
X185540923Y-133589411D01*
X185370654Y-133529831D01*
X185370649Y-133529830D01*
X185191404Y-133509635D01*
X185191396Y-133509635D01*
X185012150Y-133529830D01*
X185012145Y-133529831D01*
X184841876Y-133589411D01*
X184689137Y-133685384D01*
X184561584Y-133812937D01*
X184465611Y-133965676D01*
X184406031Y-134135945D01*
X184406030Y-134135950D01*
X184385835Y-134315196D01*
X183456965Y-134315196D01*
X183441401Y-134177066D01*
X183436769Y-134135950D01*
X183436768Y-134135945D01*
X183377188Y-133965676D01*
X183281215Y-133812937D01*
X183153662Y-133685384D01*
X183000923Y-133589411D01*
X182830654Y-133529831D01*
X182830649Y-133529830D01*
X182651404Y-133509635D01*
X182651396Y-133509635D01*
X182472150Y-133529830D01*
X182472145Y-133529831D01*
X182301876Y-133589411D01*
X182149137Y-133685384D01*
X182021584Y-133812937D01*
X181925611Y-133965676D01*
X181866031Y-134135945D01*
X181866030Y-134135950D01*
X181845835Y-134315196D01*
X180916965Y-134315196D01*
X180901401Y-134177066D01*
X180896769Y-134135950D01*
X180896768Y-134135945D01*
X180837188Y-133965676D01*
X180741215Y-133812937D01*
X180613662Y-133685384D01*
X180460923Y-133589411D01*
X180290654Y-133529831D01*
X180290649Y-133529830D01*
X180111404Y-133509635D01*
X180111396Y-133509635D01*
X179932150Y-133529830D01*
X179932145Y-133529831D01*
X179761876Y-133589411D01*
X179609137Y-133685384D01*
X179481584Y-133812937D01*
X179385611Y-133965676D01*
X179326031Y-134135945D01*
X179326030Y-134135950D01*
X179305835Y-134315196D01*
X168216965Y-134315196D01*
X168201401Y-134177066D01*
X168196769Y-134135950D01*
X168196768Y-134135945D01*
X168137188Y-133965676D01*
X168041215Y-133812937D01*
X167913662Y-133685384D01*
X167760923Y-133589411D01*
X167590654Y-133529831D01*
X167590649Y-133529830D01*
X167411404Y-133509635D01*
X167411396Y-133509635D01*
X167232150Y-133529830D01*
X167232145Y-133529831D01*
X167061876Y-133589411D01*
X166909137Y-133685384D01*
X166781584Y-133812937D01*
X166685611Y-133965676D01*
X166626031Y-134135945D01*
X166626030Y-134135950D01*
X166605835Y-134315196D01*
X165676965Y-134315196D01*
X165661401Y-134177066D01*
X165656769Y-134135950D01*
X165656768Y-134135945D01*
X165597188Y-133965676D01*
X165501215Y-133812937D01*
X165373662Y-133685384D01*
X165220923Y-133589411D01*
X165050654Y-133529831D01*
X165050649Y-133529830D01*
X164871404Y-133509635D01*
X164871396Y-133509635D01*
X164692150Y-133529830D01*
X164692145Y-133529831D01*
X164521876Y-133589411D01*
X164369137Y-133685384D01*
X164241584Y-133812937D01*
X164145611Y-133965676D01*
X164086031Y-134135945D01*
X164086030Y-134135950D01*
X164065835Y-134315196D01*
X163136965Y-134315196D01*
X163121401Y-134177066D01*
X163116769Y-134135950D01*
X163116768Y-134135945D01*
X163057188Y-133965676D01*
X162961215Y-133812937D01*
X162833662Y-133685384D01*
X162680923Y-133589411D01*
X162510654Y-133529831D01*
X162510649Y-133529830D01*
X162331404Y-133509635D01*
X162331396Y-133509635D01*
X162152150Y-133529830D01*
X162152145Y-133529831D01*
X161981876Y-133589411D01*
X161829137Y-133685384D01*
X161701584Y-133812937D01*
X161605611Y-133965676D01*
X161546031Y-134135945D01*
X161546030Y-134135950D01*
X161525835Y-134315196D01*
X160596965Y-134315196D01*
X160581401Y-134177066D01*
X160576769Y-134135950D01*
X160576768Y-134135945D01*
X160517188Y-133965676D01*
X160421215Y-133812937D01*
X160293662Y-133685384D01*
X160293659Y-133685382D01*
X160285999Y-133680569D01*
X160239708Y-133628236D01*
X160229058Y-133559183D01*
X160257432Y-133495334D01*
X160288386Y-133471423D01*
X160287426Y-133469894D01*
X160355116Y-133427361D01*
X160446062Y-133370216D01*
X160573616Y-133242662D01*
X160669589Y-133089922D01*
X160729168Y-132919655D01*
X160735285Y-132865368D01*
X160749365Y-132740403D01*
X160749365Y-132740396D01*
X160729169Y-132561150D01*
X160729168Y-132561145D01*
X160711190Y-132509768D01*
X160669589Y-132390878D01*
X160573616Y-132238138D01*
X160446062Y-132110584D01*
X160397382Y-132079996D01*
X160293323Y-132014611D01*
X160123054Y-131955031D01*
X160123049Y-131955030D01*
X159943804Y-131934835D01*
X159943796Y-131934835D01*
X159764550Y-131955030D01*
X159764545Y-131955031D01*
X159594276Y-132014611D01*
X159441537Y-132110584D01*
X159313984Y-132238137D01*
X159218011Y-132390876D01*
X159158431Y-132561145D01*
X159158430Y-132561150D01*
X159138235Y-132740396D01*
X159138235Y-132740403D01*
X159158430Y-132919649D01*
X159158431Y-132919654D01*
X159218011Y-133089923D01*
X159241609Y-133127478D01*
X159313984Y-133242662D01*
X159441538Y-133370216D01*
X159449197Y-133375029D01*
X159495490Y-133427361D01*
X159506141Y-133496414D01*
X159477768Y-133560263D01*
X159446821Y-133584189D01*
X159447774Y-133585706D01*
X159289137Y-133685384D01*
X159161584Y-133812937D01*
X159065611Y-133965676D01*
X159006031Y-134135945D01*
X159006030Y-134135950D01*
X158985835Y-134315196D01*
X158056965Y-134315196D01*
X158041401Y-134177066D01*
X158036769Y-134135950D01*
X158036768Y-134135945D01*
X157977188Y-133965676D01*
X157881215Y-133812937D01*
X157753662Y-133685384D01*
X157600923Y-133589411D01*
X157430654Y-133529831D01*
X157430649Y-133529830D01*
X157251404Y-133509635D01*
X157251396Y-133509635D01*
X157072150Y-133529830D01*
X157072145Y-133529831D01*
X156901876Y-133589411D01*
X156749137Y-133685384D01*
X156621584Y-133812937D01*
X156525611Y-133965676D01*
X156466031Y-134135945D01*
X156466030Y-134135950D01*
X156445835Y-134315196D01*
X155516965Y-134315196D01*
X155501401Y-134177066D01*
X155496769Y-134135950D01*
X155496768Y-134135945D01*
X155437188Y-133965676D01*
X155341215Y-133812937D01*
X155213662Y-133685384D01*
X155060923Y-133589411D01*
X154890654Y-133529831D01*
X154890649Y-133529830D01*
X154711404Y-133509635D01*
X154711396Y-133509635D01*
X154532150Y-133529830D01*
X154532145Y-133529831D01*
X154361876Y-133589411D01*
X154209137Y-133685384D01*
X154081584Y-133812937D01*
X153985611Y-133965676D01*
X153926031Y-134135945D01*
X153926030Y-134135950D01*
X153905835Y-134315196D01*
X152976965Y-134315196D01*
X152961401Y-134177066D01*
X152956769Y-134135950D01*
X152956768Y-134135945D01*
X152897188Y-133965676D01*
X152801215Y-133812937D01*
X152673662Y-133685384D01*
X152673659Y-133685382D01*
X152645147Y-133667467D01*
X152598855Y-133615133D01*
X152587898Y-133548591D01*
X152595965Y-133477000D01*
X152595164Y-133469894D01*
X152575769Y-133297750D01*
X152575768Y-133297745D01*
X152516188Y-133127476D01*
X152420215Y-132974737D01*
X152292662Y-132847184D01*
X152139923Y-132751211D01*
X151969654Y-132691631D01*
X151969649Y-132691630D01*
X151790404Y-132671435D01*
X151790396Y-132671435D01*
X151611150Y-132691630D01*
X151611145Y-132691631D01*
X151440876Y-132751211D01*
X151288137Y-132847184D01*
X151160584Y-132974737D01*
X151064611Y-133127476D01*
X151005031Y-133297745D01*
X151005030Y-133297750D01*
X150984835Y-133476996D01*
X139693906Y-133476996D01*
X139704591Y-121259599D01*
X140350941Y-121259599D01*
X140350941Y-121259600D01*
X140371536Y-121495003D01*
X140371538Y-121495013D01*
X140432694Y-121723255D01*
X140432696Y-121723259D01*
X140432697Y-121723263D01*
X140494526Y-121855855D01*
X140532565Y-121937430D01*
X140532567Y-121937434D01*
X140668101Y-122130995D01*
X140668106Y-122131002D01*
X140835197Y-122298093D01*
X140835203Y-122298098D01*
X141020758Y-122428025D01*
X141064383Y-122482602D01*
X141071577Y-122552100D01*
X141040054Y-122614455D01*
X141020758Y-122631175D01*
X140835197Y-122761105D01*
X140668105Y-122928197D01*
X140532565Y-123121769D01*
X140532564Y-123121771D01*
X140432698Y-123335935D01*
X140432694Y-123335944D01*
X140371538Y-123564186D01*
X140371536Y-123564196D01*
X140350941Y-123799599D01*
X140350941Y-123799600D01*
X140371536Y-124035003D01*
X140371538Y-124035013D01*
X140432694Y-124263255D01*
X140432696Y-124263259D01*
X140432697Y-124263263D01*
X140506397Y-124421313D01*
X140532565Y-124477430D01*
X140532567Y-124477434D01*
X140631598Y-124618864D01*
X140664705Y-124666146D01*
X140668101Y-124670995D01*
X140668106Y-124671002D01*
X140835197Y-124838093D01*
X140835203Y-124838098D01*
X141020758Y-124968025D01*
X141064383Y-125022602D01*
X141071577Y-125092100D01*
X141040054Y-125154455D01*
X141020758Y-125171175D01*
X140835197Y-125301105D01*
X140668105Y-125468197D01*
X140532565Y-125661769D01*
X140532564Y-125661771D01*
X140432698Y-125875935D01*
X140432694Y-125875944D01*
X140371538Y-126104186D01*
X140371536Y-126104196D01*
X140350941Y-126339599D01*
X140350941Y-126339600D01*
X140371536Y-126575003D01*
X140371538Y-126575013D01*
X140432694Y-126803255D01*
X140432696Y-126803259D01*
X140432697Y-126803263D01*
X140515010Y-126979784D01*
X140532565Y-127017430D01*
X140532567Y-127017434D01*
X140668101Y-127210995D01*
X140668106Y-127211002D01*
X140835197Y-127378093D01*
X140835203Y-127378098D01*
X141020758Y-127508025D01*
X141064383Y-127562602D01*
X141071577Y-127632100D01*
X141040054Y-127694455D01*
X141020758Y-127711175D01*
X140835197Y-127841105D01*
X140668105Y-128008197D01*
X140532565Y-128201769D01*
X140532564Y-128201771D01*
X140432698Y-128415935D01*
X140432694Y-128415944D01*
X140371538Y-128644186D01*
X140371536Y-128644196D01*
X140350941Y-128879599D01*
X140350941Y-128879600D01*
X140371536Y-129115003D01*
X140371538Y-129115013D01*
X140432694Y-129343255D01*
X140432696Y-129343259D01*
X140432697Y-129343263D01*
X140497375Y-129481965D01*
X140532565Y-129557430D01*
X140532567Y-129557434D01*
X140668101Y-129750995D01*
X140668106Y-129751002D01*
X140835197Y-129918093D01*
X140835203Y-129918098D01*
X141020758Y-130048025D01*
X141064383Y-130102602D01*
X141071577Y-130172100D01*
X141040054Y-130234455D01*
X141020758Y-130251175D01*
X140835197Y-130381105D01*
X140668105Y-130548197D01*
X140532565Y-130741769D01*
X140532564Y-130741771D01*
X140432698Y-130955935D01*
X140432694Y-130955944D01*
X140371538Y-131184186D01*
X140371536Y-131184196D01*
X140350941Y-131419599D01*
X140350941Y-131419600D01*
X140371536Y-131655003D01*
X140371538Y-131655013D01*
X140432694Y-131883255D01*
X140432696Y-131883259D01*
X140432697Y-131883263D01*
X140524435Y-132079996D01*
X140532565Y-132097430D01*
X140532567Y-132097434D01*
X140631598Y-132238864D01*
X140668105Y-132291001D01*
X140835199Y-132458095D01*
X140896458Y-132500989D01*
X141028765Y-132593632D01*
X141028767Y-132593633D01*
X141028770Y-132593635D01*
X141242937Y-132693503D01*
X141471192Y-132754663D01*
X141659518Y-132771139D01*
X141706599Y-132775259D01*
X141706600Y-132775259D01*
X141706601Y-132775259D01*
X141745834Y-132771826D01*
X141942008Y-132754663D01*
X142170263Y-132693503D01*
X142384430Y-132593635D01*
X142578001Y-132458095D01*
X142745095Y-132291001D01*
X142880635Y-132097430D01*
X142980503Y-131883263D01*
X143009459Y-131775196D01*
X143695035Y-131775196D01*
X143695035Y-131775203D01*
X143715230Y-131954449D01*
X143715231Y-131954454D01*
X143774811Y-132124723D01*
X143846531Y-132238864D01*
X143870784Y-132277462D01*
X143998338Y-132405016D01*
X144151078Y-132500989D01*
X144233887Y-132529965D01*
X144321345Y-132560568D01*
X144321350Y-132560569D01*
X144500596Y-132580765D01*
X144500600Y-132580765D01*
X144500604Y-132580765D01*
X144679849Y-132560569D01*
X144679852Y-132560568D01*
X144679855Y-132560568D01*
X144850122Y-132500989D01*
X145002862Y-132405016D01*
X145130416Y-132277462D01*
X145226389Y-132124722D01*
X145285968Y-131954455D01*
X145291692Y-131903654D01*
X145306165Y-131775203D01*
X145306165Y-131775196D01*
X145300441Y-131724396D01*
X146158835Y-131724396D01*
X146158835Y-131724403D01*
X146179030Y-131903649D01*
X146179031Y-131903654D01*
X146238611Y-132073923D01*
X146270531Y-132124723D01*
X146334584Y-132226662D01*
X146462138Y-132354216D01*
X146520482Y-132390876D01*
X146581986Y-132429522D01*
X146614878Y-132450189D01*
X146637481Y-132458098D01*
X146785145Y-132509768D01*
X146785150Y-132509769D01*
X146964396Y-132529965D01*
X146964400Y-132529965D01*
X146964404Y-132529965D01*
X147143649Y-132509769D01*
X147143652Y-132509768D01*
X147143655Y-132509768D01*
X147313922Y-132450189D01*
X147466662Y-132354216D01*
X147594216Y-132226662D01*
X147686372Y-132079996D01*
X155531435Y-132079996D01*
X155531435Y-132080003D01*
X155551630Y-132259249D01*
X155551631Y-132259254D01*
X155611211Y-132429523D01*
X155693553Y-132560568D01*
X155707184Y-132582262D01*
X155834738Y-132709816D01*
X155987478Y-132805789D01*
X156010081Y-132813698D01*
X156157745Y-132865368D01*
X156157750Y-132865369D01*
X156336996Y-132885565D01*
X156337000Y-132885565D01*
X156337004Y-132885565D01*
X156516249Y-132865369D01*
X156516252Y-132865368D01*
X156516255Y-132865368D01*
X156686522Y-132805789D01*
X156839262Y-132709816D01*
X156966816Y-132582262D01*
X157062789Y-132429522D01*
X157122368Y-132259255D01*
X157122369Y-132259249D01*
X157142565Y-132080003D01*
X157142565Y-132079996D01*
X157122369Y-131900750D01*
X157122368Y-131900745D01*
X157095503Y-131823969D01*
X157062789Y-131730478D01*
X157058967Y-131724396D01*
X156966815Y-131577737D01*
X156839262Y-131450184D01*
X156686523Y-131354211D01*
X156516254Y-131294631D01*
X156516249Y-131294630D01*
X156337004Y-131274435D01*
X156336996Y-131274435D01*
X156157750Y-131294630D01*
X156157745Y-131294631D01*
X155987476Y-131354211D01*
X155834737Y-131450184D01*
X155707184Y-131577737D01*
X155611211Y-131730476D01*
X155551631Y-131900745D01*
X155551630Y-131900750D01*
X155531435Y-132079996D01*
X147686372Y-132079996D01*
X147690189Y-132073922D01*
X147749768Y-131903655D01*
X147749769Y-131903649D01*
X147769965Y-131724403D01*
X147769965Y-131724396D01*
X147749769Y-131545150D01*
X147749768Y-131545145D01*
X147716540Y-131450184D01*
X147690189Y-131374878D01*
X147594216Y-131222138D01*
X147466662Y-131094584D01*
X147377569Y-131038603D01*
X147377558Y-131038596D01*
X160890835Y-131038596D01*
X160890835Y-131038603D01*
X160911030Y-131217849D01*
X160911031Y-131217854D01*
X160970611Y-131388123D01*
X160994209Y-131425678D01*
X161066584Y-131540862D01*
X161194138Y-131668416D01*
X161346878Y-131764389D01*
X161377783Y-131775203D01*
X161517145Y-131823968D01*
X161517150Y-131823969D01*
X161696396Y-131844165D01*
X161696400Y-131844165D01*
X161696404Y-131844165D01*
X161875649Y-131823969D01*
X161875652Y-131823968D01*
X161875655Y-131823968D01*
X162015037Y-131775196D01*
X164065835Y-131775196D01*
X164065835Y-131775203D01*
X164086030Y-131954449D01*
X164086031Y-131954454D01*
X164145611Y-132124723D01*
X164217331Y-132238864D01*
X164241584Y-132277462D01*
X164369138Y-132405016D01*
X164521878Y-132500989D01*
X164604687Y-132529965D01*
X164692145Y-132560568D01*
X164692150Y-132560569D01*
X164871396Y-132580765D01*
X164871400Y-132580765D01*
X164871404Y-132580765D01*
X165050649Y-132560569D01*
X165050652Y-132560568D01*
X165050655Y-132560568D01*
X165220922Y-132500989D01*
X165373662Y-132405016D01*
X165501216Y-132277462D01*
X165597189Y-132124722D01*
X165656768Y-131954455D01*
X165662492Y-131903654D01*
X165676965Y-131775203D01*
X165676965Y-131775196D01*
X166605835Y-131775196D01*
X166605835Y-131775203D01*
X166626030Y-131954449D01*
X166626031Y-131954454D01*
X166685611Y-132124723D01*
X166757331Y-132238864D01*
X166781584Y-132277462D01*
X166909138Y-132405016D01*
X167061878Y-132500989D01*
X167144687Y-132529965D01*
X167232145Y-132560568D01*
X167232150Y-132560569D01*
X167411396Y-132580765D01*
X167411400Y-132580765D01*
X167411404Y-132580765D01*
X167590649Y-132560569D01*
X167590652Y-132560568D01*
X167590655Y-132560568D01*
X167760922Y-132500989D01*
X167913662Y-132405016D01*
X168041216Y-132277462D01*
X168137189Y-132124722D01*
X168196768Y-131954455D01*
X168202492Y-131903654D01*
X168216965Y-131775203D01*
X168216965Y-131775196D01*
X181845835Y-131775196D01*
X181845835Y-131775203D01*
X181866030Y-131954449D01*
X181866031Y-131954454D01*
X181925611Y-132124723D01*
X181997331Y-132238864D01*
X182021584Y-132277462D01*
X182149138Y-132405016D01*
X182301878Y-132500989D01*
X182384687Y-132529965D01*
X182472145Y-132560568D01*
X182472150Y-132560569D01*
X182651396Y-132580765D01*
X182651400Y-132580765D01*
X182651404Y-132580765D01*
X182830649Y-132560569D01*
X182830652Y-132560568D01*
X182830655Y-132560568D01*
X183000922Y-132500989D01*
X183153662Y-132405016D01*
X183281216Y-132277462D01*
X183377189Y-132124722D01*
X183436768Y-131954455D01*
X183442492Y-131903654D01*
X183456965Y-131775203D01*
X183456965Y-131775196D01*
X184385835Y-131775196D01*
X184385835Y-131775203D01*
X184406030Y-131954449D01*
X184406031Y-131954454D01*
X184465611Y-132124723D01*
X184537331Y-132238864D01*
X184561584Y-132277462D01*
X184689138Y-132405016D01*
X184841878Y-132500989D01*
X184924687Y-132529965D01*
X185012145Y-132560568D01*
X185012150Y-132560569D01*
X185191396Y-132580765D01*
X185191400Y-132580765D01*
X185191404Y-132580765D01*
X185370649Y-132560569D01*
X185370652Y-132560568D01*
X185370655Y-132560568D01*
X185540922Y-132500989D01*
X185693662Y-132405016D01*
X185821216Y-132277462D01*
X185917189Y-132124722D01*
X185976768Y-131954455D01*
X185982492Y-131903654D01*
X185996965Y-131775203D01*
X185996965Y-131775199D01*
X187188541Y-131775199D01*
X187188541Y-131775200D01*
X187209136Y-132010603D01*
X187209138Y-132010613D01*
X187270294Y-132238855D01*
X187270296Y-132238859D01*
X187270297Y-132238863D01*
X187368840Y-132450188D01*
X187370165Y-132453030D01*
X187370167Y-132453034D01*
X187459606Y-132580765D01*
X187505705Y-132646601D01*
X187672799Y-132813695D01*
X187746596Y-132865368D01*
X187866365Y-132949232D01*
X187866367Y-132949233D01*
X187866370Y-132949235D01*
X188080537Y-133049103D01*
X188308792Y-133110263D01*
X188497118Y-133126739D01*
X188544199Y-133130859D01*
X188544200Y-133130859D01*
X188544201Y-133130859D01*
X188583434Y-133127426D01*
X188779608Y-133110263D01*
X189007863Y-133049103D01*
X189222030Y-132949235D01*
X189415601Y-132813695D01*
X189582695Y-132646601D01*
X189718235Y-132453030D01*
X189818103Y-132238863D01*
X189879263Y-132010608D01*
X189899859Y-131775200D01*
X189879263Y-131539792D01*
X189818103Y-131311537D01*
X189718235Y-131097371D01*
X189684654Y-131049411D01*
X189582694Y-130903797D01*
X189415602Y-130736706D01*
X189415595Y-130736701D01*
X189222034Y-130601167D01*
X189222030Y-130601165D01*
X189108444Y-130548199D01*
X189007863Y-130501297D01*
X189007859Y-130501296D01*
X189007855Y-130501294D01*
X188779613Y-130440138D01*
X188779603Y-130440136D01*
X188544201Y-130419541D01*
X188544199Y-130419541D01*
X188308796Y-130440136D01*
X188308786Y-130440138D01*
X188080544Y-130501294D01*
X188080535Y-130501298D01*
X187866371Y-130601164D01*
X187866369Y-130601165D01*
X187672797Y-130736705D01*
X187505705Y-130903797D01*
X187370165Y-131097369D01*
X187370164Y-131097371D01*
X187270298Y-131311535D01*
X187270294Y-131311544D01*
X187209138Y-131539786D01*
X187209136Y-131539796D01*
X187188541Y-131775199D01*
X185996965Y-131775199D01*
X185996965Y-131775196D01*
X185976769Y-131595950D01*
X185976768Y-131595945D01*
X185917188Y-131425676D01*
X185834847Y-131294632D01*
X185821216Y-131272938D01*
X185693662Y-131145384D01*
X185617247Y-131097369D01*
X185540923Y-131049411D01*
X185370654Y-130989831D01*
X185370649Y-130989830D01*
X185191404Y-130969635D01*
X185191396Y-130969635D01*
X185012150Y-130989830D01*
X185012145Y-130989831D01*
X184841876Y-131049411D01*
X184689137Y-131145384D01*
X184561584Y-131272937D01*
X184465611Y-131425676D01*
X184406031Y-131595945D01*
X184406030Y-131595950D01*
X184385835Y-131775196D01*
X183456965Y-131775196D01*
X183436769Y-131595950D01*
X183436768Y-131595945D01*
X183377188Y-131425676D01*
X183294847Y-131294632D01*
X183281216Y-131272938D01*
X183153662Y-131145384D01*
X183077247Y-131097369D01*
X183000923Y-131049411D01*
X182830654Y-130989831D01*
X182830649Y-130989830D01*
X182651404Y-130969635D01*
X182651396Y-130969635D01*
X182472150Y-130989830D01*
X182472145Y-130989831D01*
X182301876Y-131049411D01*
X182149137Y-131145384D01*
X182021584Y-131272937D01*
X181925611Y-131425676D01*
X181866031Y-131595945D01*
X181866030Y-131595950D01*
X181845835Y-131775196D01*
X168216965Y-131775196D01*
X168196769Y-131595950D01*
X168196768Y-131595945D01*
X168137188Y-131425676D01*
X168054847Y-131294632D01*
X168041216Y-131272938D01*
X167913662Y-131145384D01*
X167837247Y-131097369D01*
X167760923Y-131049411D01*
X167590654Y-130989831D01*
X167590649Y-130989830D01*
X167411404Y-130969635D01*
X167411396Y-130969635D01*
X167232150Y-130989830D01*
X167232145Y-130989831D01*
X167061876Y-131049411D01*
X166909137Y-131145384D01*
X166781584Y-131272937D01*
X166685611Y-131425676D01*
X166626031Y-131595945D01*
X166626030Y-131595950D01*
X166605835Y-131775196D01*
X165676965Y-131775196D01*
X165656769Y-131595950D01*
X165656768Y-131595945D01*
X165597188Y-131425676D01*
X165514847Y-131294632D01*
X165501216Y-131272938D01*
X165373662Y-131145384D01*
X165297247Y-131097369D01*
X165220923Y-131049411D01*
X165050654Y-130989831D01*
X165050649Y-130989830D01*
X164871404Y-130969635D01*
X164871396Y-130969635D01*
X164692150Y-130989830D01*
X164692145Y-130989831D01*
X164521876Y-131049411D01*
X164369137Y-131145384D01*
X164241584Y-131272937D01*
X164145611Y-131425676D01*
X164086031Y-131595945D01*
X164086030Y-131595950D01*
X164065835Y-131775196D01*
X162015037Y-131775196D01*
X162045922Y-131764389D01*
X162198662Y-131668416D01*
X162326216Y-131540862D01*
X162422189Y-131388122D01*
X162481768Y-131217855D01*
X162481769Y-131217849D01*
X162501965Y-131038603D01*
X162501965Y-131038596D01*
X162481769Y-130859350D01*
X162481768Y-130859345D01*
X162422188Y-130689076D01*
X162366951Y-130601167D01*
X162326216Y-130536338D01*
X162198662Y-130408784D01*
X162154605Y-130381101D01*
X162045923Y-130312811D01*
X161875654Y-130253231D01*
X161875649Y-130253230D01*
X161696404Y-130233035D01*
X161696396Y-130233035D01*
X161517150Y-130253230D01*
X161517145Y-130253231D01*
X161346876Y-130312811D01*
X161194137Y-130408784D01*
X161066584Y-130536337D01*
X160970611Y-130689076D01*
X160911031Y-130859345D01*
X160911030Y-130859350D01*
X160890835Y-131038596D01*
X147377558Y-131038596D01*
X147313923Y-130998611D01*
X147143654Y-130939031D01*
X147143649Y-130939030D01*
X146964404Y-130918835D01*
X146964396Y-130918835D01*
X146785150Y-130939030D01*
X146785145Y-130939031D01*
X146614876Y-130998611D01*
X146462137Y-131094584D01*
X146334584Y-131222137D01*
X146238611Y-131374876D01*
X146179031Y-131545145D01*
X146179030Y-131545150D01*
X146158835Y-131724396D01*
X145300441Y-131724396D01*
X145285969Y-131595950D01*
X145285968Y-131595945D01*
X145226388Y-131425676D01*
X145144047Y-131294632D01*
X145130416Y-131272938D01*
X145002862Y-131145384D01*
X144926447Y-131097369D01*
X144850123Y-131049411D01*
X144679854Y-130989831D01*
X144679849Y-130989830D01*
X144500604Y-130969635D01*
X144500596Y-130969635D01*
X144321350Y-130989830D01*
X144321345Y-130989831D01*
X144151076Y-131049411D01*
X143998337Y-131145384D01*
X143870784Y-131272937D01*
X143774811Y-131425676D01*
X143715231Y-131595945D01*
X143715230Y-131595950D01*
X143695035Y-131775196D01*
X143009459Y-131775196D01*
X143041663Y-131655008D01*
X143062259Y-131419600D01*
X143041663Y-131184192D01*
X142989585Y-130989831D01*
X142980505Y-130955944D01*
X142980504Y-130955943D01*
X142980503Y-130955937D01*
X142880635Y-130741771D01*
X142877089Y-130736706D01*
X142745094Y-130548197D01*
X142578002Y-130381106D01*
X142577996Y-130381101D01*
X142392442Y-130251175D01*
X142348817Y-130196598D01*
X142341623Y-130127100D01*
X142373146Y-130064745D01*
X142392442Y-130048025D01*
X142428748Y-130022603D01*
X142578001Y-129918095D01*
X142745095Y-129751001D01*
X142880635Y-129557430D01*
X142980503Y-129343263D01*
X143041663Y-129115008D01*
X143062259Y-128879600D01*
X143044481Y-128676396D01*
X146158835Y-128676396D01*
X146158835Y-128676403D01*
X146179030Y-128855649D01*
X146179031Y-128855654D01*
X146238611Y-129025923D01*
X146334584Y-129178662D01*
X146462138Y-129306216D01*
X146614878Y-129402189D01*
X146785145Y-129461768D01*
X146785150Y-129461769D01*
X146964396Y-129481965D01*
X146964400Y-129481965D01*
X146964404Y-129481965D01*
X147143649Y-129461769D01*
X147143652Y-129461768D01*
X147143655Y-129461768D01*
X147313922Y-129402189D01*
X147466662Y-129306216D01*
X147537682Y-129235196D01*
X164065835Y-129235196D01*
X164065835Y-129235203D01*
X164086030Y-129414449D01*
X164086031Y-129414454D01*
X164145611Y-129584723D01*
X164201129Y-129673078D01*
X164241584Y-129737462D01*
X164369138Y-129865016D01*
X164521878Y-129960989D01*
X164692145Y-130020568D01*
X164692150Y-130020569D01*
X164871396Y-130040765D01*
X164871400Y-130040765D01*
X164871404Y-130040765D01*
X165032659Y-130022596D01*
X173133635Y-130022596D01*
X173133635Y-130022603D01*
X173153830Y-130201849D01*
X173153831Y-130201854D01*
X173213411Y-130372123D01*
X173256148Y-130440138D01*
X173309384Y-130524862D01*
X173436938Y-130652416D01*
X173495282Y-130689076D01*
X173579145Y-130741771D01*
X173589678Y-130748389D01*
X173759945Y-130807968D01*
X173759950Y-130807969D01*
X173939196Y-130828165D01*
X173939200Y-130828165D01*
X173939204Y-130828165D01*
X174118449Y-130807969D01*
X174118452Y-130807968D01*
X174118455Y-130807968D01*
X174288722Y-130748389D01*
X174441462Y-130652416D01*
X174569016Y-130524862D01*
X174664989Y-130372122D01*
X174724568Y-130201855D01*
X174724569Y-130201849D01*
X174744765Y-130022603D01*
X174744765Y-130022596D01*
X174724569Y-129843350D01*
X174724568Y-129843345D01*
X174664988Y-129673076D01*
X174569015Y-129520337D01*
X174441462Y-129392784D01*
X174288723Y-129296811D01*
X174118454Y-129237231D01*
X174118449Y-129237230D01*
X174100396Y-129235196D01*
X179305835Y-129235196D01*
X179305835Y-129235203D01*
X179326030Y-129414449D01*
X179326031Y-129414454D01*
X179385611Y-129584723D01*
X179441129Y-129673078D01*
X179481584Y-129737462D01*
X179609138Y-129865016D01*
X179761878Y-129960989D01*
X179932145Y-130020568D01*
X179932150Y-130020569D01*
X180111396Y-130040765D01*
X180111400Y-130040765D01*
X180111404Y-130040765D01*
X180290649Y-130020569D01*
X180290652Y-130020568D01*
X180290655Y-130020568D01*
X180460922Y-129960989D01*
X180613662Y-129865016D01*
X180741216Y-129737462D01*
X180837189Y-129584722D01*
X180896768Y-129414455D01*
X180899210Y-129392784D01*
X180916965Y-129235203D01*
X180916965Y-129235196D01*
X181845835Y-129235196D01*
X181845835Y-129235203D01*
X181866030Y-129414449D01*
X181866031Y-129414454D01*
X181925611Y-129584723D01*
X181981129Y-129673078D01*
X182021584Y-129737462D01*
X182149138Y-129865016D01*
X182301878Y-129960989D01*
X182472145Y-130020568D01*
X182472150Y-130020569D01*
X182651396Y-130040765D01*
X182651400Y-130040765D01*
X182651404Y-130040765D01*
X182830649Y-130020569D01*
X182830652Y-130020568D01*
X182830655Y-130020568D01*
X183000922Y-129960989D01*
X183153662Y-129865016D01*
X183281216Y-129737462D01*
X183377189Y-129584722D01*
X183436768Y-129414455D01*
X183439210Y-129392784D01*
X183456965Y-129235203D01*
X183456965Y-129235196D01*
X183436769Y-129055950D01*
X183436768Y-129055945D01*
X183426262Y-129025922D01*
X183377189Y-128885678D01*
X183373369Y-128879599D01*
X183281215Y-128732937D01*
X183153662Y-128605384D01*
X183000923Y-128509411D01*
X182830654Y-128449831D01*
X182830649Y-128449830D01*
X182651404Y-128429635D01*
X182651396Y-128429635D01*
X182472150Y-128449830D01*
X182472145Y-128449831D01*
X182301876Y-128509411D01*
X182149137Y-128605384D01*
X182021584Y-128732937D01*
X181925611Y-128885676D01*
X181866031Y-129055945D01*
X181866030Y-129055950D01*
X181845835Y-129235196D01*
X180916965Y-129235196D01*
X180896769Y-129055950D01*
X180896768Y-129055945D01*
X180886262Y-129025922D01*
X180837189Y-128885678D01*
X180833369Y-128879599D01*
X180741215Y-128732937D01*
X180613662Y-128605384D01*
X180460923Y-128509411D01*
X180290654Y-128449831D01*
X180290649Y-128449830D01*
X180111404Y-128429635D01*
X180111396Y-128429635D01*
X179932150Y-128449830D01*
X179932145Y-128449831D01*
X179761876Y-128509411D01*
X179609137Y-128605384D01*
X179481584Y-128732937D01*
X179385611Y-128885676D01*
X179326031Y-129055945D01*
X179326030Y-129055950D01*
X179305835Y-129235196D01*
X174100396Y-129235196D01*
X173939204Y-129217035D01*
X173939196Y-129217035D01*
X173759950Y-129237230D01*
X173759945Y-129237231D01*
X173589676Y-129296811D01*
X173436937Y-129392784D01*
X173309384Y-129520337D01*
X173213411Y-129673076D01*
X173153831Y-129843345D01*
X173153830Y-129843350D01*
X173133635Y-130022596D01*
X165032659Y-130022596D01*
X165050649Y-130020569D01*
X165050652Y-130020568D01*
X165050655Y-130020568D01*
X165220922Y-129960989D01*
X165373662Y-129865016D01*
X165501216Y-129737462D01*
X165597189Y-129584722D01*
X165656768Y-129414455D01*
X165659210Y-129392784D01*
X165676965Y-129235203D01*
X165676965Y-129235196D01*
X165656769Y-129055950D01*
X165656768Y-129055945D01*
X165646262Y-129025922D01*
X165597189Y-128885678D01*
X165593369Y-128879599D01*
X165501215Y-128732937D01*
X165373662Y-128605384D01*
X165220923Y-128509411D01*
X165050654Y-128449831D01*
X165050649Y-128449830D01*
X164871404Y-128429635D01*
X164871396Y-128429635D01*
X164692150Y-128449830D01*
X164692145Y-128449831D01*
X164521876Y-128509411D01*
X164369137Y-128605384D01*
X164241584Y-128732937D01*
X164145611Y-128885676D01*
X164086031Y-129055945D01*
X164086030Y-129055950D01*
X164065835Y-129235196D01*
X147537682Y-129235196D01*
X147594216Y-129178662D01*
X147690189Y-129025922D01*
X147749768Y-128855655D01*
X147769965Y-128676400D01*
X147766336Y-128644192D01*
X147749769Y-128497150D01*
X147749768Y-128497145D01*
X147733212Y-128449830D01*
X147690189Y-128326878D01*
X147654448Y-128269996D01*
X154312235Y-128269996D01*
X154312235Y-128270003D01*
X154332430Y-128449249D01*
X154332431Y-128449254D01*
X154392011Y-128619523D01*
X154463274Y-128732937D01*
X154487984Y-128772262D01*
X154615538Y-128899816D01*
X154768278Y-128995789D01*
X154854396Y-129025923D01*
X154938545Y-129055368D01*
X154938550Y-129055369D01*
X155117796Y-129075565D01*
X155117800Y-129075565D01*
X155117804Y-129075565D01*
X155297049Y-129055369D01*
X155297052Y-129055368D01*
X155297055Y-129055368D01*
X155467322Y-128995789D01*
X155620062Y-128899816D01*
X155747616Y-128772262D01*
X155843589Y-128619522D01*
X155903168Y-128449255D01*
X155905379Y-128429635D01*
X155923365Y-128270003D01*
X155923365Y-128269996D01*
X155903169Y-128090750D01*
X155903168Y-128090745D01*
X155860604Y-127969105D01*
X155843589Y-127920478D01*
X155747616Y-127767738D01*
X155620062Y-127640184D01*
X155571382Y-127609596D01*
X159138235Y-127609596D01*
X159138235Y-127609603D01*
X159158430Y-127788849D01*
X159158431Y-127788854D01*
X159218011Y-127959123D01*
X159262712Y-128030263D01*
X159313984Y-128111862D01*
X159441538Y-128239416D01*
X159490206Y-128269996D01*
X159580729Y-128326876D01*
X159594278Y-128335389D01*
X159764545Y-128394968D01*
X159764550Y-128394969D01*
X159943796Y-128415165D01*
X159943800Y-128415165D01*
X159943804Y-128415165D01*
X160123049Y-128394969D01*
X160123052Y-128394968D01*
X160123055Y-128394968D01*
X160293322Y-128335389D01*
X160446062Y-128239416D01*
X160573616Y-128111862D01*
X160669589Y-127959122D01*
X160729168Y-127788855D01*
X160729169Y-127788849D01*
X160749365Y-127609603D01*
X160749365Y-127609596D01*
X160729169Y-127430350D01*
X160729167Y-127430341D01*
X160692311Y-127325015D01*
X160669589Y-127260078D01*
X160638752Y-127211002D01*
X160573615Y-127107337D01*
X160446062Y-126979784D01*
X160293323Y-126883811D01*
X160123054Y-126824231D01*
X160123049Y-126824230D01*
X159943804Y-126804035D01*
X159943796Y-126804035D01*
X159764550Y-126824230D01*
X159764545Y-126824231D01*
X159594276Y-126883811D01*
X159441537Y-126979784D01*
X159313984Y-127107337D01*
X159218011Y-127260076D01*
X159158433Y-127430341D01*
X159158430Y-127430350D01*
X159138235Y-127609596D01*
X155571382Y-127609596D01*
X155467323Y-127544211D01*
X155297054Y-127484631D01*
X155297049Y-127484630D01*
X155117804Y-127464435D01*
X155117796Y-127464435D01*
X154938550Y-127484630D01*
X154938545Y-127484631D01*
X154768276Y-127544211D01*
X154615537Y-127640184D01*
X154487984Y-127767737D01*
X154392011Y-127920476D01*
X154332431Y-128090745D01*
X154332430Y-128090750D01*
X154312235Y-128269996D01*
X147654448Y-128269996D01*
X147594216Y-128174138D01*
X147466662Y-128046584D01*
X147405570Y-128008197D01*
X147313923Y-127950611D01*
X147143654Y-127891031D01*
X147143649Y-127891030D01*
X146964404Y-127870835D01*
X146964396Y-127870835D01*
X146785150Y-127891030D01*
X146785145Y-127891031D01*
X146614876Y-127950611D01*
X146462137Y-128046584D01*
X146334584Y-128174137D01*
X146238611Y-128326876D01*
X146179031Y-128497145D01*
X146179030Y-128497150D01*
X146158835Y-128676396D01*
X143044481Y-128676396D01*
X143041663Y-128644192D01*
X142989585Y-128449831D01*
X142980505Y-128415944D01*
X142980504Y-128415943D01*
X142980503Y-128415937D01*
X142880635Y-128201771D01*
X142861287Y-128174138D01*
X142745094Y-128008197D01*
X142578002Y-127841106D01*
X142577996Y-127841101D01*
X142392442Y-127711175D01*
X142348817Y-127656598D01*
X142341623Y-127587100D01*
X142373146Y-127524745D01*
X142392442Y-127508025D01*
X142414626Y-127492491D01*
X142578001Y-127378095D01*
X142745095Y-127211001D01*
X142880635Y-127017430D01*
X142980503Y-126803263D01*
X143009459Y-126695196D01*
X143695035Y-126695196D01*
X143695035Y-126695203D01*
X143715230Y-126874449D01*
X143715231Y-126874454D01*
X143774811Y-127044723D01*
X143846531Y-127158864D01*
X143870784Y-127197462D01*
X143998338Y-127325016D01*
X144151078Y-127420989D01*
X144275240Y-127464435D01*
X144321345Y-127480568D01*
X144321350Y-127480569D01*
X144500596Y-127500765D01*
X144500600Y-127500765D01*
X144500604Y-127500765D01*
X144679849Y-127480569D01*
X144679852Y-127480568D01*
X144679855Y-127480568D01*
X144850122Y-127420989D01*
X145002862Y-127325016D01*
X145130416Y-127197462D01*
X145226389Y-127044722D01*
X145285968Y-126874455D01*
X145291627Y-126824230D01*
X145306165Y-126695203D01*
X145306165Y-126695196D01*
X146235035Y-126695196D01*
X146235035Y-126695203D01*
X146255230Y-126874449D01*
X146255231Y-126874454D01*
X146314811Y-127044723D01*
X146386531Y-127158864D01*
X146410784Y-127197462D01*
X146538338Y-127325016D01*
X146691078Y-127420989D01*
X146815240Y-127464435D01*
X146861345Y-127480568D01*
X146861350Y-127480569D01*
X147040596Y-127500765D01*
X147040600Y-127500765D01*
X147040604Y-127500765D01*
X147219849Y-127480569D01*
X147219852Y-127480568D01*
X147219855Y-127480568D01*
X147390122Y-127420989D01*
X147542862Y-127325016D01*
X147670416Y-127197462D01*
X147766389Y-127044722D01*
X147808703Y-126923796D01*
X150984835Y-126923796D01*
X150984835Y-126923803D01*
X151005030Y-127103049D01*
X151005031Y-127103054D01*
X151064611Y-127273323D01*
X151127262Y-127373030D01*
X151160584Y-127426062D01*
X151288138Y-127553616D01*
X151440878Y-127649589D01*
X151460909Y-127656598D01*
X151611145Y-127709168D01*
X151611150Y-127709169D01*
X151790396Y-127729365D01*
X151790400Y-127729365D01*
X151790404Y-127729365D01*
X151969649Y-127709169D01*
X151969652Y-127709168D01*
X151969655Y-127709168D01*
X152139922Y-127649589D01*
X152292662Y-127553616D01*
X152420216Y-127426062D01*
X152516189Y-127273322D01*
X152575768Y-127103055D01*
X152575769Y-127103049D01*
X152595965Y-126923803D01*
X152595965Y-126923796D01*
X152575769Y-126744550D01*
X152575768Y-126744545D01*
X152558500Y-126695196D01*
X176765835Y-126695196D01*
X176765835Y-126695203D01*
X176786030Y-126874449D01*
X176786031Y-126874454D01*
X176845611Y-127044723D01*
X176917331Y-127158864D01*
X176941584Y-127197462D01*
X177069138Y-127325016D01*
X177221878Y-127420989D01*
X177346040Y-127464435D01*
X177392145Y-127480568D01*
X177392150Y-127480569D01*
X177571396Y-127500765D01*
X177571400Y-127500765D01*
X177571404Y-127500765D01*
X177750649Y-127480569D01*
X177750652Y-127480568D01*
X177750655Y-127480568D01*
X177920922Y-127420989D01*
X178073662Y-127325016D01*
X178201216Y-127197462D01*
X178297189Y-127044722D01*
X178356768Y-126874455D01*
X178362427Y-126824230D01*
X178376965Y-126695203D01*
X178376965Y-126695196D01*
X181845835Y-126695196D01*
X181845835Y-126695203D01*
X181866030Y-126874449D01*
X181866031Y-126874454D01*
X181925611Y-127044723D01*
X181997331Y-127158864D01*
X182021584Y-127197462D01*
X182149138Y-127325016D01*
X182301878Y-127420989D01*
X182426040Y-127464435D01*
X182472145Y-127480568D01*
X182472150Y-127480569D01*
X182651396Y-127500765D01*
X182651400Y-127500765D01*
X182651404Y-127500765D01*
X182830649Y-127480569D01*
X182830652Y-127480568D01*
X182830655Y-127480568D01*
X183000922Y-127420989D01*
X183153662Y-127325016D01*
X183281216Y-127197462D01*
X183377189Y-127044722D01*
X183436768Y-126874455D01*
X183442427Y-126824230D01*
X183456965Y-126695203D01*
X183456965Y-126695196D01*
X184385835Y-126695196D01*
X184385835Y-126695203D01*
X184406030Y-126874449D01*
X184406031Y-126874454D01*
X184465611Y-127044723D01*
X184537331Y-127158864D01*
X184561584Y-127197462D01*
X184689138Y-127325016D01*
X184841878Y-127420989D01*
X184966040Y-127464435D01*
X185012145Y-127480568D01*
X185012150Y-127480569D01*
X185191396Y-127500765D01*
X185191400Y-127500765D01*
X185191404Y-127500765D01*
X185370649Y-127480569D01*
X185370652Y-127480568D01*
X185370655Y-127480568D01*
X185540922Y-127420989D01*
X185693662Y-127325016D01*
X185821216Y-127197462D01*
X185917189Y-127044722D01*
X185976768Y-126874455D01*
X185982427Y-126824230D01*
X185996965Y-126695203D01*
X185996965Y-126695196D01*
X185976769Y-126515950D01*
X185976768Y-126515945D01*
X185957117Y-126459786D01*
X185917189Y-126345678D01*
X185913369Y-126339599D01*
X185842737Y-126227189D01*
X185821216Y-126192938D01*
X185693662Y-126065384D01*
X185617247Y-126017369D01*
X185540923Y-125969411D01*
X185370654Y-125909831D01*
X185370649Y-125909830D01*
X185191404Y-125889635D01*
X185191396Y-125889635D01*
X185012150Y-125909830D01*
X185012145Y-125909831D01*
X184841876Y-125969411D01*
X184689137Y-126065384D01*
X184561584Y-126192937D01*
X184465611Y-126345676D01*
X184406031Y-126515945D01*
X184406030Y-126515950D01*
X184385835Y-126695196D01*
X183456965Y-126695196D01*
X183436769Y-126515950D01*
X183436768Y-126515945D01*
X183417117Y-126459786D01*
X183377189Y-126345678D01*
X183373369Y-126339599D01*
X183302737Y-126227189D01*
X183281216Y-126192938D01*
X183153662Y-126065384D01*
X183077247Y-126017369D01*
X183000923Y-125969411D01*
X182830654Y-125909831D01*
X182830649Y-125909830D01*
X182651404Y-125889635D01*
X182651396Y-125889635D01*
X182472150Y-125909830D01*
X182472145Y-125909831D01*
X182301876Y-125969411D01*
X182149137Y-126065384D01*
X182021584Y-126192937D01*
X181925611Y-126345676D01*
X181866031Y-126515945D01*
X181866030Y-126515950D01*
X181845835Y-126695196D01*
X178376965Y-126695196D01*
X178356769Y-126515950D01*
X178356768Y-126515945D01*
X178337117Y-126459786D01*
X178297189Y-126345678D01*
X178293369Y-126339599D01*
X178222737Y-126227189D01*
X178201216Y-126192938D01*
X178073662Y-126065384D01*
X177997247Y-126017369D01*
X177920923Y-125969411D01*
X177750654Y-125909831D01*
X177750649Y-125909830D01*
X177571404Y-125889635D01*
X177571396Y-125889635D01*
X177392150Y-125909830D01*
X177392145Y-125909831D01*
X177221876Y-125969411D01*
X177069137Y-126065384D01*
X176941584Y-126192937D01*
X176845611Y-126345676D01*
X176786031Y-126515945D01*
X176786030Y-126515950D01*
X176765835Y-126695196D01*
X152558500Y-126695196D01*
X152516444Y-126575008D01*
X152516189Y-126574278D01*
X152420216Y-126421538D01*
X152292662Y-126293984D01*
X152281178Y-126286768D01*
X152139923Y-126198011D01*
X151969654Y-126138431D01*
X151969649Y-126138430D01*
X151790404Y-126118235D01*
X151790396Y-126118235D01*
X151611150Y-126138430D01*
X151611145Y-126138431D01*
X151440876Y-126198011D01*
X151288137Y-126293984D01*
X151160584Y-126421537D01*
X151064611Y-126574276D01*
X151005031Y-126744545D01*
X151005030Y-126744550D01*
X150984835Y-126923796D01*
X147808703Y-126923796D01*
X147825968Y-126874455D01*
X147831627Y-126824230D01*
X147846165Y-126695203D01*
X147846165Y-126695196D01*
X147825969Y-126515950D01*
X147825968Y-126515945D01*
X147806317Y-126459786D01*
X147766389Y-126345678D01*
X147762569Y-126339599D01*
X147691937Y-126227189D01*
X147670416Y-126192938D01*
X147542862Y-126065384D01*
X147466447Y-126017369D01*
X147390123Y-125969411D01*
X147219854Y-125909831D01*
X147219849Y-125909830D01*
X147040604Y-125889635D01*
X147040596Y-125889635D01*
X146861350Y-125909830D01*
X146861345Y-125909831D01*
X146691076Y-125969411D01*
X146538337Y-126065384D01*
X146410784Y-126192937D01*
X146314811Y-126345676D01*
X146255231Y-126515945D01*
X146255230Y-126515950D01*
X146235035Y-126695196D01*
X145306165Y-126695196D01*
X145285969Y-126515950D01*
X145285968Y-126515945D01*
X145266317Y-126459786D01*
X145226389Y-126345678D01*
X145222569Y-126339599D01*
X145151937Y-126227189D01*
X145130416Y-126192938D01*
X145002862Y-126065384D01*
X144926447Y-126017369D01*
X144850123Y-125969411D01*
X144679854Y-125909831D01*
X144679849Y-125909830D01*
X144500604Y-125889635D01*
X144500596Y-125889635D01*
X144321350Y-125909830D01*
X144321345Y-125909831D01*
X144151076Y-125969411D01*
X143998337Y-126065384D01*
X143870784Y-126192937D01*
X143774811Y-126345676D01*
X143715231Y-126515945D01*
X143715230Y-126515950D01*
X143695035Y-126695196D01*
X143009459Y-126695196D01*
X143041663Y-126575008D01*
X143062259Y-126339600D01*
X143041663Y-126104192D01*
X142989585Y-125909831D01*
X142980505Y-125875944D01*
X142980504Y-125875943D01*
X142980503Y-125875937D01*
X142880635Y-125661771D01*
X142877089Y-125656706D01*
X142745094Y-125468197D01*
X142578002Y-125301106D01*
X142577996Y-125301101D01*
X142392442Y-125171175D01*
X142390227Y-125168404D01*
X153756227Y-125168404D01*
X153756227Y-125168411D01*
X153776422Y-125347657D01*
X153776423Y-125347662D01*
X153836003Y-125517931D01*
X153923199Y-125656701D01*
X153931976Y-125670670D01*
X154059530Y-125798224D01*
X154143398Y-125850922D01*
X154205009Y-125889635D01*
X154212270Y-125894197D01*
X154382537Y-125953776D01*
X154382542Y-125953777D01*
X154561788Y-125973973D01*
X154561792Y-125973973D01*
X154561796Y-125973973D01*
X154741041Y-125953777D01*
X154741044Y-125953776D01*
X154741047Y-125953776D01*
X154911314Y-125894197D01*
X155064054Y-125798224D01*
X155191608Y-125670670D01*
X155287581Y-125517930D01*
X155347160Y-125347663D01*
X155347985Y-125340345D01*
X155367357Y-125168411D01*
X155367357Y-125168404D01*
X155347161Y-124989158D01*
X155347160Y-124989153D01*
X155295826Y-124842449D01*
X155287581Y-124818886D01*
X155276934Y-124801942D01*
X155248374Y-124756488D01*
X155191608Y-124666146D01*
X155064054Y-124538592D01*
X155010152Y-124504723D01*
X154911315Y-124442619D01*
X154741046Y-124383039D01*
X154741041Y-124383038D01*
X154561796Y-124362843D01*
X154561788Y-124362843D01*
X154382542Y-124383038D01*
X154382537Y-124383039D01*
X154212268Y-124442619D01*
X154059529Y-124538592D01*
X153931976Y-124666145D01*
X153836003Y-124818884D01*
X153776423Y-124989153D01*
X153776422Y-124989158D01*
X153756227Y-125168404D01*
X142390227Y-125168404D01*
X142348817Y-125116598D01*
X142341623Y-125047100D01*
X142373146Y-124984745D01*
X142392442Y-124968025D01*
X142431653Y-124940569D01*
X142578001Y-124838095D01*
X142745095Y-124671001D01*
X142880635Y-124477430D01*
X142980503Y-124263263D01*
X143009459Y-124155196D01*
X146235035Y-124155196D01*
X146235035Y-124155203D01*
X146255230Y-124334449D01*
X146255231Y-124334454D01*
X146314811Y-124504723D01*
X146410784Y-124657462D01*
X146538338Y-124785016D01*
X146622813Y-124838095D01*
X146676189Y-124871634D01*
X146691078Y-124880989D01*
X146861345Y-124940568D01*
X146861350Y-124940569D01*
X147040596Y-124960765D01*
X147040600Y-124960765D01*
X147040604Y-124960765D01*
X147219849Y-124940569D01*
X147219852Y-124940568D01*
X147219855Y-124940568D01*
X147390122Y-124880989D01*
X147542862Y-124785016D01*
X147670416Y-124657462D01*
X147766389Y-124504722D01*
X147825968Y-124334455D01*
X147825969Y-124334449D01*
X147846165Y-124155203D01*
X147846165Y-124155196D01*
X147825969Y-123975950D01*
X147825968Y-123975945D01*
X147785133Y-123859246D01*
X147766389Y-123805678D01*
X147762569Y-123799599D01*
X147670415Y-123652937D01*
X147542862Y-123525384D01*
X147390123Y-123429411D01*
X147359216Y-123418596D01*
X153067635Y-123418596D01*
X153067635Y-123418603D01*
X153087830Y-123597849D01*
X153087831Y-123597854D01*
X153147411Y-123768123D01*
X153212178Y-123871198D01*
X153243384Y-123920862D01*
X153370938Y-124048416D01*
X153523678Y-124144389D01*
X153693945Y-124203968D01*
X153693950Y-124203969D01*
X153873196Y-124224165D01*
X153873200Y-124224165D01*
X153873204Y-124224165D01*
X154052449Y-124203969D01*
X154052452Y-124203968D01*
X154052455Y-124203968D01*
X154191837Y-124155196D01*
X161525835Y-124155196D01*
X161525835Y-124155203D01*
X161546030Y-124334449D01*
X161546031Y-124334454D01*
X161605611Y-124504723D01*
X161701584Y-124657462D01*
X161784741Y-124740619D01*
X161818226Y-124801942D01*
X161813242Y-124871634D01*
X161784741Y-124915981D01*
X161701584Y-124999137D01*
X161605611Y-125151876D01*
X161546031Y-125322145D01*
X161546030Y-125322150D01*
X161525835Y-125501396D01*
X161525835Y-125501403D01*
X161546030Y-125680649D01*
X161546031Y-125680654D01*
X161605611Y-125850923D01*
X161670239Y-125953777D01*
X161701584Y-126003662D01*
X161829138Y-126131216D01*
X161919480Y-126187982D01*
X161935441Y-126198011D01*
X161981878Y-126227189D01*
X162152145Y-126286768D01*
X162152150Y-126286769D01*
X162331396Y-126306965D01*
X162331400Y-126306965D01*
X162331404Y-126306965D01*
X162510649Y-126286769D01*
X162510652Y-126286768D01*
X162510655Y-126286768D01*
X162680922Y-126227189D01*
X162833662Y-126131216D01*
X162961216Y-126003662D01*
X163057189Y-125850922D01*
X163116768Y-125680655D01*
X163118896Y-125661769D01*
X163136965Y-125501403D01*
X163136965Y-125501396D01*
X163116769Y-125322150D01*
X163116768Y-125322145D01*
X163071821Y-125193695D01*
X163057189Y-125151878D01*
X162961216Y-124999138D01*
X162878059Y-124915981D01*
X162844574Y-124854658D01*
X162849558Y-124784966D01*
X162878059Y-124740619D01*
X162892341Y-124726337D01*
X162955482Y-124663196D01*
X167596435Y-124663196D01*
X167596435Y-124663203D01*
X167616630Y-124842449D01*
X167616631Y-124842454D01*
X167676211Y-125012723D01*
X167763647Y-125151876D01*
X167772184Y-125165462D01*
X167899738Y-125293016D01*
X167948452Y-125323625D01*
X168035310Y-125378202D01*
X168052478Y-125388989D01*
X168091662Y-125402700D01*
X168222745Y-125448568D01*
X168222750Y-125448569D01*
X168401996Y-125468765D01*
X168402000Y-125468765D01*
X168402004Y-125468765D01*
X168581249Y-125448569D01*
X168581252Y-125448568D01*
X168581255Y-125448568D01*
X168751522Y-125388989D01*
X168904262Y-125293016D01*
X169031816Y-125165462D01*
X169127789Y-125012722D01*
X169187368Y-124842455D01*
X169187860Y-124838095D01*
X169200451Y-124726337D01*
X169227517Y-124661923D01*
X169285111Y-124622368D01*
X169309776Y-124617001D01*
X169368655Y-124610368D01*
X169538922Y-124550789D01*
X169691662Y-124454816D01*
X169804001Y-124342476D01*
X169865320Y-124308994D01*
X169935012Y-124313978D01*
X169990946Y-124355849D01*
X170015363Y-124421313D01*
X170008721Y-124471112D01*
X170004234Y-124483935D01*
X170004230Y-124483950D01*
X169984035Y-124663196D01*
X169984035Y-124663203D01*
X170004230Y-124842449D01*
X170004231Y-124842454D01*
X170063811Y-125012723D01*
X170151247Y-125151876D01*
X170159784Y-125165462D01*
X170287338Y-125293016D01*
X170336052Y-125323625D01*
X170422910Y-125378202D01*
X170440078Y-125388989D01*
X170479262Y-125402700D01*
X170610345Y-125448568D01*
X170610350Y-125448569D01*
X170789596Y-125468765D01*
X170789600Y-125468765D01*
X170789604Y-125468765D01*
X170968849Y-125448569D01*
X170968852Y-125448568D01*
X170968855Y-125448568D01*
X171139122Y-125388989D01*
X171291862Y-125293016D01*
X171419416Y-125165462D01*
X171515389Y-125012722D01*
X171574968Y-124842455D01*
X171575459Y-124838098D01*
X171595165Y-124663203D01*
X171595165Y-124663196D01*
X173188035Y-124663196D01*
X173188035Y-124663203D01*
X173208230Y-124842449D01*
X173208231Y-124842454D01*
X173267811Y-125012723D01*
X173355247Y-125151876D01*
X173363784Y-125165462D01*
X173491338Y-125293016D01*
X173540052Y-125323625D01*
X173626910Y-125378202D01*
X173644078Y-125388989D01*
X173683262Y-125402700D01*
X173814345Y-125448568D01*
X173814350Y-125448569D01*
X173993596Y-125468765D01*
X173993600Y-125468765D01*
X173993604Y-125468765D01*
X174172849Y-125448569D01*
X174172852Y-125448568D01*
X174172855Y-125448568D01*
X174343122Y-125388989D01*
X174495862Y-125293016D01*
X174623416Y-125165462D01*
X174719389Y-125012722D01*
X174778968Y-124842455D01*
X174779459Y-124838098D01*
X174799165Y-124663203D01*
X174799165Y-124663196D01*
X174778969Y-124483950D01*
X174778968Y-124483945D01*
X174743659Y-124383038D01*
X174719389Y-124313678D01*
X174623416Y-124160938D01*
X174617674Y-124155196D01*
X179305835Y-124155196D01*
X179305835Y-124155203D01*
X179326030Y-124334449D01*
X179326031Y-124334454D01*
X179385611Y-124504723D01*
X179481584Y-124657462D01*
X179609138Y-124785016D01*
X179693613Y-124838095D01*
X179746989Y-124871634D01*
X179761878Y-124880989D01*
X179932145Y-124940568D01*
X179932150Y-124940569D01*
X180111396Y-124960765D01*
X180111400Y-124960765D01*
X180111404Y-124960765D01*
X180290649Y-124940569D01*
X180290652Y-124940568D01*
X180290655Y-124940568D01*
X180460922Y-124880989D01*
X180613662Y-124785016D01*
X180741216Y-124657462D01*
X180837189Y-124504722D01*
X180896768Y-124334455D01*
X180896769Y-124334449D01*
X180916965Y-124155203D01*
X180916965Y-124155196D01*
X181845835Y-124155196D01*
X181845835Y-124155203D01*
X181866030Y-124334449D01*
X181866031Y-124334454D01*
X181925611Y-124504723D01*
X182021584Y-124657462D01*
X182149138Y-124785016D01*
X182233613Y-124838095D01*
X182286989Y-124871634D01*
X182301878Y-124880989D01*
X182472145Y-124940568D01*
X182472150Y-124940569D01*
X182651396Y-124960765D01*
X182651400Y-124960765D01*
X182651404Y-124960765D01*
X182830649Y-124940569D01*
X182830652Y-124940568D01*
X182830655Y-124940568D01*
X183000922Y-124880989D01*
X183153662Y-124785016D01*
X183281216Y-124657462D01*
X183377189Y-124504722D01*
X183436768Y-124334455D01*
X183436769Y-124334449D01*
X183456965Y-124155203D01*
X183456965Y-124155196D01*
X184385835Y-124155196D01*
X184385835Y-124155203D01*
X184406030Y-124334449D01*
X184406031Y-124334454D01*
X184465611Y-124504723D01*
X184561584Y-124657462D01*
X184689138Y-124785016D01*
X184773613Y-124838095D01*
X184826989Y-124871634D01*
X184841878Y-124880989D01*
X185012145Y-124940568D01*
X185012150Y-124940569D01*
X185191396Y-124960765D01*
X185191400Y-124960765D01*
X185191404Y-124960765D01*
X185370649Y-124940569D01*
X185370652Y-124940568D01*
X185370655Y-124940568D01*
X185540922Y-124880989D01*
X185693662Y-124785016D01*
X185821216Y-124657462D01*
X185917189Y-124504722D01*
X185976768Y-124334455D01*
X185976769Y-124334449D01*
X185996965Y-124155203D01*
X185996965Y-124155196D01*
X185976769Y-123975950D01*
X185976768Y-123975945D01*
X185935933Y-123859246D01*
X185917189Y-123805678D01*
X185913369Y-123799599D01*
X185821215Y-123652937D01*
X185693662Y-123525384D01*
X185540923Y-123429411D01*
X185370654Y-123369831D01*
X185370649Y-123369830D01*
X185191404Y-123349635D01*
X185191396Y-123349635D01*
X185012150Y-123369830D01*
X185012145Y-123369831D01*
X184841876Y-123429411D01*
X184689137Y-123525384D01*
X184561584Y-123652937D01*
X184465611Y-123805676D01*
X184406031Y-123975945D01*
X184406030Y-123975950D01*
X184385835Y-124155196D01*
X183456965Y-124155196D01*
X183436769Y-123975950D01*
X183436768Y-123975945D01*
X183395933Y-123859246D01*
X183377189Y-123805678D01*
X183373369Y-123799599D01*
X183281215Y-123652937D01*
X183153662Y-123525384D01*
X183000923Y-123429411D01*
X182830654Y-123369831D01*
X182830649Y-123369830D01*
X182651404Y-123349635D01*
X182651396Y-123349635D01*
X182472150Y-123369830D01*
X182472145Y-123369831D01*
X182301876Y-123429411D01*
X182149137Y-123525384D01*
X182021584Y-123652937D01*
X181925611Y-123805676D01*
X181866031Y-123975945D01*
X181866030Y-123975950D01*
X181845835Y-124155196D01*
X180916965Y-124155196D01*
X180896769Y-123975950D01*
X180896768Y-123975945D01*
X180855933Y-123859246D01*
X180837189Y-123805678D01*
X180833369Y-123799599D01*
X180741215Y-123652937D01*
X180613662Y-123525384D01*
X180460923Y-123429411D01*
X180290654Y-123369831D01*
X180290649Y-123369830D01*
X180111404Y-123349635D01*
X180111396Y-123349635D01*
X179932150Y-123369830D01*
X179932145Y-123369831D01*
X179761876Y-123429411D01*
X179609137Y-123525384D01*
X179481584Y-123652937D01*
X179385611Y-123805676D01*
X179326031Y-123975945D01*
X179326030Y-123975950D01*
X179305835Y-124155196D01*
X174617674Y-124155196D01*
X174495862Y-124033384D01*
X174449504Y-124004255D01*
X174343123Y-123937411D01*
X174172854Y-123877831D01*
X174172849Y-123877830D01*
X173993604Y-123857635D01*
X173993596Y-123857635D01*
X173814350Y-123877830D01*
X173814345Y-123877831D01*
X173644076Y-123937411D01*
X173491337Y-124033384D01*
X173363784Y-124160937D01*
X173267811Y-124313676D01*
X173208231Y-124483945D01*
X173208230Y-124483950D01*
X173188035Y-124663196D01*
X171595165Y-124663196D01*
X171574969Y-124483950D01*
X171574968Y-124483945D01*
X171539659Y-124383038D01*
X171515389Y-124313678D01*
X171419416Y-124160938D01*
X171291862Y-124033384D01*
X171245504Y-124004255D01*
X171139123Y-123937411D01*
X170968854Y-123877831D01*
X170968849Y-123877830D01*
X170789604Y-123857635D01*
X170789596Y-123857635D01*
X170610350Y-123877830D01*
X170610345Y-123877831D01*
X170440076Y-123937411D01*
X170287339Y-124033383D01*
X170175001Y-124145721D01*
X170113678Y-124179205D01*
X170043986Y-124174221D01*
X169988053Y-124132349D01*
X169963636Y-124066885D01*
X169970279Y-124017082D01*
X169974768Y-124004255D01*
X169974769Y-124004249D01*
X169994965Y-123825003D01*
X169994965Y-123824996D01*
X169974769Y-123645750D01*
X169974768Y-123645745D01*
X169915189Y-123475478D01*
X169819216Y-123322738D01*
X169691662Y-123195184D01*
X169538923Y-123099211D01*
X169368654Y-123039631D01*
X169368649Y-123039630D01*
X169189404Y-123019435D01*
X169189396Y-123019435D01*
X169010150Y-123039630D01*
X169010145Y-123039631D01*
X168839876Y-123099211D01*
X168687137Y-123195184D01*
X168559584Y-123322737D01*
X168463611Y-123475476D01*
X168404031Y-123645745D01*
X168404030Y-123645749D01*
X168390948Y-123761862D01*
X168363881Y-123826276D01*
X168306286Y-123865831D01*
X168281613Y-123871198D01*
X168222750Y-123877830D01*
X168052478Y-123937410D01*
X167899737Y-124033384D01*
X167772184Y-124160937D01*
X167676211Y-124313676D01*
X167616631Y-124483945D01*
X167616630Y-124483950D01*
X167596435Y-124663196D01*
X162955482Y-124663196D01*
X162961216Y-124657462D01*
X163057189Y-124504722D01*
X163116768Y-124334455D01*
X163116769Y-124334449D01*
X163136965Y-124155203D01*
X163136965Y-124155196D01*
X163116769Y-123975950D01*
X163116768Y-123975945D01*
X163075933Y-123859246D01*
X163057189Y-123805678D01*
X163053369Y-123799599D01*
X162961215Y-123652937D01*
X162833662Y-123525384D01*
X162680923Y-123429411D01*
X162510654Y-123369831D01*
X162510649Y-123369830D01*
X162331404Y-123349635D01*
X162331396Y-123349635D01*
X162152150Y-123369830D01*
X162152145Y-123369831D01*
X161981876Y-123429411D01*
X161829137Y-123525384D01*
X161701584Y-123652937D01*
X161605611Y-123805676D01*
X161546031Y-123975945D01*
X161546030Y-123975950D01*
X161525835Y-124155196D01*
X154191837Y-124155196D01*
X154222722Y-124144389D01*
X154375462Y-124048416D01*
X154503016Y-123920862D01*
X154598989Y-123768122D01*
X154658568Y-123597855D01*
X154658569Y-123597849D01*
X154678765Y-123418603D01*
X154678765Y-123418596D01*
X154658569Y-123239350D01*
X154658568Y-123239345D01*
X154598988Y-123069076D01*
X154559782Y-123006680D01*
X154503016Y-122916338D01*
X154375462Y-122788784D01*
X154331405Y-122761101D01*
X154222723Y-122692811D01*
X154052454Y-122633231D01*
X154052449Y-122633230D01*
X153873204Y-122613035D01*
X153873196Y-122613035D01*
X153693950Y-122633230D01*
X153693945Y-122633231D01*
X153523676Y-122692811D01*
X153370937Y-122788784D01*
X153243384Y-122916337D01*
X153147411Y-123069076D01*
X153087831Y-123239345D01*
X153087830Y-123239350D01*
X153067635Y-123418596D01*
X147359216Y-123418596D01*
X147219854Y-123369831D01*
X147219849Y-123369830D01*
X147040604Y-123349635D01*
X147040596Y-123349635D01*
X146861350Y-123369830D01*
X146861345Y-123369831D01*
X146691076Y-123429411D01*
X146538337Y-123525384D01*
X146410784Y-123652937D01*
X146314811Y-123805676D01*
X146255231Y-123975945D01*
X146255230Y-123975950D01*
X146235035Y-124155196D01*
X143009459Y-124155196D01*
X143041663Y-124035008D01*
X143062259Y-123799600D01*
X143041663Y-123564192D01*
X142989585Y-123369831D01*
X142980505Y-123335944D01*
X142980504Y-123335943D01*
X142980503Y-123335937D01*
X142880635Y-123121771D01*
X142877089Y-123116706D01*
X142745094Y-122928197D01*
X142578002Y-122761106D01*
X142577996Y-122761101D01*
X142392442Y-122631175D01*
X142348817Y-122576598D01*
X142341623Y-122507100D01*
X142373146Y-122444745D01*
X142392442Y-122428025D01*
X142431653Y-122400569D01*
X142578001Y-122298095D01*
X142745095Y-122131001D01*
X142880635Y-121937430D01*
X142980503Y-121723263D01*
X143009459Y-121615196D01*
X143695035Y-121615196D01*
X143695035Y-121615203D01*
X143715230Y-121794449D01*
X143715231Y-121794454D01*
X143774811Y-121964723D01*
X143846531Y-122078864D01*
X143870784Y-122117462D01*
X143998338Y-122245016D01*
X144151078Y-122340989D01*
X144321345Y-122400568D01*
X144321350Y-122400569D01*
X144500596Y-122420765D01*
X144500600Y-122420765D01*
X144500604Y-122420765D01*
X144679849Y-122400569D01*
X144679852Y-122400568D01*
X144679855Y-122400568D01*
X144850122Y-122340989D01*
X145002862Y-122245016D01*
X145130416Y-122117462D01*
X145226389Y-121964722D01*
X145285968Y-121794455D01*
X145293134Y-121730857D01*
X145306165Y-121615203D01*
X145306165Y-121615196D01*
X148775035Y-121615196D01*
X148775035Y-121615203D01*
X148795230Y-121794449D01*
X148795231Y-121794454D01*
X148854811Y-121964723D01*
X148926531Y-122078864D01*
X148950784Y-122117462D01*
X149078338Y-122245016D01*
X149231078Y-122340989D01*
X149401345Y-122400568D01*
X149401350Y-122400569D01*
X149580596Y-122420765D01*
X149580600Y-122420765D01*
X149580604Y-122420765D01*
X149759849Y-122400569D01*
X149759852Y-122400568D01*
X149759855Y-122400568D01*
X149930122Y-122340989D01*
X150082862Y-122245016D01*
X150210416Y-122117462D01*
X150306389Y-121964722D01*
X150365968Y-121794455D01*
X150373134Y-121730857D01*
X150386165Y-121615203D01*
X150386165Y-121615196D01*
X151365835Y-121615196D01*
X151365835Y-121615203D01*
X151386030Y-121794449D01*
X151386031Y-121794454D01*
X151445611Y-121964723D01*
X151517331Y-122078864D01*
X151541584Y-122117462D01*
X151669138Y-122245016D01*
X151821878Y-122340989D01*
X151992145Y-122400568D01*
X151992150Y-122400569D01*
X152171396Y-122420765D01*
X152171400Y-122420765D01*
X152171404Y-122420765D01*
X152350649Y-122400569D01*
X152350652Y-122400568D01*
X152350655Y-122400568D01*
X152520922Y-122340989D01*
X152673662Y-122245016D01*
X152801216Y-122117462D01*
X152897189Y-121964722D01*
X152956768Y-121794455D01*
X152963934Y-121730857D01*
X152976965Y-121615203D01*
X152976965Y-121615196D01*
X156445835Y-121615196D01*
X156445835Y-121615203D01*
X156466030Y-121794449D01*
X156466031Y-121794454D01*
X156525611Y-121964723D01*
X156597331Y-122078864D01*
X156621584Y-122117462D01*
X156749138Y-122245016D01*
X156901878Y-122340989D01*
X157072145Y-122400568D01*
X157072150Y-122400569D01*
X157251396Y-122420765D01*
X157251400Y-122420765D01*
X157251404Y-122420765D01*
X157430649Y-122400569D01*
X157430652Y-122400568D01*
X157430655Y-122400568D01*
X157600922Y-122340989D01*
X157753662Y-122245016D01*
X157881216Y-122117462D01*
X157977189Y-121964722D01*
X158036768Y-121794455D01*
X158043934Y-121730857D01*
X158056965Y-121615203D01*
X158056965Y-121615196D01*
X158049799Y-121551599D01*
X173235235Y-121551599D01*
X173235235Y-121551606D01*
X173255430Y-121730852D01*
X173255431Y-121730857D01*
X173315011Y-121901126D01*
X173410984Y-122053865D01*
X173538538Y-122181419D01*
X173691278Y-122277392D01*
X173774221Y-122306415D01*
X173861545Y-122336971D01*
X173861550Y-122336972D01*
X174040796Y-122357168D01*
X174040800Y-122357168D01*
X174040804Y-122357168D01*
X174220049Y-122336972D01*
X174220052Y-122336971D01*
X174220055Y-122336971D01*
X174390322Y-122277392D01*
X174543062Y-122181419D01*
X174670616Y-122053865D01*
X174766589Y-121901125D01*
X174826168Y-121730858D01*
X174832281Y-121676603D01*
X174832282Y-121676596D01*
X178264435Y-121676596D01*
X178264435Y-121676603D01*
X178284630Y-121855849D01*
X178284631Y-121855854D01*
X178344211Y-122026123D01*
X178440184Y-122178862D01*
X178567738Y-122306416D01*
X178720478Y-122402389D01*
X178890745Y-122461968D01*
X178890750Y-122461969D01*
X179069996Y-122482165D01*
X179070000Y-122482165D01*
X179070004Y-122482165D01*
X179249249Y-122461969D01*
X179249252Y-122461968D01*
X179249255Y-122461968D01*
X179419522Y-122402389D01*
X179572262Y-122306416D01*
X179699816Y-122178862D01*
X179795789Y-122026122D01*
X179855368Y-121855855D01*
X179855959Y-121850613D01*
X179875565Y-121676603D01*
X179875565Y-121676596D01*
X179868647Y-121615196D01*
X181845835Y-121615196D01*
X181845835Y-121615203D01*
X181866030Y-121794449D01*
X181866031Y-121794454D01*
X181925611Y-121964723D01*
X181997331Y-122078864D01*
X182021584Y-122117462D01*
X182149138Y-122245016D01*
X182301878Y-122340989D01*
X182472145Y-122400568D01*
X182472150Y-122400569D01*
X182651396Y-122420765D01*
X182651400Y-122420765D01*
X182651404Y-122420765D01*
X182830649Y-122400569D01*
X182830652Y-122400568D01*
X182830655Y-122400568D01*
X183000922Y-122340989D01*
X183153662Y-122245016D01*
X183281216Y-122117462D01*
X183377189Y-121964722D01*
X183436768Y-121794455D01*
X183443934Y-121730857D01*
X183456965Y-121615203D01*
X183456965Y-121615196D01*
X184385835Y-121615196D01*
X184385835Y-121615203D01*
X184406030Y-121794449D01*
X184406031Y-121794454D01*
X184465611Y-121964723D01*
X184537331Y-122078864D01*
X184561584Y-122117462D01*
X184689138Y-122245016D01*
X184841878Y-122340989D01*
X185012145Y-122400568D01*
X185012150Y-122400569D01*
X185191396Y-122420765D01*
X185191400Y-122420765D01*
X185191404Y-122420765D01*
X185370649Y-122400569D01*
X185370652Y-122400568D01*
X185370655Y-122400568D01*
X185540922Y-122340989D01*
X185693662Y-122245016D01*
X185821216Y-122117462D01*
X185917189Y-121964722D01*
X185976768Y-121794455D01*
X185983934Y-121730857D01*
X185996965Y-121615203D01*
X185996965Y-121615196D01*
X185976769Y-121435950D01*
X185976768Y-121435945D01*
X185917188Y-121265676D01*
X185859796Y-121174338D01*
X185821216Y-121112938D01*
X185693662Y-120985384D01*
X185540923Y-120889411D01*
X185370654Y-120829831D01*
X185370649Y-120829830D01*
X185191404Y-120809635D01*
X185191396Y-120809635D01*
X185012150Y-120829830D01*
X185012145Y-120829831D01*
X184841876Y-120889411D01*
X184689137Y-120985384D01*
X184561584Y-121112937D01*
X184465611Y-121265676D01*
X184406031Y-121435945D01*
X184406030Y-121435950D01*
X184385835Y-121615196D01*
X183456965Y-121615196D01*
X183436769Y-121435950D01*
X183436768Y-121435945D01*
X183377188Y-121265676D01*
X183319796Y-121174338D01*
X183281216Y-121112938D01*
X183153662Y-120985384D01*
X183000923Y-120889411D01*
X182830654Y-120829831D01*
X182830649Y-120829830D01*
X182651404Y-120809635D01*
X182651396Y-120809635D01*
X182472150Y-120829830D01*
X182472145Y-120829831D01*
X182301876Y-120889411D01*
X182149137Y-120985384D01*
X182021584Y-121112937D01*
X181925611Y-121265676D01*
X181866031Y-121435945D01*
X181866030Y-121435950D01*
X181845835Y-121615196D01*
X179868647Y-121615196D01*
X179855369Y-121497350D01*
X179855368Y-121497345D01*
X179811631Y-121372353D01*
X179795789Y-121327078D01*
X179699816Y-121174338D01*
X179572262Y-121046784D01*
X179419523Y-120950811D01*
X179249254Y-120891231D01*
X179249249Y-120891230D01*
X179070004Y-120871035D01*
X179069996Y-120871035D01*
X178890750Y-120891230D01*
X178890745Y-120891231D01*
X178720476Y-120950811D01*
X178567737Y-121046784D01*
X178440184Y-121174337D01*
X178344211Y-121327076D01*
X178284631Y-121497345D01*
X178284630Y-121497350D01*
X178264435Y-121676596D01*
X174832282Y-121676596D01*
X174846365Y-121551606D01*
X174846365Y-121551599D01*
X174826169Y-121372353D01*
X174826168Y-121372348D01*
X174810327Y-121327076D01*
X174766589Y-121202081D01*
X174734834Y-121151544D01*
X174670615Y-121049340D01*
X174543062Y-120921787D01*
X174390323Y-120825814D01*
X174220054Y-120766234D01*
X174220049Y-120766233D01*
X174040804Y-120746038D01*
X174040796Y-120746038D01*
X173861550Y-120766233D01*
X173861545Y-120766234D01*
X173691276Y-120825814D01*
X173538537Y-120921787D01*
X173410984Y-121049340D01*
X173315011Y-121202079D01*
X173255431Y-121372348D01*
X173255430Y-121372353D01*
X173235235Y-121551599D01*
X158049799Y-121551599D01*
X158036769Y-121435950D01*
X158036768Y-121435945D01*
X157977188Y-121265676D01*
X157919796Y-121174338D01*
X157881216Y-121112938D01*
X157753662Y-120985384D01*
X157600923Y-120889411D01*
X157430654Y-120829831D01*
X157430649Y-120829830D01*
X157251404Y-120809635D01*
X157251396Y-120809635D01*
X157072150Y-120829830D01*
X157072145Y-120829831D01*
X156901876Y-120889411D01*
X156749137Y-120985384D01*
X156621584Y-121112937D01*
X156525611Y-121265676D01*
X156466031Y-121435945D01*
X156466030Y-121435950D01*
X156445835Y-121615196D01*
X152976965Y-121615196D01*
X152956769Y-121435950D01*
X152956768Y-121435945D01*
X152897188Y-121265676D01*
X152839796Y-121174338D01*
X152801216Y-121112938D01*
X152673662Y-120985384D01*
X152520923Y-120889411D01*
X152350654Y-120829831D01*
X152350649Y-120829830D01*
X152171404Y-120809635D01*
X152171396Y-120809635D01*
X151992150Y-120829830D01*
X151992145Y-120829831D01*
X151821876Y-120889411D01*
X151669137Y-120985384D01*
X151541584Y-121112937D01*
X151445611Y-121265676D01*
X151386031Y-121435945D01*
X151386030Y-121435950D01*
X151365835Y-121615196D01*
X150386165Y-121615196D01*
X150365969Y-121435950D01*
X150365968Y-121435945D01*
X150306388Y-121265676D01*
X150248996Y-121174338D01*
X150210416Y-121112938D01*
X150082862Y-120985384D01*
X149930123Y-120889411D01*
X149759854Y-120829831D01*
X149759849Y-120829830D01*
X149580604Y-120809635D01*
X149580596Y-120809635D01*
X149401350Y-120829830D01*
X149401345Y-120829831D01*
X149231076Y-120889411D01*
X149078337Y-120985384D01*
X148950784Y-121112937D01*
X148854811Y-121265676D01*
X148795231Y-121435945D01*
X148795230Y-121435950D01*
X148775035Y-121615196D01*
X145306165Y-121615196D01*
X145285969Y-121435950D01*
X145285968Y-121435945D01*
X145226388Y-121265676D01*
X145168996Y-121174338D01*
X145130416Y-121112938D01*
X145002862Y-120985384D01*
X144850123Y-120889411D01*
X144679854Y-120829831D01*
X144679849Y-120829830D01*
X144500604Y-120809635D01*
X144500596Y-120809635D01*
X144321350Y-120829830D01*
X144321345Y-120829831D01*
X144151076Y-120889411D01*
X143998337Y-120985384D01*
X143870784Y-121112937D01*
X143774811Y-121265676D01*
X143715231Y-121435945D01*
X143715230Y-121435950D01*
X143695035Y-121615196D01*
X143009459Y-121615196D01*
X143041663Y-121495008D01*
X143062259Y-121259600D01*
X143041663Y-121024192D01*
X142989585Y-120829831D01*
X142980505Y-120795944D01*
X142980504Y-120795943D01*
X142980503Y-120795937D01*
X142880635Y-120581771D01*
X142877088Y-120576706D01*
X142745096Y-120388200D01*
X142702096Y-120345200D01*
X142623167Y-120266271D01*
X142589684Y-120204951D01*
X142594668Y-120135259D01*
X142636539Y-120079325D01*
X142667515Y-120062410D01*
X142798931Y-120013396D01*
X142914146Y-119927146D01*
X143000396Y-119811931D01*
X143050691Y-119677083D01*
X143057100Y-119617473D01*
X143057100Y-119075196D01*
X143695035Y-119075196D01*
X143695035Y-119075203D01*
X143715230Y-119254449D01*
X143715231Y-119254454D01*
X143774811Y-119424723D01*
X143846531Y-119538864D01*
X143870784Y-119577462D01*
X143998338Y-119705016D01*
X144151078Y-119800989D01*
X144296253Y-119851788D01*
X144321345Y-119860568D01*
X144321350Y-119860569D01*
X144500596Y-119880765D01*
X144500600Y-119880765D01*
X144500604Y-119880765D01*
X144679849Y-119860569D01*
X144679852Y-119860568D01*
X144679855Y-119860568D01*
X144850122Y-119800989D01*
X144954194Y-119735596D01*
X161703635Y-119735596D01*
X161703635Y-119735603D01*
X161723830Y-119914849D01*
X161723831Y-119914854D01*
X161783411Y-120085123D01*
X161868855Y-120221105D01*
X161879384Y-120237862D01*
X162006938Y-120365416D01*
X162159678Y-120461389D01*
X162329945Y-120520968D01*
X162329950Y-120520969D01*
X162509196Y-120541165D01*
X162509200Y-120541165D01*
X162509204Y-120541165D01*
X162688449Y-120520969D01*
X162688452Y-120520968D01*
X162688455Y-120520968D01*
X162858722Y-120461389D01*
X163011462Y-120365416D01*
X163139016Y-120237862D01*
X163234989Y-120085122D01*
X163294568Y-119914855D01*
X163301674Y-119851788D01*
X163314765Y-119735603D01*
X163314765Y-119735596D01*
X163294569Y-119556350D01*
X163294568Y-119556345D01*
X163234988Y-119386076D01*
X163184201Y-119305249D01*
X163139016Y-119233338D01*
X163011462Y-119105784D01*
X162962788Y-119075200D01*
X162858723Y-119009811D01*
X162688454Y-118950231D01*
X162688449Y-118950230D01*
X162509204Y-118930035D01*
X162509196Y-118930035D01*
X162329950Y-118950230D01*
X162329945Y-118950231D01*
X162159676Y-119009811D01*
X162006937Y-119105784D01*
X161879384Y-119233337D01*
X161783411Y-119386076D01*
X161723831Y-119556345D01*
X161723830Y-119556350D01*
X161703635Y-119735596D01*
X144954194Y-119735596D01*
X145002862Y-119705016D01*
X145130416Y-119577462D01*
X145226389Y-119424722D01*
X145285968Y-119254455D01*
X145285969Y-119254449D01*
X145306165Y-119075203D01*
X145306165Y-119075196D01*
X145285969Y-118895950D01*
X145285968Y-118895945D01*
X145246006Y-118781741D01*
X145226389Y-118725678D01*
X145130416Y-118572938D01*
X145002862Y-118445384D01*
X144926447Y-118397369D01*
X144850123Y-118349411D01*
X144819216Y-118338596D01*
X165263235Y-118338596D01*
X165263235Y-118338603D01*
X165283430Y-118517849D01*
X165283431Y-118517854D01*
X165343011Y-118688123D01*
X165398529Y-118776478D01*
X165438984Y-118840862D01*
X165566538Y-118968416D01*
X165632418Y-119009811D01*
X165670446Y-119033706D01*
X165716737Y-119086041D01*
X165727385Y-119155095D01*
X165699010Y-119218943D01*
X165670446Y-119243694D01*
X165566537Y-119308984D01*
X165438984Y-119436537D01*
X165343011Y-119589276D01*
X165283431Y-119759545D01*
X165283430Y-119759550D01*
X165263235Y-119938796D01*
X165263235Y-119938803D01*
X165283430Y-120118049D01*
X165283431Y-120118054D01*
X165343011Y-120288323D01*
X165432068Y-120430055D01*
X165438984Y-120441062D01*
X165566538Y-120568616D01*
X165719278Y-120664589D01*
X165889545Y-120724168D01*
X165889550Y-120724169D01*
X166068796Y-120744365D01*
X166068800Y-120744365D01*
X166068804Y-120744365D01*
X166248049Y-120724169D01*
X166248052Y-120724168D01*
X166248055Y-120724168D01*
X166418322Y-120664589D01*
X166571062Y-120568616D01*
X166698616Y-120441062D01*
X166794589Y-120288322D01*
X166854168Y-120118055D01*
X166854659Y-120113698D01*
X166874365Y-119938803D01*
X166874365Y-119938796D01*
X166854169Y-119759550D01*
X166854168Y-119759545D01*
X166804455Y-119617473D01*
X166794589Y-119589278D01*
X166698616Y-119436538D01*
X166571062Y-119308984D01*
X166467152Y-119243693D01*
X166420862Y-119191359D01*
X166410783Y-119125996D01*
X173235235Y-119125996D01*
X173235235Y-119126003D01*
X173255430Y-119305249D01*
X173255431Y-119305254D01*
X173315011Y-119475523D01*
X173379064Y-119577462D01*
X173410984Y-119628262D01*
X173538538Y-119755816D01*
X173691278Y-119851789D01*
X173774087Y-119880765D01*
X173861545Y-119911368D01*
X173861550Y-119911369D01*
X174040796Y-119931565D01*
X174040800Y-119931565D01*
X174040804Y-119931565D01*
X174220049Y-119911369D01*
X174220052Y-119911368D01*
X174220055Y-119911368D01*
X174390322Y-119851789D01*
X174543062Y-119755816D01*
X174670616Y-119628262D01*
X174766589Y-119475522D01*
X174826168Y-119305255D01*
X174831892Y-119254454D01*
X174846365Y-119126003D01*
X174846365Y-119125996D01*
X174826169Y-118946750D01*
X174826168Y-118946745D01*
X174788745Y-118839796D01*
X174766589Y-118776478D01*
X174670616Y-118623738D01*
X174543062Y-118496184D01*
X174486136Y-118460415D01*
X174390323Y-118400211D01*
X174220054Y-118340631D01*
X174220049Y-118340630D01*
X174040804Y-118320435D01*
X174040796Y-118320435D01*
X173861550Y-118340630D01*
X173861545Y-118340631D01*
X173691276Y-118400211D01*
X173538537Y-118496184D01*
X173410984Y-118623737D01*
X173315011Y-118776476D01*
X173255431Y-118946745D01*
X173255430Y-118946750D01*
X173235235Y-119125996D01*
X166410783Y-119125996D01*
X166410214Y-119122306D01*
X166438589Y-119058457D01*
X166467151Y-119033707D01*
X166571062Y-118968416D01*
X166698616Y-118840862D01*
X166794589Y-118688122D01*
X166854168Y-118517855D01*
X166860640Y-118460415D01*
X166874365Y-118338603D01*
X166874365Y-118338596D01*
X166854169Y-118159350D01*
X166854168Y-118159345D01*
X166808230Y-118028062D01*
X166794589Y-117989078D01*
X166698616Y-117836338D01*
X166571062Y-117708784D01*
X166554312Y-117698259D01*
X166418323Y-117612811D01*
X166248054Y-117553231D01*
X166248049Y-117553230D01*
X166068804Y-117533035D01*
X166068796Y-117533035D01*
X165889550Y-117553230D01*
X165889545Y-117553231D01*
X165719276Y-117612811D01*
X165566537Y-117708784D01*
X165438984Y-117836337D01*
X165343011Y-117989076D01*
X165283431Y-118159345D01*
X165283430Y-118159350D01*
X165263235Y-118338596D01*
X144819216Y-118338596D01*
X144679854Y-118289831D01*
X144679849Y-118289830D01*
X144500604Y-118269635D01*
X144500596Y-118269635D01*
X144321350Y-118289830D01*
X144321345Y-118289831D01*
X144151076Y-118349411D01*
X143998337Y-118445384D01*
X143870784Y-118572937D01*
X143774811Y-118725676D01*
X143715231Y-118895945D01*
X143715230Y-118895950D01*
X143695035Y-119075196D01*
X143057100Y-119075196D01*
X143057099Y-117821728D01*
X143050691Y-117762117D01*
X143030967Y-117709235D01*
X143000397Y-117627271D01*
X143000393Y-117627264D01*
X142914147Y-117512055D01*
X142914144Y-117512052D01*
X142798935Y-117425806D01*
X142798928Y-117425802D01*
X142664082Y-117375508D01*
X142664083Y-117375508D01*
X142604483Y-117369101D01*
X142604481Y-117369100D01*
X142604473Y-117369100D01*
X142604464Y-117369100D01*
X140808729Y-117369100D01*
X140808723Y-117369101D01*
X140749116Y-117375508D01*
X140614271Y-117425802D01*
X140614264Y-117425806D01*
X140499055Y-117512052D01*
X140499052Y-117512055D01*
X140412806Y-117627264D01*
X140412802Y-117627271D01*
X140362508Y-117762117D01*
X140356101Y-117821716D01*
X140356101Y-117821723D01*
X140356100Y-117821735D01*
X140356100Y-119617470D01*
X140356101Y-119617476D01*
X140362508Y-119677083D01*
X140412802Y-119811928D01*
X140412806Y-119811935D01*
X140499052Y-119927144D01*
X140499055Y-119927147D01*
X140614264Y-120013393D01*
X140614271Y-120013397D01*
X140745681Y-120062410D01*
X140801615Y-120104281D01*
X140826032Y-120169745D01*
X140811180Y-120238018D01*
X140790030Y-120266273D01*
X140668103Y-120388200D01*
X140532565Y-120581769D01*
X140532564Y-120581771D01*
X140432698Y-120795935D01*
X140432694Y-120795944D01*
X140371538Y-121024186D01*
X140371536Y-121024196D01*
X140350941Y-121259599D01*
X139704591Y-121259599D01*
X139708425Y-116875796D01*
X169573486Y-116875796D01*
X169573486Y-116875803D01*
X169593681Y-117055049D01*
X169593682Y-117055054D01*
X169653262Y-117225323D01*
X169729435Y-117346550D01*
X169749235Y-117378062D01*
X169876789Y-117505616D01*
X169985133Y-117573693D01*
X170029534Y-117601592D01*
X170035805Y-117604612D01*
X170034435Y-117607455D01*
X170079900Y-117639920D01*
X170103831Y-117698361D01*
X170104280Y-117698259D01*
X170104897Y-117700965D01*
X170105550Y-117702558D01*
X170105830Y-117705050D01*
X170165410Y-117875321D01*
X170174668Y-117890055D01*
X170261384Y-118028062D01*
X170388938Y-118155616D01*
X170541678Y-118251589D01*
X170711945Y-118311168D01*
X170711950Y-118311169D01*
X170891196Y-118331365D01*
X170891200Y-118331365D01*
X170891204Y-118331365D01*
X171070449Y-118311169D01*
X171070452Y-118311168D01*
X171070455Y-118311168D01*
X171240722Y-118251589D01*
X171393462Y-118155616D01*
X171521016Y-118028062D01*
X171616989Y-117875322D01*
X171676568Y-117705055D01*
X171676729Y-117703625D01*
X171696765Y-117525803D01*
X171696765Y-117525796D01*
X171676569Y-117346550D01*
X171676568Y-117346545D01*
X171646630Y-117260988D01*
X171616989Y-117176278D01*
X171521016Y-117023538D01*
X171393462Y-116895984D01*
X171240722Y-116800011D01*
X171240716Y-116800007D01*
X171234447Y-116796988D01*
X171235783Y-116794211D01*
X171190081Y-116761334D01*
X171166409Y-116703231D01*
X171165968Y-116703332D01*
X171165353Y-116700637D01*
X171164699Y-116699032D01*
X171164419Y-116696545D01*
X171104840Y-116526278D01*
X171008867Y-116373538D01*
X170881313Y-116245984D01*
X170785337Y-116185678D01*
X170728574Y-116150011D01*
X170558305Y-116090431D01*
X170558300Y-116090430D01*
X170379055Y-116070235D01*
X170379047Y-116070235D01*
X170199801Y-116090430D01*
X170199796Y-116090431D01*
X170029527Y-116150011D01*
X169876788Y-116245984D01*
X169749235Y-116373537D01*
X169653262Y-116526276D01*
X169593682Y-116696545D01*
X169593681Y-116696550D01*
X169573486Y-116875796D01*
X139708425Y-116875796D01*
X139709812Y-115290596D01*
X178264435Y-115290596D01*
X178264435Y-115290603D01*
X178284630Y-115469849D01*
X178284631Y-115469854D01*
X178344211Y-115640123D01*
X178359088Y-115663799D01*
X178440184Y-115792862D01*
X178567738Y-115920416D01*
X178720478Y-116016389D01*
X178874361Y-116070235D01*
X178890745Y-116075968D01*
X178890750Y-116075969D01*
X179069996Y-116096165D01*
X179070000Y-116096165D01*
X179070004Y-116096165D01*
X179235068Y-116077567D01*
X179303889Y-116089622D01*
X179355269Y-116136971D01*
X179372893Y-116204581D01*
X179365993Y-116241741D01*
X179326032Y-116355942D01*
X179326030Y-116355950D01*
X179305835Y-116535196D01*
X179305835Y-116535203D01*
X179326030Y-116714449D01*
X179326032Y-116714457D01*
X179384498Y-116881543D01*
X179388059Y-116951321D01*
X179353330Y-117011949D01*
X179291337Y-117044176D01*
X179253573Y-117045717D01*
X179070004Y-117025035D01*
X179069996Y-117025035D01*
X178890750Y-117045230D01*
X178890745Y-117045231D01*
X178720476Y-117104811D01*
X178567737Y-117200784D01*
X178440184Y-117328337D01*
X178344211Y-117481076D01*
X178284631Y-117651345D01*
X178284630Y-117651350D01*
X178264435Y-117830596D01*
X178264435Y-117830603D01*
X178284630Y-118009849D01*
X178284631Y-118009854D01*
X178344211Y-118180123D01*
X178400456Y-118269635D01*
X178440184Y-118332862D01*
X178567738Y-118460416D01*
X178720478Y-118556389D01*
X178878076Y-118611535D01*
X178890745Y-118615968D01*
X178890750Y-118615969D01*
X179069996Y-118636165D01*
X179070000Y-118636165D01*
X179070004Y-118636165D01*
X179235068Y-118617567D01*
X179303889Y-118629622D01*
X179355269Y-118676971D01*
X179372893Y-118744581D01*
X179365993Y-118781741D01*
X179326032Y-118895942D01*
X179326030Y-118895950D01*
X179305835Y-119075196D01*
X179305835Y-119075203D01*
X179326030Y-119254449D01*
X179326031Y-119254454D01*
X179385611Y-119424723D01*
X179457331Y-119538864D01*
X179481584Y-119577462D01*
X179609138Y-119705016D01*
X179761878Y-119800989D01*
X179907053Y-119851788D01*
X179932145Y-119860568D01*
X179932150Y-119860569D01*
X180111396Y-119880765D01*
X180111400Y-119880765D01*
X180111404Y-119880765D01*
X180290649Y-119860569D01*
X180290652Y-119860568D01*
X180290655Y-119860568D01*
X180460922Y-119800989D01*
X180613662Y-119705016D01*
X180741216Y-119577462D01*
X180837189Y-119424722D01*
X180896768Y-119254455D01*
X180896769Y-119254449D01*
X180916965Y-119075203D01*
X180916965Y-119075196D01*
X181845835Y-119075196D01*
X181845835Y-119075203D01*
X181866030Y-119254449D01*
X181866031Y-119254454D01*
X181925611Y-119424723D01*
X181997331Y-119538864D01*
X182021584Y-119577462D01*
X182149138Y-119705016D01*
X182301878Y-119800989D01*
X182447053Y-119851788D01*
X182472145Y-119860568D01*
X182472150Y-119860569D01*
X182651396Y-119880765D01*
X182651400Y-119880765D01*
X182651404Y-119880765D01*
X182830649Y-119860569D01*
X182830652Y-119860568D01*
X182830655Y-119860568D01*
X183000922Y-119800989D01*
X183153662Y-119705016D01*
X183281216Y-119577462D01*
X183377189Y-119424722D01*
X183436768Y-119254455D01*
X183436769Y-119254449D01*
X183456965Y-119075203D01*
X183456965Y-119075196D01*
X184385835Y-119075196D01*
X184385835Y-119075203D01*
X184406030Y-119254449D01*
X184406031Y-119254454D01*
X184465611Y-119424723D01*
X184537331Y-119538864D01*
X184561584Y-119577462D01*
X184689138Y-119705016D01*
X184841878Y-119800989D01*
X184987053Y-119851788D01*
X185012145Y-119860568D01*
X185012150Y-119860569D01*
X185191396Y-119880765D01*
X185191400Y-119880765D01*
X185191404Y-119880765D01*
X185370649Y-119860569D01*
X185370652Y-119860568D01*
X185370655Y-119860568D01*
X185540922Y-119800989D01*
X185693662Y-119705016D01*
X185821216Y-119577462D01*
X185917189Y-119424722D01*
X185976768Y-119254455D01*
X185976769Y-119254449D01*
X185996965Y-119075203D01*
X185996965Y-119075196D01*
X185976769Y-118895950D01*
X185976768Y-118895945D01*
X185936806Y-118781741D01*
X185917189Y-118725678D01*
X185821216Y-118572938D01*
X185693662Y-118445384D01*
X185617247Y-118397369D01*
X185540923Y-118349411D01*
X185370654Y-118289831D01*
X185370649Y-118289830D01*
X185191404Y-118269635D01*
X185191396Y-118269635D01*
X185012150Y-118289830D01*
X185012145Y-118289831D01*
X184841876Y-118349411D01*
X184689137Y-118445384D01*
X184561584Y-118572937D01*
X184465611Y-118725676D01*
X184406031Y-118895945D01*
X184406030Y-118895950D01*
X184385835Y-119075196D01*
X183456965Y-119075196D01*
X183436769Y-118895950D01*
X183436768Y-118895945D01*
X183396806Y-118781741D01*
X183377189Y-118725678D01*
X183281216Y-118572938D01*
X183153662Y-118445384D01*
X183077247Y-118397369D01*
X183000923Y-118349411D01*
X182830654Y-118289831D01*
X182830649Y-118289830D01*
X182651404Y-118269635D01*
X182651396Y-118269635D01*
X182472150Y-118289830D01*
X182472145Y-118289831D01*
X182301876Y-118349411D01*
X182149137Y-118445384D01*
X182021584Y-118572937D01*
X181925611Y-118725676D01*
X181866031Y-118895945D01*
X181866030Y-118895950D01*
X181845835Y-119075196D01*
X180916965Y-119075196D01*
X180896769Y-118895950D01*
X180896768Y-118895945D01*
X180856806Y-118781741D01*
X180837189Y-118725678D01*
X180741216Y-118572938D01*
X180613662Y-118445384D01*
X180537247Y-118397369D01*
X180460923Y-118349411D01*
X180290654Y-118289831D01*
X180290649Y-118289830D01*
X180111404Y-118269635D01*
X180111396Y-118269635D01*
X179946331Y-118288232D01*
X179877509Y-118276177D01*
X179826130Y-118228828D01*
X179808506Y-118161217D01*
X179815407Y-118124057D01*
X179855366Y-118009862D01*
X179855369Y-118009849D01*
X179875565Y-117830603D01*
X179875565Y-117830596D01*
X179855369Y-117651350D01*
X179855366Y-117651337D01*
X179796902Y-117484257D01*
X179793340Y-117414478D01*
X179828068Y-117353851D01*
X179890062Y-117321623D01*
X179927826Y-117320082D01*
X180111396Y-117340765D01*
X180111400Y-117340765D01*
X180111404Y-117340765D01*
X180290649Y-117320569D01*
X180290652Y-117320568D01*
X180290655Y-117320568D01*
X180460922Y-117260989D01*
X180613662Y-117165016D01*
X180741216Y-117037462D01*
X180837189Y-116884722D01*
X180896768Y-116714455D01*
X180896769Y-116714449D01*
X180916965Y-116535203D01*
X180916965Y-116535196D01*
X181845835Y-116535196D01*
X181845835Y-116535203D01*
X181866030Y-116714449D01*
X181866031Y-116714454D01*
X181925611Y-116884723D01*
X181997331Y-116998864D01*
X182021584Y-117037462D01*
X182149138Y-117165016D01*
X182301878Y-117260989D01*
X182470756Y-117320082D01*
X182472145Y-117320568D01*
X182472150Y-117320569D01*
X182651396Y-117340765D01*
X182651400Y-117340765D01*
X182651404Y-117340765D01*
X182830649Y-117320569D01*
X182830652Y-117320568D01*
X182830655Y-117320568D01*
X183000922Y-117260989D01*
X183153662Y-117165016D01*
X183281216Y-117037462D01*
X183377189Y-116884722D01*
X183436768Y-116714455D01*
X183436769Y-116714449D01*
X183456965Y-116535203D01*
X183456965Y-116535196D01*
X184385835Y-116535196D01*
X184385835Y-116535203D01*
X184406030Y-116714449D01*
X184406031Y-116714454D01*
X184465611Y-116884723D01*
X184537331Y-116998864D01*
X184561584Y-117037462D01*
X184689138Y-117165016D01*
X184841878Y-117260989D01*
X185010756Y-117320082D01*
X185012145Y-117320568D01*
X185012150Y-117320569D01*
X185191396Y-117340765D01*
X185191400Y-117340765D01*
X185191404Y-117340765D01*
X185370649Y-117320569D01*
X185370652Y-117320568D01*
X185370655Y-117320568D01*
X185540922Y-117260989D01*
X185693662Y-117165016D01*
X185821216Y-117037462D01*
X185917189Y-116884722D01*
X185976768Y-116714455D01*
X185976769Y-116714449D01*
X185996965Y-116535203D01*
X185996965Y-116535196D01*
X185976769Y-116355950D01*
X185976768Y-116355945D01*
X185917188Y-116185676D01*
X185848254Y-116075969D01*
X185821216Y-116032938D01*
X185693662Y-115905384D01*
X185617247Y-115857369D01*
X185540923Y-115809411D01*
X185370654Y-115749831D01*
X185370649Y-115749830D01*
X185191404Y-115729635D01*
X185191396Y-115729635D01*
X185012150Y-115749830D01*
X185012145Y-115749831D01*
X184841876Y-115809411D01*
X184689137Y-115905384D01*
X184561584Y-116032937D01*
X184465611Y-116185676D01*
X184406031Y-116355945D01*
X184406030Y-116355950D01*
X184385835Y-116535196D01*
X183456965Y-116535196D01*
X183436769Y-116355950D01*
X183436768Y-116355945D01*
X183377188Y-116185676D01*
X183308254Y-116075969D01*
X183281216Y-116032938D01*
X183153662Y-115905384D01*
X183077247Y-115857369D01*
X183000923Y-115809411D01*
X182830654Y-115749831D01*
X182830649Y-115749830D01*
X182651404Y-115729635D01*
X182651396Y-115729635D01*
X182472150Y-115749830D01*
X182472145Y-115749831D01*
X182301876Y-115809411D01*
X182149137Y-115905384D01*
X182021584Y-116032937D01*
X181925611Y-116185676D01*
X181866031Y-116355945D01*
X181866030Y-116355950D01*
X181845835Y-116535196D01*
X180916965Y-116535196D01*
X180896769Y-116355950D01*
X180896768Y-116355945D01*
X180837188Y-116185676D01*
X180768254Y-116075969D01*
X180741216Y-116032938D01*
X180613662Y-115905384D01*
X180537247Y-115857369D01*
X180460923Y-115809411D01*
X180290654Y-115749831D01*
X180290649Y-115749830D01*
X180111404Y-115729635D01*
X180111396Y-115729635D01*
X179946331Y-115748232D01*
X179877509Y-115736177D01*
X179826130Y-115688828D01*
X179808506Y-115621217D01*
X179815407Y-115584057D01*
X179855366Y-115469862D01*
X179855369Y-115469849D01*
X179875565Y-115290603D01*
X179875565Y-115290596D01*
X179855369Y-115111350D01*
X179855366Y-115111337D01*
X179796902Y-114944257D01*
X179793340Y-114874478D01*
X179828068Y-114813851D01*
X179890062Y-114781623D01*
X179927826Y-114780082D01*
X180111396Y-114800765D01*
X180111400Y-114800765D01*
X180111404Y-114800765D01*
X180290649Y-114780569D01*
X180290652Y-114780568D01*
X180290655Y-114780568D01*
X180460922Y-114720989D01*
X180613662Y-114625016D01*
X180741216Y-114497462D01*
X180837189Y-114344722D01*
X180896768Y-114174455D01*
X180897666Y-114166485D01*
X180916965Y-113995203D01*
X180916965Y-113995196D01*
X181845835Y-113995196D01*
X181845835Y-113995203D01*
X181866030Y-114174449D01*
X181866031Y-114174454D01*
X181925611Y-114344723D01*
X181997331Y-114458864D01*
X182021584Y-114497462D01*
X182149138Y-114625016D01*
X182301878Y-114720989D01*
X182422410Y-114763165D01*
X182472145Y-114780568D01*
X182472150Y-114780569D01*
X182651396Y-114800765D01*
X182651400Y-114800765D01*
X182651404Y-114800765D01*
X182830649Y-114780569D01*
X182830652Y-114780568D01*
X182830655Y-114780568D01*
X183000922Y-114720989D01*
X183153662Y-114625016D01*
X183281216Y-114497462D01*
X183377189Y-114344722D01*
X183436768Y-114174455D01*
X183437666Y-114166485D01*
X183456965Y-113995203D01*
X183456965Y-113995196D01*
X184385835Y-113995196D01*
X184385835Y-113995203D01*
X184406030Y-114174449D01*
X184406031Y-114174454D01*
X184465611Y-114344723D01*
X184537331Y-114458864D01*
X184561584Y-114497462D01*
X184689138Y-114625016D01*
X184841878Y-114720989D01*
X184962410Y-114763165D01*
X185012145Y-114780568D01*
X185012150Y-114780569D01*
X185191396Y-114800765D01*
X185191400Y-114800765D01*
X185191404Y-114800765D01*
X185370649Y-114780569D01*
X185370652Y-114780568D01*
X185370655Y-114780568D01*
X185540922Y-114720989D01*
X185693662Y-114625016D01*
X185821216Y-114497462D01*
X185917189Y-114344722D01*
X185976768Y-114174455D01*
X185977666Y-114166485D01*
X185996965Y-113995203D01*
X185996965Y-113995199D01*
X187188541Y-113995199D01*
X187188541Y-113995200D01*
X187209136Y-114230603D01*
X187209138Y-114230613D01*
X187270294Y-114458855D01*
X187270296Y-114458859D01*
X187270297Y-114458863D01*
X187347775Y-114625015D01*
X187370165Y-114673030D01*
X187370167Y-114673034D01*
X187505701Y-114866595D01*
X187505706Y-114866602D01*
X187672797Y-115033693D01*
X187672803Y-115033698D01*
X187858358Y-115163625D01*
X187901983Y-115218202D01*
X187909177Y-115287700D01*
X187877654Y-115350055D01*
X187858358Y-115366775D01*
X187672797Y-115496705D01*
X187505705Y-115663797D01*
X187370165Y-115857369D01*
X187370164Y-115857371D01*
X187270298Y-116071535D01*
X187270294Y-116071544D01*
X187209138Y-116299786D01*
X187209136Y-116299796D01*
X187188541Y-116535199D01*
X187188541Y-116535200D01*
X187209136Y-116770603D01*
X187209138Y-116770613D01*
X187270294Y-116998855D01*
X187270296Y-116998859D01*
X187270297Y-116998863D01*
X187296500Y-117055055D01*
X187370165Y-117213030D01*
X187370167Y-117213034D01*
X187505701Y-117406595D01*
X187505706Y-117406602D01*
X187672797Y-117573693D01*
X187672803Y-117573698D01*
X187858358Y-117703625D01*
X187901983Y-117758202D01*
X187909177Y-117827700D01*
X187877654Y-117890055D01*
X187858358Y-117906775D01*
X187672797Y-118036705D01*
X187505705Y-118203797D01*
X187370165Y-118397369D01*
X187370164Y-118397371D01*
X187270298Y-118611535D01*
X187270294Y-118611544D01*
X187209138Y-118839786D01*
X187209136Y-118839796D01*
X187188541Y-119075199D01*
X187188541Y-119075200D01*
X187209136Y-119310603D01*
X187209138Y-119310613D01*
X187270294Y-119538855D01*
X187270296Y-119538859D01*
X187270297Y-119538863D01*
X187311985Y-119628262D01*
X187370165Y-119753030D01*
X187370167Y-119753034D01*
X187459606Y-119880765D01*
X187492082Y-119927146D01*
X187505701Y-119946595D01*
X187505706Y-119946602D01*
X187672797Y-120113693D01*
X187672803Y-120113698D01*
X187858358Y-120243625D01*
X187901983Y-120298202D01*
X187909177Y-120367700D01*
X187877654Y-120430055D01*
X187858358Y-120446775D01*
X187672797Y-120576705D01*
X187505705Y-120743797D01*
X187370165Y-120937369D01*
X187370164Y-120937371D01*
X187270298Y-121151535D01*
X187270294Y-121151544D01*
X187209138Y-121379786D01*
X187209136Y-121379796D01*
X187188541Y-121615199D01*
X187188541Y-121615200D01*
X187209136Y-121850603D01*
X187209138Y-121850613D01*
X187270294Y-122078855D01*
X187270296Y-122078859D01*
X187270297Y-122078863D01*
X187318120Y-122181419D01*
X187370165Y-122293030D01*
X187370167Y-122293034D01*
X187446738Y-122402388D01*
X187488457Y-122461969D01*
X187505701Y-122486595D01*
X187505706Y-122486602D01*
X187672797Y-122653693D01*
X187672803Y-122653698D01*
X187858358Y-122783625D01*
X187901983Y-122838202D01*
X187909177Y-122907700D01*
X187877654Y-122970055D01*
X187858358Y-122986775D01*
X187672797Y-123116705D01*
X187505705Y-123283797D01*
X187370165Y-123477369D01*
X187370164Y-123477371D01*
X187270298Y-123691535D01*
X187270294Y-123691544D01*
X187209138Y-123919786D01*
X187209136Y-123919796D01*
X187188541Y-124155199D01*
X187188541Y-124155200D01*
X187209136Y-124390603D01*
X187209138Y-124390613D01*
X187270294Y-124618855D01*
X187270296Y-124618859D01*
X187270297Y-124618863D01*
X187294610Y-124671002D01*
X187370165Y-124833030D01*
X187370167Y-124833034D01*
X187459606Y-124960765D01*
X187486474Y-124999137D01*
X187505701Y-125026595D01*
X187505706Y-125026602D01*
X187672797Y-125193693D01*
X187672803Y-125193698D01*
X187858358Y-125323625D01*
X187901983Y-125378202D01*
X187909177Y-125447700D01*
X187877654Y-125510055D01*
X187858358Y-125526775D01*
X187672797Y-125656705D01*
X187505705Y-125823797D01*
X187370165Y-126017369D01*
X187370164Y-126017371D01*
X187270298Y-126231535D01*
X187270294Y-126231544D01*
X187209138Y-126459786D01*
X187209136Y-126459796D01*
X187188541Y-126695199D01*
X187188541Y-126695200D01*
X187209136Y-126930603D01*
X187209138Y-126930613D01*
X187270294Y-127158855D01*
X187270296Y-127158859D01*
X187270297Y-127158863D01*
X187323671Y-127273323D01*
X187370165Y-127373030D01*
X187370167Y-127373034D01*
X187459606Y-127500765D01*
X187505705Y-127566601D01*
X187672799Y-127733695D01*
X187751567Y-127788849D01*
X187866365Y-127869232D01*
X187866367Y-127869233D01*
X187866370Y-127869235D01*
X188080537Y-127969103D01*
X188308792Y-128030263D01*
X188495338Y-128046584D01*
X188544199Y-128050859D01*
X188544200Y-128050859D01*
X188544201Y-128050859D01*
X188593062Y-128046584D01*
X188779608Y-128030263D01*
X189007863Y-127969103D01*
X189222030Y-127869235D01*
X189415601Y-127733695D01*
X189582695Y-127566601D01*
X189718235Y-127373030D01*
X189818103Y-127158863D01*
X189879263Y-126930608D01*
X189899859Y-126695200D01*
X189879263Y-126459792D01*
X189818103Y-126231537D01*
X189718235Y-126017371D01*
X189684654Y-125969411D01*
X189582694Y-125823797D01*
X189415602Y-125656706D01*
X189415596Y-125656701D01*
X189230042Y-125526775D01*
X189186417Y-125472198D01*
X189179223Y-125402700D01*
X189210746Y-125340345D01*
X189230042Y-125323625D01*
X189273757Y-125293015D01*
X189415601Y-125193695D01*
X189582695Y-125026601D01*
X189718235Y-124833030D01*
X189818103Y-124618863D01*
X189879263Y-124390608D01*
X189899859Y-124155200D01*
X189879263Y-123919792D01*
X189818103Y-123691537D01*
X189718235Y-123477371D01*
X189716909Y-123475476D01*
X189582694Y-123283797D01*
X189415602Y-123116706D01*
X189415596Y-123116701D01*
X189230042Y-122986775D01*
X189186417Y-122932198D01*
X189179223Y-122862700D01*
X189210746Y-122800345D01*
X189230042Y-122783625D01*
X189262209Y-122761101D01*
X189415601Y-122653695D01*
X189582695Y-122486601D01*
X189718235Y-122293030D01*
X189818103Y-122078863D01*
X189879263Y-121850608D01*
X189899859Y-121615200D01*
X189879263Y-121379792D01*
X189831646Y-121202079D01*
X189818105Y-121151544D01*
X189818104Y-121151543D01*
X189818103Y-121151537D01*
X189718235Y-120937371D01*
X189685929Y-120891232D01*
X189582694Y-120743797D01*
X189415602Y-120576706D01*
X189415596Y-120576701D01*
X189230042Y-120446775D01*
X189186417Y-120392198D01*
X189179223Y-120322700D01*
X189210746Y-120260345D01*
X189230042Y-120243625D01*
X189409374Y-120118055D01*
X189415601Y-120113695D01*
X189582695Y-119946601D01*
X189718235Y-119753030D01*
X189818103Y-119538863D01*
X189879263Y-119310608D01*
X189899859Y-119075200D01*
X189879263Y-118839792D01*
X189818103Y-118611537D01*
X189718235Y-118397371D01*
X189684654Y-118349411D01*
X189582694Y-118203797D01*
X189415602Y-118036706D01*
X189415596Y-118036701D01*
X189230042Y-117906775D01*
X189186417Y-117852198D01*
X189179223Y-117782700D01*
X189210746Y-117720345D01*
X189230042Y-117703625D01*
X189321022Y-117639920D01*
X189415601Y-117573695D01*
X189582695Y-117406601D01*
X189718235Y-117213030D01*
X189818103Y-116998863D01*
X189879263Y-116770608D01*
X189899859Y-116535200D01*
X189879263Y-116299792D01*
X189818103Y-116071537D01*
X189718235Y-115857371D01*
X189684654Y-115809411D01*
X189582694Y-115663797D01*
X189415602Y-115496706D01*
X189415596Y-115496701D01*
X189230042Y-115366775D01*
X189186417Y-115312198D01*
X189179223Y-115242700D01*
X189210746Y-115180345D01*
X189230042Y-115163625D01*
X189304717Y-115111337D01*
X189415601Y-115033695D01*
X189582695Y-114866601D01*
X189718235Y-114673030D01*
X189818103Y-114458863D01*
X189879263Y-114230608D01*
X189899859Y-113995200D01*
X189879263Y-113759792D01*
X189829144Y-113572744D01*
X189818105Y-113531544D01*
X189818104Y-113531543D01*
X189818103Y-113531537D01*
X189718235Y-113317371D01*
X189695887Y-113285455D01*
X189582696Y-113123800D01*
X189565092Y-113106196D01*
X189460767Y-113001871D01*
X189427284Y-112940551D01*
X189432268Y-112870859D01*
X189474139Y-112814925D01*
X189505115Y-112798010D01*
X189636531Y-112748996D01*
X189751746Y-112662746D01*
X189837996Y-112547531D01*
X189888291Y-112412683D01*
X189894700Y-112353073D01*
X189894699Y-110557328D01*
X189888291Y-110497717D01*
X189875810Y-110464255D01*
X189837997Y-110362871D01*
X189837993Y-110362864D01*
X189751747Y-110247655D01*
X189751744Y-110247652D01*
X189636535Y-110161406D01*
X189636528Y-110161402D01*
X189501682Y-110111108D01*
X189501683Y-110111108D01*
X189442083Y-110104701D01*
X189442081Y-110104700D01*
X189442073Y-110104700D01*
X189442064Y-110104700D01*
X187646329Y-110104700D01*
X187646323Y-110104701D01*
X187586716Y-110111108D01*
X187451871Y-110161402D01*
X187451864Y-110161406D01*
X187336655Y-110247652D01*
X187336652Y-110247655D01*
X187250406Y-110362864D01*
X187250402Y-110362871D01*
X187200108Y-110497717D01*
X187194939Y-110545800D01*
X187193701Y-110557323D01*
X187193700Y-110557335D01*
X187193700Y-112353070D01*
X187193701Y-112353076D01*
X187200108Y-112412683D01*
X187250402Y-112547528D01*
X187250406Y-112547535D01*
X187336652Y-112662744D01*
X187336655Y-112662747D01*
X187451864Y-112748993D01*
X187451871Y-112748997D01*
X187583281Y-112798010D01*
X187639215Y-112839881D01*
X187663632Y-112905345D01*
X187648780Y-112973618D01*
X187627630Y-113001873D01*
X187505703Y-113123800D01*
X187370165Y-113317369D01*
X187370164Y-113317371D01*
X187270298Y-113531535D01*
X187270294Y-113531544D01*
X187209138Y-113759786D01*
X187209136Y-113759796D01*
X187188541Y-113995199D01*
X185996965Y-113995199D01*
X185996965Y-113995196D01*
X185976769Y-113815950D01*
X185976768Y-113815945D01*
X185953243Y-113748714D01*
X185917189Y-113645678D01*
X185821216Y-113492938D01*
X185693662Y-113365384D01*
X185648270Y-113336862D01*
X185540923Y-113269411D01*
X185370654Y-113209831D01*
X185370649Y-113209830D01*
X185191404Y-113189635D01*
X185191396Y-113189635D01*
X185012150Y-113209830D01*
X185012145Y-113209831D01*
X184841876Y-113269411D01*
X184689137Y-113365384D01*
X184561584Y-113492937D01*
X184465611Y-113645676D01*
X184406031Y-113815945D01*
X184406030Y-113815950D01*
X184385835Y-113995196D01*
X183456965Y-113995196D01*
X183436769Y-113815950D01*
X183436768Y-113815945D01*
X183413243Y-113748714D01*
X183377189Y-113645678D01*
X183281216Y-113492938D01*
X183153662Y-113365384D01*
X183108270Y-113336862D01*
X183000923Y-113269411D01*
X182830654Y-113209831D01*
X182830649Y-113209830D01*
X182651404Y-113189635D01*
X182651396Y-113189635D01*
X182472150Y-113209830D01*
X182472145Y-113209831D01*
X182301876Y-113269411D01*
X182149137Y-113365384D01*
X182021584Y-113492937D01*
X181925611Y-113645676D01*
X181866031Y-113815945D01*
X181866030Y-113815950D01*
X181845835Y-113995196D01*
X180916965Y-113995196D01*
X180896769Y-113815950D01*
X180896768Y-113815945D01*
X180873243Y-113748714D01*
X180837189Y-113645678D01*
X180741216Y-113492938D01*
X180613662Y-113365384D01*
X180568270Y-113336862D01*
X180460923Y-113269411D01*
X180290654Y-113209831D01*
X180290649Y-113209830D01*
X180111404Y-113189635D01*
X180111396Y-113189635D01*
X179932150Y-113209830D01*
X179932145Y-113209831D01*
X179761876Y-113269411D01*
X179609137Y-113365384D01*
X179481584Y-113492937D01*
X179385611Y-113645676D01*
X179326031Y-113815945D01*
X179326030Y-113815950D01*
X179305835Y-113995196D01*
X179305835Y-113995203D01*
X179326030Y-114174449D01*
X179326032Y-114174457D01*
X179384498Y-114341543D01*
X179388059Y-114411321D01*
X179353330Y-114471949D01*
X179291337Y-114504176D01*
X179253573Y-114505717D01*
X179070004Y-114485035D01*
X179069996Y-114485035D01*
X178890750Y-114505230D01*
X178890745Y-114505231D01*
X178720476Y-114564811D01*
X178567737Y-114660784D01*
X178440184Y-114788337D01*
X178344211Y-114941076D01*
X178284631Y-115111345D01*
X178284630Y-115111350D01*
X178264435Y-115290596D01*
X139709812Y-115290596D01*
X139715677Y-108584996D01*
X142417735Y-108584996D01*
X142417735Y-108585003D01*
X142437930Y-108764249D01*
X142437931Y-108764254D01*
X142497511Y-108934523D01*
X142569263Y-109048714D01*
X142593484Y-109087262D01*
X142721038Y-109214816D01*
X142789122Y-109257596D01*
X142873779Y-109310790D01*
X142894266Y-109317959D01*
X142951041Y-109358681D01*
X142976788Y-109423634D01*
X142963331Y-109492196D01*
X142914943Y-109542598D01*
X142894266Y-109552041D01*
X142873779Y-109559209D01*
X142721037Y-109655184D01*
X142593484Y-109782737D01*
X142497511Y-109935476D01*
X142437931Y-110105745D01*
X142437930Y-110105750D01*
X142417735Y-110284996D01*
X142417735Y-110285003D01*
X142437930Y-110464249D01*
X142437931Y-110464254D01*
X142497511Y-110634523D01*
X142557134Y-110729411D01*
X142593484Y-110787262D01*
X142721038Y-110914816D01*
X142781707Y-110952937D01*
X142873779Y-111010790D01*
X142894266Y-111017959D01*
X142951041Y-111058681D01*
X142976788Y-111123634D01*
X142963331Y-111192196D01*
X142914943Y-111242598D01*
X142894266Y-111252041D01*
X142873779Y-111259209D01*
X142721037Y-111355184D01*
X142593484Y-111482737D01*
X142497511Y-111635476D01*
X142437931Y-111805745D01*
X142437930Y-111805750D01*
X142417735Y-111984996D01*
X142417735Y-111985003D01*
X142437930Y-112164249D01*
X142437931Y-112164254D01*
X142497511Y-112334523D01*
X142578571Y-112463528D01*
X142593484Y-112487262D01*
X142721038Y-112614816D01*
X142873778Y-112710789D01*
X142982970Y-112748997D01*
X143044045Y-112770368D01*
X143044050Y-112770369D01*
X143223296Y-112790565D01*
X143223300Y-112790565D01*
X143223304Y-112790565D01*
X143402549Y-112770369D01*
X143402552Y-112770368D01*
X143402555Y-112770368D01*
X143572822Y-112710789D01*
X143725562Y-112614816D01*
X143853116Y-112487262D01*
X143949089Y-112334522D01*
X143951258Y-112328324D01*
X143991979Y-112271548D01*
X144056932Y-112245800D01*
X144125494Y-112259256D01*
X144175897Y-112307643D01*
X144185342Y-112328324D01*
X144187510Y-112334521D01*
X144268571Y-112463528D01*
X144283484Y-112487262D01*
X144411038Y-112614816D01*
X144563778Y-112710789D01*
X144672970Y-112748997D01*
X144734045Y-112770368D01*
X144734050Y-112770369D01*
X144913296Y-112790565D01*
X144913300Y-112790565D01*
X144913304Y-112790565D01*
X145092549Y-112770369D01*
X145092552Y-112770368D01*
X145092555Y-112770368D01*
X145262822Y-112710789D01*
X145415562Y-112614816D01*
X145543116Y-112487262D01*
X145638306Y-112335767D01*
X145690641Y-112289477D01*
X145759694Y-112278829D01*
X145823543Y-112307204D01*
X145848293Y-112335767D01*
X145943484Y-112487262D01*
X146071038Y-112614816D01*
X146223778Y-112710789D01*
X146332970Y-112748997D01*
X146394045Y-112770368D01*
X146394050Y-112770369D01*
X146573296Y-112790565D01*
X146573300Y-112790565D01*
X146573304Y-112790565D01*
X146752549Y-112770369D01*
X146752552Y-112770368D01*
X146752555Y-112770368D01*
X146922822Y-112710789D01*
X147075562Y-112614816D01*
X147203116Y-112487262D01*
X147299089Y-112334522D01*
X147358668Y-112164255D01*
X147367596Y-112085015D01*
X147378865Y-111985003D01*
X147378865Y-111984996D01*
X147358669Y-111805750D01*
X147358668Y-111805745D01*
X147318576Y-111691170D01*
X147299089Y-111635478D01*
X147298442Y-111634449D01*
X147203115Y-111482737D01*
X147075562Y-111355184D01*
X146922821Y-111259210D01*
X146902335Y-111252042D01*
X146845558Y-111211320D01*
X146819811Y-111146367D01*
X146833267Y-111077806D01*
X146881654Y-111027403D01*
X146902335Y-111017958D01*
X146911595Y-111014717D01*
X146922822Y-111010789D01*
X147075562Y-110914816D01*
X147203116Y-110787262D01*
X147299089Y-110634522D01*
X147358668Y-110464255D01*
X147359364Y-110458078D01*
X147378865Y-110285003D01*
X147378865Y-110284996D01*
X147358669Y-110105750D01*
X147358668Y-110105745D01*
X147315854Y-109983389D01*
X147299089Y-109935478D01*
X147298305Y-109934231D01*
X147203115Y-109782737D01*
X147075562Y-109655184D01*
X146922821Y-109559210D01*
X146902335Y-109552042D01*
X146845558Y-109511320D01*
X146819811Y-109446367D01*
X146833267Y-109377806D01*
X146881654Y-109327403D01*
X146902335Y-109317958D01*
X146911595Y-109314717D01*
X146922822Y-109310789D01*
X147075562Y-109214816D01*
X147203116Y-109087262D01*
X147299089Y-108934522D01*
X147358668Y-108764255D01*
X147358669Y-108764249D01*
X147378865Y-108585003D01*
X147378865Y-108584996D01*
X147364511Y-108457596D01*
X154794835Y-108457596D01*
X154794835Y-108457603D01*
X154815030Y-108636849D01*
X154815033Y-108636862D01*
X154876910Y-108813694D01*
X154874764Y-108814444D01*
X154884362Y-108872744D01*
X154876009Y-108901190D01*
X154876910Y-108901506D01*
X154815033Y-109078337D01*
X154815030Y-109078350D01*
X154794835Y-109257596D01*
X154794835Y-109257603D01*
X154815030Y-109436849D01*
X154815031Y-109436854D01*
X154874611Y-109607123D01*
X154946018Y-109720765D01*
X154970584Y-109759862D01*
X155098138Y-109887416D01*
X155162100Y-109927606D01*
X155208391Y-109979941D01*
X155219039Y-110048995D01*
X155190664Y-110112843D01*
X155162100Y-110137594D01*
X155098137Y-110177784D01*
X154970584Y-110305337D01*
X154874611Y-110458076D01*
X154815031Y-110628345D01*
X154815030Y-110628350D01*
X154794835Y-110807596D01*
X154794835Y-110807603D01*
X154815030Y-110986849D01*
X154815033Y-110986862D01*
X154876910Y-111163694D01*
X154874764Y-111164444D01*
X154884362Y-111222744D01*
X154876009Y-111251190D01*
X154876910Y-111251506D01*
X154815033Y-111428337D01*
X154815030Y-111428350D01*
X154794835Y-111607596D01*
X154794835Y-111607603D01*
X154815030Y-111786849D01*
X154815031Y-111786854D01*
X154874611Y-111957123D01*
X154954972Y-112085016D01*
X154970584Y-112109862D01*
X155098138Y-112237416D01*
X155132896Y-112259256D01*
X155162100Y-112277606D01*
X155208391Y-112329941D01*
X155219039Y-112398995D01*
X155190664Y-112462843D01*
X155162100Y-112487594D01*
X155098137Y-112527784D01*
X154970584Y-112655337D01*
X154874611Y-112808076D01*
X154815031Y-112978345D01*
X154815030Y-112978350D01*
X154794835Y-113157596D01*
X154794835Y-113157603D01*
X154815030Y-113336849D01*
X154815033Y-113336862D01*
X154876910Y-113513694D01*
X154874764Y-113514444D01*
X154884362Y-113572744D01*
X154876009Y-113601190D01*
X154876910Y-113601506D01*
X154815033Y-113778337D01*
X154815030Y-113778350D01*
X154794835Y-113957596D01*
X154794835Y-113957603D01*
X154815030Y-114136849D01*
X154815031Y-114136854D01*
X154874611Y-114307123D01*
X154969951Y-114458855D01*
X154970584Y-114459862D01*
X155098138Y-114587416D01*
X155157978Y-114625016D01*
X155248654Y-114681992D01*
X155250878Y-114683389D01*
X155358330Y-114720988D01*
X155421145Y-114742968D01*
X155421150Y-114742969D01*
X155600396Y-114763165D01*
X155600400Y-114763165D01*
X155600404Y-114763165D01*
X155779649Y-114742969D01*
X155779651Y-114742968D01*
X155779655Y-114742968D01*
X155779658Y-114742966D01*
X155779662Y-114742966D01*
X155956495Y-114681089D01*
X155957246Y-114683237D01*
X156015528Y-114673635D01*
X156043988Y-114681992D01*
X156044305Y-114681089D01*
X156221137Y-114742966D01*
X156221143Y-114742967D01*
X156221145Y-114742968D01*
X156221146Y-114742968D01*
X156221150Y-114742969D01*
X156400396Y-114763165D01*
X156400400Y-114763165D01*
X156400404Y-114763165D01*
X156579649Y-114742969D01*
X156579652Y-114742968D01*
X156579655Y-114742968D01*
X156749922Y-114683389D01*
X156902662Y-114587416D01*
X157030216Y-114459862D01*
X157070407Y-114395897D01*
X157122740Y-114349608D01*
X157191794Y-114338959D01*
X157255642Y-114367334D01*
X157280391Y-114395896D01*
X157320584Y-114459862D01*
X157448138Y-114587416D01*
X157507978Y-114625016D01*
X157598654Y-114681992D01*
X157600878Y-114683389D01*
X157708330Y-114720988D01*
X157771145Y-114742968D01*
X157771150Y-114742969D01*
X157950396Y-114763165D01*
X157950400Y-114763165D01*
X157950404Y-114763165D01*
X158129649Y-114742969D01*
X158129651Y-114742968D01*
X158129655Y-114742968D01*
X158129658Y-114742966D01*
X158129662Y-114742966D01*
X158306495Y-114681089D01*
X158307246Y-114683237D01*
X158365528Y-114673635D01*
X158393988Y-114681992D01*
X158394305Y-114681089D01*
X158571137Y-114742966D01*
X158571143Y-114742967D01*
X158571145Y-114742968D01*
X158571146Y-114742968D01*
X158571150Y-114742969D01*
X158750396Y-114763165D01*
X158750400Y-114763165D01*
X158750404Y-114763165D01*
X158929649Y-114742969D01*
X158929652Y-114742968D01*
X158929655Y-114742968D01*
X159099922Y-114683389D01*
X159252662Y-114587416D01*
X159380216Y-114459862D01*
X159420407Y-114395897D01*
X159472740Y-114349608D01*
X159541794Y-114338959D01*
X159605642Y-114367334D01*
X159630391Y-114395896D01*
X159670584Y-114459862D01*
X159798138Y-114587416D01*
X159857978Y-114625016D01*
X159948654Y-114681992D01*
X159950878Y-114683389D01*
X160058330Y-114720988D01*
X160121145Y-114742968D01*
X160121150Y-114742969D01*
X160300396Y-114763165D01*
X160300400Y-114763165D01*
X160300404Y-114763165D01*
X160479649Y-114742969D01*
X160479651Y-114742968D01*
X160479655Y-114742968D01*
X160479658Y-114742966D01*
X160479662Y-114742966D01*
X160656495Y-114681089D01*
X160657246Y-114683237D01*
X160715528Y-114673635D01*
X160743988Y-114681992D01*
X160744305Y-114681089D01*
X160921137Y-114742966D01*
X160921143Y-114742967D01*
X160921145Y-114742968D01*
X160921146Y-114742968D01*
X160921150Y-114742969D01*
X161100396Y-114763165D01*
X161100400Y-114763165D01*
X161100404Y-114763165D01*
X161279649Y-114742969D01*
X161279652Y-114742968D01*
X161279655Y-114742968D01*
X161449922Y-114683389D01*
X161602662Y-114587416D01*
X161730216Y-114459862D01*
X161826189Y-114307122D01*
X161885768Y-114136855D01*
X161885769Y-114136849D01*
X161901729Y-113995196D01*
X176765835Y-113995196D01*
X176765835Y-113995203D01*
X176786030Y-114174449D01*
X176786031Y-114174454D01*
X176845611Y-114344723D01*
X176917331Y-114458864D01*
X176941584Y-114497462D01*
X177069138Y-114625016D01*
X177221878Y-114720989D01*
X177342410Y-114763165D01*
X177392145Y-114780568D01*
X177392150Y-114780569D01*
X177571396Y-114800765D01*
X177571400Y-114800765D01*
X177571404Y-114800765D01*
X177750649Y-114780569D01*
X177750652Y-114780568D01*
X177750655Y-114780568D01*
X177920922Y-114720989D01*
X178073662Y-114625016D01*
X178201216Y-114497462D01*
X178297189Y-114344722D01*
X178356768Y-114174455D01*
X178357666Y-114166485D01*
X178376965Y-113995203D01*
X178376965Y-113995196D01*
X178356769Y-113815950D01*
X178356768Y-113815945D01*
X178333243Y-113748714D01*
X178297189Y-113645678D01*
X178201216Y-113492938D01*
X178073662Y-113365384D01*
X178028270Y-113336862D01*
X177920923Y-113269411D01*
X177750654Y-113209831D01*
X177750649Y-113209830D01*
X177571404Y-113189635D01*
X177571396Y-113189635D01*
X177392150Y-113209830D01*
X177392145Y-113209831D01*
X177221876Y-113269411D01*
X177069137Y-113365384D01*
X176941584Y-113492937D01*
X176845611Y-113645676D01*
X176786031Y-113815945D01*
X176786030Y-113815950D01*
X176765835Y-113995196D01*
X161901729Y-113995196D01*
X161905965Y-113957603D01*
X161905965Y-113957596D01*
X161885769Y-113778350D01*
X161885766Y-113778337D01*
X161823889Y-113601505D01*
X161826037Y-113600753D01*
X161816435Y-113542472D01*
X161824792Y-113514011D01*
X161823889Y-113513695D01*
X161885766Y-113336862D01*
X161885769Y-113336849D01*
X161905965Y-113157603D01*
X161905965Y-113157596D01*
X161885769Y-112978350D01*
X161885768Y-112978345D01*
X161826188Y-112808076D01*
X161765058Y-112710789D01*
X161730216Y-112655338D01*
X161602662Y-112527784D01*
X161538697Y-112487592D01*
X161492408Y-112435260D01*
X161481759Y-112366206D01*
X161510134Y-112302358D01*
X161538696Y-112277608D01*
X161602662Y-112237416D01*
X161730216Y-112109862D01*
X161826189Y-111957122D01*
X161885768Y-111786855D01*
X161894344Y-111710742D01*
X161905965Y-111607603D01*
X161905965Y-111607596D01*
X161888794Y-111455196D01*
X164015035Y-111455196D01*
X164015035Y-111455203D01*
X164035230Y-111634449D01*
X164035231Y-111634454D01*
X164094811Y-111804723D01*
X164102202Y-111816485D01*
X164190784Y-111957462D01*
X164318338Y-112085016D01*
X164471078Y-112180989D01*
X164629056Y-112236268D01*
X164641345Y-112240568D01*
X164641350Y-112240569D01*
X164820596Y-112260765D01*
X164820600Y-112260765D01*
X164820604Y-112260765D01*
X164999849Y-112240569D01*
X164999852Y-112240568D01*
X164999855Y-112240568D01*
X165170122Y-112180989D01*
X165322862Y-112085016D01*
X165450416Y-111957462D01*
X165546389Y-111804722D01*
X165605968Y-111634455D01*
X165605969Y-111634449D01*
X165626165Y-111455203D01*
X165626165Y-111455196D01*
X166555035Y-111455196D01*
X166555035Y-111455203D01*
X166575230Y-111634449D01*
X166575231Y-111634454D01*
X166634811Y-111804723D01*
X166642202Y-111816485D01*
X166730784Y-111957462D01*
X166858338Y-112085016D01*
X167011078Y-112180989D01*
X167169056Y-112236268D01*
X167181345Y-112240568D01*
X167181350Y-112240569D01*
X167360596Y-112260765D01*
X167360600Y-112260765D01*
X167360604Y-112260765D01*
X167539849Y-112240569D01*
X167539852Y-112240568D01*
X167539855Y-112240568D01*
X167710122Y-112180989D01*
X167862862Y-112085016D01*
X167990416Y-111957462D01*
X168086389Y-111804722D01*
X168145968Y-111634455D01*
X168145969Y-111634449D01*
X168166165Y-111455203D01*
X168166165Y-111455196D01*
X169095035Y-111455196D01*
X169095035Y-111455203D01*
X169115230Y-111634449D01*
X169115231Y-111634454D01*
X169174811Y-111804723D01*
X169182202Y-111816485D01*
X169270784Y-111957462D01*
X169398338Y-112085016D01*
X169551078Y-112180989D01*
X169709056Y-112236268D01*
X169721345Y-112240568D01*
X169721350Y-112240569D01*
X169900596Y-112260765D01*
X169900600Y-112260765D01*
X169900604Y-112260765D01*
X170079849Y-112240569D01*
X170079852Y-112240568D01*
X170079855Y-112240568D01*
X170250122Y-112180989D01*
X170402862Y-112085016D01*
X170530416Y-111957462D01*
X170626389Y-111804722D01*
X170685968Y-111634455D01*
X170685969Y-111634449D01*
X170706165Y-111455203D01*
X170706165Y-111455196D01*
X171635035Y-111455196D01*
X171635035Y-111455203D01*
X171655230Y-111634449D01*
X171655231Y-111634454D01*
X171714811Y-111804723D01*
X171722202Y-111816485D01*
X171810784Y-111957462D01*
X171938338Y-112085016D01*
X172091078Y-112180989D01*
X172249056Y-112236268D01*
X172261345Y-112240568D01*
X172268132Y-112242117D01*
X172267795Y-112243591D01*
X172324741Y-112267519D01*
X172364297Y-112325113D01*
X172366436Y-112394950D01*
X172330479Y-112454857D01*
X172312421Y-112468665D01*
X172300141Y-112476381D01*
X172300137Y-112476384D01*
X172172584Y-112603937D01*
X172076611Y-112756676D01*
X172017031Y-112926945D01*
X172017030Y-112926950D01*
X171996835Y-113106196D01*
X171996835Y-113106203D01*
X172017030Y-113285449D01*
X172017031Y-113285454D01*
X172076611Y-113455723D01*
X172140625Y-113557600D01*
X172172584Y-113608462D01*
X172300138Y-113736016D01*
X172452878Y-113831989D01*
X172623145Y-113891568D01*
X172623150Y-113891569D01*
X172802396Y-113911765D01*
X172802400Y-113911765D01*
X172802404Y-113911765D01*
X172981649Y-113891569D01*
X172981652Y-113891568D01*
X172981655Y-113891568D01*
X173151922Y-113831989D01*
X173304662Y-113736016D01*
X173432216Y-113608462D01*
X173528189Y-113455722D01*
X173587768Y-113285455D01*
X173596289Y-113209830D01*
X173607965Y-113106203D01*
X173607965Y-113106196D01*
X173587769Y-112926950D01*
X173587768Y-112926945D01*
X173550754Y-112821165D01*
X173528189Y-112756678D01*
X173432216Y-112603938D01*
X173304662Y-112476384D01*
X173203283Y-112412683D01*
X173151923Y-112380411D01*
X172981654Y-112320831D01*
X172974868Y-112319283D01*
X172975203Y-112317812D01*
X172918244Y-112293868D01*
X172878696Y-112236268D01*
X172876568Y-112166431D01*
X172912534Y-112106529D01*
X172930576Y-112092735D01*
X172942862Y-112085016D01*
X173070416Y-111957462D01*
X173166389Y-111804722D01*
X173225968Y-111634455D01*
X173225969Y-111634449D01*
X173246165Y-111455203D01*
X173246165Y-111455196D01*
X176765835Y-111455196D01*
X176765835Y-111455203D01*
X176786030Y-111634449D01*
X176786031Y-111634454D01*
X176845611Y-111804723D01*
X176853002Y-111816485D01*
X176941584Y-111957462D01*
X177069138Y-112085016D01*
X177221878Y-112180989D01*
X177379856Y-112236268D01*
X177392145Y-112240568D01*
X177392150Y-112240569D01*
X177571396Y-112260765D01*
X177571400Y-112260765D01*
X177571404Y-112260765D01*
X177750649Y-112240569D01*
X177750652Y-112240568D01*
X177750655Y-112240568D01*
X177920922Y-112180989D01*
X178073662Y-112085016D01*
X178201216Y-111957462D01*
X178297189Y-111804722D01*
X178356768Y-111634455D01*
X178356769Y-111634449D01*
X178376965Y-111455203D01*
X178376965Y-111455196D01*
X179305835Y-111455196D01*
X179305835Y-111455203D01*
X179326030Y-111634449D01*
X179326031Y-111634454D01*
X179385611Y-111804723D01*
X179393002Y-111816485D01*
X179481584Y-111957462D01*
X179609138Y-112085016D01*
X179761878Y-112180989D01*
X179919856Y-112236268D01*
X179932145Y-112240568D01*
X179932150Y-112240569D01*
X180111396Y-112260765D01*
X180111400Y-112260765D01*
X180111404Y-112260765D01*
X180290649Y-112240569D01*
X180290652Y-112240568D01*
X180290655Y-112240568D01*
X180460922Y-112180989D01*
X180613662Y-112085016D01*
X180741216Y-111957462D01*
X180837189Y-111804722D01*
X180896768Y-111634455D01*
X180896769Y-111634449D01*
X180916965Y-111455203D01*
X180916965Y-111455196D01*
X181845835Y-111455196D01*
X181845835Y-111455203D01*
X181866030Y-111634449D01*
X181866031Y-111634454D01*
X181925611Y-111804723D01*
X181933002Y-111816485D01*
X182021584Y-111957462D01*
X182149138Y-112085016D01*
X182301878Y-112180989D01*
X182459856Y-112236268D01*
X182472145Y-112240568D01*
X182472150Y-112240569D01*
X182651396Y-112260765D01*
X182651400Y-112260765D01*
X182651404Y-112260765D01*
X182830649Y-112240569D01*
X182830652Y-112240568D01*
X182830655Y-112240568D01*
X183000922Y-112180989D01*
X183153662Y-112085016D01*
X183281216Y-111957462D01*
X183377189Y-111804722D01*
X183436768Y-111634455D01*
X183436769Y-111634449D01*
X183456965Y-111455203D01*
X183456965Y-111455196D01*
X184385835Y-111455196D01*
X184385835Y-111455203D01*
X184406030Y-111634449D01*
X184406031Y-111634454D01*
X184465611Y-111804723D01*
X184473002Y-111816485D01*
X184561584Y-111957462D01*
X184689138Y-112085016D01*
X184841878Y-112180989D01*
X184999856Y-112236268D01*
X185012145Y-112240568D01*
X185012150Y-112240569D01*
X185191396Y-112260765D01*
X185191400Y-112260765D01*
X185191404Y-112260765D01*
X185370649Y-112240569D01*
X185370652Y-112240568D01*
X185370655Y-112240568D01*
X185540922Y-112180989D01*
X185693662Y-112085016D01*
X185821216Y-111957462D01*
X185917189Y-111804722D01*
X185976768Y-111634455D01*
X185976769Y-111634449D01*
X185996965Y-111455203D01*
X185996965Y-111455196D01*
X185976769Y-111275950D01*
X185976768Y-111275945D01*
X185917189Y-111105678D01*
X185821216Y-110952938D01*
X185693662Y-110825384D01*
X185665353Y-110807596D01*
X185540923Y-110729411D01*
X185370654Y-110669831D01*
X185370649Y-110669830D01*
X185191404Y-110649635D01*
X185191396Y-110649635D01*
X185012150Y-110669830D01*
X185012145Y-110669831D01*
X184841876Y-110729411D01*
X184689137Y-110825384D01*
X184561584Y-110952937D01*
X184465611Y-111105676D01*
X184406031Y-111275945D01*
X184406030Y-111275950D01*
X184385835Y-111455196D01*
X183456965Y-111455196D01*
X183436769Y-111275950D01*
X183436768Y-111275945D01*
X183377189Y-111105678D01*
X183281216Y-110952938D01*
X183153662Y-110825384D01*
X183125353Y-110807596D01*
X183000923Y-110729411D01*
X182830654Y-110669831D01*
X182830649Y-110669830D01*
X182651404Y-110649635D01*
X182651396Y-110649635D01*
X182472150Y-110669830D01*
X182472145Y-110669831D01*
X182301876Y-110729411D01*
X182149137Y-110825384D01*
X182021584Y-110952937D01*
X181925611Y-111105676D01*
X181866031Y-111275945D01*
X181866030Y-111275950D01*
X181845835Y-111455196D01*
X180916965Y-111455196D01*
X180896769Y-111275950D01*
X180896768Y-111275945D01*
X180837189Y-111105678D01*
X180741216Y-110952938D01*
X180613662Y-110825384D01*
X180585353Y-110807596D01*
X180460923Y-110729411D01*
X180290654Y-110669831D01*
X180290649Y-110669830D01*
X180111404Y-110649635D01*
X180111396Y-110649635D01*
X179932150Y-110669830D01*
X179932145Y-110669831D01*
X179761876Y-110729411D01*
X179609137Y-110825384D01*
X179481584Y-110952937D01*
X179385611Y-111105676D01*
X179326031Y-111275945D01*
X179326030Y-111275950D01*
X179305835Y-111455196D01*
X178376965Y-111455196D01*
X178356769Y-111275950D01*
X178356768Y-111275945D01*
X178297189Y-111105678D01*
X178201216Y-110952938D01*
X178073662Y-110825384D01*
X178045353Y-110807596D01*
X177920923Y-110729411D01*
X177750654Y-110669831D01*
X177750649Y-110669830D01*
X177571404Y-110649635D01*
X177571396Y-110649635D01*
X177392150Y-110669830D01*
X177392145Y-110669831D01*
X177221876Y-110729411D01*
X177069137Y-110825384D01*
X176941584Y-110952937D01*
X176845611Y-111105676D01*
X176786031Y-111275945D01*
X176786030Y-111275950D01*
X176765835Y-111455196D01*
X173246165Y-111455196D01*
X173225969Y-111275950D01*
X173225968Y-111275945D01*
X173166389Y-111105678D01*
X173070416Y-110952938D01*
X172942862Y-110825384D01*
X172914553Y-110807596D01*
X172790123Y-110729411D01*
X172619854Y-110669831D01*
X172619849Y-110669830D01*
X172440604Y-110649635D01*
X172440596Y-110649635D01*
X172261350Y-110669830D01*
X172261345Y-110669831D01*
X172091076Y-110729411D01*
X171938337Y-110825384D01*
X171810784Y-110952937D01*
X171714811Y-111105676D01*
X171655231Y-111275945D01*
X171655230Y-111275950D01*
X171635035Y-111455196D01*
X170706165Y-111455196D01*
X170685969Y-111275950D01*
X170685968Y-111275945D01*
X170626389Y-111105678D01*
X170530416Y-110952938D01*
X170402862Y-110825384D01*
X170374553Y-110807596D01*
X170250123Y-110729411D01*
X170079854Y-110669831D01*
X170079849Y-110669830D01*
X169900604Y-110649635D01*
X169900596Y-110649635D01*
X169721350Y-110669830D01*
X169721345Y-110669831D01*
X169551076Y-110729411D01*
X169398337Y-110825384D01*
X169270784Y-110952937D01*
X169174811Y-111105676D01*
X169115231Y-111275945D01*
X169115230Y-111275950D01*
X169095035Y-111455196D01*
X168166165Y-111455196D01*
X168145969Y-111275950D01*
X168145968Y-111275945D01*
X168086389Y-111105678D01*
X167990416Y-110952938D01*
X167862862Y-110825384D01*
X167834553Y-110807596D01*
X167710123Y-110729411D01*
X167539854Y-110669831D01*
X167539849Y-110669830D01*
X167360604Y-110649635D01*
X167360596Y-110649635D01*
X167181350Y-110669830D01*
X167181345Y-110669831D01*
X167011076Y-110729411D01*
X166858337Y-110825384D01*
X166730784Y-110952937D01*
X166634811Y-111105676D01*
X166575231Y-111275945D01*
X166575230Y-111275950D01*
X166555035Y-111455196D01*
X165626165Y-111455196D01*
X165605969Y-111275950D01*
X165605968Y-111275945D01*
X165546389Y-111105678D01*
X165450416Y-110952938D01*
X165322862Y-110825384D01*
X165294553Y-110807596D01*
X165170123Y-110729411D01*
X164999854Y-110669831D01*
X164999849Y-110669830D01*
X164820604Y-110649635D01*
X164820596Y-110649635D01*
X164641350Y-110669830D01*
X164641345Y-110669831D01*
X164471076Y-110729411D01*
X164318337Y-110825384D01*
X164190784Y-110952937D01*
X164094811Y-111105676D01*
X164035231Y-111275945D01*
X164035230Y-111275950D01*
X164015035Y-111455196D01*
X161888794Y-111455196D01*
X161885769Y-111428350D01*
X161885766Y-111428337D01*
X161823889Y-111251505D01*
X161826037Y-111250753D01*
X161816435Y-111192472D01*
X161824792Y-111164011D01*
X161823889Y-111163695D01*
X161885766Y-110986862D01*
X161885769Y-110986849D01*
X161905965Y-110807603D01*
X161905965Y-110807596D01*
X161885769Y-110628350D01*
X161885768Y-110628345D01*
X161861593Y-110559256D01*
X161826189Y-110458078D01*
X161730216Y-110305338D01*
X161602662Y-110177784D01*
X161538697Y-110137592D01*
X161492408Y-110085260D01*
X161481759Y-110016206D01*
X161510134Y-109952358D01*
X161538696Y-109927608D01*
X161602662Y-109887416D01*
X161730216Y-109759862D01*
X161826189Y-109607122D01*
X161885768Y-109436855D01*
X161892421Y-109377806D01*
X161905965Y-109257603D01*
X161905965Y-109257596D01*
X161885769Y-109078350D01*
X161885766Y-109078337D01*
X161828680Y-108915196D01*
X164015035Y-108915196D01*
X164015035Y-108915203D01*
X164035230Y-109094449D01*
X164035231Y-109094454D01*
X164094811Y-109264723D01*
X164123757Y-109310790D01*
X164190784Y-109417462D01*
X164318338Y-109545016D01*
X164471078Y-109640989D01*
X164546368Y-109667334D01*
X164641345Y-109700568D01*
X164641350Y-109700569D01*
X164820596Y-109720765D01*
X164820600Y-109720765D01*
X164820604Y-109720765D01*
X164999849Y-109700569D01*
X164999852Y-109700568D01*
X164999855Y-109700568D01*
X165170122Y-109640989D01*
X165322862Y-109545016D01*
X165450416Y-109417462D01*
X165546389Y-109264722D01*
X165605968Y-109094455D01*
X165605969Y-109094449D01*
X165626165Y-108915203D01*
X165626165Y-108915196D01*
X176765835Y-108915196D01*
X176765835Y-108915203D01*
X176786030Y-109094449D01*
X176786031Y-109094454D01*
X176845611Y-109264723D01*
X176874557Y-109310790D01*
X176941584Y-109417462D01*
X177069138Y-109545016D01*
X177221878Y-109640989D01*
X177297168Y-109667334D01*
X177392145Y-109700568D01*
X177392150Y-109700569D01*
X177571396Y-109720765D01*
X177571400Y-109720765D01*
X177571404Y-109720765D01*
X177750649Y-109700569D01*
X177750652Y-109700568D01*
X177750655Y-109700568D01*
X177920922Y-109640989D01*
X178073662Y-109545016D01*
X178201216Y-109417462D01*
X178297189Y-109264722D01*
X178356768Y-109094455D01*
X178356769Y-109094449D01*
X178376965Y-108915203D01*
X178376965Y-108915196D01*
X179305835Y-108915196D01*
X179305835Y-108915203D01*
X179326030Y-109094449D01*
X179326031Y-109094454D01*
X179385611Y-109264723D01*
X179414557Y-109310790D01*
X179481584Y-109417462D01*
X179609138Y-109545016D01*
X179761878Y-109640989D01*
X179837168Y-109667334D01*
X179932145Y-109700568D01*
X179932150Y-109700569D01*
X180111396Y-109720765D01*
X180111400Y-109720765D01*
X180111404Y-109720765D01*
X180290649Y-109700569D01*
X180290652Y-109700568D01*
X180290655Y-109700568D01*
X180460922Y-109640989D01*
X180613662Y-109545016D01*
X180741216Y-109417462D01*
X180837189Y-109264722D01*
X180896768Y-109094455D01*
X180896769Y-109094449D01*
X180916965Y-108915203D01*
X180916965Y-108915196D01*
X181845835Y-108915196D01*
X181845835Y-108915203D01*
X181866030Y-109094449D01*
X181866031Y-109094454D01*
X181925611Y-109264723D01*
X181954557Y-109310790D01*
X182021584Y-109417462D01*
X182149138Y-109545016D01*
X182301878Y-109640989D01*
X182377168Y-109667334D01*
X182472145Y-109700568D01*
X182472150Y-109700569D01*
X182651396Y-109720765D01*
X182651400Y-109720765D01*
X182651404Y-109720765D01*
X182830649Y-109700569D01*
X182830652Y-109700568D01*
X182830655Y-109700568D01*
X183000922Y-109640989D01*
X183153662Y-109545016D01*
X183281216Y-109417462D01*
X183377189Y-109264722D01*
X183436768Y-109094455D01*
X183436769Y-109094449D01*
X183456965Y-108915203D01*
X183456965Y-108915196D01*
X184385835Y-108915196D01*
X184385835Y-108915203D01*
X184406030Y-109094449D01*
X184406031Y-109094454D01*
X184465611Y-109264723D01*
X184494557Y-109310790D01*
X184561584Y-109417462D01*
X184689138Y-109545016D01*
X184841878Y-109640989D01*
X184917168Y-109667334D01*
X185012145Y-109700568D01*
X185012150Y-109700569D01*
X185191396Y-109720765D01*
X185191400Y-109720765D01*
X185191404Y-109720765D01*
X185370649Y-109700569D01*
X185370652Y-109700568D01*
X185370655Y-109700568D01*
X185540922Y-109640989D01*
X185693662Y-109545016D01*
X185821216Y-109417462D01*
X185917189Y-109264722D01*
X185976768Y-109094455D01*
X185976769Y-109094449D01*
X185996965Y-108915203D01*
X185996965Y-108915196D01*
X186925835Y-108915196D01*
X186925835Y-108915203D01*
X186946030Y-109094449D01*
X186946031Y-109094454D01*
X187005611Y-109264723D01*
X187034557Y-109310790D01*
X187101584Y-109417462D01*
X187229138Y-109545016D01*
X187381878Y-109640989D01*
X187457168Y-109667334D01*
X187552145Y-109700568D01*
X187552150Y-109700569D01*
X187731396Y-109720765D01*
X187731400Y-109720765D01*
X187731404Y-109720765D01*
X187910649Y-109700569D01*
X187910652Y-109700568D01*
X187910655Y-109700568D01*
X188080922Y-109640989D01*
X188233662Y-109545016D01*
X188361216Y-109417462D01*
X188457189Y-109264722D01*
X188516768Y-109094455D01*
X188516769Y-109094449D01*
X188536965Y-108915203D01*
X188536965Y-108915196D01*
X188516769Y-108735950D01*
X188516768Y-108735945D01*
X188463950Y-108585000D01*
X188457189Y-108565678D01*
X188435583Y-108531293D01*
X188389279Y-108457600D01*
X188361216Y-108412938D01*
X188233662Y-108285384D01*
X188225924Y-108280522D01*
X188080923Y-108189411D01*
X187910654Y-108129831D01*
X187910649Y-108129830D01*
X187731404Y-108109635D01*
X187731396Y-108109635D01*
X187552150Y-108129830D01*
X187552145Y-108129831D01*
X187381876Y-108189411D01*
X187229137Y-108285384D01*
X187101584Y-108412937D01*
X187005611Y-108565676D01*
X186946031Y-108735945D01*
X186946030Y-108735950D01*
X186925835Y-108915196D01*
X185996965Y-108915196D01*
X185976769Y-108735950D01*
X185976768Y-108735945D01*
X185923950Y-108585000D01*
X185917189Y-108565678D01*
X185895583Y-108531293D01*
X185849279Y-108457600D01*
X185821216Y-108412938D01*
X185693662Y-108285384D01*
X185685924Y-108280522D01*
X185540923Y-108189411D01*
X185370654Y-108129831D01*
X185370649Y-108129830D01*
X185191404Y-108109635D01*
X185191396Y-108109635D01*
X185012150Y-108129830D01*
X185012145Y-108129831D01*
X184841876Y-108189411D01*
X184689137Y-108285384D01*
X184561584Y-108412937D01*
X184465611Y-108565676D01*
X184406031Y-108735945D01*
X184406030Y-108735950D01*
X184385835Y-108915196D01*
X183456965Y-108915196D01*
X183436769Y-108735950D01*
X183436768Y-108735945D01*
X183383950Y-108585000D01*
X183377189Y-108565678D01*
X183355583Y-108531293D01*
X183309279Y-108457600D01*
X183281216Y-108412938D01*
X183153662Y-108285384D01*
X183145924Y-108280522D01*
X183000923Y-108189411D01*
X182830654Y-108129831D01*
X182830649Y-108129830D01*
X182651404Y-108109635D01*
X182651396Y-108109635D01*
X182472150Y-108129830D01*
X182472145Y-108129831D01*
X182301876Y-108189411D01*
X182149137Y-108285384D01*
X182021584Y-108412937D01*
X181925611Y-108565676D01*
X181866031Y-108735945D01*
X181866030Y-108735950D01*
X181845835Y-108915196D01*
X180916965Y-108915196D01*
X180896769Y-108735950D01*
X180896768Y-108735945D01*
X180843950Y-108585000D01*
X180837189Y-108565678D01*
X180815583Y-108531293D01*
X180769279Y-108457600D01*
X180741216Y-108412938D01*
X180613662Y-108285384D01*
X180605924Y-108280522D01*
X180460923Y-108189411D01*
X180290654Y-108129831D01*
X180290649Y-108129830D01*
X180111404Y-108109635D01*
X180111396Y-108109635D01*
X179932150Y-108129830D01*
X179932145Y-108129831D01*
X179761876Y-108189411D01*
X179609137Y-108285384D01*
X179481584Y-108412937D01*
X179385611Y-108565676D01*
X179326031Y-108735945D01*
X179326030Y-108735950D01*
X179305835Y-108915196D01*
X178376965Y-108915196D01*
X178356769Y-108735950D01*
X178356768Y-108735945D01*
X178303950Y-108585000D01*
X178297189Y-108565678D01*
X178275583Y-108531293D01*
X178229279Y-108457600D01*
X178201216Y-108412938D01*
X178073662Y-108285384D01*
X178065924Y-108280522D01*
X177920923Y-108189411D01*
X177750654Y-108129831D01*
X177750649Y-108129830D01*
X177571404Y-108109635D01*
X177571396Y-108109635D01*
X177392150Y-108129830D01*
X177392145Y-108129831D01*
X177221876Y-108189411D01*
X177069137Y-108285384D01*
X176941584Y-108412937D01*
X176845611Y-108565676D01*
X176786031Y-108735945D01*
X176786030Y-108735950D01*
X176765835Y-108915196D01*
X165626165Y-108915196D01*
X165605969Y-108735950D01*
X165605968Y-108735945D01*
X165553150Y-108585000D01*
X165546389Y-108565678D01*
X165524783Y-108531293D01*
X165478479Y-108457600D01*
X165450416Y-108412938D01*
X165322862Y-108285384D01*
X165315124Y-108280522D01*
X165170123Y-108189411D01*
X164999854Y-108129831D01*
X164999849Y-108129830D01*
X164820604Y-108109635D01*
X164820596Y-108109635D01*
X164641350Y-108129830D01*
X164641345Y-108129831D01*
X164471076Y-108189411D01*
X164318337Y-108285384D01*
X164190784Y-108412937D01*
X164094811Y-108565676D01*
X164035231Y-108735945D01*
X164035230Y-108735950D01*
X164015035Y-108915196D01*
X161828680Y-108915196D01*
X161823889Y-108901505D01*
X161826037Y-108900753D01*
X161816435Y-108842472D01*
X161824792Y-108814011D01*
X161823889Y-108813695D01*
X161885766Y-108636862D01*
X161885769Y-108636849D01*
X161905965Y-108457603D01*
X161905965Y-108457596D01*
X161885769Y-108278350D01*
X161885768Y-108278345D01*
X161880327Y-108262795D01*
X161826189Y-108108078D01*
X161730216Y-107955338D01*
X161602662Y-107827784D01*
X161449923Y-107731811D01*
X161279654Y-107672231D01*
X161279649Y-107672230D01*
X161100404Y-107652035D01*
X161100396Y-107652035D01*
X160921150Y-107672230D01*
X160921137Y-107672233D01*
X160744306Y-107734110D01*
X160743555Y-107731964D01*
X160685256Y-107741562D01*
X160656809Y-107733209D01*
X160656494Y-107734110D01*
X160479662Y-107672233D01*
X160479649Y-107672230D01*
X160300404Y-107652035D01*
X160300396Y-107652035D01*
X160121150Y-107672230D01*
X160121145Y-107672231D01*
X159950876Y-107731811D01*
X159798137Y-107827784D01*
X159670584Y-107955337D01*
X159630394Y-108019300D01*
X159578059Y-108065591D01*
X159509005Y-108076239D01*
X159445157Y-108047864D01*
X159420406Y-108019300D01*
X159386181Y-107964832D01*
X159380216Y-107955338D01*
X159252662Y-107827784D01*
X159099923Y-107731811D01*
X158929654Y-107672231D01*
X158929649Y-107672230D01*
X158750404Y-107652035D01*
X158750396Y-107652035D01*
X158571150Y-107672230D01*
X158571137Y-107672233D01*
X158394306Y-107734110D01*
X158393555Y-107731964D01*
X158335256Y-107741562D01*
X158306809Y-107733209D01*
X158306494Y-107734110D01*
X158129662Y-107672233D01*
X158129649Y-107672230D01*
X157950404Y-107652035D01*
X157950396Y-107652035D01*
X157771150Y-107672230D01*
X157771145Y-107672231D01*
X157600876Y-107731811D01*
X157448137Y-107827784D01*
X157320584Y-107955337D01*
X157280394Y-108019300D01*
X157228059Y-108065591D01*
X157159005Y-108076239D01*
X157095157Y-108047864D01*
X157070406Y-108019300D01*
X157036181Y-107964832D01*
X157030216Y-107955338D01*
X156902662Y-107827784D01*
X156749923Y-107731811D01*
X156579654Y-107672231D01*
X156579649Y-107672230D01*
X156400404Y-107652035D01*
X156400396Y-107652035D01*
X156221150Y-107672230D01*
X156221137Y-107672233D01*
X156044306Y-107734110D01*
X156043555Y-107731964D01*
X155985256Y-107741562D01*
X155956809Y-107733209D01*
X155956494Y-107734110D01*
X155779662Y-107672233D01*
X155779649Y-107672230D01*
X155600404Y-107652035D01*
X155600396Y-107652035D01*
X155421150Y-107672230D01*
X155421145Y-107672231D01*
X155250876Y-107731811D01*
X155098137Y-107827784D01*
X154970584Y-107955337D01*
X154874611Y-108108076D01*
X154815031Y-108278345D01*
X154815030Y-108278350D01*
X154794835Y-108457596D01*
X147364511Y-108457596D01*
X147358669Y-108405750D01*
X147358668Y-108405745D01*
X147316552Y-108285384D01*
X147299089Y-108235478D01*
X147298305Y-108234231D01*
X147232707Y-108129832D01*
X147203116Y-108082738D01*
X147075562Y-107955184D01*
X146922823Y-107859211D01*
X146752554Y-107799631D01*
X146752549Y-107799630D01*
X146573304Y-107779435D01*
X146573296Y-107779435D01*
X146394050Y-107799630D01*
X146394045Y-107799631D01*
X146223776Y-107859211D01*
X146071037Y-107955184D01*
X145943484Y-108082737D01*
X145848294Y-108234231D01*
X145795959Y-108280522D01*
X145726905Y-108291170D01*
X145663057Y-108262795D01*
X145638306Y-108234231D01*
X145572707Y-108129832D01*
X145543116Y-108082738D01*
X145415562Y-107955184D01*
X145262823Y-107859211D01*
X145092554Y-107799631D01*
X145092549Y-107799630D01*
X144913304Y-107779435D01*
X144913296Y-107779435D01*
X144734050Y-107799630D01*
X144734045Y-107799631D01*
X144563776Y-107859211D01*
X144411037Y-107955184D01*
X144283484Y-108082737D01*
X144187510Y-108235478D01*
X144185341Y-108241678D01*
X144144618Y-108298453D01*
X144079665Y-108324199D01*
X144011104Y-108310742D01*
X143960702Y-108262354D01*
X143951259Y-108241678D01*
X143949089Y-108235478D01*
X143920143Y-108189411D01*
X143853116Y-108082738D01*
X143725562Y-107955184D01*
X143572823Y-107859211D01*
X143402554Y-107799631D01*
X143402549Y-107799630D01*
X143223304Y-107779435D01*
X143223296Y-107779435D01*
X143044050Y-107799630D01*
X143044045Y-107799631D01*
X142873776Y-107859211D01*
X142721037Y-107955184D01*
X142593484Y-108082737D01*
X142497511Y-108235476D01*
X142437931Y-108405745D01*
X142437930Y-108405750D01*
X142417735Y-108584996D01*
X139715677Y-108584996D01*
X139717833Y-106119546D01*
X139717900Y-106118569D01*
X139717900Y-106051960D01*
X139718680Y-106038078D01*
X139722405Y-106005015D01*
X139730534Y-105932866D01*
X139736707Y-105905812D01*
X139769371Y-105812466D01*
X139781408Y-105787471D01*
X139834020Y-105703740D01*
X139851325Y-105682041D01*
X139921241Y-105612125D01*
X139942940Y-105594820D01*
X140026671Y-105542208D01*
X140051673Y-105530168D01*
X140145005Y-105497510D01*
X140172062Y-105491334D01*
X140267928Y-105480532D01*
X140277274Y-105479480D01*
X140291157Y-105478700D01*
X140357872Y-105478700D01*
X140358607Y-105478650D01*
X141453506Y-105477922D01*
X141520557Y-105497562D01*
X141566347Y-105550336D01*
X141576337Y-105619487D01*
X141547354Y-105683062D01*
X141519560Y-105706915D01*
X141458339Y-105745382D01*
X141330784Y-105872937D01*
X141234811Y-106025676D01*
X141175231Y-106195945D01*
X141175230Y-106195950D01*
X141155035Y-106375196D01*
X141155035Y-106375203D01*
X141175230Y-106554449D01*
X141175231Y-106554454D01*
X141234811Y-106724723D01*
X141286483Y-106806958D01*
X141330784Y-106877462D01*
X141458338Y-107005016D01*
X141611078Y-107100989D01*
X141781345Y-107160568D01*
X141781350Y-107160569D01*
X141960596Y-107180765D01*
X141960600Y-107180765D01*
X141960604Y-107180765D01*
X142139849Y-107160569D01*
X142139852Y-107160568D01*
X142139855Y-107160568D01*
X142310122Y-107100989D01*
X142462862Y-107005016D01*
X142590416Y-106877462D01*
X142686389Y-106724722D01*
X142745968Y-106554455D01*
X142745969Y-106554449D01*
X142766165Y-106375203D01*
X142766165Y-106375196D01*
X142745969Y-106195950D01*
X142745968Y-106195945D01*
X142727197Y-106142300D01*
X142686389Y-106025678D01*
X142590416Y-105872938D01*
X142462862Y-105745384D01*
X142400568Y-105706242D01*
X142354277Y-105653907D01*
X142343629Y-105584853D01*
X142372004Y-105521005D01*
X142430394Y-105482633D01*
X142466453Y-105477248D01*
X143996197Y-105476231D01*
X144063248Y-105495871D01*
X144109038Y-105548645D01*
X144119028Y-105617796D01*
X144090045Y-105681371D01*
X144062251Y-105705224D01*
X143998339Y-105745382D01*
X143870784Y-105872937D01*
X143774811Y-106025676D01*
X143715231Y-106195945D01*
X143715230Y-106195950D01*
X143695035Y-106375196D01*
X143695035Y-106375203D01*
X143715230Y-106554449D01*
X143715231Y-106554454D01*
X143774811Y-106724723D01*
X143826483Y-106806958D01*
X143870784Y-106877462D01*
X143998338Y-107005016D01*
X144151078Y-107100989D01*
X144321345Y-107160568D01*
X144321350Y-107160569D01*
X144500596Y-107180765D01*
X144500600Y-107180765D01*
X144500604Y-107180765D01*
X144679849Y-107160569D01*
X144679852Y-107160568D01*
X144679855Y-107160568D01*
X144850122Y-107100989D01*
X145002862Y-107005016D01*
X145130416Y-106877462D01*
X145226389Y-106724722D01*
X145285968Y-106554455D01*
X145285969Y-106554449D01*
X145306165Y-106375203D01*
X145306165Y-106375196D01*
X145285969Y-106195950D01*
X145285968Y-106195945D01*
X145267197Y-106142300D01*
X145226389Y-106025678D01*
X145130416Y-105872938D01*
X145002862Y-105745384D01*
X144937882Y-105704554D01*
X144891592Y-105652220D01*
X144880944Y-105583166D01*
X144909319Y-105519318D01*
X144967709Y-105480946D01*
X145003771Y-105475561D01*
X146538888Y-105474540D01*
X146605939Y-105494180D01*
X146651729Y-105546954D01*
X146661719Y-105616105D01*
X146632736Y-105679680D01*
X146604942Y-105703533D01*
X146538340Y-105745382D01*
X146538337Y-105745384D01*
X146410784Y-105872937D01*
X146314811Y-106025676D01*
X146255231Y-106195945D01*
X146255230Y-106195950D01*
X146235035Y-106375196D01*
X146235035Y-106375203D01*
X146255230Y-106554449D01*
X146255231Y-106554454D01*
X146314811Y-106724723D01*
X146366483Y-106806958D01*
X146410784Y-106877462D01*
X146538338Y-107005016D01*
X146691078Y-107100989D01*
X146861345Y-107160568D01*
X146861350Y-107160569D01*
X147040596Y-107180765D01*
X147040600Y-107180765D01*
X147040604Y-107180765D01*
X147219849Y-107160569D01*
X147219852Y-107160568D01*
X147219855Y-107160568D01*
X147390122Y-107100989D01*
X147542862Y-107005016D01*
X147670416Y-106877462D01*
X147766389Y-106724722D01*
X147825968Y-106554455D01*
X147825969Y-106554449D01*
X147846165Y-106375203D01*
X147846165Y-106375196D01*
X147825969Y-106195950D01*
X147825968Y-106195945D01*
X147807197Y-106142300D01*
X147766389Y-106025678D01*
X147670416Y-105872938D01*
X147542862Y-105745384D01*
X147542860Y-105745382D01*
X147475196Y-105702866D01*
X147428906Y-105650532D01*
X147418258Y-105581478D01*
X147446633Y-105517630D01*
X147505023Y-105479258D01*
X147541081Y-105473873D01*
X149081579Y-105472849D01*
X149148630Y-105492489D01*
X149194420Y-105545263D01*
X149204410Y-105614414D01*
X149175427Y-105677989D01*
X149147633Y-105701842D01*
X149078340Y-105745382D01*
X149078337Y-105745384D01*
X148950784Y-105872937D01*
X148854811Y-106025676D01*
X148795231Y-106195945D01*
X148795230Y-106195950D01*
X148775035Y-106375196D01*
X148775035Y-106375203D01*
X148795230Y-106554449D01*
X148795231Y-106554454D01*
X148854811Y-106724723D01*
X148906483Y-106806958D01*
X148950784Y-106877462D01*
X149078338Y-107005016D01*
X149231078Y-107100989D01*
X149401345Y-107160568D01*
X149401350Y-107160569D01*
X149580596Y-107180765D01*
X149580600Y-107180765D01*
X149580604Y-107180765D01*
X149759849Y-107160569D01*
X149759852Y-107160568D01*
X149759855Y-107160568D01*
X149930122Y-107100989D01*
X150082862Y-107005016D01*
X150210416Y-106877462D01*
X150306389Y-106724722D01*
X150365968Y-106554455D01*
X150365969Y-106554449D01*
X150386165Y-106375203D01*
X150386165Y-106375196D01*
X150365969Y-106195950D01*
X150365968Y-106195945D01*
X150347197Y-106142300D01*
X150306389Y-106025678D01*
X150210416Y-105872938D01*
X150082862Y-105745384D01*
X150015195Y-105702866D01*
X150012512Y-105701180D01*
X149966221Y-105648845D01*
X149955573Y-105579791D01*
X149983948Y-105515943D01*
X150042338Y-105477571D01*
X150078399Y-105472186D01*
X151624270Y-105471158D01*
X151691321Y-105490798D01*
X151737111Y-105543572D01*
X151747101Y-105612723D01*
X151718118Y-105676298D01*
X151690324Y-105700151D01*
X151618340Y-105745382D01*
X151618337Y-105745384D01*
X151490784Y-105872937D01*
X151394811Y-106025676D01*
X151335231Y-106195945D01*
X151335230Y-106195950D01*
X151315035Y-106375196D01*
X151315035Y-106375203D01*
X151335230Y-106554449D01*
X151335231Y-106554454D01*
X151394811Y-106724723D01*
X151446483Y-106806958D01*
X151490784Y-106877462D01*
X151618338Y-107005016D01*
X151771078Y-107100989D01*
X151941345Y-107160568D01*
X151941350Y-107160569D01*
X152120596Y-107180765D01*
X152120600Y-107180765D01*
X152120604Y-107180765D01*
X152299849Y-107160569D01*
X152299852Y-107160568D01*
X152299855Y-107160568D01*
X152470122Y-107100989D01*
X152622862Y-107005016D01*
X152750416Y-106877462D01*
X152846389Y-106724722D01*
X152905968Y-106554455D01*
X152905969Y-106554449D01*
X152926165Y-106375203D01*
X152926165Y-106375196D01*
X152905969Y-106195950D01*
X152905968Y-106195945D01*
X152887197Y-106142300D01*
X152846389Y-106025678D01*
X152750416Y-105872938D01*
X152622862Y-105745384D01*
X152622860Y-105745382D01*
X152549825Y-105699491D01*
X152503535Y-105647157D01*
X152492887Y-105578103D01*
X152521262Y-105514255D01*
X152579652Y-105475883D01*
X152615709Y-105470498D01*
X154166961Y-105469467D01*
X154234012Y-105489107D01*
X154279802Y-105541881D01*
X154289792Y-105611032D01*
X154260809Y-105674607D01*
X154233015Y-105698460D01*
X154158340Y-105745382D01*
X154158337Y-105745384D01*
X154030784Y-105872937D01*
X153934811Y-106025676D01*
X153875231Y-106195945D01*
X153875230Y-106195950D01*
X153855035Y-106375196D01*
X153855035Y-106375203D01*
X153875230Y-106554449D01*
X153875231Y-106554454D01*
X153934811Y-106724723D01*
X153986483Y-106806958D01*
X154030784Y-106877462D01*
X154158338Y-107005016D01*
X154311078Y-107100989D01*
X154481345Y-107160568D01*
X154481350Y-107160569D01*
X154660596Y-107180765D01*
X154660600Y-107180765D01*
X154660604Y-107180765D01*
X154839849Y-107160569D01*
X154839852Y-107160568D01*
X154839855Y-107160568D01*
X155010122Y-107100989D01*
X155162862Y-107005016D01*
X155290416Y-106877462D01*
X155386389Y-106724722D01*
X155445968Y-106554455D01*
X155445969Y-106554449D01*
X155466165Y-106375203D01*
X155466165Y-106375196D01*
X155445969Y-106195950D01*
X155445968Y-106195945D01*
X155427197Y-106142300D01*
X155386389Y-106025678D01*
X155290416Y-105872938D01*
X155162862Y-105745384D01*
X155162860Y-105745382D01*
X155087140Y-105697804D01*
X155040850Y-105645470D01*
X155030202Y-105576416D01*
X155058577Y-105512568D01*
X155116967Y-105474196D01*
X155153027Y-105468811D01*
X156709653Y-105467776D01*
X156776704Y-105487416D01*
X156822494Y-105540190D01*
X156832484Y-105609341D01*
X156803501Y-105672916D01*
X156775707Y-105696769D01*
X156698339Y-105745382D01*
X156570784Y-105872937D01*
X156474811Y-106025676D01*
X156415231Y-106195945D01*
X156415230Y-106195950D01*
X156395035Y-106375196D01*
X156395035Y-106375203D01*
X156415230Y-106554449D01*
X156415231Y-106554454D01*
X156474811Y-106724723D01*
X156526483Y-106806958D01*
X156570784Y-106877462D01*
X156698338Y-107005016D01*
X156851078Y-107100989D01*
X157021345Y-107160568D01*
X157021350Y-107160569D01*
X157200596Y-107180765D01*
X157200600Y-107180765D01*
X157200604Y-107180765D01*
X157379849Y-107160569D01*
X157379852Y-107160568D01*
X157379855Y-107160568D01*
X157550122Y-107100989D01*
X157702862Y-107005016D01*
X157830416Y-106877462D01*
X157926389Y-106724722D01*
X157985968Y-106554455D01*
X157985969Y-106554449D01*
X158006165Y-106375203D01*
X158006165Y-106375196D01*
X157985969Y-106195950D01*
X157985968Y-106195945D01*
X157967197Y-106142300D01*
X157926389Y-106025678D01*
X157830416Y-105872938D01*
X157702862Y-105745384D01*
X157624454Y-105696117D01*
X157578164Y-105643783D01*
X157567516Y-105574730D01*
X157595891Y-105510881D01*
X157654280Y-105472509D01*
X157690343Y-105467124D01*
X159252344Y-105466085D01*
X159319395Y-105485725D01*
X159365185Y-105538499D01*
X159375175Y-105607650D01*
X159346192Y-105671225D01*
X159318398Y-105695078D01*
X159238339Y-105745382D01*
X159110784Y-105872937D01*
X159014811Y-106025676D01*
X158955231Y-106195945D01*
X158955230Y-106195950D01*
X158935035Y-106375196D01*
X158935035Y-106375203D01*
X158955230Y-106554449D01*
X158955231Y-106554454D01*
X159014811Y-106724723D01*
X159066483Y-106806958D01*
X159110784Y-106877462D01*
X159238338Y-107005016D01*
X159391078Y-107100989D01*
X159561345Y-107160568D01*
X159561350Y-107160569D01*
X159740596Y-107180765D01*
X159740600Y-107180765D01*
X159740604Y-107180765D01*
X159919849Y-107160569D01*
X159919852Y-107160568D01*
X159919855Y-107160568D01*
X160090122Y-107100989D01*
X160242862Y-107005016D01*
X160370416Y-106877462D01*
X160466389Y-106724722D01*
X160525968Y-106554455D01*
X160525969Y-106554449D01*
X160546165Y-106375203D01*
X160546165Y-106375196D01*
X160525969Y-106195950D01*
X160525968Y-106195945D01*
X160507197Y-106142300D01*
X160466389Y-106025678D01*
X160370416Y-105872938D01*
X160242862Y-105745384D01*
X160242860Y-105745382D01*
X160161769Y-105694429D01*
X160115479Y-105642095D01*
X160104831Y-105573041D01*
X160133206Y-105509193D01*
X160191596Y-105470821D01*
X160227654Y-105465436D01*
X161795035Y-105464394D01*
X161862086Y-105484034D01*
X161907876Y-105536808D01*
X161917866Y-105605959D01*
X161888883Y-105669534D01*
X161861089Y-105693387D01*
X161778340Y-105745382D01*
X161778337Y-105745384D01*
X161650784Y-105872937D01*
X161554811Y-106025676D01*
X161495231Y-106195945D01*
X161495230Y-106195950D01*
X161475035Y-106375196D01*
X161475035Y-106375203D01*
X161495230Y-106554449D01*
X161495231Y-106554454D01*
X161554811Y-106724723D01*
X161606483Y-106806958D01*
X161650784Y-106877462D01*
X161778338Y-107005016D01*
X161931078Y-107100989D01*
X162101345Y-107160568D01*
X162101350Y-107160569D01*
X162280596Y-107180765D01*
X162280600Y-107180765D01*
X162280604Y-107180765D01*
X162459849Y-107160569D01*
X162459852Y-107160568D01*
X162459855Y-107160568D01*
X162630122Y-107100989D01*
X162782862Y-107005016D01*
X162910416Y-106877462D01*
X163006389Y-106724722D01*
X163065968Y-106554455D01*
X163065969Y-106554449D01*
X163086165Y-106375203D01*
X163086165Y-106375196D01*
X163065969Y-106195950D01*
X163065968Y-106195945D01*
X163047197Y-106142300D01*
X163006389Y-106025678D01*
X162910416Y-105872938D01*
X162782862Y-105745384D01*
X162699083Y-105692742D01*
X162652793Y-105640408D01*
X162642145Y-105571355D01*
X162670520Y-105507506D01*
X162728910Y-105469134D01*
X162764971Y-105463749D01*
X164337726Y-105462703D01*
X164404777Y-105482343D01*
X164450567Y-105535117D01*
X164460557Y-105604268D01*
X164431574Y-105667843D01*
X164403780Y-105691696D01*
X164318340Y-105745382D01*
X164318337Y-105745384D01*
X164190784Y-105872937D01*
X164094811Y-106025676D01*
X164035231Y-106195945D01*
X164035230Y-106195950D01*
X164015035Y-106375196D01*
X164015035Y-106375203D01*
X164035230Y-106554449D01*
X164035231Y-106554454D01*
X164094811Y-106724723D01*
X164146483Y-106806958D01*
X164190784Y-106877462D01*
X164318338Y-107005016D01*
X164471078Y-107100989D01*
X164641345Y-107160568D01*
X164641350Y-107160569D01*
X164820596Y-107180765D01*
X164820600Y-107180765D01*
X164820604Y-107180765D01*
X164999849Y-107160569D01*
X164999852Y-107160568D01*
X164999855Y-107160568D01*
X165170122Y-107100989D01*
X165322862Y-107005016D01*
X165450416Y-106877462D01*
X165546389Y-106724722D01*
X165591803Y-106594935D01*
X167447500Y-106594935D01*
X167447500Y-108390670D01*
X167447501Y-108390676D01*
X167453908Y-108450283D01*
X167504202Y-108585128D01*
X167504206Y-108585135D01*
X167590452Y-108700344D01*
X167590455Y-108700347D01*
X167705664Y-108786593D01*
X167705671Y-108786597D01*
X167840517Y-108836891D01*
X167840516Y-108836891D01*
X167847444Y-108837635D01*
X167900127Y-108843300D01*
X169695872Y-108843299D01*
X169755483Y-108836891D01*
X169890331Y-108786596D01*
X170005546Y-108700346D01*
X170091796Y-108585131D01*
X170140810Y-108453716D01*
X170182681Y-108397784D01*
X170248145Y-108373366D01*
X170316418Y-108388217D01*
X170344673Y-108409369D01*
X170466599Y-108531295D01*
X170563384Y-108599065D01*
X170660165Y-108666832D01*
X170660167Y-108666833D01*
X170660170Y-108666835D01*
X170874337Y-108766703D01*
X171102592Y-108827863D01*
X171279034Y-108843300D01*
X171337999Y-108848459D01*
X171338000Y-108848459D01*
X171338001Y-108848459D01*
X171396966Y-108843300D01*
X171573408Y-108827863D01*
X171801663Y-108766703D01*
X172015830Y-108666835D01*
X172209401Y-108531295D01*
X172376495Y-108364201D01*
X172506425Y-108178642D01*
X172561002Y-108135017D01*
X172630500Y-108127823D01*
X172692855Y-108159346D01*
X172709575Y-108178642D01*
X172839500Y-108364195D01*
X172839505Y-108364201D01*
X173006599Y-108531295D01*
X173103384Y-108599065D01*
X173200165Y-108666832D01*
X173200167Y-108666833D01*
X173200170Y-108666835D01*
X173414337Y-108766703D01*
X173642592Y-108827863D01*
X173819034Y-108843300D01*
X173877999Y-108848459D01*
X173878000Y-108848459D01*
X173878001Y-108848459D01*
X173936966Y-108843300D01*
X174113408Y-108827863D01*
X174341663Y-108766703D01*
X174555830Y-108666835D01*
X174749401Y-108531295D01*
X174916495Y-108364201D01*
X175052035Y-108170630D01*
X175151903Y-107956463D01*
X175213063Y-107728208D01*
X175233659Y-107492800D01*
X175213063Y-107257392D01*
X175151903Y-107029137D01*
X175052035Y-106814971D01*
X175046425Y-106806958D01*
X174916494Y-106621397D01*
X174749402Y-106454306D01*
X174749395Y-106454301D01*
X174555834Y-106318767D01*
X174555830Y-106318765D01*
X174555828Y-106318764D01*
X174341663Y-106218897D01*
X174341659Y-106218896D01*
X174341655Y-106218894D01*
X174113413Y-106157738D01*
X174113403Y-106157736D01*
X173878001Y-106137141D01*
X173877999Y-106137141D01*
X173642596Y-106157736D01*
X173642586Y-106157738D01*
X173414344Y-106218894D01*
X173414335Y-106218898D01*
X173200171Y-106318764D01*
X173200169Y-106318765D01*
X173006597Y-106454305D01*
X172839505Y-106621397D01*
X172709575Y-106806958D01*
X172654998Y-106850583D01*
X172585500Y-106857777D01*
X172523145Y-106826254D01*
X172506425Y-106806958D01*
X172376494Y-106621397D01*
X172209402Y-106454306D01*
X172209395Y-106454301D01*
X172015834Y-106318767D01*
X172015830Y-106318765D01*
X172015828Y-106318764D01*
X171801663Y-106218897D01*
X171801659Y-106218896D01*
X171801655Y-106218894D01*
X171573413Y-106157738D01*
X171573403Y-106157736D01*
X171338001Y-106137141D01*
X171337999Y-106137141D01*
X171102596Y-106157736D01*
X171102586Y-106157738D01*
X170874344Y-106218894D01*
X170874335Y-106218898D01*
X170660171Y-106318764D01*
X170660169Y-106318765D01*
X170466600Y-106454303D01*
X170344673Y-106576230D01*
X170283350Y-106609714D01*
X170213658Y-106604730D01*
X170157725Y-106562858D01*
X170140810Y-106531881D01*
X170091797Y-106400471D01*
X170091793Y-106400464D01*
X170005547Y-106285255D01*
X170005544Y-106285252D01*
X169890335Y-106199006D01*
X169890328Y-106199002D01*
X169755482Y-106148708D01*
X169755483Y-106148708D01*
X169695883Y-106142301D01*
X169695881Y-106142300D01*
X169695873Y-106142300D01*
X169695864Y-106142300D01*
X167900129Y-106142300D01*
X167900123Y-106142301D01*
X167840516Y-106148708D01*
X167705671Y-106199002D01*
X167705664Y-106199006D01*
X167590455Y-106285252D01*
X167590452Y-106285255D01*
X167504206Y-106400464D01*
X167504202Y-106400471D01*
X167453908Y-106535317D01*
X167447501Y-106594916D01*
X167447500Y-106594935D01*
X165591803Y-106594935D01*
X165605968Y-106554455D01*
X165605969Y-106554449D01*
X165626165Y-106375203D01*
X165626165Y-106375196D01*
X165605969Y-106195950D01*
X165605968Y-106195945D01*
X165587197Y-106142300D01*
X165546389Y-106025678D01*
X165450416Y-105872938D01*
X165322862Y-105745384D01*
X165322860Y-105745382D01*
X165236398Y-105691054D01*
X165190108Y-105638719D01*
X165179460Y-105569666D01*
X165207835Y-105505818D01*
X165266225Y-105467446D01*
X165302282Y-105462061D01*
X177102037Y-105454214D01*
X177169087Y-105473854D01*
X177214877Y-105526628D01*
X177224867Y-105595779D01*
X177195884Y-105659354D01*
X177168090Y-105683207D01*
X177069140Y-105745382D01*
X177069137Y-105745384D01*
X176941584Y-105872937D01*
X176845611Y-106025676D01*
X176786031Y-106195945D01*
X176786030Y-106195950D01*
X176765835Y-106375196D01*
X176765835Y-106375203D01*
X176786030Y-106554449D01*
X176786031Y-106554454D01*
X176845611Y-106724723D01*
X176897283Y-106806958D01*
X176941584Y-106877462D01*
X177069138Y-107005016D01*
X177221878Y-107100989D01*
X177392145Y-107160568D01*
X177392150Y-107160569D01*
X177571396Y-107180765D01*
X177571400Y-107180765D01*
X177571404Y-107180765D01*
X177750649Y-107160569D01*
X177750652Y-107160568D01*
X177750655Y-107160568D01*
X177920922Y-107100989D01*
X178073662Y-107005016D01*
X178201216Y-106877462D01*
X178297189Y-106724722D01*
X178356768Y-106554455D01*
X178356769Y-106554449D01*
X178376965Y-106375203D01*
X178376965Y-106375196D01*
X178356769Y-106195950D01*
X178356768Y-106195945D01*
X178337997Y-106142300D01*
X178297189Y-106025678D01*
X178201216Y-105872938D01*
X178073662Y-105745384D01*
X177973717Y-105682584D01*
X177927427Y-105630250D01*
X177916779Y-105561197D01*
X177945154Y-105497348D01*
X178003544Y-105458976D01*
X178039606Y-105453591D01*
X179644727Y-105452523D01*
X179711778Y-105472163D01*
X179757568Y-105524936D01*
X179767558Y-105594088D01*
X179738575Y-105657663D01*
X179710781Y-105681516D01*
X179609140Y-105745382D01*
X179609137Y-105745384D01*
X179481584Y-105872937D01*
X179385611Y-106025676D01*
X179326031Y-106195945D01*
X179326030Y-106195950D01*
X179305835Y-106375196D01*
X179305835Y-106375203D01*
X179326030Y-106554449D01*
X179326031Y-106554454D01*
X179385611Y-106724723D01*
X179437283Y-106806958D01*
X179481584Y-106877462D01*
X179609138Y-107005016D01*
X179761878Y-107100989D01*
X179932145Y-107160568D01*
X179932150Y-107160569D01*
X180111396Y-107180765D01*
X180111400Y-107180765D01*
X180111404Y-107180765D01*
X180290649Y-107160569D01*
X180290652Y-107160568D01*
X180290655Y-107160568D01*
X180460922Y-107100989D01*
X180613662Y-107005016D01*
X180741216Y-106877462D01*
X180837189Y-106724722D01*
X180896768Y-106554455D01*
X180896769Y-106554449D01*
X180916965Y-106375203D01*
X180916965Y-106375196D01*
X180896769Y-106195950D01*
X180896768Y-106195945D01*
X180877997Y-106142300D01*
X180837189Y-106025678D01*
X180741216Y-105872938D01*
X180613662Y-105745384D01*
X180545995Y-105702866D01*
X180511032Y-105680897D01*
X180464741Y-105628562D01*
X180454093Y-105559508D01*
X180482468Y-105495660D01*
X180540858Y-105457288D01*
X180576917Y-105451903D01*
X182187419Y-105450832D01*
X182254469Y-105470472D01*
X182300259Y-105523246D01*
X182310249Y-105592397D01*
X182281266Y-105655972D01*
X182253472Y-105679825D01*
X182149140Y-105745382D01*
X182149137Y-105745384D01*
X182021584Y-105872937D01*
X181925611Y-106025676D01*
X181866031Y-106195945D01*
X181866030Y-106195950D01*
X181845835Y-106375196D01*
X181845835Y-106375203D01*
X181866030Y-106554449D01*
X181866031Y-106554454D01*
X181925611Y-106724723D01*
X181977283Y-106806958D01*
X182021584Y-106877462D01*
X182149138Y-107005016D01*
X182301878Y-107100989D01*
X182472145Y-107160568D01*
X182472150Y-107160569D01*
X182651396Y-107180765D01*
X182651400Y-107180765D01*
X182651404Y-107180765D01*
X182830649Y-107160569D01*
X182830652Y-107160568D01*
X182830655Y-107160568D01*
X183000922Y-107100989D01*
X183153662Y-107005016D01*
X183281216Y-106877462D01*
X183377189Y-106724722D01*
X183436768Y-106554455D01*
X183436769Y-106554449D01*
X183456965Y-106375203D01*
X183456965Y-106375196D01*
X183436769Y-106195950D01*
X183436768Y-106195945D01*
X183417997Y-106142300D01*
X183377189Y-106025678D01*
X183281216Y-105872938D01*
X183153662Y-105745384D01*
X183085995Y-105702866D01*
X183048347Y-105679210D01*
X183002056Y-105626875D01*
X182991408Y-105557821D01*
X183019783Y-105493973D01*
X183078173Y-105455601D01*
X183114235Y-105450216D01*
X184730110Y-105449141D01*
X184797160Y-105468781D01*
X184842950Y-105521555D01*
X184852940Y-105590706D01*
X184823957Y-105654281D01*
X184796163Y-105678134D01*
X184689140Y-105745382D01*
X184689137Y-105745384D01*
X184561584Y-105872937D01*
X184465611Y-106025676D01*
X184406031Y-106195945D01*
X184406030Y-106195950D01*
X184385835Y-106375196D01*
X184385835Y-106375203D01*
X184406030Y-106554449D01*
X184406031Y-106554454D01*
X184465611Y-106724723D01*
X184517283Y-106806958D01*
X184561584Y-106877462D01*
X184689138Y-107005016D01*
X184841878Y-107100989D01*
X185012145Y-107160568D01*
X185012150Y-107160569D01*
X185191396Y-107180765D01*
X185191400Y-107180765D01*
X185191404Y-107180765D01*
X185370649Y-107160569D01*
X185370652Y-107160568D01*
X185370655Y-107160568D01*
X185540922Y-107100989D01*
X185693662Y-107005016D01*
X185821216Y-106877462D01*
X185917189Y-106724722D01*
X185976768Y-106554455D01*
X185976769Y-106554449D01*
X185996965Y-106375203D01*
X185996965Y-106375196D01*
X185976769Y-106195950D01*
X185976768Y-106195945D01*
X185957997Y-106142300D01*
X185917189Y-106025678D01*
X185821216Y-105872938D01*
X185693662Y-105745384D01*
X185693656Y-105745379D01*
X185585661Y-105677521D01*
X185539370Y-105625187D01*
X185528722Y-105556133D01*
X185557097Y-105492285D01*
X185615487Y-105453913D01*
X185651545Y-105448528D01*
X187272801Y-105447450D01*
X187339851Y-105467090D01*
X187385641Y-105519864D01*
X187395631Y-105589015D01*
X187366648Y-105652590D01*
X187338854Y-105676443D01*
X187229140Y-105745382D01*
X187229137Y-105745384D01*
X187101584Y-105872937D01*
X187005611Y-106025676D01*
X186946031Y-106195945D01*
X186946030Y-106195950D01*
X186925835Y-106375196D01*
X186925835Y-106375203D01*
X186946030Y-106554449D01*
X186946031Y-106554454D01*
X187005611Y-106724723D01*
X187057283Y-106806958D01*
X187101584Y-106877462D01*
X187229138Y-107005016D01*
X187381878Y-107100989D01*
X187552145Y-107160568D01*
X187552150Y-107160569D01*
X187731396Y-107180765D01*
X187731400Y-107180765D01*
X187731404Y-107180765D01*
X187910649Y-107160569D01*
X187910652Y-107160568D01*
X187910655Y-107160568D01*
X188080922Y-107100989D01*
X188233662Y-107005016D01*
X188361216Y-106877462D01*
X188457189Y-106724722D01*
X188516768Y-106554455D01*
X188516769Y-106554449D01*
X188536965Y-106375203D01*
X188536965Y-106375196D01*
X188516769Y-106195950D01*
X188516768Y-106195945D01*
X188497997Y-106142300D01*
X188457189Y-106025678D01*
X188361216Y-105872938D01*
X188233662Y-105745384D01*
X188233654Y-105745379D01*
X188122976Y-105675835D01*
X188076685Y-105623500D01*
X188066037Y-105554446D01*
X188094412Y-105490598D01*
X188152802Y-105452226D01*
X188188862Y-105446841D01*
X189941872Y-105445675D01*
X189955809Y-105446453D01*
G37*
%TD.AperFunction*%
%TD*%
M02*
