%TF.GenerationSoftware,KiCad,Pcbnew,8.0.6*%
%TF.CreationDate,2025-03-17T21:12:52+03:00*%
%TF.ProjectId,ECU_SW_Control,4543555f-5357-45f4-936f-6e74726f6c2e,v1*%
%TF.SameCoordinates,Original*%
%TF.FileFunction,Soldermask,Top*%
%TF.FilePolarity,Negative*%
%FSLAX46Y46*%
G04 Gerber Fmt 4.6, Leading zero omitted, Abs format (unit mm)*
G04 Created by KiCad (PCBNEW 8.0.6) date 2025-03-17 21:12:52*
%MOMM*%
%LPD*%
G01*
G04 APERTURE LIST*
G04 Aperture macros list*
%AMRoundRect*
0 Rectangle with rounded corners*
0 $1 Rounding radius*
0 $2 $3 $4 $5 $6 $7 $8 $9 X,Y pos of 4 corners*
0 Add a 4 corners polygon primitive as box body*
4,1,4,$2,$3,$4,$5,$6,$7,$8,$9,$2,$3,0*
0 Add four circle primitives for the rounded corners*
1,1,$1+$1,$2,$3*
1,1,$1+$1,$4,$5*
1,1,$1+$1,$6,$7*
1,1,$1+$1,$8,$9*
0 Add four rect primitives between the rounded corners*
20,1,$1+$1,$2,$3,$4,$5,0*
20,1,$1+$1,$4,$5,$6,$7,0*
20,1,$1+$1,$6,$7,$8,$9,0*
20,1,$1+$1,$8,$9,$2,$3,0*%
G04 Aperture macros list end*
%ADD10RoundRect,0.237500X0.250000X0.237500X-0.250000X0.237500X-0.250000X-0.237500X0.250000X-0.237500X0*%
%ADD11RoundRect,0.237500X-0.237500X0.300000X-0.237500X-0.300000X0.237500X-0.300000X0.237500X0.300000X0*%
%ADD12RoundRect,0.150000X0.825000X0.150000X-0.825000X0.150000X-0.825000X-0.150000X0.825000X-0.150000X0*%
%ADD13RoundRect,0.237500X-0.250000X-0.237500X0.250000X-0.237500X0.250000X0.237500X-0.250000X0.237500X0*%
%ADD14R,1.700000X1.700000*%
%ADD15O,1.700000X1.700000*%
%ADD16RoundRect,0.237500X0.300000X0.237500X-0.300000X0.237500X-0.300000X-0.237500X0.300000X-0.237500X0*%
%ADD17RoundRect,0.250000X-1.050000X-0.550000X1.050000X-0.550000X1.050000X0.550000X-1.050000X0.550000X0*%
%ADD18R,3.000000X1.600000*%
%ADD19R,6.700000X6.700000*%
%ADD20RoundRect,0.237500X-0.300000X-0.237500X0.300000X-0.237500X0.300000X0.237500X-0.300000X0.237500X0*%
%ADD21RoundRect,0.250000X-1.000000X-0.650000X1.000000X-0.650000X1.000000X0.650000X-1.000000X0.650000X0*%
%ADD22R,0.550000X1.500000*%
%ADD23R,1.500000X0.550000*%
%ADD24RoundRect,0.237500X0.237500X-0.300000X0.237500X0.300000X-0.237500X0.300000X-0.237500X-0.300000X0*%
%ADD25RoundRect,0.317500X0.317500X-0.382500X0.317500X0.382500X-0.317500X0.382500X-0.317500X-0.382500X0*%
%ADD26R,4.720000X4.800000*%
%ADD27R,1.300000X1.050000*%
G04 APERTURE END LIST*
D10*
%TO.C,R18*%
X150289900Y-125171200D03*
X148464900Y-125171200D03*
%TD*%
%TO.C,R9*%
X182370100Y-133070600D03*
X180545100Y-133070600D03*
%TD*%
D11*
%TO.C,C10*%
X177622200Y-119965300D03*
X177622200Y-121690300D03*
%TD*%
D10*
%TO.C,R1*%
X150280500Y-133477000D03*
X148455500Y-133477000D03*
%TD*%
D12*
%TO.C,U2*%
X158089600Y-132080000D03*
X158089600Y-130810000D03*
X158089600Y-129540000D03*
X158089600Y-128270000D03*
X153139600Y-128270000D03*
X153139600Y-129540000D03*
X153139600Y-130810000D03*
X153139600Y-132080000D03*
%TD*%
D13*
%TO.C,R16*%
X180545100Y-120370600D03*
X182370100Y-120370600D03*
%TD*%
%TO.C,R15*%
X180545100Y-130530600D03*
X182370100Y-130530600D03*
%TD*%
D14*
%TO.C,J2*%
X188544200Y-111455200D03*
D15*
X188544200Y-113995200D03*
X188544200Y-116535200D03*
X188544200Y-119075200D03*
X188544200Y-121615200D03*
X188544200Y-124155200D03*
X188544200Y-126695200D03*
X188544200Y-129235200D03*
X188544200Y-131775200D03*
%TD*%
D16*
%TO.C,C12*%
X160784500Y-116738400D03*
X159059500Y-116738400D03*
%TD*%
D10*
%TO.C,R5*%
X172789200Y-133934200D03*
X170964200Y-133934200D03*
%TD*%
D11*
%TO.C,C5*%
X170281600Y-129160100D03*
X170281600Y-130885100D03*
%TD*%
D14*
%TO.C,J3*%
X168798000Y-107492800D03*
D15*
X171338000Y-107492800D03*
X173878000Y-107492800D03*
%TD*%
D11*
%TO.C,C3*%
X160197800Y-129312500D03*
X160197800Y-131037500D03*
%TD*%
D13*
%TO.C,R17*%
X180545100Y-117830600D03*
X182370100Y-117830600D03*
%TD*%
D17*
%TO.C,C2*%
X150713800Y-119049800D03*
X154313800Y-119049800D03*
%TD*%
D18*
%TO.C,U1*%
X151688800Y-108935000D03*
D19*
X158338800Y-111235000D03*
D18*
X151688800Y-113535000D03*
%TD*%
D13*
%TO.C,R13*%
X180545100Y-115290600D03*
X182370100Y-115290600D03*
%TD*%
%TO.C,R3*%
X148455500Y-128676400D03*
X150280500Y-128676400D03*
%TD*%
D16*
%TO.C,C9*%
X160784500Y-121996200D03*
X159059500Y-121996200D03*
%TD*%
D13*
%TO.C,R12*%
X180545100Y-112750600D03*
X182370100Y-112750600D03*
%TD*%
%TO.C,R14*%
X180545100Y-125450600D03*
X182370100Y-125450600D03*
%TD*%
D10*
%TO.C,R8*%
X182370100Y-127990600D03*
X180545100Y-127990600D03*
%TD*%
D16*
%TO.C,C11*%
X167993400Y-128346200D03*
X166268400Y-128346200D03*
%TD*%
D10*
%TO.C,R6*%
X167005000Y-113106200D03*
X165180000Y-113106200D03*
%TD*%
D16*
%TO.C,C7*%
X160784500Y-118491000D03*
X159059500Y-118491000D03*
%TD*%
%TO.C,C14*%
X160784500Y-123748800D03*
X159059500Y-123748800D03*
%TD*%
D14*
%TO.C,J1*%
X141706600Y-118719600D03*
D15*
X141706600Y-121259600D03*
X141706600Y-123799600D03*
X141706600Y-126339600D03*
X141706600Y-128879600D03*
X141706600Y-131419600D03*
%TD*%
D10*
%TO.C,R4*%
X176914200Y-133934200D03*
X175089200Y-133934200D03*
%TD*%
D20*
%TO.C,C4*%
X148505500Y-126923800D03*
X150230500Y-126923800D03*
%TD*%
D13*
%TO.C,R19*%
X148464900Y-123418600D03*
X150289900Y-123418600D03*
%TD*%
D10*
%TO.C,R10*%
X182370100Y-122910600D03*
X180545100Y-122910600D03*
%TD*%
D13*
%TO.C,R11*%
X180545100Y-110210600D03*
X182370100Y-110210600D03*
%TD*%
D21*
%TO.C,D1*%
X141895800Y-114935000D03*
X145895800Y-114935000D03*
%TD*%
D16*
%TO.C,C8*%
X160784500Y-120243600D03*
X159059500Y-120243600D03*
%TD*%
D22*
%TO.C,IC1*%
X173989000Y-115066600D03*
X173189000Y-115066600D03*
X172389000Y-115066600D03*
X171589000Y-115066600D03*
X170789000Y-115066600D03*
X169989000Y-115066600D03*
X169189000Y-115066600D03*
X168389000Y-115066600D03*
X167589000Y-115066600D03*
X166789000Y-115066600D03*
X165989000Y-115066600D03*
D23*
X164289000Y-116766600D03*
X164289000Y-117566600D03*
X164289000Y-118366600D03*
X164289000Y-119166600D03*
X164289000Y-119966600D03*
X164289000Y-120766600D03*
X164289000Y-121566600D03*
X164289000Y-122366600D03*
X164289000Y-123166600D03*
X164289000Y-123966600D03*
X164289000Y-124766600D03*
D22*
X165989000Y-126466600D03*
X166789000Y-126466600D03*
X167589000Y-126466600D03*
X168389000Y-126466600D03*
X169189000Y-126466600D03*
X169989000Y-126466600D03*
X170789000Y-126466600D03*
X171589000Y-126466600D03*
X172389000Y-126466600D03*
X173189000Y-126466600D03*
X173989000Y-126466600D03*
D23*
X175689000Y-124766600D03*
X175689000Y-123966600D03*
X175689000Y-123166600D03*
X175689000Y-122366600D03*
X175689000Y-121566600D03*
X175689000Y-120766600D03*
X175689000Y-119966600D03*
X175689000Y-119166600D03*
X175689000Y-118366600D03*
X175689000Y-117566600D03*
X175689000Y-116766600D03*
%TD*%
D24*
%TO.C,C6*%
X177596800Y-130885100D03*
X177596800Y-129160100D03*
%TD*%
D10*
%TO.C,R7*%
X160834500Y-125501400D03*
X159009500Y-125501400D03*
%TD*%
D25*
%TO.C,D2*%
X141108300Y-111325000D03*
X141108300Y-109245000D03*
D26*
X144913300Y-110285000D03*
%TD*%
D10*
%TO.C,R2*%
X150280500Y-131724400D03*
X148455500Y-131724400D03*
%TD*%
D27*
%TO.C,Q1*%
X172782200Y-130937000D03*
X175082200Y-130937000D03*
X175082200Y-129087000D03*
X172782200Y-129087000D03*
%TD*%
D11*
%TO.C,C1*%
X148361400Y-108935000D03*
X148361400Y-110660000D03*
%TD*%
D20*
%TO.C,C13*%
X168736900Y-113106200D03*
X170461900Y-113106200D03*
%TD*%
M02*
