%TF.GenerationSoftware,KiCad,Pcbnew,8.0.6*%
%TF.CreationDate,2025-03-17T21:12:52+03:00*%
%TF.ProjectId,ECU_SW_Control,4543555f-5357-45f4-936f-6e74726f6c2e,v1*%
%TF.SameCoordinates,Original*%
%TF.FileFunction,Legend,Top*%
%TF.FilePolarity,Positive*%
%FSLAX46Y46*%
G04 Gerber Fmt 4.6, Leading zero omitted, Abs format (unit mm)*
G04 Created by KiCad (PCBNEW 8.0.6) date 2025-03-17 21:12:52*
%MOMM*%
%LPD*%
G01*
G04 APERTURE LIST*
%ADD10C,0.120000*%
%ADD11C,0.100000*%
%ADD12C,0.150000*%
G04 APERTURE END LIST*
D10*
X140385800Y-119964200D02*
X140385800Y-118668800D01*
X170070771Y-108821400D02*
X168800771Y-108821400D01*
D11*
X170070771Y-108821400D02*
X170068000Y-111379000D01*
D10*
X187214200Y-112674400D02*
X187214200Y-111404400D01*
X167470771Y-106166400D02*
X167462760Y-107493002D01*
X189874200Y-112712500D02*
X189865000Y-110147100D01*
X143043600Y-117373400D02*
X141722800Y-117389600D01*
X143052800Y-119938800D02*
X143043600Y-117373400D01*
D11*
X165481000Y-128930400D02*
X165481000Y-129057400D01*
D10*
X189865000Y-110126300D02*
X188544200Y-110125200D01*
X170071971Y-106163000D02*
X167479971Y-106166400D01*
D11*
X175672629Y-110576000D02*
X175202629Y-110236000D01*
X175672629Y-109896000D01*
X175672629Y-110576000D01*
G36*
X175672629Y-110576000D02*
G01*
X175202629Y-110236000D01*
X175672629Y-109896000D01*
X175672629Y-110576000D01*
G37*
X167484600Y-110236000D02*
X167014600Y-110576000D01*
X167014600Y-109896000D01*
X167484600Y-110236000D01*
G36*
X167484600Y-110236000D02*
G01*
X167014600Y-110576000D01*
X167014600Y-109896000D01*
X167484600Y-110236000D01*
G37*
D10*
X184054924Y-111819055D02*
X184054924Y-111019055D01*
X184054924Y-111019055D02*
X184321590Y-111590483D01*
X184321590Y-111590483D02*
X184588257Y-111019055D01*
X184588257Y-111019055D02*
X184588257Y-111819055D01*
X185426353Y-111742864D02*
X185388257Y-111780960D01*
X185388257Y-111780960D02*
X185273972Y-111819055D01*
X185273972Y-111819055D02*
X185197781Y-111819055D01*
X185197781Y-111819055D02*
X185083495Y-111780960D01*
X185083495Y-111780960D02*
X185007305Y-111704769D01*
X185007305Y-111704769D02*
X184969210Y-111628579D01*
X184969210Y-111628579D02*
X184931114Y-111476198D01*
X184931114Y-111476198D02*
X184931114Y-111361912D01*
X184931114Y-111361912D02*
X184969210Y-111209531D01*
X184969210Y-111209531D02*
X185007305Y-111133340D01*
X185007305Y-111133340D02*
X185083495Y-111057150D01*
X185083495Y-111057150D02*
X185197781Y-111019055D01*
X185197781Y-111019055D02*
X185273972Y-111019055D01*
X185273972Y-111019055D02*
X185388257Y-111057150D01*
X185388257Y-111057150D02*
X185426353Y-111095245D01*
X186150162Y-111819055D02*
X185769210Y-111819055D01*
X185769210Y-111819055D02*
X185769210Y-111019055D01*
X186873972Y-111819055D02*
X186607305Y-111438102D01*
X186416829Y-111819055D02*
X186416829Y-111019055D01*
X186416829Y-111019055D02*
X186721591Y-111019055D01*
X186721591Y-111019055D02*
X186797781Y-111057150D01*
X186797781Y-111057150D02*
X186835876Y-111095245D01*
X186835876Y-111095245D02*
X186873972Y-111171436D01*
X186873972Y-111171436D02*
X186873972Y-111285721D01*
X186873972Y-111285721D02*
X186835876Y-111361912D01*
X186835876Y-111361912D02*
X186797781Y-111400007D01*
X186797781Y-111400007D02*
X186721591Y-111438102D01*
X186721591Y-111438102D02*
X186416829Y-111438102D01*
X144043505Y-129167264D02*
X144005409Y-129205360D01*
X144005409Y-129205360D02*
X143891124Y-129243455D01*
X143891124Y-129243455D02*
X143814933Y-129243455D01*
X143814933Y-129243455D02*
X143700647Y-129205360D01*
X143700647Y-129205360D02*
X143624457Y-129129169D01*
X143624457Y-129129169D02*
X143586362Y-129052979D01*
X143586362Y-129052979D02*
X143548266Y-128900598D01*
X143548266Y-128900598D02*
X143548266Y-128786312D01*
X143548266Y-128786312D02*
X143586362Y-128633931D01*
X143586362Y-128633931D02*
X143624457Y-128557740D01*
X143624457Y-128557740D02*
X143700647Y-128481550D01*
X143700647Y-128481550D02*
X143814933Y-128443455D01*
X143814933Y-128443455D02*
X143891124Y-128443455D01*
X143891124Y-128443455D02*
X144005409Y-128481550D01*
X144005409Y-128481550D02*
X144043505Y-128519645D01*
X144348266Y-129014883D02*
X144729219Y-129014883D01*
X144272076Y-129243455D02*
X144538743Y-128443455D01*
X144538743Y-128443455D02*
X144805409Y-129243455D01*
X145072076Y-129243455D02*
X145072076Y-128443455D01*
X145072076Y-128443455D02*
X145529219Y-129243455D01*
X145529219Y-129243455D02*
X145529219Y-128443455D01*
X146291123Y-129243455D02*
X145910171Y-129243455D01*
X145910171Y-129243455D02*
X145910171Y-128443455D01*
X143872076Y-124087264D02*
X143833980Y-124125360D01*
X143833980Y-124125360D02*
X143719695Y-124163455D01*
X143719695Y-124163455D02*
X143643504Y-124163455D01*
X143643504Y-124163455D02*
X143529218Y-124125360D01*
X143529218Y-124125360D02*
X143453028Y-124049169D01*
X143453028Y-124049169D02*
X143414933Y-123972979D01*
X143414933Y-123972979D02*
X143376837Y-123820598D01*
X143376837Y-123820598D02*
X143376837Y-123706312D01*
X143376837Y-123706312D02*
X143414933Y-123553931D01*
X143414933Y-123553931D02*
X143453028Y-123477740D01*
X143453028Y-123477740D02*
X143529218Y-123401550D01*
X143529218Y-123401550D02*
X143643504Y-123363455D01*
X143643504Y-123363455D02*
X143719695Y-123363455D01*
X143719695Y-123363455D02*
X143833980Y-123401550D01*
X143833980Y-123401550D02*
X143872076Y-123439645D01*
X144367314Y-123363455D02*
X144519695Y-123363455D01*
X144519695Y-123363455D02*
X144595885Y-123401550D01*
X144595885Y-123401550D02*
X144672076Y-123477740D01*
X144672076Y-123477740D02*
X144710171Y-123630121D01*
X144710171Y-123630121D02*
X144710171Y-123896788D01*
X144710171Y-123896788D02*
X144672076Y-124049169D01*
X144672076Y-124049169D02*
X144595885Y-124125360D01*
X144595885Y-124125360D02*
X144519695Y-124163455D01*
X144519695Y-124163455D02*
X144367314Y-124163455D01*
X144367314Y-124163455D02*
X144291123Y-124125360D01*
X144291123Y-124125360D02*
X144214933Y-124049169D01*
X144214933Y-124049169D02*
X144176837Y-123896788D01*
X144176837Y-123896788D02*
X144176837Y-123630121D01*
X144176837Y-123630121D02*
X144214933Y-123477740D01*
X144214933Y-123477740D02*
X144291123Y-123401550D01*
X144291123Y-123401550D02*
X144367314Y-123363455D01*
X145053028Y-124163455D02*
X145053028Y-123363455D01*
X145053028Y-123363455D02*
X145319694Y-123934883D01*
X145319694Y-123934883D02*
X145586361Y-123363455D01*
X145586361Y-123363455D02*
X145586361Y-124163455D01*
X146386361Y-124163455D02*
X145929218Y-124163455D01*
X146157790Y-124163455D02*
X146157790Y-123363455D01*
X146157790Y-123363455D02*
X146081599Y-123477740D01*
X146081599Y-123477740D02*
X146005409Y-123553931D01*
X146005409Y-123553931D02*
X145929218Y-123592026D01*
X176259433Y-109813255D02*
X176411814Y-109813255D01*
X176411814Y-109813255D02*
X176488004Y-109851350D01*
X176488004Y-109851350D02*
X176564195Y-109927540D01*
X176564195Y-109927540D02*
X176602290Y-110079921D01*
X176602290Y-110079921D02*
X176602290Y-110346588D01*
X176602290Y-110346588D02*
X176564195Y-110498969D01*
X176564195Y-110498969D02*
X176488004Y-110575160D01*
X176488004Y-110575160D02*
X176411814Y-110613255D01*
X176411814Y-110613255D02*
X176259433Y-110613255D01*
X176259433Y-110613255D02*
X176183242Y-110575160D01*
X176183242Y-110575160D02*
X176107052Y-110498969D01*
X176107052Y-110498969D02*
X176068956Y-110346588D01*
X176068956Y-110346588D02*
X176068956Y-110079921D01*
X176068956Y-110079921D02*
X176107052Y-109927540D01*
X176107052Y-109927540D02*
X176183242Y-109851350D01*
X176183242Y-109851350D02*
X176259433Y-109813255D01*
X176945147Y-109813255D02*
X176945147Y-110460874D01*
X176945147Y-110460874D02*
X176983242Y-110537064D01*
X176983242Y-110537064D02*
X177021337Y-110575160D01*
X177021337Y-110575160D02*
X177097528Y-110613255D01*
X177097528Y-110613255D02*
X177249909Y-110613255D01*
X177249909Y-110613255D02*
X177326099Y-110575160D01*
X177326099Y-110575160D02*
X177364194Y-110537064D01*
X177364194Y-110537064D02*
X177402290Y-110460874D01*
X177402290Y-110460874D02*
X177402290Y-109813255D01*
X177668956Y-109813255D02*
X178126099Y-109813255D01*
X177897527Y-110613255D02*
X177897527Y-109813255D01*
X164981852Y-110614455D02*
X164981852Y-109814455D01*
X165362804Y-110614455D02*
X165362804Y-109814455D01*
X165362804Y-109814455D02*
X165819947Y-110614455D01*
X165819947Y-110614455D02*
X165819947Y-109814455D01*
X166200899Y-110614455D02*
X166200899Y-109814455D01*
X166200899Y-109814455D02*
X166505661Y-109814455D01*
X166505661Y-109814455D02*
X166581851Y-109852550D01*
X166581851Y-109852550D02*
X166619946Y-109890645D01*
X166619946Y-109890645D02*
X166658042Y-109966836D01*
X166658042Y-109966836D02*
X166658042Y-110081121D01*
X166658042Y-110081121D02*
X166619946Y-110157312D01*
X166619946Y-110157312D02*
X166581851Y-110195407D01*
X166581851Y-110195407D02*
X166505661Y-110233502D01*
X166505661Y-110233502D02*
X166200899Y-110233502D01*
X174241855Y-111226475D02*
X173441855Y-111226475D01*
X173441855Y-111226475D02*
X173441855Y-111035999D01*
X173441855Y-111035999D02*
X173479950Y-110921713D01*
X173479950Y-110921713D02*
X173556140Y-110845523D01*
X173556140Y-110845523D02*
X173632331Y-110807428D01*
X173632331Y-110807428D02*
X173784712Y-110769332D01*
X173784712Y-110769332D02*
X173898998Y-110769332D01*
X173898998Y-110769332D02*
X174051379Y-110807428D01*
X174051379Y-110807428D02*
X174127569Y-110845523D01*
X174127569Y-110845523D02*
X174203760Y-110921713D01*
X174203760Y-110921713D02*
X174241855Y-111035999D01*
X174241855Y-111035999D02*
X174241855Y-111226475D01*
X174241855Y-110426475D02*
X173441855Y-110426475D01*
X173479950Y-109626476D02*
X173441855Y-109702666D01*
X173441855Y-109702666D02*
X173441855Y-109816952D01*
X173441855Y-109816952D02*
X173479950Y-109931238D01*
X173479950Y-109931238D02*
X173556140Y-110007428D01*
X173556140Y-110007428D02*
X173632331Y-110045523D01*
X173632331Y-110045523D02*
X173784712Y-110083619D01*
X173784712Y-110083619D02*
X173898998Y-110083619D01*
X173898998Y-110083619D02*
X174051379Y-110045523D01*
X174051379Y-110045523D02*
X174127569Y-110007428D01*
X174127569Y-110007428D02*
X174203760Y-109931238D01*
X174203760Y-109931238D02*
X174241855Y-109816952D01*
X174241855Y-109816952D02*
X174241855Y-109740761D01*
X174241855Y-109740761D02*
X174203760Y-109626476D01*
X174203760Y-109626476D02*
X174165664Y-109588380D01*
X174165664Y-109588380D02*
X173898998Y-109588380D01*
X173898998Y-109588380D02*
X173898998Y-109740761D01*
X174241855Y-109245523D02*
X173441855Y-109245523D01*
X171701855Y-111359809D02*
X170901855Y-111359809D01*
X170901855Y-111359809D02*
X170901855Y-111055047D01*
X170901855Y-111055047D02*
X170939950Y-110978857D01*
X170939950Y-110978857D02*
X170978045Y-110940762D01*
X170978045Y-110940762D02*
X171054236Y-110902666D01*
X171054236Y-110902666D02*
X171168521Y-110902666D01*
X171168521Y-110902666D02*
X171244712Y-110940762D01*
X171244712Y-110940762D02*
X171282807Y-110978857D01*
X171282807Y-110978857D02*
X171320902Y-111055047D01*
X171320902Y-111055047D02*
X171320902Y-111359809D01*
X170901855Y-110636000D02*
X171701855Y-110445524D01*
X171701855Y-110445524D02*
X171130426Y-110293143D01*
X171130426Y-110293143D02*
X171701855Y-110140762D01*
X171701855Y-110140762D02*
X170901855Y-109950286D01*
X171701855Y-109645523D02*
X170901855Y-109645523D01*
X170901855Y-109645523D02*
X171473283Y-109378857D01*
X171473283Y-109378857D02*
X170901855Y-109112190D01*
X170901855Y-109112190D02*
X171701855Y-109112190D01*
X143872076Y-126627264D02*
X143833980Y-126665360D01*
X143833980Y-126665360D02*
X143719695Y-126703455D01*
X143719695Y-126703455D02*
X143643504Y-126703455D01*
X143643504Y-126703455D02*
X143529218Y-126665360D01*
X143529218Y-126665360D02*
X143453028Y-126589169D01*
X143453028Y-126589169D02*
X143414933Y-126512979D01*
X143414933Y-126512979D02*
X143376837Y-126360598D01*
X143376837Y-126360598D02*
X143376837Y-126246312D01*
X143376837Y-126246312D02*
X143414933Y-126093931D01*
X143414933Y-126093931D02*
X143453028Y-126017740D01*
X143453028Y-126017740D02*
X143529218Y-125941550D01*
X143529218Y-125941550D02*
X143643504Y-125903455D01*
X143643504Y-125903455D02*
X143719695Y-125903455D01*
X143719695Y-125903455D02*
X143833980Y-125941550D01*
X143833980Y-125941550D02*
X143872076Y-125979645D01*
X144367314Y-125903455D02*
X144519695Y-125903455D01*
X144519695Y-125903455D02*
X144595885Y-125941550D01*
X144595885Y-125941550D02*
X144672076Y-126017740D01*
X144672076Y-126017740D02*
X144710171Y-126170121D01*
X144710171Y-126170121D02*
X144710171Y-126436788D01*
X144710171Y-126436788D02*
X144672076Y-126589169D01*
X144672076Y-126589169D02*
X144595885Y-126665360D01*
X144595885Y-126665360D02*
X144519695Y-126703455D01*
X144519695Y-126703455D02*
X144367314Y-126703455D01*
X144367314Y-126703455D02*
X144291123Y-126665360D01*
X144291123Y-126665360D02*
X144214933Y-126589169D01*
X144214933Y-126589169D02*
X144176837Y-126436788D01*
X144176837Y-126436788D02*
X144176837Y-126170121D01*
X144176837Y-126170121D02*
X144214933Y-126017740D01*
X144214933Y-126017740D02*
X144291123Y-125941550D01*
X144291123Y-125941550D02*
X144367314Y-125903455D01*
X145053028Y-126703455D02*
X145053028Y-125903455D01*
X145053028Y-125903455D02*
X145319694Y-126474883D01*
X145319694Y-126474883D02*
X145586361Y-125903455D01*
X145586361Y-125903455D02*
X145586361Y-126703455D01*
X145929218Y-125979645D02*
X145967314Y-125941550D01*
X145967314Y-125941550D02*
X146043504Y-125903455D01*
X146043504Y-125903455D02*
X146233980Y-125903455D01*
X146233980Y-125903455D02*
X146310171Y-125941550D01*
X146310171Y-125941550D02*
X146348266Y-125979645D01*
X146348266Y-125979645D02*
X146386361Y-126055836D01*
X146386361Y-126055836D02*
X146386361Y-126132026D01*
X146386361Y-126132026D02*
X146348266Y-126246312D01*
X146348266Y-126246312D02*
X145891123Y-126703455D01*
X145891123Y-126703455D02*
X146386361Y-126703455D01*
X143567314Y-118283455D02*
X143833981Y-119083455D01*
X143833981Y-119083455D02*
X144100647Y-118283455D01*
X144633980Y-118664407D02*
X144748266Y-118702502D01*
X144748266Y-118702502D02*
X144786361Y-118740598D01*
X144786361Y-118740598D02*
X144824457Y-118816788D01*
X144824457Y-118816788D02*
X144824457Y-118931074D01*
X144824457Y-118931074D02*
X144786361Y-119007264D01*
X144786361Y-119007264D02*
X144748266Y-119045360D01*
X144748266Y-119045360D02*
X144672076Y-119083455D01*
X144672076Y-119083455D02*
X144367314Y-119083455D01*
X144367314Y-119083455D02*
X144367314Y-118283455D01*
X144367314Y-118283455D02*
X144633980Y-118283455D01*
X144633980Y-118283455D02*
X144710171Y-118321550D01*
X144710171Y-118321550D02*
X144748266Y-118359645D01*
X144748266Y-118359645D02*
X144786361Y-118435836D01*
X144786361Y-118435836D02*
X144786361Y-118512026D01*
X144786361Y-118512026D02*
X144748266Y-118588217D01*
X144748266Y-118588217D02*
X144710171Y-118626312D01*
X144710171Y-118626312D02*
X144633980Y-118664407D01*
X144633980Y-118664407D02*
X144367314Y-118664407D01*
X145129218Y-118854883D02*
X145510171Y-118854883D01*
X145053028Y-119083455D02*
X145319695Y-118283455D01*
X145319695Y-118283455D02*
X145586361Y-119083455D01*
X145738742Y-118283455D02*
X146195885Y-118283455D01*
X145967313Y-119083455D02*
X145967313Y-118283455D01*
X184835876Y-131377150D02*
X184759686Y-131339055D01*
X184759686Y-131339055D02*
X184645400Y-131339055D01*
X184645400Y-131339055D02*
X184531114Y-131377150D01*
X184531114Y-131377150D02*
X184454924Y-131453340D01*
X184454924Y-131453340D02*
X184416829Y-131529531D01*
X184416829Y-131529531D02*
X184378733Y-131681912D01*
X184378733Y-131681912D02*
X184378733Y-131796198D01*
X184378733Y-131796198D02*
X184416829Y-131948579D01*
X184416829Y-131948579D02*
X184454924Y-132024769D01*
X184454924Y-132024769D02*
X184531114Y-132100960D01*
X184531114Y-132100960D02*
X184645400Y-132139055D01*
X184645400Y-132139055D02*
X184721591Y-132139055D01*
X184721591Y-132139055D02*
X184835876Y-132100960D01*
X184835876Y-132100960D02*
X184873972Y-132062864D01*
X184873972Y-132062864D02*
X184873972Y-131796198D01*
X184873972Y-131796198D02*
X184721591Y-131796198D01*
X185216829Y-132139055D02*
X185216829Y-131339055D01*
X185216829Y-131339055D02*
X185673972Y-132139055D01*
X185673972Y-132139055D02*
X185673972Y-131339055D01*
X186054924Y-132139055D02*
X186054924Y-131339055D01*
X186054924Y-131339055D02*
X186245400Y-131339055D01*
X186245400Y-131339055D02*
X186359686Y-131377150D01*
X186359686Y-131377150D02*
X186435876Y-131453340D01*
X186435876Y-131453340D02*
X186473971Y-131529531D01*
X186473971Y-131529531D02*
X186512067Y-131681912D01*
X186512067Y-131681912D02*
X186512067Y-131796198D01*
X186512067Y-131796198D02*
X186473971Y-131948579D01*
X186473971Y-131948579D02*
X186435876Y-132024769D01*
X186435876Y-132024769D02*
X186359686Y-132100960D01*
X186359686Y-132100960D02*
X186245400Y-132139055D01*
X186245400Y-132139055D02*
X186054924Y-132139055D01*
X184073971Y-114359055D02*
X184073971Y-113559055D01*
X184073971Y-113559055D02*
X184378733Y-113559055D01*
X184378733Y-113559055D02*
X184454923Y-113597150D01*
X184454923Y-113597150D02*
X184493018Y-113635245D01*
X184493018Y-113635245D02*
X184531114Y-113711436D01*
X184531114Y-113711436D02*
X184531114Y-113825721D01*
X184531114Y-113825721D02*
X184493018Y-113901912D01*
X184493018Y-113901912D02*
X184454923Y-113940007D01*
X184454923Y-113940007D02*
X184378733Y-113978102D01*
X184378733Y-113978102D02*
X184073971Y-113978102D01*
X185293018Y-113597150D02*
X185216828Y-113559055D01*
X185216828Y-113559055D02*
X185102542Y-113559055D01*
X185102542Y-113559055D02*
X184988256Y-113597150D01*
X184988256Y-113597150D02*
X184912066Y-113673340D01*
X184912066Y-113673340D02*
X184873971Y-113749531D01*
X184873971Y-113749531D02*
X184835875Y-113901912D01*
X184835875Y-113901912D02*
X184835875Y-114016198D01*
X184835875Y-114016198D02*
X184873971Y-114168579D01*
X184873971Y-114168579D02*
X184912066Y-114244769D01*
X184912066Y-114244769D02*
X184988256Y-114320960D01*
X184988256Y-114320960D02*
X185102542Y-114359055D01*
X185102542Y-114359055D02*
X185178733Y-114359055D01*
X185178733Y-114359055D02*
X185293018Y-114320960D01*
X185293018Y-114320960D02*
X185331114Y-114282864D01*
X185331114Y-114282864D02*
X185331114Y-114016198D01*
X185331114Y-114016198D02*
X185178733Y-114016198D01*
X185673971Y-113940007D02*
X185940637Y-113940007D01*
X186054923Y-114359055D02*
X185673971Y-114359055D01*
X185673971Y-114359055D02*
X185673971Y-113559055D01*
X185673971Y-113559055D02*
X186054923Y-113559055D01*
X186854924Y-114282864D02*
X186816828Y-114320960D01*
X186816828Y-114320960D02*
X186702543Y-114359055D01*
X186702543Y-114359055D02*
X186626352Y-114359055D01*
X186626352Y-114359055D02*
X186512066Y-114320960D01*
X186512066Y-114320960D02*
X186435876Y-114244769D01*
X186435876Y-114244769D02*
X186397781Y-114168579D01*
X186397781Y-114168579D02*
X186359685Y-114016198D01*
X186359685Y-114016198D02*
X186359685Y-113901912D01*
X186359685Y-113901912D02*
X186397781Y-113749531D01*
X186397781Y-113749531D02*
X186435876Y-113673340D01*
X186435876Y-113673340D02*
X186512066Y-113597150D01*
X186512066Y-113597150D02*
X186626352Y-113559055D01*
X186626352Y-113559055D02*
X186702543Y-113559055D01*
X186702543Y-113559055D02*
X186816828Y-113597150D01*
X186816828Y-113597150D02*
X186854924Y-113635245D01*
X184188257Y-124519055D02*
X184188257Y-123719055D01*
X184188257Y-123719055D02*
X184454923Y-124290483D01*
X184454923Y-124290483D02*
X184721590Y-123719055D01*
X184721590Y-123719055D02*
X184721590Y-124519055D01*
X185102543Y-124519055D02*
X185102543Y-123719055D01*
X185445399Y-124480960D02*
X185559685Y-124519055D01*
X185559685Y-124519055D02*
X185750161Y-124519055D01*
X185750161Y-124519055D02*
X185826352Y-124480960D01*
X185826352Y-124480960D02*
X185864447Y-124442864D01*
X185864447Y-124442864D02*
X185902542Y-124366674D01*
X185902542Y-124366674D02*
X185902542Y-124290483D01*
X185902542Y-124290483D02*
X185864447Y-124214293D01*
X185864447Y-124214293D02*
X185826352Y-124176198D01*
X185826352Y-124176198D02*
X185750161Y-124138102D01*
X185750161Y-124138102D02*
X185597780Y-124100007D01*
X185597780Y-124100007D02*
X185521590Y-124061912D01*
X185521590Y-124061912D02*
X185483495Y-124023817D01*
X185483495Y-124023817D02*
X185445399Y-123947626D01*
X185445399Y-123947626D02*
X185445399Y-123871436D01*
X185445399Y-123871436D02*
X185483495Y-123795245D01*
X185483495Y-123795245D02*
X185521590Y-123757150D01*
X185521590Y-123757150D02*
X185597780Y-123719055D01*
X185597780Y-123719055D02*
X185788257Y-123719055D01*
X185788257Y-123719055D02*
X185902542Y-123757150D01*
X186397781Y-123719055D02*
X186550162Y-123719055D01*
X186550162Y-123719055D02*
X186626352Y-123757150D01*
X186626352Y-123757150D02*
X186702543Y-123833340D01*
X186702543Y-123833340D02*
X186740638Y-123985721D01*
X186740638Y-123985721D02*
X186740638Y-124252388D01*
X186740638Y-124252388D02*
X186702543Y-124404769D01*
X186702543Y-124404769D02*
X186626352Y-124480960D01*
X186626352Y-124480960D02*
X186550162Y-124519055D01*
X186550162Y-124519055D02*
X186397781Y-124519055D01*
X186397781Y-124519055D02*
X186321590Y-124480960D01*
X186321590Y-124480960D02*
X186245400Y-124404769D01*
X186245400Y-124404769D02*
X186207304Y-124252388D01*
X186207304Y-124252388D02*
X186207304Y-123985721D01*
X186207304Y-123985721D02*
X186245400Y-123833340D01*
X186245400Y-123833340D02*
X186321590Y-123757150D01*
X186321590Y-123757150D02*
X186397781Y-123719055D01*
X144272076Y-120861550D02*
X144195886Y-120823455D01*
X144195886Y-120823455D02*
X144081600Y-120823455D01*
X144081600Y-120823455D02*
X143967314Y-120861550D01*
X143967314Y-120861550D02*
X143891124Y-120937740D01*
X143891124Y-120937740D02*
X143853029Y-121013931D01*
X143853029Y-121013931D02*
X143814933Y-121166312D01*
X143814933Y-121166312D02*
X143814933Y-121280598D01*
X143814933Y-121280598D02*
X143853029Y-121432979D01*
X143853029Y-121432979D02*
X143891124Y-121509169D01*
X143891124Y-121509169D02*
X143967314Y-121585360D01*
X143967314Y-121585360D02*
X144081600Y-121623455D01*
X144081600Y-121623455D02*
X144157791Y-121623455D01*
X144157791Y-121623455D02*
X144272076Y-121585360D01*
X144272076Y-121585360D02*
X144310172Y-121547264D01*
X144310172Y-121547264D02*
X144310172Y-121280598D01*
X144310172Y-121280598D02*
X144157791Y-121280598D01*
X144653029Y-121623455D02*
X144653029Y-120823455D01*
X144653029Y-120823455D02*
X145110172Y-121623455D01*
X145110172Y-121623455D02*
X145110172Y-120823455D01*
X145491124Y-121623455D02*
X145491124Y-120823455D01*
X145491124Y-120823455D02*
X145681600Y-120823455D01*
X145681600Y-120823455D02*
X145795886Y-120861550D01*
X145795886Y-120861550D02*
X145872076Y-120937740D01*
X145872076Y-120937740D02*
X145910171Y-121013931D01*
X145910171Y-121013931D02*
X145948267Y-121166312D01*
X145948267Y-121166312D02*
X145948267Y-121280598D01*
X145948267Y-121280598D02*
X145910171Y-121432979D01*
X145910171Y-121432979D02*
X145872076Y-121509169D01*
X145872076Y-121509169D02*
X145795886Y-121585360D01*
X145795886Y-121585360D02*
X145681600Y-121623455D01*
X145681600Y-121623455D02*
X145491124Y-121623455D01*
X184188257Y-127059055D02*
X184188257Y-126259055D01*
X184188257Y-126259055D02*
X184454923Y-126830483D01*
X184454923Y-126830483D02*
X184721590Y-126259055D01*
X184721590Y-126259055D02*
X184721590Y-127059055D01*
X185254924Y-126259055D02*
X185407305Y-126259055D01*
X185407305Y-126259055D02*
X185483495Y-126297150D01*
X185483495Y-126297150D02*
X185559686Y-126373340D01*
X185559686Y-126373340D02*
X185597781Y-126525721D01*
X185597781Y-126525721D02*
X185597781Y-126792388D01*
X185597781Y-126792388D02*
X185559686Y-126944769D01*
X185559686Y-126944769D02*
X185483495Y-127020960D01*
X185483495Y-127020960D02*
X185407305Y-127059055D01*
X185407305Y-127059055D02*
X185254924Y-127059055D01*
X185254924Y-127059055D02*
X185178733Y-127020960D01*
X185178733Y-127020960D02*
X185102543Y-126944769D01*
X185102543Y-126944769D02*
X185064447Y-126792388D01*
X185064447Y-126792388D02*
X185064447Y-126525721D01*
X185064447Y-126525721D02*
X185102543Y-126373340D01*
X185102543Y-126373340D02*
X185178733Y-126297150D01*
X185178733Y-126297150D02*
X185254924Y-126259055D01*
X185902542Y-127020960D02*
X186016828Y-127059055D01*
X186016828Y-127059055D02*
X186207304Y-127059055D01*
X186207304Y-127059055D02*
X186283495Y-127020960D01*
X186283495Y-127020960D02*
X186321590Y-126982864D01*
X186321590Y-126982864D02*
X186359685Y-126906674D01*
X186359685Y-126906674D02*
X186359685Y-126830483D01*
X186359685Y-126830483D02*
X186321590Y-126754293D01*
X186321590Y-126754293D02*
X186283495Y-126716198D01*
X186283495Y-126716198D02*
X186207304Y-126678102D01*
X186207304Y-126678102D02*
X186054923Y-126640007D01*
X186054923Y-126640007D02*
X185978733Y-126601912D01*
X185978733Y-126601912D02*
X185940638Y-126563817D01*
X185940638Y-126563817D02*
X185902542Y-126487626D01*
X185902542Y-126487626D02*
X185902542Y-126411436D01*
X185902542Y-126411436D02*
X185940638Y-126335245D01*
X185940638Y-126335245D02*
X185978733Y-126297150D01*
X185978733Y-126297150D02*
X186054923Y-126259055D01*
X186054923Y-126259055D02*
X186245400Y-126259055D01*
X186245400Y-126259055D02*
X186359685Y-126297150D01*
X186702543Y-127059055D02*
X186702543Y-126259055D01*
X184016829Y-119439055D02*
X184016829Y-118639055D01*
X184016829Y-118639055D02*
X184207305Y-118639055D01*
X184207305Y-118639055D02*
X184321591Y-118677150D01*
X184321591Y-118677150D02*
X184397781Y-118753340D01*
X184397781Y-118753340D02*
X184435876Y-118829531D01*
X184435876Y-118829531D02*
X184473972Y-118981912D01*
X184473972Y-118981912D02*
X184473972Y-119096198D01*
X184473972Y-119096198D02*
X184435876Y-119248579D01*
X184435876Y-119248579D02*
X184397781Y-119324769D01*
X184397781Y-119324769D02*
X184321591Y-119400960D01*
X184321591Y-119400960D02*
X184207305Y-119439055D01*
X184207305Y-119439055D02*
X184016829Y-119439055D01*
X185083495Y-119020007D02*
X185197781Y-119058102D01*
X185197781Y-119058102D02*
X185235876Y-119096198D01*
X185235876Y-119096198D02*
X185273972Y-119172388D01*
X185273972Y-119172388D02*
X185273972Y-119286674D01*
X185273972Y-119286674D02*
X185235876Y-119362864D01*
X185235876Y-119362864D02*
X185197781Y-119400960D01*
X185197781Y-119400960D02*
X185121591Y-119439055D01*
X185121591Y-119439055D02*
X184816829Y-119439055D01*
X184816829Y-119439055D02*
X184816829Y-118639055D01*
X184816829Y-118639055D02*
X185083495Y-118639055D01*
X185083495Y-118639055D02*
X185159686Y-118677150D01*
X185159686Y-118677150D02*
X185197781Y-118715245D01*
X185197781Y-118715245D02*
X185235876Y-118791436D01*
X185235876Y-118791436D02*
X185235876Y-118867626D01*
X185235876Y-118867626D02*
X185197781Y-118943817D01*
X185197781Y-118943817D02*
X185159686Y-118981912D01*
X185159686Y-118981912D02*
X185083495Y-119020007D01*
X185083495Y-119020007D02*
X184816829Y-119020007D01*
X185616829Y-118639055D02*
X185616829Y-119286674D01*
X185616829Y-119286674D02*
X185654924Y-119362864D01*
X185654924Y-119362864D02*
X185693019Y-119400960D01*
X185693019Y-119400960D02*
X185769210Y-119439055D01*
X185769210Y-119439055D02*
X185921591Y-119439055D01*
X185921591Y-119439055D02*
X185997781Y-119400960D01*
X185997781Y-119400960D02*
X186035876Y-119362864D01*
X186035876Y-119362864D02*
X186073972Y-119286674D01*
X186073972Y-119286674D02*
X186073972Y-118639055D01*
X186873971Y-118677150D02*
X186797781Y-118639055D01*
X186797781Y-118639055D02*
X186683495Y-118639055D01*
X186683495Y-118639055D02*
X186569209Y-118677150D01*
X186569209Y-118677150D02*
X186493019Y-118753340D01*
X186493019Y-118753340D02*
X186454924Y-118829531D01*
X186454924Y-118829531D02*
X186416828Y-118981912D01*
X186416828Y-118981912D02*
X186416828Y-119096198D01*
X186416828Y-119096198D02*
X186454924Y-119248579D01*
X186454924Y-119248579D02*
X186493019Y-119324769D01*
X186493019Y-119324769D02*
X186569209Y-119400960D01*
X186569209Y-119400960D02*
X186683495Y-119439055D01*
X186683495Y-119439055D02*
X186759686Y-119439055D01*
X186759686Y-119439055D02*
X186873971Y-119400960D01*
X186873971Y-119400960D02*
X186912067Y-119362864D01*
X186912067Y-119362864D02*
X186912067Y-119096198D01*
X186912067Y-119096198D02*
X186759686Y-119096198D01*
X184969210Y-121902864D02*
X184931114Y-121940960D01*
X184931114Y-121940960D02*
X184816829Y-121979055D01*
X184816829Y-121979055D02*
X184740638Y-121979055D01*
X184740638Y-121979055D02*
X184626352Y-121940960D01*
X184626352Y-121940960D02*
X184550162Y-121864769D01*
X184550162Y-121864769D02*
X184512067Y-121788579D01*
X184512067Y-121788579D02*
X184473971Y-121636198D01*
X184473971Y-121636198D02*
X184473971Y-121521912D01*
X184473971Y-121521912D02*
X184512067Y-121369531D01*
X184512067Y-121369531D02*
X184550162Y-121293340D01*
X184550162Y-121293340D02*
X184626352Y-121217150D01*
X184626352Y-121217150D02*
X184740638Y-121179055D01*
X184740638Y-121179055D02*
X184816829Y-121179055D01*
X184816829Y-121179055D02*
X184931114Y-121217150D01*
X184931114Y-121217150D02*
X184969210Y-121255245D01*
X185693019Y-121979055D02*
X185312067Y-121979055D01*
X185312067Y-121979055D02*
X185312067Y-121179055D01*
X185959686Y-121979055D02*
X185959686Y-121179055D01*
X186416829Y-121979055D02*
X186073971Y-121521912D01*
X186416829Y-121179055D02*
X185959686Y-121636198D01*
X184073971Y-116899055D02*
X184073971Y-116099055D01*
X184073971Y-116099055D02*
X184378733Y-116099055D01*
X184378733Y-116099055D02*
X184454923Y-116137150D01*
X184454923Y-116137150D02*
X184493018Y-116175245D01*
X184493018Y-116175245D02*
X184531114Y-116251436D01*
X184531114Y-116251436D02*
X184531114Y-116365721D01*
X184531114Y-116365721D02*
X184493018Y-116441912D01*
X184493018Y-116441912D02*
X184454923Y-116480007D01*
X184454923Y-116480007D02*
X184378733Y-116518102D01*
X184378733Y-116518102D02*
X184073971Y-116518102D01*
X185293018Y-116137150D02*
X185216828Y-116099055D01*
X185216828Y-116099055D02*
X185102542Y-116099055D01*
X185102542Y-116099055D02*
X184988256Y-116137150D01*
X184988256Y-116137150D02*
X184912066Y-116213340D01*
X184912066Y-116213340D02*
X184873971Y-116289531D01*
X184873971Y-116289531D02*
X184835875Y-116441912D01*
X184835875Y-116441912D02*
X184835875Y-116556198D01*
X184835875Y-116556198D02*
X184873971Y-116708579D01*
X184873971Y-116708579D02*
X184912066Y-116784769D01*
X184912066Y-116784769D02*
X184988256Y-116860960D01*
X184988256Y-116860960D02*
X185102542Y-116899055D01*
X185102542Y-116899055D02*
X185178733Y-116899055D01*
X185178733Y-116899055D02*
X185293018Y-116860960D01*
X185293018Y-116860960D02*
X185331114Y-116822864D01*
X185331114Y-116822864D02*
X185331114Y-116556198D01*
X185331114Y-116556198D02*
X185178733Y-116556198D01*
X185673971Y-116480007D02*
X185940637Y-116480007D01*
X186054923Y-116899055D02*
X185673971Y-116899055D01*
X185673971Y-116899055D02*
X185673971Y-116099055D01*
X185673971Y-116099055D02*
X186054923Y-116099055D01*
X186397781Y-116899055D02*
X186397781Y-116099055D01*
X186397781Y-116099055D02*
X186588257Y-116099055D01*
X186588257Y-116099055D02*
X186702543Y-116137150D01*
X186702543Y-116137150D02*
X186778733Y-116213340D01*
X186778733Y-116213340D02*
X186816828Y-116289531D01*
X186816828Y-116289531D02*
X186854924Y-116441912D01*
X186854924Y-116441912D02*
X186854924Y-116556198D01*
X186854924Y-116556198D02*
X186816828Y-116708579D01*
X186816828Y-116708579D02*
X186778733Y-116784769D01*
X186778733Y-116784769D02*
X186702543Y-116860960D01*
X186702543Y-116860960D02*
X186588257Y-116899055D01*
X186588257Y-116899055D02*
X186397781Y-116899055D01*
X185293019Y-128799055D02*
X184912067Y-128799055D01*
X184912067Y-128799055D02*
X184873971Y-129180007D01*
X184873971Y-129180007D02*
X184912067Y-129141912D01*
X184912067Y-129141912D02*
X184988257Y-129103817D01*
X184988257Y-129103817D02*
X185178733Y-129103817D01*
X185178733Y-129103817D02*
X185254924Y-129141912D01*
X185254924Y-129141912D02*
X185293019Y-129180007D01*
X185293019Y-129180007D02*
X185331114Y-129256198D01*
X185331114Y-129256198D02*
X185331114Y-129446674D01*
X185331114Y-129446674D02*
X185293019Y-129522864D01*
X185293019Y-129522864D02*
X185254924Y-129560960D01*
X185254924Y-129560960D02*
X185178733Y-129599055D01*
X185178733Y-129599055D02*
X184988257Y-129599055D01*
X184988257Y-129599055D02*
X184912067Y-129560960D01*
X184912067Y-129560960D02*
X184873971Y-129522864D01*
X185559686Y-128799055D02*
X185826353Y-129599055D01*
X185826353Y-129599055D02*
X186093019Y-128799055D01*
X143948267Y-131707264D02*
X143910171Y-131745360D01*
X143910171Y-131745360D02*
X143795886Y-131783455D01*
X143795886Y-131783455D02*
X143719695Y-131783455D01*
X143719695Y-131783455D02*
X143605409Y-131745360D01*
X143605409Y-131745360D02*
X143529219Y-131669169D01*
X143529219Y-131669169D02*
X143491124Y-131592979D01*
X143491124Y-131592979D02*
X143453028Y-131440598D01*
X143453028Y-131440598D02*
X143453028Y-131326312D01*
X143453028Y-131326312D02*
X143491124Y-131173931D01*
X143491124Y-131173931D02*
X143529219Y-131097740D01*
X143529219Y-131097740D02*
X143605409Y-131021550D01*
X143605409Y-131021550D02*
X143719695Y-130983455D01*
X143719695Y-130983455D02*
X143795886Y-130983455D01*
X143795886Y-130983455D02*
X143910171Y-131021550D01*
X143910171Y-131021550D02*
X143948267Y-131059645D01*
X144253028Y-131554883D02*
X144633981Y-131554883D01*
X144176838Y-131783455D02*
X144443505Y-130983455D01*
X144443505Y-130983455D02*
X144710171Y-131783455D01*
X144976838Y-131783455D02*
X144976838Y-130983455D01*
X144976838Y-130983455D02*
X145433981Y-131783455D01*
X145433981Y-131783455D02*
X145433981Y-130983455D01*
X145814933Y-131783455D02*
X145814933Y-130983455D01*
X145814933Y-131364407D02*
X146272076Y-131364407D01*
X146272076Y-131783455D02*
X146272076Y-130983455D01*
X168933283Y-111188380D02*
X168933283Y-110807427D01*
X169161855Y-111264570D02*
X168361855Y-110997903D01*
X168361855Y-110997903D02*
X169161855Y-110731237D01*
X169161855Y-110464570D02*
X168361855Y-110464570D01*
X168361855Y-110464570D02*
X169161855Y-110007427D01*
X169161855Y-110007427D02*
X168361855Y-110007427D01*
X168933283Y-109664571D02*
X168933283Y-109283618D01*
X169161855Y-109740761D02*
X168361855Y-109474094D01*
X168361855Y-109474094D02*
X169161855Y-109207428D01*
X151707914Y-125535055D02*
X151441247Y-125154102D01*
X151250771Y-125535055D02*
X151250771Y-124735055D01*
X151250771Y-124735055D02*
X151555533Y-124735055D01*
X151555533Y-124735055D02*
X151631723Y-124773150D01*
X151631723Y-124773150D02*
X151669818Y-124811245D01*
X151669818Y-124811245D02*
X151707914Y-124887436D01*
X151707914Y-124887436D02*
X151707914Y-125001721D01*
X151707914Y-125001721D02*
X151669818Y-125077912D01*
X151669818Y-125077912D02*
X151631723Y-125116007D01*
X151631723Y-125116007D02*
X151555533Y-125154102D01*
X151555533Y-125154102D02*
X151250771Y-125154102D01*
X152469818Y-125535055D02*
X152012675Y-125535055D01*
X152241247Y-125535055D02*
X152241247Y-124735055D01*
X152241247Y-124735055D02*
X152165056Y-124849340D01*
X152165056Y-124849340D02*
X152088866Y-124925531D01*
X152088866Y-124925531D02*
X152012675Y-124963626D01*
X152926961Y-125077912D02*
X152850771Y-125039817D01*
X152850771Y-125039817D02*
X152812676Y-125001721D01*
X152812676Y-125001721D02*
X152774580Y-124925531D01*
X152774580Y-124925531D02*
X152774580Y-124887436D01*
X152774580Y-124887436D02*
X152812676Y-124811245D01*
X152812676Y-124811245D02*
X152850771Y-124773150D01*
X152850771Y-124773150D02*
X152926961Y-124735055D01*
X152926961Y-124735055D02*
X153079342Y-124735055D01*
X153079342Y-124735055D02*
X153155533Y-124773150D01*
X153155533Y-124773150D02*
X153193628Y-124811245D01*
X153193628Y-124811245D02*
X153231723Y-124887436D01*
X153231723Y-124887436D02*
X153231723Y-124925531D01*
X153231723Y-124925531D02*
X153193628Y-125001721D01*
X153193628Y-125001721D02*
X153155533Y-125039817D01*
X153155533Y-125039817D02*
X153079342Y-125077912D01*
X153079342Y-125077912D02*
X152926961Y-125077912D01*
X152926961Y-125077912D02*
X152850771Y-125116007D01*
X152850771Y-125116007D02*
X152812676Y-125154102D01*
X152812676Y-125154102D02*
X152774580Y-125230293D01*
X152774580Y-125230293D02*
X152774580Y-125382674D01*
X152774580Y-125382674D02*
X152812676Y-125458864D01*
X152812676Y-125458864D02*
X152850771Y-125496960D01*
X152850771Y-125496960D02*
X152926961Y-125535055D01*
X152926961Y-125535055D02*
X153079342Y-125535055D01*
X153079342Y-125535055D02*
X153155533Y-125496960D01*
X153155533Y-125496960D02*
X153193628Y-125458864D01*
X153193628Y-125458864D02*
X153231723Y-125382674D01*
X153231723Y-125382674D02*
X153231723Y-125230293D01*
X153231723Y-125230293D02*
X153193628Y-125154102D01*
X153193628Y-125154102D02*
X153155533Y-125116007D01*
X153155533Y-125116007D02*
X153079342Y-125077912D01*
X181324267Y-132266055D02*
X181057600Y-131885102D01*
X180867124Y-132266055D02*
X180867124Y-131466055D01*
X180867124Y-131466055D02*
X181171886Y-131466055D01*
X181171886Y-131466055D02*
X181248076Y-131504150D01*
X181248076Y-131504150D02*
X181286171Y-131542245D01*
X181286171Y-131542245D02*
X181324267Y-131618436D01*
X181324267Y-131618436D02*
X181324267Y-131732721D01*
X181324267Y-131732721D02*
X181286171Y-131808912D01*
X181286171Y-131808912D02*
X181248076Y-131847007D01*
X181248076Y-131847007D02*
X181171886Y-131885102D01*
X181171886Y-131885102D02*
X180867124Y-131885102D01*
X181705219Y-132266055D02*
X181857600Y-132266055D01*
X181857600Y-132266055D02*
X181933790Y-132227960D01*
X181933790Y-132227960D02*
X181971886Y-132189864D01*
X181971886Y-132189864D02*
X182048076Y-132075579D01*
X182048076Y-132075579D02*
X182086171Y-131923198D01*
X182086171Y-131923198D02*
X182086171Y-131618436D01*
X182086171Y-131618436D02*
X182048076Y-131542245D01*
X182048076Y-131542245D02*
X182009981Y-131504150D01*
X182009981Y-131504150D02*
X181933790Y-131466055D01*
X181933790Y-131466055D02*
X181781409Y-131466055D01*
X181781409Y-131466055D02*
X181705219Y-131504150D01*
X181705219Y-131504150D02*
X181667124Y-131542245D01*
X181667124Y-131542245D02*
X181629028Y-131618436D01*
X181629028Y-131618436D02*
X181629028Y-131808912D01*
X181629028Y-131808912D02*
X181667124Y-131885102D01*
X181667124Y-131885102D02*
X181705219Y-131923198D01*
X181705219Y-131923198D02*
X181781409Y-131961293D01*
X181781409Y-131961293D02*
X181933790Y-131961293D01*
X181933790Y-131961293D02*
X182009981Y-131923198D01*
X182009981Y-131923198D02*
X182048076Y-131885102D01*
X182048076Y-131885102D02*
X182086171Y-131808912D01*
X177463514Y-123401464D02*
X177425418Y-123439560D01*
X177425418Y-123439560D02*
X177311133Y-123477655D01*
X177311133Y-123477655D02*
X177234942Y-123477655D01*
X177234942Y-123477655D02*
X177120656Y-123439560D01*
X177120656Y-123439560D02*
X177044466Y-123363369D01*
X177044466Y-123363369D02*
X177006371Y-123287179D01*
X177006371Y-123287179D02*
X176968275Y-123134798D01*
X176968275Y-123134798D02*
X176968275Y-123020512D01*
X176968275Y-123020512D02*
X177006371Y-122868131D01*
X177006371Y-122868131D02*
X177044466Y-122791940D01*
X177044466Y-122791940D02*
X177120656Y-122715750D01*
X177120656Y-122715750D02*
X177234942Y-122677655D01*
X177234942Y-122677655D02*
X177311133Y-122677655D01*
X177311133Y-122677655D02*
X177425418Y-122715750D01*
X177425418Y-122715750D02*
X177463514Y-122753845D01*
X178225418Y-123477655D02*
X177768275Y-123477655D01*
X177996847Y-123477655D02*
X177996847Y-122677655D01*
X177996847Y-122677655D02*
X177920656Y-122791940D01*
X177920656Y-122791940D02*
X177844466Y-122868131D01*
X177844466Y-122868131D02*
X177768275Y-122906226D01*
X178720657Y-122677655D02*
X178796847Y-122677655D01*
X178796847Y-122677655D02*
X178873038Y-122715750D01*
X178873038Y-122715750D02*
X178911133Y-122753845D01*
X178911133Y-122753845D02*
X178949228Y-122830036D01*
X178949228Y-122830036D02*
X178987323Y-122982417D01*
X178987323Y-122982417D02*
X178987323Y-123172893D01*
X178987323Y-123172893D02*
X178949228Y-123325274D01*
X178949228Y-123325274D02*
X178911133Y-123401464D01*
X178911133Y-123401464D02*
X178873038Y-123439560D01*
X178873038Y-123439560D02*
X178796847Y-123477655D01*
X178796847Y-123477655D02*
X178720657Y-123477655D01*
X178720657Y-123477655D02*
X178644466Y-123439560D01*
X178644466Y-123439560D02*
X178606371Y-123401464D01*
X178606371Y-123401464D02*
X178568276Y-123325274D01*
X178568276Y-123325274D02*
X178530180Y-123172893D01*
X178530180Y-123172893D02*
X178530180Y-122982417D01*
X178530180Y-122982417D02*
X178568276Y-122830036D01*
X178568276Y-122830036D02*
X178606371Y-122753845D01*
X178606371Y-122753845D02*
X178644466Y-122715750D01*
X178644466Y-122715750D02*
X178720657Y-122677655D01*
X151707867Y-133840855D02*
X151441200Y-133459902D01*
X151250724Y-133840855D02*
X151250724Y-133040855D01*
X151250724Y-133040855D02*
X151555486Y-133040855D01*
X151555486Y-133040855D02*
X151631676Y-133078950D01*
X151631676Y-133078950D02*
X151669771Y-133117045D01*
X151669771Y-133117045D02*
X151707867Y-133193236D01*
X151707867Y-133193236D02*
X151707867Y-133307521D01*
X151707867Y-133307521D02*
X151669771Y-133383712D01*
X151669771Y-133383712D02*
X151631676Y-133421807D01*
X151631676Y-133421807D02*
X151555486Y-133459902D01*
X151555486Y-133459902D02*
X151250724Y-133459902D01*
X152469771Y-133840855D02*
X152012628Y-133840855D01*
X152241200Y-133840855D02*
X152241200Y-133040855D01*
X152241200Y-133040855D02*
X152165009Y-133155140D01*
X152165009Y-133155140D02*
X152088819Y-133231331D01*
X152088819Y-133231331D02*
X152012628Y-133269426D01*
X155005076Y-133091655D02*
X155005076Y-133739274D01*
X155005076Y-133739274D02*
X155043171Y-133815464D01*
X155043171Y-133815464D02*
X155081266Y-133853560D01*
X155081266Y-133853560D02*
X155157457Y-133891655D01*
X155157457Y-133891655D02*
X155309838Y-133891655D01*
X155309838Y-133891655D02*
X155386028Y-133853560D01*
X155386028Y-133853560D02*
X155424123Y-133815464D01*
X155424123Y-133815464D02*
X155462219Y-133739274D01*
X155462219Y-133739274D02*
X155462219Y-133091655D01*
X155805075Y-133167845D02*
X155843171Y-133129750D01*
X155843171Y-133129750D02*
X155919361Y-133091655D01*
X155919361Y-133091655D02*
X156109837Y-133091655D01*
X156109837Y-133091655D02*
X156186028Y-133129750D01*
X156186028Y-133129750D02*
X156224123Y-133167845D01*
X156224123Y-133167845D02*
X156262218Y-133244036D01*
X156262218Y-133244036D02*
X156262218Y-133320226D01*
X156262218Y-133320226D02*
X156224123Y-133434512D01*
X156224123Y-133434512D02*
X155766980Y-133891655D01*
X155766980Y-133891655D02*
X156262218Y-133891655D01*
X180943314Y-119566055D02*
X180676647Y-119185102D01*
X180486171Y-119566055D02*
X180486171Y-118766055D01*
X180486171Y-118766055D02*
X180790933Y-118766055D01*
X180790933Y-118766055D02*
X180867123Y-118804150D01*
X180867123Y-118804150D02*
X180905218Y-118842245D01*
X180905218Y-118842245D02*
X180943314Y-118918436D01*
X180943314Y-118918436D02*
X180943314Y-119032721D01*
X180943314Y-119032721D02*
X180905218Y-119108912D01*
X180905218Y-119108912D02*
X180867123Y-119147007D01*
X180867123Y-119147007D02*
X180790933Y-119185102D01*
X180790933Y-119185102D02*
X180486171Y-119185102D01*
X181705218Y-119566055D02*
X181248075Y-119566055D01*
X181476647Y-119566055D02*
X181476647Y-118766055D01*
X181476647Y-118766055D02*
X181400456Y-118880340D01*
X181400456Y-118880340D02*
X181324266Y-118956531D01*
X181324266Y-118956531D02*
X181248075Y-118994626D01*
X182390933Y-118766055D02*
X182238552Y-118766055D01*
X182238552Y-118766055D02*
X182162361Y-118804150D01*
X182162361Y-118804150D02*
X182124266Y-118842245D01*
X182124266Y-118842245D02*
X182048076Y-118956531D01*
X182048076Y-118956531D02*
X182009980Y-119108912D01*
X182009980Y-119108912D02*
X182009980Y-119413674D01*
X182009980Y-119413674D02*
X182048076Y-119489864D01*
X182048076Y-119489864D02*
X182086171Y-119527960D01*
X182086171Y-119527960D02*
X182162361Y-119566055D01*
X182162361Y-119566055D02*
X182314742Y-119566055D01*
X182314742Y-119566055D02*
X182390933Y-119527960D01*
X182390933Y-119527960D02*
X182429028Y-119489864D01*
X182429028Y-119489864D02*
X182467123Y-119413674D01*
X182467123Y-119413674D02*
X182467123Y-119223198D01*
X182467123Y-119223198D02*
X182429028Y-119147007D01*
X182429028Y-119147007D02*
X182390933Y-119108912D01*
X182390933Y-119108912D02*
X182314742Y-119070817D01*
X182314742Y-119070817D02*
X182162361Y-119070817D01*
X182162361Y-119070817D02*
X182086171Y-119108912D01*
X182086171Y-119108912D02*
X182048076Y-119147007D01*
X182048076Y-119147007D02*
X182009980Y-119223198D01*
X180943314Y-129726055D02*
X180676647Y-129345102D01*
X180486171Y-129726055D02*
X180486171Y-128926055D01*
X180486171Y-128926055D02*
X180790933Y-128926055D01*
X180790933Y-128926055D02*
X180867123Y-128964150D01*
X180867123Y-128964150D02*
X180905218Y-129002245D01*
X180905218Y-129002245D02*
X180943314Y-129078436D01*
X180943314Y-129078436D02*
X180943314Y-129192721D01*
X180943314Y-129192721D02*
X180905218Y-129268912D01*
X180905218Y-129268912D02*
X180867123Y-129307007D01*
X180867123Y-129307007D02*
X180790933Y-129345102D01*
X180790933Y-129345102D02*
X180486171Y-129345102D01*
X181705218Y-129726055D02*
X181248075Y-129726055D01*
X181476647Y-129726055D02*
X181476647Y-128926055D01*
X181476647Y-128926055D02*
X181400456Y-129040340D01*
X181400456Y-129040340D02*
X181324266Y-129116531D01*
X181324266Y-129116531D02*
X181248075Y-129154626D01*
X182429028Y-128926055D02*
X182048076Y-128926055D01*
X182048076Y-128926055D02*
X182009980Y-129307007D01*
X182009980Y-129307007D02*
X182048076Y-129268912D01*
X182048076Y-129268912D02*
X182124266Y-129230817D01*
X182124266Y-129230817D02*
X182314742Y-129230817D01*
X182314742Y-129230817D02*
X182390933Y-129268912D01*
X182390933Y-129268912D02*
X182429028Y-129307007D01*
X182429028Y-129307007D02*
X182467123Y-129383198D01*
X182467123Y-129383198D02*
X182467123Y-129573674D01*
X182467123Y-129573674D02*
X182429028Y-129649864D01*
X182429028Y-129649864D02*
X182390933Y-129687960D01*
X182390933Y-129687960D02*
X182314742Y-129726055D01*
X182314742Y-129726055D02*
X182124266Y-129726055D01*
X182124266Y-129726055D02*
X182048076Y-129687960D01*
X182048076Y-129687960D02*
X182009980Y-129649864D01*
X188277533Y-108689055D02*
X188277533Y-109260483D01*
X188277533Y-109260483D02*
X188239438Y-109374769D01*
X188239438Y-109374769D02*
X188163247Y-109450960D01*
X188163247Y-109450960D02*
X188048962Y-109489055D01*
X188048962Y-109489055D02*
X187972771Y-109489055D01*
X188620390Y-108765245D02*
X188658486Y-108727150D01*
X188658486Y-108727150D02*
X188734676Y-108689055D01*
X188734676Y-108689055D02*
X188925152Y-108689055D01*
X188925152Y-108689055D02*
X189001343Y-108727150D01*
X189001343Y-108727150D02*
X189039438Y-108765245D01*
X189039438Y-108765245D02*
X189077533Y-108841436D01*
X189077533Y-108841436D02*
X189077533Y-108917626D01*
X189077533Y-108917626D02*
X189039438Y-109031912D01*
X189039438Y-109031912D02*
X188582295Y-109489055D01*
X188582295Y-109489055D02*
X189077533Y-109489055D01*
X156533914Y-117026064D02*
X156495818Y-117064160D01*
X156495818Y-117064160D02*
X156381533Y-117102255D01*
X156381533Y-117102255D02*
X156305342Y-117102255D01*
X156305342Y-117102255D02*
X156191056Y-117064160D01*
X156191056Y-117064160D02*
X156114866Y-116987969D01*
X156114866Y-116987969D02*
X156076771Y-116911779D01*
X156076771Y-116911779D02*
X156038675Y-116759398D01*
X156038675Y-116759398D02*
X156038675Y-116645112D01*
X156038675Y-116645112D02*
X156076771Y-116492731D01*
X156076771Y-116492731D02*
X156114866Y-116416540D01*
X156114866Y-116416540D02*
X156191056Y-116340350D01*
X156191056Y-116340350D02*
X156305342Y-116302255D01*
X156305342Y-116302255D02*
X156381533Y-116302255D01*
X156381533Y-116302255D02*
X156495818Y-116340350D01*
X156495818Y-116340350D02*
X156533914Y-116378445D01*
X157295818Y-117102255D02*
X156838675Y-117102255D01*
X157067247Y-117102255D02*
X157067247Y-116302255D01*
X157067247Y-116302255D02*
X156991056Y-116416540D01*
X156991056Y-116416540D02*
X156914866Y-116492731D01*
X156914866Y-116492731D02*
X156838675Y-116530826D01*
X157600580Y-116378445D02*
X157638676Y-116340350D01*
X157638676Y-116340350D02*
X157714866Y-116302255D01*
X157714866Y-116302255D02*
X157905342Y-116302255D01*
X157905342Y-116302255D02*
X157981533Y-116340350D01*
X157981533Y-116340350D02*
X158019628Y-116378445D01*
X158019628Y-116378445D02*
X158057723Y-116454636D01*
X158057723Y-116454636D02*
X158057723Y-116530826D01*
X158057723Y-116530826D02*
X158019628Y-116645112D01*
X158019628Y-116645112D02*
X157562485Y-117102255D01*
X157562485Y-117102255D02*
X158057723Y-117102255D01*
X169157667Y-134298055D02*
X168891000Y-133917102D01*
X168700524Y-134298055D02*
X168700524Y-133498055D01*
X168700524Y-133498055D02*
X169005286Y-133498055D01*
X169005286Y-133498055D02*
X169081476Y-133536150D01*
X169081476Y-133536150D02*
X169119571Y-133574245D01*
X169119571Y-133574245D02*
X169157667Y-133650436D01*
X169157667Y-133650436D02*
X169157667Y-133764721D01*
X169157667Y-133764721D02*
X169119571Y-133840912D01*
X169119571Y-133840912D02*
X169081476Y-133879007D01*
X169081476Y-133879007D02*
X169005286Y-133917102D01*
X169005286Y-133917102D02*
X168700524Y-133917102D01*
X169881476Y-133498055D02*
X169500524Y-133498055D01*
X169500524Y-133498055D02*
X169462428Y-133879007D01*
X169462428Y-133879007D02*
X169500524Y-133840912D01*
X169500524Y-133840912D02*
X169576714Y-133802817D01*
X169576714Y-133802817D02*
X169767190Y-133802817D01*
X169767190Y-133802817D02*
X169843381Y-133840912D01*
X169843381Y-133840912D02*
X169881476Y-133879007D01*
X169881476Y-133879007D02*
X169919571Y-133955198D01*
X169919571Y-133955198D02*
X169919571Y-134145674D01*
X169919571Y-134145674D02*
X169881476Y-134221864D01*
X169881476Y-134221864D02*
X169843381Y-134259960D01*
X169843381Y-134259960D02*
X169767190Y-134298055D01*
X169767190Y-134298055D02*
X169576714Y-134298055D01*
X169576714Y-134298055D02*
X169500524Y-134259960D01*
X169500524Y-134259960D02*
X169462428Y-134221864D01*
X170148267Y-132774064D02*
X170110171Y-132812160D01*
X170110171Y-132812160D02*
X169995886Y-132850255D01*
X169995886Y-132850255D02*
X169919695Y-132850255D01*
X169919695Y-132850255D02*
X169805409Y-132812160D01*
X169805409Y-132812160D02*
X169729219Y-132735969D01*
X169729219Y-132735969D02*
X169691124Y-132659779D01*
X169691124Y-132659779D02*
X169653028Y-132507398D01*
X169653028Y-132507398D02*
X169653028Y-132393112D01*
X169653028Y-132393112D02*
X169691124Y-132240731D01*
X169691124Y-132240731D02*
X169729219Y-132164540D01*
X169729219Y-132164540D02*
X169805409Y-132088350D01*
X169805409Y-132088350D02*
X169919695Y-132050255D01*
X169919695Y-132050255D02*
X169995886Y-132050255D01*
X169995886Y-132050255D02*
X170110171Y-132088350D01*
X170110171Y-132088350D02*
X170148267Y-132126445D01*
X170872076Y-132050255D02*
X170491124Y-132050255D01*
X170491124Y-132050255D02*
X170453028Y-132431207D01*
X170453028Y-132431207D02*
X170491124Y-132393112D01*
X170491124Y-132393112D02*
X170567314Y-132355017D01*
X170567314Y-132355017D02*
X170757790Y-132355017D01*
X170757790Y-132355017D02*
X170833981Y-132393112D01*
X170833981Y-132393112D02*
X170872076Y-132431207D01*
X170872076Y-132431207D02*
X170910171Y-132507398D01*
X170910171Y-132507398D02*
X170910171Y-132697874D01*
X170910171Y-132697874D02*
X170872076Y-132774064D01*
X170872076Y-132774064D02*
X170833981Y-132812160D01*
X170833981Y-132812160D02*
X170757790Y-132850255D01*
X170757790Y-132850255D02*
X170567314Y-132850255D01*
X170567314Y-132850255D02*
X170491124Y-132812160D01*
X170491124Y-132812160D02*
X170453028Y-132774064D01*
X165889733Y-107056655D02*
X165889733Y-107628083D01*
X165889733Y-107628083D02*
X165851638Y-107742369D01*
X165851638Y-107742369D02*
X165775447Y-107818560D01*
X165775447Y-107818560D02*
X165661162Y-107856655D01*
X165661162Y-107856655D02*
X165584971Y-107856655D01*
X166194495Y-107056655D02*
X166689733Y-107056655D01*
X166689733Y-107056655D02*
X166423067Y-107361417D01*
X166423067Y-107361417D02*
X166537352Y-107361417D01*
X166537352Y-107361417D02*
X166613543Y-107399512D01*
X166613543Y-107399512D02*
X166651638Y-107437607D01*
X166651638Y-107437607D02*
X166689733Y-107513798D01*
X166689733Y-107513798D02*
X166689733Y-107704274D01*
X166689733Y-107704274D02*
X166651638Y-107780464D01*
X166651638Y-107780464D02*
X166613543Y-107818560D01*
X166613543Y-107818560D02*
X166537352Y-107856655D01*
X166537352Y-107856655D02*
X166308781Y-107856655D01*
X166308781Y-107856655D02*
X166232590Y-107818560D01*
X166232590Y-107818560D02*
X166194495Y-107780464D01*
X161613867Y-130462664D02*
X161575771Y-130500760D01*
X161575771Y-130500760D02*
X161461486Y-130538855D01*
X161461486Y-130538855D02*
X161385295Y-130538855D01*
X161385295Y-130538855D02*
X161271009Y-130500760D01*
X161271009Y-130500760D02*
X161194819Y-130424569D01*
X161194819Y-130424569D02*
X161156724Y-130348379D01*
X161156724Y-130348379D02*
X161118628Y-130195998D01*
X161118628Y-130195998D02*
X161118628Y-130081712D01*
X161118628Y-130081712D02*
X161156724Y-129929331D01*
X161156724Y-129929331D02*
X161194819Y-129853140D01*
X161194819Y-129853140D02*
X161271009Y-129776950D01*
X161271009Y-129776950D02*
X161385295Y-129738855D01*
X161385295Y-129738855D02*
X161461486Y-129738855D01*
X161461486Y-129738855D02*
X161575771Y-129776950D01*
X161575771Y-129776950D02*
X161613867Y-129815045D01*
X161880533Y-129738855D02*
X162375771Y-129738855D01*
X162375771Y-129738855D02*
X162109105Y-130043617D01*
X162109105Y-130043617D02*
X162223390Y-130043617D01*
X162223390Y-130043617D02*
X162299581Y-130081712D01*
X162299581Y-130081712D02*
X162337676Y-130119807D01*
X162337676Y-130119807D02*
X162375771Y-130195998D01*
X162375771Y-130195998D02*
X162375771Y-130386474D01*
X162375771Y-130386474D02*
X162337676Y-130462664D01*
X162337676Y-130462664D02*
X162299581Y-130500760D01*
X162299581Y-130500760D02*
X162223390Y-130538855D01*
X162223390Y-130538855D02*
X161994819Y-130538855D01*
X161994819Y-130538855D02*
X161918628Y-130500760D01*
X161918628Y-130500760D02*
X161880533Y-130462664D01*
X180943314Y-117026055D02*
X180676647Y-116645102D01*
X180486171Y-117026055D02*
X180486171Y-116226055D01*
X180486171Y-116226055D02*
X180790933Y-116226055D01*
X180790933Y-116226055D02*
X180867123Y-116264150D01*
X180867123Y-116264150D02*
X180905218Y-116302245D01*
X180905218Y-116302245D02*
X180943314Y-116378436D01*
X180943314Y-116378436D02*
X180943314Y-116492721D01*
X180943314Y-116492721D02*
X180905218Y-116568912D01*
X180905218Y-116568912D02*
X180867123Y-116607007D01*
X180867123Y-116607007D02*
X180790933Y-116645102D01*
X180790933Y-116645102D02*
X180486171Y-116645102D01*
X181705218Y-117026055D02*
X181248075Y-117026055D01*
X181476647Y-117026055D02*
X181476647Y-116226055D01*
X181476647Y-116226055D02*
X181400456Y-116340340D01*
X181400456Y-116340340D02*
X181324266Y-116416531D01*
X181324266Y-116416531D02*
X181248075Y-116454626D01*
X181971885Y-116226055D02*
X182505219Y-116226055D01*
X182505219Y-116226055D02*
X182162361Y-117026055D01*
X149460467Y-121394864D02*
X149422371Y-121432960D01*
X149422371Y-121432960D02*
X149308086Y-121471055D01*
X149308086Y-121471055D02*
X149231895Y-121471055D01*
X149231895Y-121471055D02*
X149117609Y-121432960D01*
X149117609Y-121432960D02*
X149041419Y-121356769D01*
X149041419Y-121356769D02*
X149003324Y-121280579D01*
X149003324Y-121280579D02*
X148965228Y-121128198D01*
X148965228Y-121128198D02*
X148965228Y-121013912D01*
X148965228Y-121013912D02*
X149003324Y-120861531D01*
X149003324Y-120861531D02*
X149041419Y-120785340D01*
X149041419Y-120785340D02*
X149117609Y-120709150D01*
X149117609Y-120709150D02*
X149231895Y-120671055D01*
X149231895Y-120671055D02*
X149308086Y-120671055D01*
X149308086Y-120671055D02*
X149422371Y-120709150D01*
X149422371Y-120709150D02*
X149460467Y-120747245D01*
X149765228Y-120747245D02*
X149803324Y-120709150D01*
X149803324Y-120709150D02*
X149879514Y-120671055D01*
X149879514Y-120671055D02*
X150069990Y-120671055D01*
X150069990Y-120671055D02*
X150146181Y-120709150D01*
X150146181Y-120709150D02*
X150184276Y-120747245D01*
X150184276Y-120747245D02*
X150222371Y-120823436D01*
X150222371Y-120823436D02*
X150222371Y-120899626D01*
X150222371Y-120899626D02*
X150184276Y-121013912D01*
X150184276Y-121013912D02*
X149727133Y-121471055D01*
X149727133Y-121471055D02*
X150222371Y-121471055D01*
X151079276Y-110798855D02*
X151079276Y-111446474D01*
X151079276Y-111446474D02*
X151117371Y-111522664D01*
X151117371Y-111522664D02*
X151155466Y-111560760D01*
X151155466Y-111560760D02*
X151231657Y-111598855D01*
X151231657Y-111598855D02*
X151384038Y-111598855D01*
X151384038Y-111598855D02*
X151460228Y-111560760D01*
X151460228Y-111560760D02*
X151498323Y-111522664D01*
X151498323Y-111522664D02*
X151536419Y-111446474D01*
X151536419Y-111446474D02*
X151536419Y-110798855D01*
X152336418Y-111598855D02*
X151879275Y-111598855D01*
X152107847Y-111598855D02*
X152107847Y-110798855D01*
X152107847Y-110798855D02*
X152031656Y-110913140D01*
X152031656Y-110913140D02*
X151955466Y-110989331D01*
X151955466Y-110989331D02*
X151879275Y-111027426D01*
X180943314Y-114486055D02*
X180676647Y-114105102D01*
X180486171Y-114486055D02*
X180486171Y-113686055D01*
X180486171Y-113686055D02*
X180790933Y-113686055D01*
X180790933Y-113686055D02*
X180867123Y-113724150D01*
X180867123Y-113724150D02*
X180905218Y-113762245D01*
X180905218Y-113762245D02*
X180943314Y-113838436D01*
X180943314Y-113838436D02*
X180943314Y-113952721D01*
X180943314Y-113952721D02*
X180905218Y-114028912D01*
X180905218Y-114028912D02*
X180867123Y-114067007D01*
X180867123Y-114067007D02*
X180790933Y-114105102D01*
X180790933Y-114105102D02*
X180486171Y-114105102D01*
X181705218Y-114486055D02*
X181248075Y-114486055D01*
X181476647Y-114486055D02*
X181476647Y-113686055D01*
X181476647Y-113686055D02*
X181400456Y-113800340D01*
X181400456Y-113800340D02*
X181324266Y-113876531D01*
X181324266Y-113876531D02*
X181248075Y-113914626D01*
X181971885Y-113686055D02*
X182467123Y-113686055D01*
X182467123Y-113686055D02*
X182200457Y-113990817D01*
X182200457Y-113990817D02*
X182314742Y-113990817D01*
X182314742Y-113990817D02*
X182390933Y-114028912D01*
X182390933Y-114028912D02*
X182429028Y-114067007D01*
X182429028Y-114067007D02*
X182467123Y-114143198D01*
X182467123Y-114143198D02*
X182467123Y-114333674D01*
X182467123Y-114333674D02*
X182429028Y-114409864D01*
X182429028Y-114409864D02*
X182390933Y-114447960D01*
X182390933Y-114447960D02*
X182314742Y-114486055D01*
X182314742Y-114486055D02*
X182086171Y-114486055D01*
X182086171Y-114486055D02*
X182009980Y-114447960D01*
X182009980Y-114447960D02*
X181971885Y-114409864D01*
X151707867Y-129040255D02*
X151441200Y-128659302D01*
X151250724Y-129040255D02*
X151250724Y-128240255D01*
X151250724Y-128240255D02*
X151555486Y-128240255D01*
X151555486Y-128240255D02*
X151631676Y-128278350D01*
X151631676Y-128278350D02*
X151669771Y-128316445D01*
X151669771Y-128316445D02*
X151707867Y-128392636D01*
X151707867Y-128392636D02*
X151707867Y-128506921D01*
X151707867Y-128506921D02*
X151669771Y-128583112D01*
X151669771Y-128583112D02*
X151631676Y-128621207D01*
X151631676Y-128621207D02*
X151555486Y-128659302D01*
X151555486Y-128659302D02*
X151250724Y-128659302D01*
X151974533Y-128240255D02*
X152469771Y-128240255D01*
X152469771Y-128240255D02*
X152203105Y-128545017D01*
X152203105Y-128545017D02*
X152317390Y-128545017D01*
X152317390Y-128545017D02*
X152393581Y-128583112D01*
X152393581Y-128583112D02*
X152431676Y-128621207D01*
X152431676Y-128621207D02*
X152469771Y-128697398D01*
X152469771Y-128697398D02*
X152469771Y-128887874D01*
X152469771Y-128887874D02*
X152431676Y-128964064D01*
X152431676Y-128964064D02*
X152393581Y-129002160D01*
X152393581Y-129002160D02*
X152317390Y-129040255D01*
X152317390Y-129040255D02*
X152088819Y-129040255D01*
X152088819Y-129040255D02*
X152012628Y-129002160D01*
X152012628Y-129002160D02*
X151974533Y-128964064D01*
X156914867Y-122283864D02*
X156876771Y-122321960D01*
X156876771Y-122321960D02*
X156762486Y-122360055D01*
X156762486Y-122360055D02*
X156686295Y-122360055D01*
X156686295Y-122360055D02*
X156572009Y-122321960D01*
X156572009Y-122321960D02*
X156495819Y-122245769D01*
X156495819Y-122245769D02*
X156457724Y-122169579D01*
X156457724Y-122169579D02*
X156419628Y-122017198D01*
X156419628Y-122017198D02*
X156419628Y-121902912D01*
X156419628Y-121902912D02*
X156457724Y-121750531D01*
X156457724Y-121750531D02*
X156495819Y-121674340D01*
X156495819Y-121674340D02*
X156572009Y-121598150D01*
X156572009Y-121598150D02*
X156686295Y-121560055D01*
X156686295Y-121560055D02*
X156762486Y-121560055D01*
X156762486Y-121560055D02*
X156876771Y-121598150D01*
X156876771Y-121598150D02*
X156914867Y-121636245D01*
X157295819Y-122360055D02*
X157448200Y-122360055D01*
X157448200Y-122360055D02*
X157524390Y-122321960D01*
X157524390Y-122321960D02*
X157562486Y-122283864D01*
X157562486Y-122283864D02*
X157638676Y-122169579D01*
X157638676Y-122169579D02*
X157676771Y-122017198D01*
X157676771Y-122017198D02*
X157676771Y-121712436D01*
X157676771Y-121712436D02*
X157638676Y-121636245D01*
X157638676Y-121636245D02*
X157600581Y-121598150D01*
X157600581Y-121598150D02*
X157524390Y-121560055D01*
X157524390Y-121560055D02*
X157372009Y-121560055D01*
X157372009Y-121560055D02*
X157295819Y-121598150D01*
X157295819Y-121598150D02*
X157257724Y-121636245D01*
X157257724Y-121636245D02*
X157219628Y-121712436D01*
X157219628Y-121712436D02*
X157219628Y-121902912D01*
X157219628Y-121902912D02*
X157257724Y-121979102D01*
X157257724Y-121979102D02*
X157295819Y-122017198D01*
X157295819Y-122017198D02*
X157372009Y-122055293D01*
X157372009Y-122055293D02*
X157524390Y-122055293D01*
X157524390Y-122055293D02*
X157600581Y-122017198D01*
X157600581Y-122017198D02*
X157638676Y-121979102D01*
X157638676Y-121979102D02*
X157676771Y-121902912D01*
X180994114Y-111946055D02*
X180727447Y-111565102D01*
X180536971Y-111946055D02*
X180536971Y-111146055D01*
X180536971Y-111146055D02*
X180841733Y-111146055D01*
X180841733Y-111146055D02*
X180917923Y-111184150D01*
X180917923Y-111184150D02*
X180956018Y-111222245D01*
X180956018Y-111222245D02*
X180994114Y-111298436D01*
X180994114Y-111298436D02*
X180994114Y-111412721D01*
X180994114Y-111412721D02*
X180956018Y-111488912D01*
X180956018Y-111488912D02*
X180917923Y-111527007D01*
X180917923Y-111527007D02*
X180841733Y-111565102D01*
X180841733Y-111565102D02*
X180536971Y-111565102D01*
X181756018Y-111946055D02*
X181298875Y-111946055D01*
X181527447Y-111946055D02*
X181527447Y-111146055D01*
X181527447Y-111146055D02*
X181451256Y-111260340D01*
X181451256Y-111260340D02*
X181375066Y-111336531D01*
X181375066Y-111336531D02*
X181298875Y-111374626D01*
X182060780Y-111222245D02*
X182098876Y-111184150D01*
X182098876Y-111184150D02*
X182175066Y-111146055D01*
X182175066Y-111146055D02*
X182365542Y-111146055D01*
X182365542Y-111146055D02*
X182441733Y-111184150D01*
X182441733Y-111184150D02*
X182479828Y-111222245D01*
X182479828Y-111222245D02*
X182517923Y-111298436D01*
X182517923Y-111298436D02*
X182517923Y-111374626D01*
X182517923Y-111374626D02*
X182479828Y-111488912D01*
X182479828Y-111488912D02*
X182022685Y-111946055D01*
X182022685Y-111946055D02*
X182517923Y-111946055D01*
X180943314Y-124646055D02*
X180676647Y-124265102D01*
X180486171Y-124646055D02*
X180486171Y-123846055D01*
X180486171Y-123846055D02*
X180790933Y-123846055D01*
X180790933Y-123846055D02*
X180867123Y-123884150D01*
X180867123Y-123884150D02*
X180905218Y-123922245D01*
X180905218Y-123922245D02*
X180943314Y-123998436D01*
X180943314Y-123998436D02*
X180943314Y-124112721D01*
X180943314Y-124112721D02*
X180905218Y-124188912D01*
X180905218Y-124188912D02*
X180867123Y-124227007D01*
X180867123Y-124227007D02*
X180790933Y-124265102D01*
X180790933Y-124265102D02*
X180486171Y-124265102D01*
X181705218Y-124646055D02*
X181248075Y-124646055D01*
X181476647Y-124646055D02*
X181476647Y-123846055D01*
X181476647Y-123846055D02*
X181400456Y-123960340D01*
X181400456Y-123960340D02*
X181324266Y-124036531D01*
X181324266Y-124036531D02*
X181248075Y-124074626D01*
X182390933Y-124112721D02*
X182390933Y-124646055D01*
X182200457Y-123807960D02*
X182009980Y-124379388D01*
X182009980Y-124379388D02*
X182505219Y-124379388D01*
X181373167Y-127186055D02*
X181106500Y-126805102D01*
X180916024Y-127186055D02*
X180916024Y-126386055D01*
X180916024Y-126386055D02*
X181220786Y-126386055D01*
X181220786Y-126386055D02*
X181296976Y-126424150D01*
X181296976Y-126424150D02*
X181335071Y-126462245D01*
X181335071Y-126462245D02*
X181373167Y-126538436D01*
X181373167Y-126538436D02*
X181373167Y-126652721D01*
X181373167Y-126652721D02*
X181335071Y-126728912D01*
X181335071Y-126728912D02*
X181296976Y-126767007D01*
X181296976Y-126767007D02*
X181220786Y-126805102D01*
X181220786Y-126805102D02*
X180916024Y-126805102D01*
X181830309Y-126728912D02*
X181754119Y-126690817D01*
X181754119Y-126690817D02*
X181716024Y-126652721D01*
X181716024Y-126652721D02*
X181677928Y-126576531D01*
X181677928Y-126576531D02*
X181677928Y-126538436D01*
X181677928Y-126538436D02*
X181716024Y-126462245D01*
X181716024Y-126462245D02*
X181754119Y-126424150D01*
X181754119Y-126424150D02*
X181830309Y-126386055D01*
X181830309Y-126386055D02*
X181982690Y-126386055D01*
X181982690Y-126386055D02*
X182058881Y-126424150D01*
X182058881Y-126424150D02*
X182096976Y-126462245D01*
X182096976Y-126462245D02*
X182135071Y-126538436D01*
X182135071Y-126538436D02*
X182135071Y-126576531D01*
X182135071Y-126576531D02*
X182096976Y-126652721D01*
X182096976Y-126652721D02*
X182058881Y-126690817D01*
X182058881Y-126690817D02*
X181982690Y-126728912D01*
X181982690Y-126728912D02*
X181830309Y-126728912D01*
X181830309Y-126728912D02*
X181754119Y-126767007D01*
X181754119Y-126767007D02*
X181716024Y-126805102D01*
X181716024Y-126805102D02*
X181677928Y-126881293D01*
X181677928Y-126881293D02*
X181677928Y-127033674D01*
X181677928Y-127033674D02*
X181716024Y-127109864D01*
X181716024Y-127109864D02*
X181754119Y-127147960D01*
X181754119Y-127147960D02*
X181830309Y-127186055D01*
X181830309Y-127186055D02*
X181982690Y-127186055D01*
X181982690Y-127186055D02*
X182058881Y-127147960D01*
X182058881Y-127147960D02*
X182096976Y-127109864D01*
X182096976Y-127109864D02*
X182135071Y-127033674D01*
X182135071Y-127033674D02*
X182135071Y-126881293D01*
X182135071Y-126881293D02*
X182096976Y-126805102D01*
X182096976Y-126805102D02*
X182058881Y-126767007D01*
X182058881Y-126767007D02*
X181982690Y-126728912D01*
X163722114Y-128633864D02*
X163684018Y-128671960D01*
X163684018Y-128671960D02*
X163569733Y-128710055D01*
X163569733Y-128710055D02*
X163493542Y-128710055D01*
X163493542Y-128710055D02*
X163379256Y-128671960D01*
X163379256Y-128671960D02*
X163303066Y-128595769D01*
X163303066Y-128595769D02*
X163264971Y-128519579D01*
X163264971Y-128519579D02*
X163226875Y-128367198D01*
X163226875Y-128367198D02*
X163226875Y-128252912D01*
X163226875Y-128252912D02*
X163264971Y-128100531D01*
X163264971Y-128100531D02*
X163303066Y-128024340D01*
X163303066Y-128024340D02*
X163379256Y-127948150D01*
X163379256Y-127948150D02*
X163493542Y-127910055D01*
X163493542Y-127910055D02*
X163569733Y-127910055D01*
X163569733Y-127910055D02*
X163684018Y-127948150D01*
X163684018Y-127948150D02*
X163722114Y-127986245D01*
X164484018Y-128710055D02*
X164026875Y-128710055D01*
X164255447Y-128710055D02*
X164255447Y-127910055D01*
X164255447Y-127910055D02*
X164179256Y-128024340D01*
X164179256Y-128024340D02*
X164103066Y-128100531D01*
X164103066Y-128100531D02*
X164026875Y-128138626D01*
X165245923Y-128710055D02*
X164788780Y-128710055D01*
X165017352Y-128710055D02*
X165017352Y-127910055D01*
X165017352Y-127910055D02*
X164941161Y-128024340D01*
X164941161Y-128024340D02*
X164864971Y-128100531D01*
X164864971Y-128100531D02*
X164788780Y-128138626D01*
X163391867Y-113470055D02*
X163125200Y-113089102D01*
X162934724Y-113470055D02*
X162934724Y-112670055D01*
X162934724Y-112670055D02*
X163239486Y-112670055D01*
X163239486Y-112670055D02*
X163315676Y-112708150D01*
X163315676Y-112708150D02*
X163353771Y-112746245D01*
X163353771Y-112746245D02*
X163391867Y-112822436D01*
X163391867Y-112822436D02*
X163391867Y-112936721D01*
X163391867Y-112936721D02*
X163353771Y-113012912D01*
X163353771Y-113012912D02*
X163315676Y-113051007D01*
X163315676Y-113051007D02*
X163239486Y-113089102D01*
X163239486Y-113089102D02*
X162934724Y-113089102D01*
X164077581Y-112670055D02*
X163925200Y-112670055D01*
X163925200Y-112670055D02*
X163849009Y-112708150D01*
X163849009Y-112708150D02*
X163810914Y-112746245D01*
X163810914Y-112746245D02*
X163734724Y-112860531D01*
X163734724Y-112860531D02*
X163696628Y-113012912D01*
X163696628Y-113012912D02*
X163696628Y-113317674D01*
X163696628Y-113317674D02*
X163734724Y-113393864D01*
X163734724Y-113393864D02*
X163772819Y-113431960D01*
X163772819Y-113431960D02*
X163849009Y-113470055D01*
X163849009Y-113470055D02*
X164001390Y-113470055D01*
X164001390Y-113470055D02*
X164077581Y-113431960D01*
X164077581Y-113431960D02*
X164115676Y-113393864D01*
X164115676Y-113393864D02*
X164153771Y-113317674D01*
X164153771Y-113317674D02*
X164153771Y-113127198D01*
X164153771Y-113127198D02*
X164115676Y-113051007D01*
X164115676Y-113051007D02*
X164077581Y-113012912D01*
X164077581Y-113012912D02*
X164001390Y-112974817D01*
X164001390Y-112974817D02*
X163849009Y-112974817D01*
X163849009Y-112974817D02*
X163772819Y-113012912D01*
X163772819Y-113012912D02*
X163734724Y-113051007D01*
X163734724Y-113051007D02*
X163696628Y-113127198D01*
X156914867Y-118778664D02*
X156876771Y-118816760D01*
X156876771Y-118816760D02*
X156762486Y-118854855D01*
X156762486Y-118854855D02*
X156686295Y-118854855D01*
X156686295Y-118854855D02*
X156572009Y-118816760D01*
X156572009Y-118816760D02*
X156495819Y-118740569D01*
X156495819Y-118740569D02*
X156457724Y-118664379D01*
X156457724Y-118664379D02*
X156419628Y-118511998D01*
X156419628Y-118511998D02*
X156419628Y-118397712D01*
X156419628Y-118397712D02*
X156457724Y-118245331D01*
X156457724Y-118245331D02*
X156495819Y-118169140D01*
X156495819Y-118169140D02*
X156572009Y-118092950D01*
X156572009Y-118092950D02*
X156686295Y-118054855D01*
X156686295Y-118054855D02*
X156762486Y-118054855D01*
X156762486Y-118054855D02*
X156876771Y-118092950D01*
X156876771Y-118092950D02*
X156914867Y-118131045D01*
X157181533Y-118054855D02*
X157714867Y-118054855D01*
X157714867Y-118054855D02*
X157372009Y-118854855D01*
X156533914Y-124036464D02*
X156495818Y-124074560D01*
X156495818Y-124074560D02*
X156381533Y-124112655D01*
X156381533Y-124112655D02*
X156305342Y-124112655D01*
X156305342Y-124112655D02*
X156191056Y-124074560D01*
X156191056Y-124074560D02*
X156114866Y-123998369D01*
X156114866Y-123998369D02*
X156076771Y-123922179D01*
X156076771Y-123922179D02*
X156038675Y-123769798D01*
X156038675Y-123769798D02*
X156038675Y-123655512D01*
X156038675Y-123655512D02*
X156076771Y-123503131D01*
X156076771Y-123503131D02*
X156114866Y-123426940D01*
X156114866Y-123426940D02*
X156191056Y-123350750D01*
X156191056Y-123350750D02*
X156305342Y-123312655D01*
X156305342Y-123312655D02*
X156381533Y-123312655D01*
X156381533Y-123312655D02*
X156495818Y-123350750D01*
X156495818Y-123350750D02*
X156533914Y-123388845D01*
X157295818Y-124112655D02*
X156838675Y-124112655D01*
X157067247Y-124112655D02*
X157067247Y-123312655D01*
X157067247Y-123312655D02*
X156991056Y-123426940D01*
X156991056Y-123426940D02*
X156914866Y-123503131D01*
X156914866Y-123503131D02*
X156838675Y-123541226D01*
X157981533Y-123579321D02*
X157981533Y-124112655D01*
X157791057Y-123274560D02*
X157600580Y-123845988D01*
X157600580Y-123845988D02*
X158095819Y-123845988D01*
X141439933Y-133320255D02*
X141439933Y-133891683D01*
X141439933Y-133891683D02*
X141401838Y-134005969D01*
X141401838Y-134005969D02*
X141325647Y-134082160D01*
X141325647Y-134082160D02*
X141211362Y-134120255D01*
X141211362Y-134120255D02*
X141135171Y-134120255D01*
X142239933Y-134120255D02*
X141782790Y-134120255D01*
X142011362Y-134120255D02*
X142011362Y-133320255D01*
X142011362Y-133320255D02*
X141935171Y-133434540D01*
X141935171Y-133434540D02*
X141858981Y-133510731D01*
X141858981Y-133510731D02*
X141782790Y-133548826D01*
X178428667Y-134298055D02*
X178162000Y-133917102D01*
X177971524Y-134298055D02*
X177971524Y-133498055D01*
X177971524Y-133498055D02*
X178276286Y-133498055D01*
X178276286Y-133498055D02*
X178352476Y-133536150D01*
X178352476Y-133536150D02*
X178390571Y-133574245D01*
X178390571Y-133574245D02*
X178428667Y-133650436D01*
X178428667Y-133650436D02*
X178428667Y-133764721D01*
X178428667Y-133764721D02*
X178390571Y-133840912D01*
X178390571Y-133840912D02*
X178352476Y-133879007D01*
X178352476Y-133879007D02*
X178276286Y-133917102D01*
X178276286Y-133917102D02*
X177971524Y-133917102D01*
X179114381Y-133764721D02*
X179114381Y-134298055D01*
X178923905Y-133459960D02*
X178733428Y-134031388D01*
X178733428Y-134031388D02*
X179228667Y-134031388D01*
X151707867Y-127211464D02*
X151669771Y-127249560D01*
X151669771Y-127249560D02*
X151555486Y-127287655D01*
X151555486Y-127287655D02*
X151479295Y-127287655D01*
X151479295Y-127287655D02*
X151365009Y-127249560D01*
X151365009Y-127249560D02*
X151288819Y-127173369D01*
X151288819Y-127173369D02*
X151250724Y-127097179D01*
X151250724Y-127097179D02*
X151212628Y-126944798D01*
X151212628Y-126944798D02*
X151212628Y-126830512D01*
X151212628Y-126830512D02*
X151250724Y-126678131D01*
X151250724Y-126678131D02*
X151288819Y-126601940D01*
X151288819Y-126601940D02*
X151365009Y-126525750D01*
X151365009Y-126525750D02*
X151479295Y-126487655D01*
X151479295Y-126487655D02*
X151555486Y-126487655D01*
X151555486Y-126487655D02*
X151669771Y-126525750D01*
X151669771Y-126525750D02*
X151707867Y-126563845D01*
X152393581Y-126754321D02*
X152393581Y-127287655D01*
X152203105Y-126449560D02*
X152012628Y-127020988D01*
X152012628Y-127020988D02*
X152507867Y-127020988D01*
X151707914Y-123782455D02*
X151441247Y-123401502D01*
X151250771Y-123782455D02*
X151250771Y-122982455D01*
X151250771Y-122982455D02*
X151555533Y-122982455D01*
X151555533Y-122982455D02*
X151631723Y-123020550D01*
X151631723Y-123020550D02*
X151669818Y-123058645D01*
X151669818Y-123058645D02*
X151707914Y-123134836D01*
X151707914Y-123134836D02*
X151707914Y-123249121D01*
X151707914Y-123249121D02*
X151669818Y-123325312D01*
X151669818Y-123325312D02*
X151631723Y-123363407D01*
X151631723Y-123363407D02*
X151555533Y-123401502D01*
X151555533Y-123401502D02*
X151250771Y-123401502D01*
X152469818Y-123782455D02*
X152012675Y-123782455D01*
X152241247Y-123782455D02*
X152241247Y-122982455D01*
X152241247Y-122982455D02*
X152165056Y-123096740D01*
X152165056Y-123096740D02*
X152088866Y-123172931D01*
X152088866Y-123172931D02*
X152012675Y-123211026D01*
X152850771Y-123782455D02*
X153003152Y-123782455D01*
X153003152Y-123782455D02*
X153079342Y-123744360D01*
X153079342Y-123744360D02*
X153117438Y-123706264D01*
X153117438Y-123706264D02*
X153193628Y-123591979D01*
X153193628Y-123591979D02*
X153231723Y-123439598D01*
X153231723Y-123439598D02*
X153231723Y-123134836D01*
X153231723Y-123134836D02*
X153193628Y-123058645D01*
X153193628Y-123058645D02*
X153155533Y-123020550D01*
X153155533Y-123020550D02*
X153079342Y-122982455D01*
X153079342Y-122982455D02*
X152926961Y-122982455D01*
X152926961Y-122982455D02*
X152850771Y-123020550D01*
X152850771Y-123020550D02*
X152812676Y-123058645D01*
X152812676Y-123058645D02*
X152774580Y-123134836D01*
X152774580Y-123134836D02*
X152774580Y-123325312D01*
X152774580Y-123325312D02*
X152812676Y-123401502D01*
X152812676Y-123401502D02*
X152850771Y-123439598D01*
X152850771Y-123439598D02*
X152926961Y-123477693D01*
X152926961Y-123477693D02*
X153079342Y-123477693D01*
X153079342Y-123477693D02*
X153155533Y-123439598D01*
X153155533Y-123439598D02*
X153193628Y-123401502D01*
X153193628Y-123401502D02*
X153231723Y-123325312D01*
X180943314Y-122106055D02*
X180676647Y-121725102D01*
X180486171Y-122106055D02*
X180486171Y-121306055D01*
X180486171Y-121306055D02*
X180790933Y-121306055D01*
X180790933Y-121306055D02*
X180867123Y-121344150D01*
X180867123Y-121344150D02*
X180905218Y-121382245D01*
X180905218Y-121382245D02*
X180943314Y-121458436D01*
X180943314Y-121458436D02*
X180943314Y-121572721D01*
X180943314Y-121572721D02*
X180905218Y-121648912D01*
X180905218Y-121648912D02*
X180867123Y-121687007D01*
X180867123Y-121687007D02*
X180790933Y-121725102D01*
X180790933Y-121725102D02*
X180486171Y-121725102D01*
X181705218Y-122106055D02*
X181248075Y-122106055D01*
X181476647Y-122106055D02*
X181476647Y-121306055D01*
X181476647Y-121306055D02*
X181400456Y-121420340D01*
X181400456Y-121420340D02*
X181324266Y-121496531D01*
X181324266Y-121496531D02*
X181248075Y-121534626D01*
X182200457Y-121306055D02*
X182276647Y-121306055D01*
X182276647Y-121306055D02*
X182352838Y-121344150D01*
X182352838Y-121344150D02*
X182390933Y-121382245D01*
X182390933Y-121382245D02*
X182429028Y-121458436D01*
X182429028Y-121458436D02*
X182467123Y-121610817D01*
X182467123Y-121610817D02*
X182467123Y-121801293D01*
X182467123Y-121801293D02*
X182429028Y-121953674D01*
X182429028Y-121953674D02*
X182390933Y-122029864D01*
X182390933Y-122029864D02*
X182352838Y-122067960D01*
X182352838Y-122067960D02*
X182276647Y-122106055D01*
X182276647Y-122106055D02*
X182200457Y-122106055D01*
X182200457Y-122106055D02*
X182124266Y-122067960D01*
X182124266Y-122067960D02*
X182086171Y-122029864D01*
X182086171Y-122029864D02*
X182048076Y-121953674D01*
X182048076Y-121953674D02*
X182009980Y-121801293D01*
X182009980Y-121801293D02*
X182009980Y-121610817D01*
X182009980Y-121610817D02*
X182048076Y-121458436D01*
X182048076Y-121458436D02*
X182086171Y-121382245D01*
X182086171Y-121382245D02*
X182124266Y-121344150D01*
X182124266Y-121344150D02*
X182200457Y-121306055D01*
X180943314Y-109406055D02*
X180676647Y-109025102D01*
X180486171Y-109406055D02*
X180486171Y-108606055D01*
X180486171Y-108606055D02*
X180790933Y-108606055D01*
X180790933Y-108606055D02*
X180867123Y-108644150D01*
X180867123Y-108644150D02*
X180905218Y-108682245D01*
X180905218Y-108682245D02*
X180943314Y-108758436D01*
X180943314Y-108758436D02*
X180943314Y-108872721D01*
X180943314Y-108872721D02*
X180905218Y-108948912D01*
X180905218Y-108948912D02*
X180867123Y-108987007D01*
X180867123Y-108987007D02*
X180790933Y-109025102D01*
X180790933Y-109025102D02*
X180486171Y-109025102D01*
X181705218Y-109406055D02*
X181248075Y-109406055D01*
X181476647Y-109406055D02*
X181476647Y-108606055D01*
X181476647Y-108606055D02*
X181400456Y-108720340D01*
X181400456Y-108720340D02*
X181324266Y-108796531D01*
X181324266Y-108796531D02*
X181248075Y-108834626D01*
X182467123Y-109406055D02*
X182009980Y-109406055D01*
X182238552Y-109406055D02*
X182238552Y-108606055D01*
X182238552Y-108606055D02*
X182162361Y-108720340D01*
X182162361Y-108720340D02*
X182086171Y-108796531D01*
X182086171Y-108796531D02*
X182009980Y-108834626D01*
X146780324Y-117000655D02*
X146780324Y-116200655D01*
X146780324Y-116200655D02*
X146970800Y-116200655D01*
X146970800Y-116200655D02*
X147085086Y-116238750D01*
X147085086Y-116238750D02*
X147161276Y-116314940D01*
X147161276Y-116314940D02*
X147199371Y-116391131D01*
X147199371Y-116391131D02*
X147237467Y-116543512D01*
X147237467Y-116543512D02*
X147237467Y-116657798D01*
X147237467Y-116657798D02*
X147199371Y-116810179D01*
X147199371Y-116810179D02*
X147161276Y-116886369D01*
X147161276Y-116886369D02*
X147085086Y-116962560D01*
X147085086Y-116962560D02*
X146970800Y-117000655D01*
X146970800Y-117000655D02*
X146780324Y-117000655D01*
X147999371Y-117000655D02*
X147542228Y-117000655D01*
X147770800Y-117000655D02*
X147770800Y-116200655D01*
X147770800Y-116200655D02*
X147694609Y-116314940D01*
X147694609Y-116314940D02*
X147618419Y-116391131D01*
X147618419Y-116391131D02*
X147542228Y-116429226D01*
X156914867Y-120531264D02*
X156876771Y-120569360D01*
X156876771Y-120569360D02*
X156762486Y-120607455D01*
X156762486Y-120607455D02*
X156686295Y-120607455D01*
X156686295Y-120607455D02*
X156572009Y-120569360D01*
X156572009Y-120569360D02*
X156495819Y-120493169D01*
X156495819Y-120493169D02*
X156457724Y-120416979D01*
X156457724Y-120416979D02*
X156419628Y-120264598D01*
X156419628Y-120264598D02*
X156419628Y-120150312D01*
X156419628Y-120150312D02*
X156457724Y-119997931D01*
X156457724Y-119997931D02*
X156495819Y-119921740D01*
X156495819Y-119921740D02*
X156572009Y-119845550D01*
X156572009Y-119845550D02*
X156686295Y-119807455D01*
X156686295Y-119807455D02*
X156762486Y-119807455D01*
X156762486Y-119807455D02*
X156876771Y-119845550D01*
X156876771Y-119845550D02*
X156914867Y-119883645D01*
X157372009Y-120150312D02*
X157295819Y-120112217D01*
X157295819Y-120112217D02*
X157257724Y-120074121D01*
X157257724Y-120074121D02*
X157219628Y-119997931D01*
X157219628Y-119997931D02*
X157219628Y-119959836D01*
X157219628Y-119959836D02*
X157257724Y-119883645D01*
X157257724Y-119883645D02*
X157295819Y-119845550D01*
X157295819Y-119845550D02*
X157372009Y-119807455D01*
X157372009Y-119807455D02*
X157524390Y-119807455D01*
X157524390Y-119807455D02*
X157600581Y-119845550D01*
X157600581Y-119845550D02*
X157638676Y-119883645D01*
X157638676Y-119883645D02*
X157676771Y-119959836D01*
X157676771Y-119959836D02*
X157676771Y-119997931D01*
X157676771Y-119997931D02*
X157638676Y-120074121D01*
X157638676Y-120074121D02*
X157600581Y-120112217D01*
X157600581Y-120112217D02*
X157524390Y-120150312D01*
X157524390Y-120150312D02*
X157372009Y-120150312D01*
X157372009Y-120150312D02*
X157295819Y-120188407D01*
X157295819Y-120188407D02*
X157257724Y-120226502D01*
X157257724Y-120226502D02*
X157219628Y-120302693D01*
X157219628Y-120302693D02*
X157219628Y-120455074D01*
X157219628Y-120455074D02*
X157257724Y-120531264D01*
X157257724Y-120531264D02*
X157295819Y-120569360D01*
X157295819Y-120569360D02*
X157372009Y-120607455D01*
X157372009Y-120607455D02*
X157524390Y-120607455D01*
X157524390Y-120607455D02*
X157600581Y-120569360D01*
X157600581Y-120569360D02*
X157638676Y-120531264D01*
X157638676Y-120531264D02*
X157676771Y-120455074D01*
X157676771Y-120455074D02*
X157676771Y-120302693D01*
X157676771Y-120302693D02*
X157638676Y-120226502D01*
X157638676Y-120226502D02*
X157600581Y-120188407D01*
X157600581Y-120188407D02*
X157524390Y-120150312D01*
D12*
X175172810Y-127302419D02*
X175172810Y-126302419D01*
X176220428Y-127207180D02*
X176172809Y-127254800D01*
X176172809Y-127254800D02*
X176029952Y-127302419D01*
X176029952Y-127302419D02*
X175934714Y-127302419D01*
X175934714Y-127302419D02*
X175791857Y-127254800D01*
X175791857Y-127254800D02*
X175696619Y-127159561D01*
X175696619Y-127159561D02*
X175649000Y-127064323D01*
X175649000Y-127064323D02*
X175601381Y-126873847D01*
X175601381Y-126873847D02*
X175601381Y-126730990D01*
X175601381Y-126730990D02*
X175649000Y-126540514D01*
X175649000Y-126540514D02*
X175696619Y-126445276D01*
X175696619Y-126445276D02*
X175791857Y-126350038D01*
X175791857Y-126350038D02*
X175934714Y-126302419D01*
X175934714Y-126302419D02*
X176029952Y-126302419D01*
X176029952Y-126302419D02*
X176172809Y-126350038D01*
X176172809Y-126350038D02*
X176220428Y-126397657D01*
X177172809Y-127302419D02*
X176601381Y-127302419D01*
X176887095Y-127302419D02*
X176887095Y-126302419D01*
X176887095Y-126302419D02*
X176791857Y-126445276D01*
X176791857Y-126445276D02*
X176696619Y-126540514D01*
X176696619Y-126540514D02*
X176601381Y-126588133D01*
D10*
X177463467Y-132774064D02*
X177425371Y-132812160D01*
X177425371Y-132812160D02*
X177311086Y-132850255D01*
X177311086Y-132850255D02*
X177234895Y-132850255D01*
X177234895Y-132850255D02*
X177120609Y-132812160D01*
X177120609Y-132812160D02*
X177044419Y-132735969D01*
X177044419Y-132735969D02*
X177006324Y-132659779D01*
X177006324Y-132659779D02*
X176968228Y-132507398D01*
X176968228Y-132507398D02*
X176968228Y-132393112D01*
X176968228Y-132393112D02*
X177006324Y-132240731D01*
X177006324Y-132240731D02*
X177044419Y-132164540D01*
X177044419Y-132164540D02*
X177120609Y-132088350D01*
X177120609Y-132088350D02*
X177234895Y-132050255D01*
X177234895Y-132050255D02*
X177311086Y-132050255D01*
X177311086Y-132050255D02*
X177425371Y-132088350D01*
X177425371Y-132088350D02*
X177463467Y-132126445D01*
X178149181Y-132050255D02*
X177996800Y-132050255D01*
X177996800Y-132050255D02*
X177920609Y-132088350D01*
X177920609Y-132088350D02*
X177882514Y-132126445D01*
X177882514Y-132126445D02*
X177806324Y-132240731D01*
X177806324Y-132240731D02*
X177768228Y-132393112D01*
X177768228Y-132393112D02*
X177768228Y-132697874D01*
X177768228Y-132697874D02*
X177806324Y-132774064D01*
X177806324Y-132774064D02*
X177844419Y-132812160D01*
X177844419Y-132812160D02*
X177920609Y-132850255D01*
X177920609Y-132850255D02*
X178072990Y-132850255D01*
X178072990Y-132850255D02*
X178149181Y-132812160D01*
X178149181Y-132812160D02*
X178187276Y-132774064D01*
X178187276Y-132774064D02*
X178225371Y-132697874D01*
X178225371Y-132697874D02*
X178225371Y-132507398D01*
X178225371Y-132507398D02*
X178187276Y-132431207D01*
X178187276Y-132431207D02*
X178149181Y-132393112D01*
X178149181Y-132393112D02*
X178072990Y-132355017D01*
X178072990Y-132355017D02*
X177920609Y-132355017D01*
X177920609Y-132355017D02*
X177844419Y-132393112D01*
X177844419Y-132393112D02*
X177806324Y-132431207D01*
X177806324Y-132431207D02*
X177768228Y-132507398D01*
X156914867Y-125865255D02*
X156648200Y-125484302D01*
X156457724Y-125865255D02*
X156457724Y-125065255D01*
X156457724Y-125065255D02*
X156762486Y-125065255D01*
X156762486Y-125065255D02*
X156838676Y-125103350D01*
X156838676Y-125103350D02*
X156876771Y-125141445D01*
X156876771Y-125141445D02*
X156914867Y-125217636D01*
X156914867Y-125217636D02*
X156914867Y-125331921D01*
X156914867Y-125331921D02*
X156876771Y-125408112D01*
X156876771Y-125408112D02*
X156838676Y-125446207D01*
X156838676Y-125446207D02*
X156762486Y-125484302D01*
X156762486Y-125484302D02*
X156457724Y-125484302D01*
X157181533Y-125065255D02*
X157714867Y-125065255D01*
X157714867Y-125065255D02*
X157372009Y-125865255D01*
X147593124Y-113139855D02*
X147593124Y-112339855D01*
X147593124Y-112339855D02*
X147783600Y-112339855D01*
X147783600Y-112339855D02*
X147897886Y-112377950D01*
X147897886Y-112377950D02*
X147974076Y-112454140D01*
X147974076Y-112454140D02*
X148012171Y-112530331D01*
X148012171Y-112530331D02*
X148050267Y-112682712D01*
X148050267Y-112682712D02*
X148050267Y-112796998D01*
X148050267Y-112796998D02*
X148012171Y-112949379D01*
X148012171Y-112949379D02*
X147974076Y-113025569D01*
X147974076Y-113025569D02*
X147897886Y-113101760D01*
X147897886Y-113101760D02*
X147783600Y-113139855D01*
X147783600Y-113139855D02*
X147593124Y-113139855D01*
X148355028Y-112416045D02*
X148393124Y-112377950D01*
X148393124Y-112377950D02*
X148469314Y-112339855D01*
X148469314Y-112339855D02*
X148659790Y-112339855D01*
X148659790Y-112339855D02*
X148735981Y-112377950D01*
X148735981Y-112377950D02*
X148774076Y-112416045D01*
X148774076Y-112416045D02*
X148812171Y-112492236D01*
X148812171Y-112492236D02*
X148812171Y-112568426D01*
X148812171Y-112568426D02*
X148774076Y-112682712D01*
X148774076Y-112682712D02*
X148316933Y-113139855D01*
X148316933Y-113139855D02*
X148812171Y-113139855D01*
X151707867Y-132088255D02*
X151441200Y-131707302D01*
X151250724Y-132088255D02*
X151250724Y-131288255D01*
X151250724Y-131288255D02*
X151555486Y-131288255D01*
X151555486Y-131288255D02*
X151631676Y-131326350D01*
X151631676Y-131326350D02*
X151669771Y-131364445D01*
X151669771Y-131364445D02*
X151707867Y-131440636D01*
X151707867Y-131440636D02*
X151707867Y-131554921D01*
X151707867Y-131554921D02*
X151669771Y-131631112D01*
X151669771Y-131631112D02*
X151631676Y-131669207D01*
X151631676Y-131669207D02*
X151555486Y-131707302D01*
X151555486Y-131707302D02*
X151250724Y-131707302D01*
X152012628Y-131364445D02*
X152050724Y-131326350D01*
X152050724Y-131326350D02*
X152126914Y-131288255D01*
X152126914Y-131288255D02*
X152317390Y-131288255D01*
X152317390Y-131288255D02*
X152393581Y-131326350D01*
X152393581Y-131326350D02*
X152431676Y-131364445D01*
X152431676Y-131364445D02*
X152469771Y-131440636D01*
X152469771Y-131440636D02*
X152469771Y-131516826D01*
X152469771Y-131516826D02*
X152431676Y-131631112D01*
X152431676Y-131631112D02*
X151974533Y-132088255D01*
X151974533Y-132088255D02*
X152469771Y-132088255D01*
X173863009Y-132850245D02*
X173786819Y-132812150D01*
X173786819Y-132812150D02*
X173710628Y-132735960D01*
X173710628Y-132735960D02*
X173596342Y-132621674D01*
X173596342Y-132621674D02*
X173520152Y-132583579D01*
X173520152Y-132583579D02*
X173443961Y-132583579D01*
X173482057Y-132774055D02*
X173405866Y-132735960D01*
X173405866Y-132735960D02*
X173329676Y-132659769D01*
X173329676Y-132659769D02*
X173291580Y-132507388D01*
X173291580Y-132507388D02*
X173291580Y-132240721D01*
X173291580Y-132240721D02*
X173329676Y-132088340D01*
X173329676Y-132088340D02*
X173405866Y-132012150D01*
X173405866Y-132012150D02*
X173482057Y-131974055D01*
X173482057Y-131974055D02*
X173634438Y-131974055D01*
X173634438Y-131974055D02*
X173710628Y-132012150D01*
X173710628Y-132012150D02*
X173786819Y-132088340D01*
X173786819Y-132088340D02*
X173824914Y-132240721D01*
X173824914Y-132240721D02*
X173824914Y-132507388D01*
X173824914Y-132507388D02*
X173786819Y-132659769D01*
X173786819Y-132659769D02*
X173710628Y-132735960D01*
X173710628Y-132735960D02*
X173634438Y-132774055D01*
X173634438Y-132774055D02*
X173482057Y-132774055D01*
X174586818Y-132774055D02*
X174129675Y-132774055D01*
X174358247Y-132774055D02*
X174358247Y-131974055D01*
X174358247Y-131974055D02*
X174282056Y-132088340D01*
X174282056Y-132088340D02*
X174205866Y-132164531D01*
X174205866Y-132164531D02*
X174129675Y-132202626D01*
X148228067Y-107780464D02*
X148189971Y-107818560D01*
X148189971Y-107818560D02*
X148075686Y-107856655D01*
X148075686Y-107856655D02*
X147999495Y-107856655D01*
X147999495Y-107856655D02*
X147885209Y-107818560D01*
X147885209Y-107818560D02*
X147809019Y-107742369D01*
X147809019Y-107742369D02*
X147770924Y-107666179D01*
X147770924Y-107666179D02*
X147732828Y-107513798D01*
X147732828Y-107513798D02*
X147732828Y-107399512D01*
X147732828Y-107399512D02*
X147770924Y-107247131D01*
X147770924Y-107247131D02*
X147809019Y-107170940D01*
X147809019Y-107170940D02*
X147885209Y-107094750D01*
X147885209Y-107094750D02*
X147999495Y-107056655D01*
X147999495Y-107056655D02*
X148075686Y-107056655D01*
X148075686Y-107056655D02*
X148189971Y-107094750D01*
X148189971Y-107094750D02*
X148228067Y-107132845D01*
X148989971Y-107856655D02*
X148532828Y-107856655D01*
X148761400Y-107856655D02*
X148761400Y-107056655D01*
X148761400Y-107056655D02*
X148685209Y-107170940D01*
X148685209Y-107170940D02*
X148609019Y-107247131D01*
X148609019Y-107247131D02*
X148532828Y-107285226D01*
X172027914Y-113393864D02*
X171989818Y-113431960D01*
X171989818Y-113431960D02*
X171875533Y-113470055D01*
X171875533Y-113470055D02*
X171799342Y-113470055D01*
X171799342Y-113470055D02*
X171685056Y-113431960D01*
X171685056Y-113431960D02*
X171608866Y-113355769D01*
X171608866Y-113355769D02*
X171570771Y-113279579D01*
X171570771Y-113279579D02*
X171532675Y-113127198D01*
X171532675Y-113127198D02*
X171532675Y-113012912D01*
X171532675Y-113012912D02*
X171570771Y-112860531D01*
X171570771Y-112860531D02*
X171608866Y-112784340D01*
X171608866Y-112784340D02*
X171685056Y-112708150D01*
X171685056Y-112708150D02*
X171799342Y-112670055D01*
X171799342Y-112670055D02*
X171875533Y-112670055D01*
X171875533Y-112670055D02*
X171989818Y-112708150D01*
X171989818Y-112708150D02*
X172027914Y-112746245D01*
X172789818Y-113470055D02*
X172332675Y-113470055D01*
X172561247Y-113470055D02*
X172561247Y-112670055D01*
X172561247Y-112670055D02*
X172485056Y-112784340D01*
X172485056Y-112784340D02*
X172408866Y-112860531D01*
X172408866Y-112860531D02*
X172332675Y-112898626D01*
X173056485Y-112670055D02*
X173551723Y-112670055D01*
X173551723Y-112670055D02*
X173285057Y-112974817D01*
X173285057Y-112974817D02*
X173399342Y-112974817D01*
X173399342Y-112974817D02*
X173475533Y-113012912D01*
X173475533Y-113012912D02*
X173513628Y-113051007D01*
X173513628Y-113051007D02*
X173551723Y-113127198D01*
X173551723Y-113127198D02*
X173551723Y-113317674D01*
X173551723Y-113317674D02*
X173513628Y-113393864D01*
X173513628Y-113393864D02*
X173475533Y-113431960D01*
X173475533Y-113431960D02*
X173399342Y-113470055D01*
X173399342Y-113470055D02*
X173170771Y-113470055D01*
X173170771Y-113470055D02*
X173094580Y-113431960D01*
X173094580Y-113431960D02*
X173056485Y-113393864D01*
%TO.C,R18*%
X149632124Y-124648700D02*
X149122676Y-124648700D01*
X149632124Y-125693700D02*
X149122676Y-125693700D01*
%TO.C,R9*%
X181712324Y-132548100D02*
X181202876Y-132548100D01*
X181712324Y-133593100D02*
X181202876Y-133593100D01*
%TO.C,C10*%
X177112200Y-120681533D02*
X177112200Y-120974067D01*
X178132200Y-120681533D02*
X178132200Y-120974067D01*
%TO.C,R1*%
X149622724Y-132954500D02*
X149113276Y-132954500D01*
X149622724Y-133999500D02*
X149113276Y-133999500D01*
%TO.C,U2*%
X155614600Y-127615000D02*
X153664600Y-127615000D01*
X155614600Y-127615000D02*
X157564600Y-127615000D01*
X155614600Y-132735000D02*
X153664600Y-132735000D01*
X155614600Y-132735000D02*
X157564600Y-132735000D01*
X158554600Y-132970000D02*
X158074600Y-132970000D01*
X158314600Y-132640000D01*
X158554600Y-132970000D01*
G36*
X158554600Y-132970000D02*
G01*
X158074600Y-132970000D01*
X158314600Y-132640000D01*
X158554600Y-132970000D01*
G37*
%TO.C,R16*%
X181202876Y-119848100D02*
X181712324Y-119848100D01*
X181202876Y-120893100D02*
X181712324Y-120893100D01*
%TO.C,R15*%
X181202876Y-130008100D02*
X181712324Y-130008100D01*
X181202876Y-131053100D02*
X181712324Y-131053100D01*
%TO.C,J2*%
X187214200Y-110125200D02*
X188544200Y-110125200D01*
X187214200Y-111455200D02*
X187214200Y-110125200D01*
X187214200Y-112725200D02*
X187214200Y-133105200D01*
X187214200Y-112725200D02*
X189874200Y-112725200D01*
X187214200Y-133105200D02*
X189874200Y-133105200D01*
X189874200Y-112725200D02*
X189874200Y-133105200D01*
%TO.C,C12*%
X160068267Y-116228400D02*
X159775733Y-116228400D01*
X160068267Y-117248400D02*
X159775733Y-117248400D01*
%TO.C,R5*%
X172131424Y-133411700D02*
X171621976Y-133411700D01*
X172131424Y-134456700D02*
X171621976Y-134456700D01*
%TO.C,C5*%
X169771600Y-129876333D02*
X169771600Y-130168867D01*
X170791600Y-129876333D02*
X170791600Y-130168867D01*
%TO.C,J3*%
X167468000Y-108822800D02*
X167468000Y-107492800D01*
X168798000Y-108822800D02*
X167468000Y-108822800D01*
X170068000Y-106162800D02*
X175208000Y-106162800D01*
X170068000Y-108822800D02*
X170068000Y-106162800D01*
X170068000Y-108822800D02*
X175208000Y-108822800D01*
X175208000Y-108822800D02*
X175208000Y-106162800D01*
%TO.C,C3*%
X159687800Y-130028733D02*
X159687800Y-130321267D01*
X160707800Y-130028733D02*
X160707800Y-130321267D01*
%TO.C,R17*%
X181202876Y-117308100D02*
X181712324Y-117308100D01*
X181202876Y-118353100D02*
X181712324Y-118353100D01*
%TO.C,C2*%
X149513800Y-117489800D02*
X150013800Y-117489800D01*
X149763800Y-117239800D02*
X149763800Y-117739800D01*
X150253800Y-117854237D02*
X150253800Y-117989800D01*
X150253800Y-117854237D02*
X151318237Y-116789800D01*
X150253800Y-120245363D02*
X150253800Y-120109800D01*
X150253800Y-120245363D02*
X151318237Y-121309800D01*
X151318237Y-116789800D02*
X154773800Y-116789800D01*
X151318237Y-121309800D02*
X154773800Y-121309800D01*
X154773800Y-116789800D02*
X154773800Y-117989800D01*
X154773800Y-121309800D02*
X154773800Y-120109800D01*
D11*
%TO.C,U1*%
X149688800Y-108935000D02*
X149688800Y-108935000D01*
X149788800Y-108935000D02*
X149788800Y-108935000D01*
X149688800Y-108935000D02*
G75*
G02*
X149788800Y-108935000I50000J0D01*
G01*
X149788800Y-108935000D02*
G75*
G02*
X149688800Y-108935000I-50000J0D01*
G01*
D10*
%TO.C,R13*%
X181202876Y-114768100D02*
X181712324Y-114768100D01*
X181202876Y-115813100D02*
X181712324Y-115813100D01*
%TO.C,R3*%
X149113276Y-128153900D02*
X149622724Y-128153900D01*
X149113276Y-129198900D02*
X149622724Y-129198900D01*
%TO.C,C9*%
X160068267Y-121486200D02*
X159775733Y-121486200D01*
X160068267Y-122506200D02*
X159775733Y-122506200D01*
%TO.C,R12*%
X181202876Y-112228100D02*
X181712324Y-112228100D01*
X181202876Y-113273100D02*
X181712324Y-113273100D01*
%TO.C,R14*%
X181202876Y-124928100D02*
X181712324Y-124928100D01*
X181202876Y-125973100D02*
X181712324Y-125973100D01*
%TO.C,R8*%
X181712324Y-127468100D02*
X181202876Y-127468100D01*
X181712324Y-128513100D02*
X181202876Y-128513100D01*
%TO.C,C11*%
X167277167Y-127836200D02*
X166984633Y-127836200D01*
X167277167Y-128856200D02*
X166984633Y-128856200D01*
%TO.C,R6*%
X166347224Y-112583700D02*
X165837776Y-112583700D01*
X166347224Y-113628700D02*
X165837776Y-113628700D01*
%TO.C,C7*%
X160068267Y-117981000D02*
X159775733Y-117981000D01*
X160068267Y-119001000D02*
X159775733Y-119001000D01*
%TO.C,C14*%
X160068267Y-123238800D02*
X159775733Y-123238800D01*
X160068267Y-124258800D02*
X159775733Y-124258800D01*
%TO.C,J1*%
X140376600Y-117389600D02*
X141706600Y-117389600D01*
X140376600Y-118719600D02*
X140376600Y-117389600D01*
X140376600Y-119989600D02*
X140376600Y-132749600D01*
X140376600Y-119989600D02*
X143036600Y-119989600D01*
X140376600Y-132749600D02*
X143036600Y-132749600D01*
X143036600Y-119989600D02*
X143036600Y-132749600D01*
%TO.C,R4*%
X176256424Y-133411700D02*
X175746976Y-133411700D01*
X176256424Y-134456700D02*
X175746976Y-134456700D01*
%TO.C,C4*%
X149221733Y-126413800D02*
X149514267Y-126413800D01*
X149221733Y-127433800D02*
X149514267Y-127433800D01*
%TO.C,R19*%
X149122676Y-122896100D02*
X149632124Y-122896100D01*
X149122676Y-123941100D02*
X149632124Y-123941100D01*
%TO.C,R10*%
X181712324Y-122388100D02*
X181202876Y-122388100D01*
X181712324Y-123433100D02*
X181202876Y-123433100D01*
%TO.C,R11*%
X181202876Y-109688100D02*
X181712324Y-109688100D01*
X181202876Y-110733100D02*
X181712324Y-110733100D01*
%TO.C,D1*%
X140385800Y-113285000D02*
X140385800Y-116585000D01*
X140385800Y-113285000D02*
X145895800Y-113285000D01*
X140385800Y-116585000D02*
X145895800Y-116585000D01*
%TO.C,C8*%
X160068267Y-119733600D02*
X159775733Y-119733600D01*
X160068267Y-120753600D02*
X159775733Y-120753600D01*
D12*
%TO.C,IC1*%
X164814000Y-115591600D02*
X164814000Y-116266600D01*
X164814000Y-115591600D02*
X165489000Y-115591600D01*
X164814000Y-125941600D02*
X164814000Y-125266600D01*
X164814000Y-125941600D02*
X165489000Y-125941600D01*
X175164000Y-115591600D02*
X174549000Y-115591600D01*
X175164000Y-115591600D02*
X175164000Y-116266600D01*
X175164000Y-125941600D02*
X174489000Y-125941600D01*
X175164000Y-125941600D02*
X175164000Y-125266600D01*
D10*
X174999000Y-115246600D02*
X174529000Y-114906600D01*
X174999000Y-114566600D01*
X174999000Y-115246600D01*
G36*
X174999000Y-115246600D02*
G01*
X174529000Y-114906600D01*
X174999000Y-114566600D01*
X174999000Y-115246600D01*
G37*
%TO.C,C6*%
X177086800Y-130168867D02*
X177086800Y-129876333D01*
X178106800Y-130168867D02*
X178106800Y-129876333D01*
%TO.C,R7*%
X160176724Y-124978900D02*
X159667276Y-124978900D01*
X160176724Y-126023900D02*
X159667276Y-126023900D01*
%TO.C,D2*%
X140713300Y-108025000D02*
X140713300Y-108265000D01*
X140713300Y-108025000D02*
X142273300Y-108025000D01*
X141003300Y-112545000D02*
X142273300Y-112545000D01*
X140683300Y-112565000D02*
X140403300Y-112285000D01*
X140683300Y-112285000D01*
X140683300Y-112565000D01*
G36*
X140683300Y-112565000D02*
G01*
X140403300Y-112285000D01*
X140683300Y-112285000D01*
X140683300Y-112565000D01*
G37*
%TO.C,R2*%
X149622724Y-131201900D02*
X149113276Y-131201900D01*
X149622724Y-132246900D02*
X149113276Y-132246900D01*
D11*
%TO.C,Q1*%
X172332200Y-130112000D02*
X172332200Y-129912000D01*
X172732200Y-132012000D02*
X172732200Y-132012000D01*
X172832200Y-132012000D02*
X172832200Y-132012000D01*
X173732200Y-128762000D02*
X174132200Y-128762000D01*
X173732200Y-131262000D02*
X174132200Y-131262000D01*
X175532200Y-129912000D02*
X175532200Y-130112000D01*
X172732200Y-132012000D02*
G75*
G02*
X172832200Y-132012000I50000J0D01*
G01*
X172832200Y-132012000D02*
G75*
G02*
X172732200Y-132012000I-50000J0D01*
G01*
D10*
%TO.C,C1*%
X147851400Y-109651233D02*
X147851400Y-109943767D01*
X148871400Y-109651233D02*
X148871400Y-109943767D01*
%TO.C,C13*%
X169453133Y-112596200D02*
X169745667Y-112596200D01*
X169453133Y-113616200D02*
X169745667Y-113616200D01*
%TD*%
M02*
